<svg xmlns="http://www.w3.org/2000/svg" width="1024" height="1024"><path fill="#d4a953" d="m886 193 2.5.4 2.5.6 2 4a106 106 0 0 0 7 7c1.9 2 1.9 2 4 3v2h2l.8 1.6A48 48 0 0 0 915 225a140 140 0 0 1 4 10c1 3 1 3 1 6l2 1a94 94 0 0 1-6 63.8 23 23 0 0 0-2 8.2h-2l-4.6 6.4A62 62 0 0 1 889 340l-1 2-5.2 3-2.8 1.5-3 1.5-3 1.5a91 91 0 0 1-10.2 4l-3.7 1.3a89 89 0 0 1-30.1 3.5 98 98 0 0 1-44.7-12.6c-2.3-1-2.3-1-4.5 0-2 1.3-2 1.3-3.8 4.3h-2l-1 3c-3 1.7-3 1.7-6 3v2l-2.1 1.3a27 27 0 0 0-6 4.9L757 367h-2v2l-3.2 3q-5.3 4.4-10.3 9l-1.5 1.4-9.3 8.6-2.2 2.1-6.2 6-1.8 1.7C719 402 719 402 717 402v2h-2v5l-3-1-1.4 1.5C709 411 709 411 707 411l-.7 2.4c-1.3 2.6-1.3 2.6-3.2 3.5-2.4 1-2.4 1-3.5 4.1-1.9 3.6-3 3.8-6.6 5l-3 3h-2l-.9 2c-1.1 2-1.1 2-3.1 3l-2 3-3 2.7c-10.7 8.7-10.7 8.7-20 19-2 2.3-2 2.3-4.3 3.6a40 40 0 0 0-7.8 6.7l-2.6 2.6-2.3 2.4a53 53 0 0 1-7 6l2 12 .6 3q.6 4.5.4 9l2 1v3.6q0 5.7 1 11.4c1 6.4 1 10.8-1 17l-1 6.4a54 54 0 0 1-2.6 11.4A28 28 0 0 0 635 567l-3 1c-1.7 2.9-1.7 2.9-3.1 6.4l-1.6 3.5c-1.3 3-1.3 3-2.3 6.1h-2l-.7 2.1c-1.3 2.9-1.3 2.9-3.4 6-2.2 2.7-2.2 2.7-1.9 5.9l-2 1.1c-5 3.2-9 8.1-11 13.6l-1 2.3c-1.8.6-1.8.6-4 1-2.5 1.7-2.5 1.7-5 3.9l-2.7 2c-2.2 2-2.2 2-3.8 3.7-2 1.9-4.2 3-6.6 4.3-4.1 2.1-4.1 2.1-8.1 4.4a72 72 0 0 1-16.7 7c-4 1.2-4 1.2-7.1 3.7v-2l-3 2-3.1.5-2.9.5-1 2h-4.1l-2.2-.1c-2.8 0-2.8 0-5.7.6a128 128 0 0 1-96-25c-3-1.9-3-1.9-6.8-.9-3.4 1.5-4.2 2.4-6.2 5.4l-2.3 1.3c-3 1.9-5.3 4-7.8 6.3q-5.7 5.2-11.5 10l-10.5 8.6-2.1 1.9c-2 2.2-2.9 4.1-3.8 6.9l-2-1-1.7 1.8c-2.3 2.2-2.3 2.2-4.5 3.5-3.6 2.2-6.4 5-9.4 7.8q-7.9 7.4-16.3 14.1c-2.3 1.8-2.3 1.8-4.1 4.8l-5 3-5.7 5-2.9 2.7-4.4 4.3-2.4 2c-2.5 1.8-2.5 1.8-4 3.4-2.4 2.4-5.1 4.1-7.9 6-2 1.9-2 3-2.7 5.6l-7 3-4 4h-2v2l-8.6 6.7-2.4 2.3v7l2 1c.6 2.4.6 2.4 1 5.6l.6 3.3.4 3.1.6 3.8A92 92 0 0 1 270 834q-4.3 5.2-9 10l-1.7 2c-12 12.8-29.4 19.6-46.3 23l-2.9.6A93 93 0 0 1 139 850l-2.5-1.9a91 91 0 0 1-30.2-55.6 97 97 0 0 1 7.6-51.1q1.4-3.1 2.1-6.4h2l1-5h2l.6-2c1.8-4 4.4-6.6 7.3-9.6l1.7-1.8 6-6.3c1.4-1.3 1.4-1.3 3.4-1.3v-2c3-3.6 5.6-4.6 10-6l2-3 5-1 6.5-2.9c21-9.3 43.5-8.8 65-1q3.4 1.2 7.2 2l3.3.9 1 2 1.8-1c2.2-1 2.2-1 6.2-1a51 51 0 0 0 15-11v-2l2.7-1.2a36 36 0 0 0 8.2-6l2.6-2.4 2.5-2.4 6.3-5.5 4.7-4.5q4.5-4.5 10.3-7l1.7-1 .5-2 .5-2 4-2 1.3-2.4c2.3-3.5 5-4 8.7-5.6l3-5 6-3c3.6-2.7 6.5-5.3 9-9l5-3c2.8-2 4.7-3.4 6.4-6.4 1.8-2.9 3.3-4 6.1-5.8q7.5-5.1 14-11.6c2.5-2.2 2.5-2.2 4.8-3.8 2-1.3 2-1.3 2.4-4l.3-2.4 2 2 1.7-1.5 2.2-2 2.2-2c1.9-1.5 1.9-1.5 3.9-1.5v-2l4-3-1.2-3.6-.8-2.5-2.2-6.2a132 132 0 0 1 5-100 155 155 0 0 1 26-36.7c21.8-23 54.7-36.2 86-37.2 35-.7 66.4 9.4 92.8 32.6 3.2 2.8 3.2 2.8 7.1 4l2.3-.4h2q3.2-3.9 6-8l2.5-1c2.6-.7 2.6-.7 3.5-3 1-2 1-2 3.2-2.9a26 26 0 0 0 8-5.5l2.6-2.3c2-2 3.1-3.7 4.2-6.3h3l1-3 2.3-1.4c3-1.8 4.6-3.9 6.7-6.6h2v-2h2l1-3 4.3-2.9c2.8-1.7 4.6-3 6.7-5.6a19 19 0 0 1 5.9-5q6.8-4.6 12.6-10.2l1.9-1.7 1.8-1.7 1.5-1.5c1.5-1.5 1.5-1.5 2.3-4.4h3v-2l4.3-2.8q2.7-2 5-4.4l2.7-2.8h2v-2q2.6-2.4 5.4-4.4c1.8-1.8 2.2-3 2.6-5.6l2 2 2.4-2.9 1.4-1.6c1.3-1.5 1.3-1.5 2.2-3.5l3-1 1-3 4-1c4.7-3.1 9.3-6.4 10.9-12q.4-4 .1-8l-2-1v-4l-1-2.6c-1-2.4-1-2.4 0-5.4l-.4-5c-1.6-15.7-1.6-15.7.4-23l2-1-1-7 3-1c1-2.5 1-2.5 1.8-5.4l.7-3c.8-2.6.8-2.6-.5-4.6l4.6-4.4c2.3-2.5 2.8-3.4 3.4-6.6l2-2q4.4-4.6 7.8-10c3-4.2 7-7 11.2-10l-1-2 2-.2c4-1 7-3.1 10-5.8l1-2 2.5-.4c4-.7 7-2 10.5-3.8 2-.8 2-.8 4-.8v-3l3 1 5.1-1.4c22.8-5.9 55.5-2 72.9 15.4"/><path fill="#fefefe" d="m478 67 1.8.2c8.2 1 16.4 1.4 24.6.2a22 22 0 0 1 8.6.6c2.2-.4 2.2-.4 4-1v2l3.7-1c3.5-1 5.7-.9 9.3 0h4c3.2 0 5.1.2 8 1h2.4c2.6 0 2.6 0 5.1.6s2.5.6 5-.2c2.5-.4 2.5-.4 4.8 1L561 72v-2c4.8 1.9 4.8 1.9 7 3v-2h2v2h1.9l8.5.4h3l2.8.2h2.6c2.2.4 2.2.4 4.2 2.4l3-1 2 2 2-1 7 2 4 1v2l3.2.3c5 .6 10 1.9 14.8 3 3.1.8 3.1.8 7 .7l1 2 2.4-.1c2.6.1 2.6.1 4.6 2.1l6.8.6c2.6.5 3.4 1.5 5.2 3.4 2.2-.2 2.2-.2 4-1l2 3c1.8.6 1.8.6 4 1l3.6 1c3.1 1 3.1 1 5.4 1l3 3 1-2c3 .8 3 .8 6 2l1 3c3 1.5 3 1.5 6.4 2.7l3.6 1.3c2.8 1.1 2.8 1.1 5 1l1.3 1.4c2 1.9 3.8 2.7 6.4 3.8l2.4 1 1.9.8 1-2 2 3 5 1 1 2 2 1 3 2 2-1v3l2.5.8q5 1.8 9.8 4.5l1.7.7 2-1 .8 1.8c1.4 2.6 2.6 3.4 5.1 4.8l2.3 1.3 2.4 1.3 2.5 1.4 5.9 3.4c-1.1 5.2-4.2 8.8-7.2 13.1a21 21 0 0 0-2.8 6.9l-3 3a82 82 0 0 0-10.6 16.8C739 186 739 186 736 187l1 3h-3v4l-2 1v4c-2.2 1.9-2.2 1.9-5 3-4.8-1.4-9-4.3-13.3-6.9A130 130 0 0 0 686 182v-2l-8-3v-2h-2.4c-2.6 0-2.6 0-4.6-1v-2l-11-3v-2l-3.7-.3c-2.8-.2-4-.5-6.2-2.2a15 15 0 0 0-7.4-2.7l-4.7-.8-1-3-2.4 1-2.6 1-2-1v-3l-8.9-2.3c-2.8-.6-5.2-.8-8.1-.7l-1-2c-1.9-.5-1.9-.5-4-.6l-4-.4v-2l-2.4-.4-3.3-.5-3.2-.6-5.9-1.1c-2.2-.6-2.2-.6-4.2.6l-6-3a18 18 0 0 0-10 0l-3-1v-2q-10.4-1.2-20.7-.8c-3.5-.2-6-1-9.3-2.2-2.4-.2-2.4-.2-4.7-.1h-2.2l-2.1.1h-8.5l-3 .1c-2.5-.1-2.5-.1-5.5-1.1l-2.1.4q-8.5 1.7-16.9-.4v2l-4-.6c-4.3-.5-7.8 0-12 1.1-2 .5-2 .5-5 .5-8 .3-15.9.7-23.7 2.5q-5.7 1-11.3 1.5v2h-2.6q-4.8 0-9.4 1l-3.2.5-3.2.6-5.6.9v2l-3.4.4c-3.6.2-3.6.2-5.6 2.6v-2l-2.7 1.3C386 158 386 158 380 158l-1 2-4.6 1.4c-7.9 2.1-7.9 2.1-14.4 6.6l-3-1v2l-4.3 1.5-2.4.8c-2.3.7-2.3.7-5.3.7l-1 2-3 2-1 2h-4c-3.7.8-3.7.8-7 2l-1 2-3 1-1 2-2.5.3c-5 1-8.6 3.6-12.5 6.7l-1 2-2.2.4c-3.5.8-5 2.3-7.8 4.6l-7.7 4.5a15 15 0 0 0-6.3 6.5l-1.7.4c-3.9 1-6.5 3.8-9.3 6.6l-2 .9c-2.4 1.4-3 2.5-4 5.1v2l-1.7-.8c-2.5-.5-2.5-.5-4.6 1.5l-2.5 2.4-2.7 2.5-2.5 2.4-4 3.4c-3.2 2.3-3.2 2.3-4 5.6l-5 3-5 5-2.7 2.6C230 255 230 255 228 258l-5 5q-4.9 5.1-9 11l-4 4c-3.5 3.6-3.5 3.6-5.5 8.1-.5 1.9-.5 1.9-3 3.8-3 2.5-3.6 4.4-4.5 8.1h-2c-1.8 2.4-1.8 2.4-3.6 5.4l-2 3c-1.6 2.4-1.6 2.4-1.4 4.6l-3 3-2.7 4-1.3 2c-1.3 2.2-1.3 2.2-1 6h-3l-.8 2.1q-2.4 5.9-5.2 11.5c-1.1 2.3-1.1 2.3-1 4.4h-2l-1 6h-2l-1.1 3.6q-3 8.4-6.7 16.4c-1.4 3-1.4 3-1.2 6h-2l-.4 1.7q-2.2 10.4-5.6 20.3l-1 3-1 2.8a67 67 0 0 0-3.7 18.4l-.3 1.8-2 1 .1 3.8c.1 3.5 0 4.1-2.1 7.2-.6 2.3-.6 2.3-1 4.8l-.5 2.9-.6 3-.5 3.2q-1.8 10.3-2.2 21-.3 5.5-1.1 11.1c-.2 2.2-.2 2.2.9 5-.3 2-.3 2-1 4.3-1.4 6.7-1.3 13.3-1.2 20.2v3.8q-.1 9.3 1 18.7.3 4.5.2 9l.4 4q.7 5 1 10c.9 9.4 1.8 18.7 3.6 28l.5 2.8c1 5.4 1 5.4 3.5 10.2a86 86 0 0 0 4.2 22.8c.8 3.2.8 3.2.8 6.2h2v7h2l.4 2q1 6.7 3.6 13v3h2l3 9a45 45 0 0 1-16.8 11c-5.5 2-5.5 2-9.2 6l-4.7 2q-5.5 1.8-10.3 5v1l-1.8.5c-4 1.2-7 2.3-10.3 4.8-3.7 2.2-5.8 1.7-9.9.7l1-2c-.9-2.8-.9-2.8-2.2-6q-.8-1.5-1.4-3.2A18 18 0 0 0 89 675c-1.4-4.2-2-7.6-2-12h-2c-2-4.4-2-4.4-1.6-7.3l.6-1.7-2-1c-2.5-5.5-3.4-11-4-17l-1-5-3-1v-7l-1-3 1-2h-2l.1-2.8q0-7.7-2.1-15.2l-2-1 .6-1.7c.4-2.5 0-3.9-.6-6.3l1-2h-2l-1-5h2l-1.4-2a19 19 0 0 1-1.6-15l-1-4 1-3-2-1 1-3a149 149 0 0 0-.8-13.7 484 484 0 0 1-.3-52.5q.4-12.4.1-24.8h2v-4.2l-.1-2.4q.2-3.3 1.1-6.4v-4h2l-1.1-2.1c-1.2-3.8-.3-5.2 1.1-8.9a54 54 0 0 0 3-19h2v-9h2l.1-1.8c.5-4.5 1.1-8 2.9-12.2l-1-2h2v-8l2-1-.6-1.8c-.4-2.2-.4-2.2.6-5.2l2-1 .5-3.5.5-3.5 2-1c1.2-2.5 1.2-2.5 2.2-5.4l1-3c1-2.7 1-2.7-.2-5.6h3l1.5-5.7.8-3.2c.6-2.8.8-5.2.7-8.1l2-1 1-3 1.4-1.4c1.9-1.9 2.7-3.7 3.8-6l1.2-2.7 1.2-2.8 1.3-2.7c2.2-4.9 2.2-4.9 3.5-10 .7-2.8 1.5-3.5 3.6-5.4q1.4-2.2 2.6-4.5l1.5-2.7 1.5-2.7 1.5-2.8 3.9-7.3 1.2-2c1-2.3 1-2.3.8-6h4l.7-2c1.7-3.8 3.9-6.7 6.3-10l-1-2 3-1c2.1-2.9 2.1-2.9 3-6.1l1-2.9 3-1v-3l5-3c2.2-2.5 2.2-2.5 4-5.3l2.1-3 4.2-6.2c1.7-2.5 3.3-3.8 5.7-5.5l1-3h2v-2l3-2 1-3 3.5-2.9c2.5-2 3.4-2.8 4.4-6l.1-2.1 2.3-.2c3-.6 3-.6 4.4-3.2l1.3-2.6c1-2 1-2 3.3-2.8 3.4-1.5 5.1-3.5 7.7-6.2l15.3-13q3.8-3.1 7.4-6.7c2-2 3.5-3.2 6-4.5 3.3-1.6 3.3-1.6 5.3-3.8a99 99 0 0 1 8.8-6q4.8-3 9.5-6.3 11.2-7.5 23-14.3l2.8-1.6 2.6-1.5 2.4-1.4c1.9-.9 1.9-.9 3.9-.9l1-3q3-1 6.2-1.4l1.8-.6 1-3 3 1v-3h6l1-3h3l4.6-2c4.2-2 4.2-2 6.4-2v-3l1.8-.4c9-1.9 9-1.9 16.2-7.6l1 3 1-3v2l9-3v-2h5v-2c5.6-2 5.6-2 9-2l1-2 5.9-.7c4-.5 7.2-1.4 10.1-4.3h7l1-2h4q4.3-.8 8.6-1.9l2.3-.5 2.2-.5 2-.5c2.2-.6 2.2-.6 4.9-2.6 2-.2 2-.2 4.2-.1l3.8.1v-2l1.9-.2 8.4-.7 3-.3q1.4 0 2.8-.3l2.6-.2c2.5-.2 2.5-.2 5.3-1.3q7-1.2 14-1v-2h17zM138 431l1 2Zm1 167 1 2Zm800-241v2h-2l.9 2.3 1.1 3 1.1 3.1c.9 2.6.9 2.6.9 4.6h3l-1 3c.3 2 .3 2 1 4l.6 2.3.7 2.3.7 2.4 2 6 2 1 .5 4.4a12 12 0 0 0 2.5 7.6h-2l1 2q1.6 5 2.4 10 1.4 7.5 3.3 14.9c1.2 5.2 1.6 9.8 1.3 15.1l2 1v3q0 4.9.7 9.8a165 165 0 0 1 1.2 18l.4 7.4a571 571 0 0 1 0 55.4L963 552h-2l.6 3.6c.6 4.3-.1 7.3-1.6 11.4l2 1h-2v3.8c0 2.9-.3 5.3-1 8.2l1 3-2 1c-.6 2.2-.6 2.2-1 4.8l-.5 3-.6 3.3-.5 3q-1.4 8.5-2.4 16.9h-2c0 3 0 5 1 8h-3l-.4 3c-.6 4-.6 4-1.7 7.8-1.2 3.2-1.2 3.2.1 6.2l-2 1v6l-2 1-2 5 2 1h-3l-.1 2.5-.3 3.3-.2 3.3c-.4 2.9-.4 2.9-2.4 5.9l1 2-3 1c-1.2 2-1.2 2-2 4.4l-1.2 2.7-1 2.8-1.2 2.8c-2.3 5-2.3 5-1.6 10.3l-3 1c-1.7 3-1.7 3-3.2 6.6l-1.6 3.6-1.2 2.8 2 1-1.9.1-2.1.9-2 6-3.5 7.3-1 2.1a266 266 0 0 1-20 33 18 18 0 0 0-2.5 7.6l-2-1-2 3q-8.1 12.2-17.6 23.5-3.7 4.4-6.6 9.4C858 805 858 805 855 806l-4.5 5.3-2.3 2.8c-2.2 2.8-2.2 2.8-3.8 5.6a19 19 0 0 1-4.8 5.3q-6 5-11.4 11a155 155 0 0 1-19.7 17.4c-3 2.3-5 4-6.5 7.6l-5 2-3 3-3 1v2l-1.7.8-2.2 1-2.2 1c-2.2 1.2-2.2 1.2-3.9 4.2h-2c-2 1.2-2 1.2-4 2.8l-2.2 1.5c-2 1.9-2.4 3-2.8 5.7l-1.7-.7c-3.2-.4-4.4.7-7 2.5l-2.5 1.7-1.8 1.5v2l-2.2.3c-3.1.8-5.3 2-8 3.7l-3.1 2-3.3 2a322 322 0 0 1-24.8 14l-2.6 1.2c-5.7 2.8-5.7 2.8-8 2.8l-1 3h-3l-2 2c-2.7 1.5-3.8 2-7 2l-5 2c-4.8 2-4.8 2-7 2l-1 3c-1.9.6-1.9.6-4.2 1-5.3 1-9.3 3-13.8 6v-2l-5 4v-2h-3l-1 2-4.7 1.4-3 .8-3.3.8-17.8 4.7-3.5.9-3.2.8c-2.5.6-2.5.6-4.5.6v2l-5-1-1 2c-3 1-5.4 1-8.6 1-4.8 0-9.6.8-14.3 1.4l-3.2.4-3 .3-2.8.4-2.1.5-1 2v-2l-6 1v2h-4v-2c-3 .3-3 .3-6 1l-1 2v-2h-2l-1 2v-2l-13 1-1 3-3-1v-2h-4v2l-3-1-5.2-.1h-15.4c-3.1.1-5.4.1-8.4-.9l-1 2-7-2-1 3v-4h-9v2h-2v-2l-3 1v-2h-3v2h-6v-2l-2-.3-8.9-1.1-3.1-.4-3-.4-2.8-.4c-2.2-.4-2.2-.4-4.2-1.4l-1 2v-2l-1.9.3-2.4.3-2.4.3c-2.3.1-2.3.1-5.3-.9v-2l-5-1-1 2-1-3-3.9-.4q-6.6-.8-13-2.2c-2-.5-2-.5-4.1-.4v-2l-1.8-.3a146 146 0 0 1-25.4-7.2l-2.6-.9c-2.3-.7-2.3-.7-5.2-.6l-2-2c-1.8-.6-1.8-.6-3.9-1l-4.1-1-2.2-.6c-1.7-.4-1.7-.4-2.8-.4l-1-3c-2-.8-2-.8-4-1l-2 1-1.2-1.3c-3.8-3.6-9.1-5.3-13.9-7.5l-3.3-1.5-3.3-1.5-3-1.4-2.3-.8-2 1-3-2 1-1-23-12.6c-2.8-1.3-5-2-8-2.4l-1-3c-2.8-2.3-2.8-2.3-6-4l-3 1-2-2 2-1-3-2 1-8 3-1 .4-1.7c.6-2.3.6-2.3 2.8-4.4 3.6-3.5 6-7.7 8.6-12l1.5-2.5c2.9-4.4 2.9-4.4 3.7-9.4h3l.8-2.2q1.8-4 4.3-7.6l1.7-2.4 1.2-1.8c3.7.6 6.4 1.6 9.7 3.5l2.3 1.3 2 1.2 2 1 2 1.8c3.3 2.4 6.4 3.8 10.1 5.3 1.9.9 1.9.9 2.9 2.9l6 2 7.2 3.6q9.2 4.7 18.8 8.7l2.4 1a133 133 0 0 0 20.4 7.2q5.5 1.3 10.9 3c2.2.6 2.2.6 4.3.5v2h4.4l2.4-.1a7 7 0 0 1 4.2 1.1v2l6-1 1 2c3 1 3 1 6.7 1.6l3.7.8q4.8.8 9.6.6v2l5-1v2l1.7-.6c2.6-.5 4.1-.2 6.7.4 14.5 3.2 29.2 4.3 44 4.2q5.4 0 10.9.6 7 .6 14-.4 4.8-.3 9.5-.1 9.9 0 19.9-1l2.9-.3c4.8-.4 4.8-.4 9.5-1.4 1.9-.4 1.9-.4 4.9.6v-2l2.8.1c3.1.1 3.1.1 5.3-1.2 1.9-.9 1.9-.9 4.1-.5l1.8.6v-2l9 1v-2l3.8-.3q8.3-1.1 16.2-3.7l6.3-1.5a227 227 0 0 0 79-31.7c2.7-1.8 2.7-1.8 5.7-2.8l2-2 6-3v-2l2.2-.2c3.4-1 5.1-2.6 7.8-4.8 2.3-.7 2.3-.7 4-1v-3l1.7-.5q3.2-1 6.3-2.5l2-5 6-1c1.4-2 1.4-2 2-4v2a257 257 0 0 0 24.4-19.7l4-3c1.9-1.3 1.9-1.3 2.6-4.3l5-3c2.4-2 3-2.9 4-6l5-1 .2-2.3c1-3.6 2.6-3.8 5.8-5.7l4.7-5 2.3-2.6c2.1-2.4 2.1-2.4 4-5.4l2.6-2.4c2.6-2.3 2.6-2.3 2.9-5.3l.5-2.3c2.6-1.3 2.6-1.3 5-2v-2l2-1 1.5-2.5c1.5-2.5 1.5-2.5 3.5-3.5l.9-1.7c1.1-2.3 1.1-2.3 2.8-4.4a209 209 0 0 0 8-11l1.6-2.1 1.4-2 1.4-2c1.2-2 1.2-2 .9-5.8l3-1v-5l1.8-.2c3-1 3.4-2.2 4.8-5l1.4-2.5 1.4-2.9 1.5-2.8q5.3-10.4 8.2-21.7l.9-2.9 2-1a32 32 0 0 0 2-11h2l3.8-10.3q2.4-6.7 3.2-13.7l3-1-.6-2.2c-.5-3.3.1-4 1.6-6.8q3.6-11.2 5.6-22.7l1.4-6.3q2.9-11.1 3.8-22.6.4-3.8 1.2-7.4l1-8 .3-2.6.3-2.6.3-2.5c.1-2.3-.2-4-.9-6.3h2l.1-37.9v-8.8q-.2-3.2-1.1-6.3c.4-2.2.4-2.2 1-4l-2-1h2l-1-3 1-2-2-1c-1.3-7.4-1.3-7.4 0-10l-2-1 .6-2.6c.4-3.5.1-6-.5-9.4q-1.2-5.9-1.1-12l-3-1 2-1v-2h-2v-4l-2-2-.5-4.2q-.6-6-2.5-11.8l-1-6-3-1-.2-3.3c-.6-4.7-2.3-8.8-4-13.2-.8-2.5-.8-2.5.2-6.5l9-2v-3l1.6-.3q6-2 11.7-4.6c2.7-1.1 2.7-1.1 4.7-1.1l1-2h3l1-3c1.8-.8 1.8-.8 4.1-1.5A99 99 0 0 0 922 363v-2l2.5-.2c3.7-.8 6.4-2.2 9.7-4 1.8-.8 1.8-.8 4.8.2m-62 274 1 2Z"/><path fill="#fefefe" d="m534.3 190.9 3.7.2a242 242 0 0 1 21.8 2.5q6.4.7 12.9.4c2.3 0 2.3 0 4.3 1l2.9-.6c3.5-.5 4.1-.1 7.1 1.6l3.4 1c3.6 1 3.6 1 6.5 2.5 4.2 2 8.4 2.9 13 4q4.4 1.2 8.7 2.9l13 4.5 2.2.7c2.6.5 4.6 0 7.2-.6l1 2h-3c4.3 2.6 8.2 4.5 13 6 3 1 5.3 2.2 8 4 2.8 1.9 4.7 2.6 8 3v2l1.7.3a24 24 0 0 1 7 3.8l2.5 1.6 1.8 1.3 2-1 1.2 1.8c2 2.5 4 3.6 6.8 5.2l2 2c-.3 3.1-1 5-2.7 7.6L689 253c.7 2.3.7 2.3 2 4h-2l-2-2-1.5 2.5Q679.1 268 672 278l1 2-1.8.6c-3 2-3.7 4.2-5.2 7.4l-4.6 6c-1.5 2-1.5 2-2.5 4.2-.9 1.8-.9 1.8-2.8 2.8-2.1 0-2.1 0-4.2-2l-1.9-2h-2v-2l-4 1-1-3c-2.5-1.4-2.5-1.4-5.5-2.6-5.4-2.2-5.4-2.2-6.5-4.4l-6-2-3-1.6c-3-1.6-3-1.6-6.7-1.9l-3.3-.5-2-3-1 2-2-1v-3c-4.3-1-8.1-2-12.6-1.9A20 20 0 0 1 583 269l-1-2c-2.1-.5-2.1-.5-4.6-.6l-2.5-.3-1.9-.1v-2l-5 1-1-2q-7-1.7-14-2.6l-2.1-.4a122 122 0 0 0-27-2c-2.9 0-2.9 0-5.6-.5-2.4-.7-2.4-.7-5.3.5v-2h-2v2h-1.8c-16.1-.2-16.1-.2-32.2 1v2l-3-1c-3.6.2-3.6.2-7 1l-1 2-1-1-1 2q-5 1-10 1l-2 1-3.2.3A65 65 0 0 0 430 272l-1 2-4.8.6q-6.2 1.3-12.2 3.4v3l-3 .3c-4.4.5-7.3 2.5-11 4.7h-2v3l-2.4.1a35 35 0 0 0-11 5.3q-4.8 3-9.8 5.4c-2.1 1.2-2.1 1.2-3.8 4.2l-5 2c-5.2 3-5.2 3-8 8l-1.7.4c-3.4.9-5 3.2-7.3 5.6l-2.7 1.6c-2.6 1.3-2.6 1.3-3.3 4.4h-2l-1 2-5 4a84 84 0 0 0-7.4 8 49 49 0 0 1-7 6.6c-4.7 4.1-8.7 8-9.6 14.4h-3c-1.4 1.7-1.4 1.7-2.6 3.8l-1.2 2.2-1.2 2-2 3-1 2-2 2.4c-2.3 2.5-2.3 2.5-2 5.6l-2.1 2c-4.2 4-6.4 9.1-9 14.2l-1.5 3q-4.8 9.1-8.4 18.8l-3.3 7.7c-.8 2.5-.8 4.6-.7 7.3l-2 1 1 4h-2l-6 20 2 1h-2l1 3h-2l-1 5h2v3h-3l-1.6 21a320 320 0 0 0-.4 48l.2 3.3.2 3.3.2 3 .4 2.4 2 1-1 3c.2 2.6.2 2.6 1 5l2 1-1 6 3 1-2 2v3l2 1h-2l.9 3 1.1 3.8 1.1 3.7c.9 3.5.9 3.5.9 7.5l-2 1-3 5-1.7-.6c-3.1-.5-4.6.4-7.4 1.9l-2.6 1.3a22 22 0 0 0-5.3 4.4l-1-1-2 2-6 2c-3.3 1.4-4 1.9-6 5l-3-1-1 2-5 1-1 3h-3l-2 2-7 1v-2h-2c-5-16.3-5-16.3-5-22h-2c-2-5.7-2-5.7-2-8l-1-2c-1.5-4.4-1.7-8.8-2-13.4-.7-10.4-.7-10.4-3-20.6v-7l-.5-2.3q-.7-5.2-.4-10.4c0-2.5 0-2.5-1.1-5.3l-.1-6v-17.5c.1-2.5.1-2.5 1.1-3.5v-17h1l1.8-15.5c2-15.6 2-15.6 3.2-19.5v-2.6c0-2.4 0-2.4 2-4.4l1.3-5 .7-3 .6-3.1.7-3.2 1.7-7.7h2l-.2-3c0-4 1.3-6.4 3.1-9.8a39 39 0 0 0 2.6-7.2 52 52 0 0 1 4.3-10.6q2.3-4.9 4.2-9.9c5.9-15 5.9-15 9-16.5l1-7h3l.8-2.5c3.8-10.8 3.8-10.8 7.2-12.5l1-7 3-1v-3l5-5v-3h3l.8-2.8c1.1-3 2-4.1 4.2-6.2v-2l3-1 4-6h2a53 53 0 0 0 3-9h3c1.6-1.5 1.6-1.5 3-3.5l3-3.5h2l.7-1.7c1.7-3 3.8-5 6.3-7.3h2l.9-1.8c1.5-3 2.6-4.9 5.5-6.6 3-1.8 3.9-3.7 5.6-6.6h3l1.5-2.5 1.5-2.5h3l2-3q5.4-3.3 11-6v-2h3v-2l1.9-.9c2.2-1 2.2-1 4.1-3.1l5.4-3 2.9-1.6 5-2.5c1.9-.9 1.9-.9 3.7-2.9l3-1 3-1 1-3h5v-2l5.8-3 3.3-1.7c2.9-1.3 2.9-1.3 5.9-1.3l1-3v2l2.8-1.5c3.2-1.5 3.2-1.5 6.2-1.5v-2a67 67 0 0 1 17.7-6.5q5.3-1.4 10.1-3.8c2.2-.7 2.2-.7 5.2.3v-2l6.2-1.4 3.5-.8q3-.8 6-1.3c2.6-.4 2.6-.4 5.3-2.5 3.2.4 3.2.4 6 1v-2c7-1.9 14.3-2.1 21.5-2.7l7.7-.8q13.2-1.5 26.3-2.1l2.7-.1q16.5-.7 33.1.6M451 195l4 1Zm370 215 1 3 3 1c.8 2.2.8 2.2 1.4 5.1q2.2 9.4 5.5 18.4 1.5 5.1 2.1 10.5l1 5a47 47 0 0 1 1 12l2 1v3q0 6 1 12h1v7l-.1 3.8c-.3 3-.3 3 1.1 4.2v21.6l.1 2.4c-.1 2-.1 2-1.1 3l-.1 4.4v2.4c0 2.4 0 2.4 1.1 5.2-.4 2.7-.4 2.7-1 5h-2l1 10h-2l.6 3 .4 3-1 1-1 5.2-.5 3.3-.5 3.4-.5 3.4q-1.5 8.8-2.2 17.6-.7 3.7-2.5 7c-1.5 3.8-2.1 7.8-3 11.7A91 91 0 0 1 823 620l-4 10.4c-1.2 3-2 5.4-2 8.6h-2q0 1 .3 2c-.4 3.6-1.6 6-3.3 9.1-1.1 2-1.1 2-2 4.9h-2l-.2 2c-1.8 7-6 13.2-9.4 19.4-3 5-3 5-4.4 10.6h-3l-.9 2.3A27 27 0 0 1 783 700l2 1v2l-2.4.2c-2.8.5-2.8.5-4 3.2-.9 2.6-.9 2.6.4 4.6h-5q-1.7 2.9-2.4 6.2l-.6 1.8-3 1q-2.4 2.6-4.6 5.4l-2.3 3-4.1 5.6h-2l-.8 1.8c-1.3 2.4-2.9 4-4.9 6l-2.2 2.1-2.2 2.2-4.5 4.3-2 2c-1.6 1.5-1.6 1.5-1.4 3.6l-2.9 1.3c-3.2 1.3-3.2 1.3-4.1 3.7-1 2-1 2-3.6 3.3-4 2-7.2 4.5-10.6 7.3-6.6 5.3-6.6 5.3-8.8 6.4l-2 5-1-2c-5.4 3.1-5.4 3.1-10 7.2-2.7 2.5-5.5 3-9 3.8v2l-3 1 1 2c-3 1-3 1-5 1l-3.7 2-2.3 1.3-2.4 1.3c-16.8 9.5-33.9 17-52.2 23l-2.4 1-2.2.6c-2 .8-2 .8-3.8 2.8h-2q-12 2-24 5.5c-2 .5-2 .5-4-.5v2l-1.9.1q-10.3.8-20.4 2.4a230 230 0 0 1-28.6 2.6l-9.9.5-3.1.2q-9 .3-17.7-.6-4-.3-8-.2H485l-1-1h-3.4a51 51 0 0 1-11.8-1.4A98 98 0 0 0 449 837v-2l-1.7.6c-2.7.5-4.6 0-7.3-.6l-2 1v-3l-2.4.6-2.6.4-2-2c-2.6-1-2.6-1-5.5-1.7l-3-.8c-2.5-.8-2.5-.8-4.5.5-2.1-.4-2.1-.4-4-1v-3l-3 1c-2.6-.3-2.6-.3-5-1l-1-2c-2.7-.9-2.7-.9-5.8-1.6l-3.2-.7-5.3-1.2c-1.7-.5-1.7-.5-3.4-2.3A29 29 0 0 0 370 811v-3l-2-.4-10-2.6v-3l-2.2-.8c-2.8-1.2-2.8-1.2-5.4-2.9-2.3-1.5-2.3-1.5-4.7-1l-1.7.7-.4-1.7c-.5-2.3-.5-2.3-1.8-4.1-1.2-3.4 0-5.9 1.2-9.2h2l.9-1.9c1.1-2.1 1.1-2.1 3.1-4.1q2.5-3.6 4-7.7c1-2.3 1-2.3 4-4.3l2-4 2-2 1-3 2-1.8c2.4-2.6 3-4.8 4-8.2h2l5-6a83 83 0 0 1 11.6 5.5c7.1 4 14 7.4 21.9 9.7q3.7 1.2 7.1 3.1l3.4 1.7 2-1v3l3-1v2l1.8.3q6.9 1.3 13.4 3.3A30 30 0 0 0 451 768v2l2.2-.7c3.6-.4 4.8.8 7.8 2.7 3.2.3 3.2.3 6 0v2l3 .2 7.7.5c3.3.3 3.3.3 5.3 1.3v-2h2v2l3.4-.6 3.6-.4 1 1q4.3.2 8.6-.6c2.4-.4 2.4-.4 4.8.1 3.1.6 5.5.1 8.6-.5h2l1 1 4-1v2l1.8-.4q6.5-1.6 13.2-2.6v2l3.4-.7 6.6-1.2q5-1 10-1.1l1-2 2.9.1c3.2.2 3.2.2 5.1-2.1v2l2-.8a50 50 0 0 1 16-4.2c2.3-.3 2.3-.3 4-1l1-2h7l1-2 2.4-.4q7.2-1.2 13.6-4.6l1-2 4.8-1.4q6.7-2 13.2-4.6l2.8-1c2.4-.8 2.4-.8 3.2-3l2.4-1c2.9-.8 2.9-.8 4.6-4 1-1 1-1 4-1h3l1-4 2.3-.4 6.7-1.6-1-4 6-1.4c2.4-.7 3.3-1.7 5-3.6 2.1-2.3 3.5-3.8 6.4-5 3.4-1.3 5-3.4 7.6-6l3.7-2.6a13 13 0 0 0 5.3-6.4l2-.9c2.3-1 2.3-1 3.3-4.2l.7-2.9h4l3-6h3v-2l4-4v-2l6.2-6c2-2 2-2 2.8-5h2l.8-2.2c1.2-2.8 1.2-2.8 2.8-4.7 1.6-2.1 1.6-2.1 1.8-5.2l.6-2.9 4-2 1-4 1.4-1.3c1.9-2 2.7-3.9 3.8-6.4l1-2.4.8-1.9h2l.3-2q1.3-5.2 3.9-10c1-2 1-2 .8-4h2l1-4.4.6-2.4c.5-2.2.5-2.2.4-4.2l2-1c.8-1.8.8-1.8 1.5-3.9l.8-2.4.8-2.5.9-2.5c1.2-3.8 2-6.6 2-10.7h2l.4-3q1-5.6 2.6-11l-2-1 2-1c.6-2.2.6-2.2 1-5l.5-3.1.5-3.4.5-3.4q2.1-13.5 3.5-27.1h-2v-2h2a578 578 0 0 0-1-40h-2v-2h2l-1.9-10.4-.5-3-.5-3-.5-2.6-.6-2-2-1 1-3c-.2-3.6-.2-3.6-1-7l-2-1 1-1-3-3 1-3c-.4-2.1-.4-2.1-1-4l2.4-.9c2.7-.8 2.7-.8 3.6-3.1 3.2-2.2 4.3-2.2 8-2l1-3h5v-2l1.8-.7q9-3.5 17.7-8.1c2.5-1.2 2.5-1.2 4.5-1.2l1-3 2.1-.3c4.8-1.2 8.1-2.5 10.9-6.7"/><path fill="#d4a954" d="m886 193 2.5.4 2.5.6 2 4a106 106 0 0 0 7 7c1.9 2 1.9 2 4 3v2h2l.8 1.6A48 48 0 0 0 915 225l2.6 6.4 1.4 3.5c1 3.1 1 3.1 1 6.1l2 1a94 94 0 0 1-6 63.8 23 23 0 0 0-2 8.2h-2l-4.6 6.4A62 62 0 0 1 889 340l-1 2-5.2 3-2.8 1.5-3 1.5-3 1.5a91 91 0 0 1-10.2 4l-3.7 1.3a89 89 0 0 1-30.1 3.5 98 98 0 0 1-44.7-12.6c-2.3-1-2.3-1-4.5.1L779 347l-4 2c0-3 0-3 2.5-5.7l2.5-2.3-2-1.5a91 91 0 0 1-35-58.5 223 223 0 0 1-.3-14.6c0-5.6.6-10.7 1.8-16.1q1-4.5 1.6-9.2c.8-5.8.8-5.8 1.5-8.4.6-1.8.6-1.8-.6-3.7l4.6-4.4c2.3-2.5 2.8-3.4 3.4-6.6l2-2q4.4-4.6 7.8-10c3-4.2 7-7 11.2-10l-1-2 2-.2c4-1 7-3.1 10-5.8l1-2 2.5-.4c4-.7 7-2 10.5-3.8 2-.8 2-.8 4-.8v-3l3 1 5.1-1.4c22.8-5.9 55.5-2 72.9 15.4"/><path fill="#d4a953" d="M227.4 692.8q3.8 1.3 8 2.2c3.9 1 4.9 2.1 7.2 5.4 1.7 2 3.4 3 5.6 4.4a78 78 0 0 1 31.9 38.5c.6 2.8.6 2.8 2.9 3.7v4l2 1c.6 2.4.6 2.4 1 5.6l.6 3.3.4 3.1.6 3.8A92 92 0 0 1 270 834q-4.3 5.2-9 10l-1.7 2c-12 12.8-29.4 19.6-46.3 23l-2.9.6a93 93 0 0 1-68.2-17.4L139 850l-2.5-1.9a91 91 0 0 1-30.2-55.6 97 97 0 0 1 7.6-51.1q1.4-3.1 2.1-6.4h2l1-5h2l.6-2c1.8-4 4.4-6.6 7.3-9.6l1.7-1.8 6-6.3c1.4-1.3 1.4-1.3 3.4-1.3v-2c3-3.6 5.6-4.6 10-6l2-3 5-1 6.5-2.9a86 86 0 0 1 63.9-1.3"/><path fill="#fdfefd" d="M745 240h1c.2 4.4 0 8.3-1 12.6a86 86 0 0 0 21.8 75.7c4.2 5 9 8.9 14.2 12.7l-2.5 2.4c-2.7 2.2-2.7 2.2-2.5 4.6l1 2h-2l-1 3c-3 1.7-3 1.7-6 3v2l-2.1 1.3a27 27 0 0 0-6 4.9L757 367h-2v2l-3.2 3q-5.3 4.4-10.3 9l-1.5 1.4-9.3 8.6-2.2 2.1-4.2 4.1-2 2-1.8 1.6C719 402 719 402 717 402v2h-2v5l-3-1-1.4 1.5C709 411 709 411 707 411l-.7 2.4c-1.3 2.6-1.3 2.6-3.2 3.5-2.4 1-2.4 1-3.5 4.1-1.9 3.6-3 3.8-6.6 5l-1.5 1.5c-1.5 1.5-1.5 1.5-3.9 2.4-3.3 1.4-5 3.5-7.6 6.1l-6.9 5.9q-6.5 5.4-12.6 11.5-3.4 3.4-7.1 6.5l-5.6 5-1.7 1.7-3.4 3.1A69 69 0 0 1 632 478l-.7-1.6a157 157 0 0 0-26.3-44q-2.5-2.8-4-6.4 2.8-1 6-1 3.2-3.9 6-8l2.5-1c2.6-.7 2.6-.7 3.5-3 1-2 1-2 3.2-2.9a26 26 0 0 0 8-5.5l2.6-2.3c2-2 3.1-3.7 4.2-6.3h3l1-3 2.3-1.4c3-1.8 4.6-3.9 6.7-6.6h2v-2h2l1-3 4.3-2.9c2.8-1.7 4.6-3 6.7-5.6a19 19 0 0 1 5.9-5q6.8-4.6 12.6-10.2l1.9-1.7 1.8-1.7 1.5-1.5c1.5-1.5 1.5-1.5 2.3-4.4h3v-2l4.3-2.8q2.7-2 5-4.4l2.7-2.8h2v-2q2.6-2.4 5.4-4.4c1.8-1.8 2.2-3 2.6-5.6l2 2 2.4-2.9 1.4-1.6c1.3-1.5 1.3-1.5 2.2-3.5l3-1 1-3 4-1c4.7-3.1 9.3-6.4 10.9-12q.4-4 .1-8l-2-1v-4l-1-2.6c-1-2.4-1-2.4 0-5.4l-.4-5c-1.6-15.7-1.6-15.7.4-23l2-1-1-7 3-1z"/><path fill="#fefefe" d="M390 575c4.2 1.4 5 4.3 6.9 8a126 126 0 0 0 25.6 32.4c1.5 1.6 1.5 1.6 1.5 3.6-1.2 1.3-1.2 1.3-3 2.8l-2.3 1.9-2.7 2.3-3.5 3a517 517 0 0 1-17 14.4q-7.6 6.5-15 13.4-6.6 6.4-13.9 12-5.6 4.8-11 9.9a521 521 0 0 1-17.5 15.2l-1.8 1.5-12.9 11.4q-4 3.5-8.2 6.9c-4 3.2-7.2 6.3-10.2 10.3h2v2l-3.2 1.3a21 21 0 0 0-7.8 5.7h-2v2l-5.3 4.6-3 2.5C283 744 283 744 280 744l-1.6-3a91 91 0 0 0-33.6-37.5c-1.8-1.5-1.8-1.5-2.6-3.6-.2-1.9-.2-1.9 1.2-3.6l1.6-1.3 3 1a50 50 0 0 0 15-11v-2l2.7-1.2a36 36 0 0 0 8.2-6l2.6-2.4 2.5-2.4 6.3-5.5 4.7-4.5q4.5-4.5 10.3-7l1.7-1 .5-2 .5-2 4-2 1.3-2.4c2.3-3.5 5-4 8.7-5.6l3-5 6-3c3.6-2.7 6.5-5.3 9-9l5-3c2.8-2 4.7-3.4 6.4-6.4 1.8-2.9 3.3-4 6.1-5.8q7.5-5.1 14-11.6c2.5-2.2 2.5-2.2 4.8-3.8 2-1.3 2-1.3 2.4-4l.3-2.4 2 2 1.7-1.5 2.2-2 2.2-2c1.9-1.5 1.9-1.5 3.9-1.5v-2c1.8-1.7 1.8-1.7 4-3"/><path fill="#cacbcb" d="M948 398c3 1.5 3.6 4 5 7h-2l1 2q1.6 5 2.4 10 1.4 7.5 3.3 14.9c1.2 5.2 1.6 9.8 1.3 15.1l2 1v3q0 4.9.7 9.8a165 165 0 0 1 1.2 18l.4 7.4a571 571 0 0 1 0 55.4L963 552h-2l.6 3.6c.6 4.3-.1 7.3-1.6 11.4l2 1h-2v3.8c0 2.9-.3 5.3-1 8.2l1 3-2 1c-.6 2.2-.6 2.2-1 4.8l-.5 3-.6 3.3-.5 3q-1.4 8.5-2.4 16.9h-2c0 3 0 5 1 8h-3l-.4 3c-.6 4-.6 4-1.7 7.8-1.2 3.2-1.2 3.2.1 6.2l-2 1v6l-2 1-2 5 2 1h-3l-.1 2.5-.3 3.3-.2 3.3c-.4 2.9-.4 2.9-2.4 5.9l1 2-3 1c-1.2 2-1.2 2-2 4.4l-1.2 2.7-1 2.8-1.2 2.8c-2.3 5-2.3 5-1.6 10.3l-3 1c-1.5 2.5-1.5 2.5-2.7 5.6l-1.3 3-1 2.4h-1l1-7h2l.8-3.9A83 83 0 0 1 928 681h2l-.2-2.5c.2-4.2 1.5-7.4 3-11.2A452 452 0 0 0 957 567l.5-3.6a436 436 0 0 0-8-151.6A49 49 0 0 1 948 398"/><path fill="#cdcccf" d="m205 185 2 1-7.9 8-2.2 2.3-2.2 2.2-2 2C191 202 191 202 189 202l-.7 1.7c-1.7 3-3.9 5-6.4 7.4q-6.8 6.8-12.9 14.4l-5.3 6.2A199 199 0 0 0 133 275c-1 1.9-1 1.9-2.4 3.3a25 25 0 0 0-4 5.7l-1.4 2.5-1.5 2.6-1.4 2.8q-5.3 9.7-9.9 19.8L108 321l-2.4 5.4-4.8 10A25 25 0 0 0 98 345h-2l-.3 3.4c-.6 5-2.4 9.5-4.3 14.3A500 500 0 0 0 71 443l-2-1c-.2-5.1.5-9.6 1.6-14.6q.7-4.6.4-9.4h2v-9h2l.1-1.8c.5-4.5 1.1-8 2.9-12.2l-1-2h2v-8l2-1-.6-1.8c-.4-2.2-.4-2.2.6-5.2l2-1 .5-3.5.5-3.5 2-1c1.2-2.5 1.2-2.5 2.2-5.4l1-3c1-2.7 1-2.7-.2-5.6h3l2.3-8.9c.6-2.8.8-5.2.7-8.1l2-1 1-3 1.4-1.4c1.9-1.9 2.7-3.7 3.8-6l1.2-2.7 1.2-2.8 1.3-2.7c2.2-4.9 2.2-4.9 3.5-10 .7-2.8 1.5-3.5 3.6-5.4q1.4-2.2 2.6-4.5l1.5-2.7 1.5-2.7 1.5-2.8 3.9-7.3 1.2-2c1-2.3 1-2.3.8-6h4l.7-2c1.7-3.8 3.9-6.7 6.3-10l-1-2 3-1c2.1-2.9 2.1-2.9 3-6.1l1-2.9 3-1v-3l5-3c2.2-2.5 2.2-2.5 4-5.3l2.1-3 4.2-6.2c1.7-2.5 3.3-3.8 5.7-5.5l1-3h2v-2l3-2 1-3 3.5-2.9c2.5-2 3.4-2.8 4.4-6l.1-2.1 2.3-.2c3-.6 3-.6 4.4-3.2l1.3-2.6c1-2 1-2 3.3-2.8a23 23 0 0 0 7.7-6.2z"/><path fill="#d4d4d4" d="M257 461h2c.1 5.8.1 5.8-1 8h2v3h-3l-.2 2.6-1.4 18.5a320 320 0 0 0-.4 47.9l.2 3.3.2 3.3.2 3 .4 2.4 2 1-1 3c.2 2.6.2 2.6 1 5l2 1-1 6 3 1-2 2v3l2 1h-2l.9 3 1.1 3.8 1.1 3.7c.9 3.5.9 3.5.9 7.5l-2 1-3 5-1.7-.6c-3.1-.5-4.6.4-7.4 1.9l-2.6 1.3a22 22 0 0 0-5.3 4.4l-1-1-2 2-6 2c-3.3 1.4-4 1.9-6 5l-3-1-1 2-5 1-1 3h-3l-2 2-7 1v-2h-2c-5-16.3-5-16.3-5-22h-2l-2-6 1-1-1-4.7a45 45 0 0 1-1-10.3l2-1 .5 2a350 350 0 0 0 11.5 41 75 75 0 0 0 13-5.5l2-1 29.1-15.5q3.1-1.5 6.4-2.5l3.5-1.5c1.1-2.6 1.1-2.6 1-5h-2c-10.2-41.9-13-84.6-3-127"/><path fill="#cfcfcf" d="M368 936c7.9.8 15.2 2.9 22.7 5.3a429 429 0 0 0 40 10.3 421 421 0 0 0 155.4 2.3 71 71 0 0 1 15.9-.9c-3.8 2.3-7.9 2.9-12.2 3.6l-2.3.4q-6 1-12 1.6l-3.5.4-1 2v-2l-6 1v2h-4v-2c-3 .3-3 .3-6 1l-1 2v-2h-2l-1 2v-2l-13 1-1 3-3-1v-2h-4v2l-3-1-5.2-.1h-15.4c-3.1.1-5.4.1-8.4-.9l-1 2-7-2-1 3v-4h-9v2h-2v-2l-3 1v-2h-3v2h-6v-2q-1 0-2-.3l-8.9-1.1-3.1-.4-3-.4-2.8-.4c-2.2-.4-2.2-.4-4.2-1.4l-1 2v-2l-1.9.3-2.4.3-2.4.3c-2.3.1-2.3.1-5.3-.9v-2l-5-1-1 2-1-3-3.9-.4q-6.6-.8-13-2.2c-2-.5-2-.5-4.1-.4v-2l-1.8-.3a162 162 0 0 1-19.8-5.2l-3-1-2.8-.8-2.6-.9c-2-.8-2-.8-3-2.8"/><path fill="#cecfcf" d="m71 599 2 1a104 104 0 0 1 2.8 12l.6 2.4c4 18.2 9.2 35.6 15.4 53C97 682.8 97 682.8 97 686h2l1 4 27.6-14 3-1.5 13.1-7 2.1-1.2 3.9-2c4-2.3 4-2.3 6.3-2.3l-1-2c-4-8.8-7-17.7-9.8-26.9l-.6-1.9c-2.1-6.7-4-13.2-4.6-20.2h2l2 6.3 1.1 3.6c.9 3.1.9 3.1.9 6.1h2v7h2l.4 2q1 6.7 3.6 13v3h2l3 9a45 45 0 0 1-16.8 11c-5.5 2-5.5 2-9.2 6l-4.7 2q-5.5 1.8-10.3 5v1l-1.8.5c-4 1.2-7 2.3-10.3 4.8-3.7 2.2-5.8 1.7-9.9.7l1-2c-.9-2.8-.9-2.8-2.2-6l-1.4-3.2A18 18 0 0 0 89 675c-1.4-4.2-2-7.6-2-12h-2c-2-4.4-2-4.4-1.6-7.3l.6-1.7-2-1c-2.5-5.5-3.4-11-4-17l-1-5-3-1v-7l-1-3 1-2h-2v-3.2c.1-3.6.1-3.6-.5-6.3q-.8-4.7-.5-9.5"/><path fill="#cdcdce" d="M375 740a83 83 0 0 1 11.6 5.5c7.1 4 14 7.4 21.9 9.7q3.7 1.2 7.1 3.1l3.4 1.7 2-1v3l3-1v2l1.8.3q6.9 1.3 13.4 3.3A30 30 0 0 0 451 768v2l2.2-.7c3.6-.4 4.8.8 7.8 2.7 3.2.3 3.2.3 6 0v2l3 .2 3.9.2 3.8.3c3.3.3 3.3.3 5.3 1.3v-2h2v2l3.4-.6 3.6-.4 1 1q4.3.2 8.6-.6c2.4-.4 2.4-.4 4.8.1 3.1.6 5.5.1 8.6-.5h2l1 1 4-1v2l1.8-.4q6.5-1.6 13.2-2.6v2h5l-1 2c-2 .4-2 .4-4.7.6l-3 .3-3.2.2-3.3.3A267 267 0 0 1 410 760l-3.2-1.2a122 122 0 0 1-16.2-7.8l-5-2.8c-4.5-2.5-4.5-2.5-9.4-3.3-3.1 1.6-4.5 3.7-6.4 6.7L366 757h-2l.9-2.1 3.1-8.9h2z"/><path fill="#c3c4c4" d="M510.3 132.9h3.8q12 0 23.9 1.1v2l-8.3.8c-2.7.2-2.7.2-5.7.2h-5.5l-3 .1c-2.5-.1-2.5-.1-5.5-1.1l-2.1.4q-8.5 1.7-16.9-.4v2l-4-.6c-4.3-.5-7.8 0-12 1.1-2 .5-2 .5-5 .5-8 .3-15.9.7-23.7 2.5q-5.7 1-11.3 1.5v2h-2.6q-4.8 0-9.4 1l-3.2.5-3.2.6-5.6.9v2l-3.4.4c-3.6.2-3.6.2-5.6 2.6v-2l-2.7 1.3C386 158 386 158 380 158l-1 2-4.6 1.4c-7.9 2.1-7.9 2.1-14.4 6.6l-3-1v2l-9 2c1-3 1-3 3.7-4.4l3.6-1.5 1.9-.8 6.4-2.5 2.2-.9c35.8-14.2 72.7-24 111.2-26.9l2.1-.2q15.6-1 31.2-1"/><path fill="#bfc1c1" d="M820 414c-1 3-1 3-3 4.3l-2.7 1.2-3 1.4-3.4 1.5-6.8 3.2-3.5 1.7q-10.1 4.9-20 10l-3 1.4-2.5 1.3c-2.1 1-2.1 1-5.1 2l.6 2c12.3 44.2 11.5 88.2 2.4 133h-2v-4l-2-1 2-1c.6-2.2.6-2.2 1-5l.5-3.1.5-3.4.5-3.4q2.1-13.5 3.5-27.1h-2v-2h2a578 578 0 0 0-1-40h-2v-2h2l-1.9-10.4-.5-3-.5-3-.5-2.6-.6-2-2-1 1-3c-.2-3.6-.2-3.6-1-7l-2-1 1-1-3-3 1-3c-.4-2.1-.4-2.1-1-4l2.4-.9c2.7-.8 2.7-.8 3.6-3.1 3.2-2.2 4.3-2.2 8-2l1-3h5v-2l1.8-.7q9-3.5 17.7-8.1c2.5-1.2 2.5-1.2 4.5-1.2l1-3 2.2-.4c3.3-.7 6.4-2.6 9.8-2.6"/><path fill="#d0d0d0" d="M826 599h2c-.4 5.3-1.1 10-3 15l-1.3 4q-2.6 7.8-5.7 15.2c-1.2 2.8-1.2 2.8-1 5.8h-2q0 1 .3 2c-.4 3.6-1.6 6-3.3 9.1-1.1 2-1.1 2-2 4.9h-2l-.2 2c-1.8 7-6 13.2-9.4 19.4-3 5-3 5-4.4 10.6h-3l-.9 2.3A27 27 0 0 1 783 700l2 1v2l-2.4.2c-2.8.5-2.8.5-4 3.2-.9 2.6-.9 2.6.4 4.6h-5q-1.7 2.9-2.4 6.2l-.6 1.8-3 1q-2.4 2.6-4.6 5.4l-2.3 3-4.1 5.6h-2l-.8 1.8c-1.3 2.4-2.9 4-4.9 6l-2.2 2.1-2.2 2.2-4.5 4.3-2 2c-1.6 1.5-1.6 1.5-1.4 3.6l-2.9 1.3c-3.2 1.3-3.2 1.3-4.1 3.7-1.5 3-4 3.5-7 5q-2.8 2.3-5.5 4.8C716 772 716 772 714 772c1.3-3.8 3-4.8 6.1-7.3l10-8.3c2.9-2.4 2.9-2.4 4.9-2.4l.8-1.8c1.4-2.5 3-4.1 5-6.1l2.3-2.3 2.5-2.4a196 196 0 0 0 21.8-24.7 230 230 0 0 0 20.2-28.8A369 369 0 0 0 826 599"/><path fill="#cdcdce" d="M628 211c5.5-.1 5.5-.1 8.2.6 2 .6 2 .6 4.8-.6l1 2h-3c4.3 2.6 8.2 4.5 13 6 3 1 5.3 2.2 8 4 2.8 1.9 4.7 2.6 8 3v2l1.7.3a24 24 0 0 1 7 3.8l2.5 1.6 1.8 1.3 2-1 1.2 1.8c2 2.5 4 3.6 6.8 5.2l2 2c-.3 3.1-1 5-2.7 7.6L689 253c.7 2.3.7 2.3 2 4h-2l-2-2-1.5 2.5Q679.1 268 672 278l1 2-1.8.6c-3 2-3.7 4.2-5.2 7.4l-4.6 6c-1.5 2-1.5 2-2.5 4.2-.9 1.8-.9 1.8-2.8 2.8-2.1 0-2.1 0-4.2-2l-1.9-2h-2v-2l-4 1-1-3c-2.5-1.4-2.5-1.4-5.5-2.6-5.4-2.2-5.4-2.2-6.5-4.4l-2.5-.8c-4.5-1.5-8.4-3.8-12.5-6.2 1.5-.7 1.5-.7 4-1a76 76 0 0 1 9.4 4.5l6.6 3.5 2.1 1.1 8 4.3q4.7 2.6 9.9 4.6l1-1.6 22-31.6 1.6-2.3 3.2-4.5q3.9-5.3 7.2-11c-19.7-13.4-41-23-63-32z"/><path fill="#d4d5d4" d="M382 88v2l-2 .7a747 747 0 0 0-51.8 19.5l-2.7 1q-1 .7-2.3 1c-2.2.8-2.2.8-6.2.8v2c-7.3 3.7-7.3 3.7-10.6 5a74 74 0 0 0-12 6.8C292 128 292 128 288 128l-1 3c-2 1-2 1-4.6 1.9-4.8 1.8-8.3 4-12.4 7.1h-2v2l-2 .7a59 59 0 0 0-9.7 5.6l-2 1.3c-12 8.2-23.6 16.5-34.5 26q-5.2 4.4-10.8 8.4c.3-3.1 1-4 3.3-6.2l3-2.3 2.8-2.3 2.9-2.2c3.4-2.6 3.4-2.6 6.5-5.6 2-1.8 4.2-3 6.5-4.4l2-2a99 99 0 0 1 8.8-6q4.8-3 9.5-6.3 11.2-7.5 23-14.3l2.8-1.6 2.6-1.5 2.4-1.4c1.9-.9 1.9-.9 3.9-.9l1-3q3-1 6.2-1.4l1.8-.6 1-3 3 1v-3h6l1-3h3l4.6-2c4.2-2 4.2-2 6.4-2v-3l1.8-.4c9-1.9 9-1.9 16.2-7.6l1 3 1-3v2l9-3v-2h5v-2c5.6-2 5.6-2 9-2l1-2 6-.8c3.3-.4 5.6-1.2 9-1.2"/><path fill="#cdcdcd" d="m478 67 1.8.2c8.2 1 16.4 1.4 24.6.2a22 22 0 0 1 8.6.6c2.2-.4 2.2-.4 4-1v2l3.7-1c3.5-1 5.7-.9 9.3 0h4c3.2 0 5.1.2 8 1h2.4c2.6 0 2.6 0 5.1.6s2.5.6 5-.2c2.5-.4 2.5-.4 4.8 1L561 72v-2c4.8 1.9 4.8 1.9 7 3v-2h2v2l3.6.4 4.7.5 2.4.3 2.3.3 2.1.2c1.9.3 1.9.3 4.9 1.3v2q-13.2-.8-26.5-2.8a399 399 0 0 0-56-3.5h-3.1q-25 0-49.7 3-4.9.5-9.7.3c2-2 3.3-2.7 5.9-3.7l2-.8c2.4-.6 3.8-.2 6.1.5h2v-2h17z"/><path fill="#cbcdcd" d="M890 441h2a259 259 0 0 1 6.4 66.8V519q-.1 33.8-6.4 67h-2l.4-9.2.2-2.6A67 67 0 0 1 892 562l1-8 .3-2.6.3-2.6.3-2.5c.1-2.3-.2-4-.9-6.3h2l.1-37.9v-8.8q-.2-3.2-1.1-6.3c.4-2.2.4-2.2 1-4l-2-1h2l-1-3 1-2-2-1c-1.3-7.4-1.3-7.4 0-10l-2-1 .6-2.6c.4-3.5.1-6-.5-9.4q-1.2-5.9-1.1-12"/><path fill="#cfd0d0" d="M391 214v2l-2 .8a379 379 0 0 0-45.1 22.4A282 282 0 0 0 288 281l-1.9 1.8a234 234 0 0 0-25.2 27.9L259 313l-2-1 4-6h2a53 53 0 0 0 3-9h3c1.6-1.5 1.6-1.5 3-3.5l3-3.5h2l.7-1.7c1.7-3 3.8-5 6.3-7.3h2l.9-1.8c1.5-3 2.6-4.9 5.5-6.6 3-1.8 3.9-3.7 5.6-6.6h3l1.5-2.5 1.5-2.5h3l2-3q5.4-3.3 11-6v-2h3v-2l1.9-.9c2.2-1 2.2-1 4.1-3.1l5.4-3 2.9-1.6 5-2.5c1.9-.9 1.9-.9 3.7-2.9l3-1 3-1 1-3h5v-2l5.8-3 3.3-1.7c2.9-1.3 2.9-1.3 5.9-1.3l1-3v2l2.8-1.5c3.2-1.5 3.2-1.5 6.2-1.5v-2c3-1 5-1 8-1"/><path fill="#cbcccc" d="m700 111 6.6 2.1q3.3 1.3 6.4 2.9l1-2 2 3 5 1 1 2 2 1 3 2 2-1v3l2.5.8q5 1.8 9.8 4.5l1.7.7 2-1 .8 1.8c1.4 2.6 2.6 3.4 5.1 4.8l2.3 1.3 2.4 1.3 2.5 1.4 5.9 3.4c-1.1 5.2-4.2 8.8-7.2 13.1a21 21 0 0 0-2.8 6.9l-3 3a82 82 0 0 0-10.6 16.8C739 186 739 186 736 187l1 3h-3v4l-2 1v4c-2.2 1.9-2.2 1.9-5 3-4.8-1.4-9-4.3-13.3-6.9q-7.3-4.6-15-8.2-3-1.6-5.7-3.9l1-2 2.7 1.5q9.9 5.8 20 11.2 3 1.7 5.8 3.7l2.5 1.6c3.1-.7 3.1-.7 4.4-3.3l1.3-2.8 1.3-2.7 1-2.2h2l1-2.9c1-3.1 1-3.1 2-5.1h2l.7-2.5c1.6-4.4 4-8 6.5-11.8l1.5-2.3 7.9-12 1.3-2 1.1-1.4h2l1-4-1.7-.5c-6.6-2-12-5-17.5-9.2-1.8-1.4-1.8-1.4-4.3-2.3-2.5-1-2.5-1-4.4-2.4a25 25 0 0 0-6.7-3.5 251 251 0 0 1-22-9.8l-2.5-1.1C701 114 701 114 700 111"/><path fill="#c9caca" d="M338 325a40 40 0 0 1-12.3 14.6q-3.5 3-6.7 6.4l-2.3 2.4-2.4 2.6-2.4 2.5c-2 2.6-2.6 4.3-2.9 7.5h-3c-1.4 1.7-1.4 1.7-2.6 3.8l-1.2 2.2-1.2 2-2 3-1 2-2 2.4c-2.3 2.5-2.3 2.5-2 5.6l-2.1 2c-4.2 4-6.4 9.1-9 14.2l-1.5 3q-4.8 9.1-8.4 18.8l-3.3 7.7c-.8 2.5-.8 4.6-.7 7.3l-2 1 1 4h-2l-6 20h-1c-.3-7 .7-12.6 3-19.3l1-3a262 262 0 0 1 59.3-99.3C334.1 325 334.1 325 338 325"/><path fill="#cccece" d="m390 575 3 1q-11.6 11.6-24.3 21.8l-7.7 6.7c-14.2 13-14.2 13-20 15.5v2l-1.9.3-2.1.7-.8 1.8c-1.6 2.9-3.5 4.3-6 6.3l-3 2.3-1.6 1.3-8.5 7.1-1.7 1.4-6.5 5.9q-3.2 3.1-6.8 5.9a649 649 0 0 0-28 24.3 22 22 0 0 1-7.1 3.7c5.5-7 12-12.1 19-17.6 2.7-2.1 3.9-3.1 5-6.4l5-2 4-4h2l.3-1.9c1-2.8 2.1-2.8 4.7-4.1l1.3-2.4c2.3-3.5 5-4 8.7-5.6l3-5 6-3c3.6-2.7 6.5-5.3 9-9l5-3c2.8-2 4.7-3.4 6.4-6.4 1.8-2.9 3.3-4 6.1-5.8q7.5-5.1 14-11.6c2.5-2.2 2.5-2.2 4.8-3.8 2-1.3 2-1.3 2.4-4l.3-2.4 2 2 1.7-1.5 2.2-2 2.2-2c1.9-1.5 1.9-1.5 3.9-1.5v-2c1.8-1.7 1.8-1.7 4-3"/><path fill="#c6c7c7" d="M130 466h2c1 5.5 1 10.3.2 15.8-.4 2.4-.4 2.4.8 5.2-.3 2-.3 2-1 4.3-1.4 6.7-1.3 13.3-1.2 20.2v3.8q-.1 9.3 1 18.7.3 4.5.2 9l.4 4q.7 5 1 10c.9 9.4 1.8 18.7 3.6 28l.5 2.8c1 5.4 1 5.4 3.5 10.2.2 3 .2 3 .1 6.2v3.3l-.1 2.5h-2a473 473 0 0 1-9-50l-.4-3a384 384 0 0 1-1.8-44.4v-2.9q0-14.2.6-28.6l.2-2.2q.3-6.5 1.4-12.9m9 132 1 2Z"/><path fill="#cecac2" d="m638 504 2 1v3.6q0 5.7 1 11.4c1 6.4 1 10.8-1 17l-1 6.4a54 54 0 0 1-2.6 11.4A28 28 0 0 0 635 567l-3 1c-1.7 2.9-1.7 2.9-3.1 6.4l-1.6 3.5c-1.3 3-1.3 3-2.3 6.1h-2l-.7 2.1c-1.3 2.9-1.3 2.9-3.4 6-2.2 2.7-2.2 2.7-1.9 5.9l-2 1.1c-5 3.2-9 8.1-11 13.6l-1 2.3c-1.8.6-1.8.6-4 1-2.5 1.7-2.5 1.7-5 3.9l-2.7 2c-2.2 2-2.2 2-3.8 3.7-2 1.9-4.2 3-6.6 4.3q-6.6 3.5-13.1 7.2c-1.8.9-1.8.9-3.8.9v-2l3-1.6q14-7.4 26-17.4l2.3-2q7-5.8 12.7-13l2.5-3a130 130 0 0 0 27.2-84.6z"/><path fill="#cbcdcd" d="M669 726v3c-27.3 27-86.3 46.8-124 48l-2-2 4.8-1 2.6-.6c2.6-.4 2.6-.4 6.6-.4l1-2 2.9.1c3.2.2 3.2.2 5.1-2.1v2l2-.8a50 50 0 0 1 16-4.2c2.3-.3 2.3-.3 4-1l1-2h7l1-2 2.4-.4q7.2-1.2 13.6-4.6l1-2 4.8-1.4q6.7-2 13.2-4.6l2.8-1c2.4-.8 2.4-.8 3.2-3l2.4-1c2.9-.8 2.9-.8 4.6-4 1-1 1-1 4-1h3l1-4 2.3-.4 6.7-1.6-1-4z"/><path fill="#cacaca" d="m223 259 2 1-1.9 2.3-2.5 3-2.4 3c-2.3 2.7-2.3 2.7-4.2 5.7l-4 4c-3.5 3.6-3.5 3.6-5.5 8.1-.5 1.9-.5 1.9-3 3.8-3 2.5-3.6 4.4-4.5 8.1h-2c-1.8 2.4-1.8 2.4-3.6 5.4l-2 3c-1.6 2.4-1.6 2.4-1.4 4.6l-3 3-2.7 4-1.3 2c-1.3 2.2-1.3 2.2-1 6h-3l-.8 2.1q-2.4 5.9-5.2 11.5c-1.1 2.3-1.1 2.3-1 4.4h-2l-1 6h-2l-1.1 3.6q-3 8.4-6.7 16.4c-1.4 3-1.4 3-1.2 6h-2l-.4 1.7q-2.2 10.4-5.6 20.3l-1 3-2 5-2-1c5-51.7 46.5-109 80-146"/><path fill="#cececd" d="m711 772 3 1-1.5 1c-3.9 2.5-6.3 4.2-7.5 9l-1-2c-5.4 3.1-5.4 3.1-10 7.2-2.7 2.5-5.5 3-9 3.8v2l-3 1 1 2c-3 1-3 1-5 1l-3.7 2-2.3 1.3-2.4 1.3c-16.8 9.5-33.9 17-52.2 23l-2.4 1-2.2.6c-2 .8-2 .8-3.8 2.8h-2l-9.3 2q-5.3 1.2-10.7 1v-2l2.4-.7c42.7-11.6 85.5-28.5 119.9-57.2z"/><path fill="#cececf" d="M360 764a35 35 0 0 1-5 9.3l-1.7 2.3-1.8 2.5-3.5 4.7-1.6 2.2q-2 3-3.4 6l2.2.8q3.6 1.5 7 3.7c24.7 15 51.3 24.7 78.8 33.5v2l-5.9-.8c-2.4-.3-2.4-.3-6.1-.2l-5-1v-3l-3 1c-2.6-.3-2.6-.3-5-1l-1-2c-2.7-.9-2.7-.9-5.8-1.6l-3.2-.7-5.3-1.2c-1.7-.5-1.7-.5-3.4-2.3A29 29 0 0 0 370 811v-3l-2-.4-10-2.6v-3l-2.2-.8c-2.8-1.2-2.8-1.2-5.4-2.9-2.3-1.5-2.3-1.5-4.7-1l-1.7.7-.4-1.7c-.5-2.3-.5-2.3-1.8-4.1-1.2-3.4 0-5.9 1.2-9.2h2l.9-1.9c1.1-2.1 1.1-2.1 3.1-4.1q2.5-3.6 4-7.6c1.4-3.3 3.3-5.4 7-5.4"/><path fill="#d2d3d3" d="m105 324 1 2-3.4 6.8c-2.1 4-4 7.7-4.6 12.2h-2l-.3 3.4c-.6 5-2.4 9.5-4.3 14.3A500 500 0 0 0 71 443l-2-1c-.2-5.1.5-9.6 1.6-14.6q.7-4.6.4-9.4h2v-9h2l.1-1.8c.5-4.5 1.1-8 2.9-12.2l-1-2h2v-8l2-1-.6-1.8c-.4-2.2-.4-2.2.6-5.2l2-1 .5-3.5.5-3.5 2-1c1.2-2.5 1.2-2.5 2.2-5.4l1-3c1-2.7 1-2.7-.2-5.6h3l1.5-5.7.8-3.2c.6-2.8.8-5.2.7-8.1l2-1 1-3 1.4-1.4c2-2 2.6-4 3.6-6.6z"/><path fill="#dcdddd" d="M65 467c2.1 3.2 2.3 4 2.2 7.6v2.4l-.7 7a139 139 0 0 0-.7 18.4v12.7c0 25.4 2 50.1 5.9 75.2.3 2.7.3 2.7.3 6.7h-2c-2.1-4.6-2.1-4.6-1-8h-2l-1-5h2l-1.4-2a19 19 0 0 1-1.6-15l-1-4 1-3-2-1 1-3a149 149 0 0 0-.8-13.7A372 372 0 0 1 65 467"/><path fill="#c8c8c8" d="M347 170v2h-2l-1 2-3 2-1 2h-4c-3.7.8-3.7.8-7 2l-1 2-3 1-1 2-2.5.3c-5 1-8.6 3.6-12.5 6.7l-1 2-2.2.4c-3.5.8-5 2.3-7.8 4.6l-7.7 4.5a15 15 0 0 0-6.3 6.5l-1.7.4c-3.9 1-6.5 3.8-9.3 6.6l-2 .9c-2.4 1.4-3 2.5-4 5.1v2l-1.7-.8c-2.5-.5-2.5-.5-4.6 1.5l-2.5 2.4-2.7 2.5-2.5 2.4-4 3.4c-3.2 2.3-3.2 2.3-4 5.6l-5 3-5 5-2.7 2.6C230 255 230 255 228 258l-3 1c.5-4 2.5-5.9 5.3-8.7l2.7-2.7 1.4-1.4 4.2-4.1q9.2-9 19.4-17.1l5.5-4.7C324 170 324 170 347 170"/><path fill="#c1c2c2" d="m424 617 3 4-5.3 2.8c-2 1.2-2 1.2-3.7 4.2l-5 3-5.1 4.6q-5.7 5.2-11.5 10l-10.5 8.6-2.1 1.9c-2 2.2-2.9 4.1-3.8 6.9l-2-1-1.7 1.8c-2.3 2.2-2.3 2.2-4.5 3.5-3.6 2.2-6.4 5-9.4 7.8q-7.9 7.4-16.3 14.1c-2.3 1.8-2.3 1.8-4.1 4.8l-5 3-5.7 5-2.9 2.7-4.4 4.3-2.4 2c-2.5 1.8-2.5 1.8-4 3.4a51 51 0 0 1-5.6 4.7l-2 1.5-5 3.4c1.6-4 4.3-6.4 7.4-9.2l1.7-1.5q6.4-5.6 13.2-11 5.7-4.9 11.1-10l8.6-7.5 6.8-6.2 10.6-9q7.6-6.3 14.8-13L390 647l1.5-1.3 16.1-13.7 1.8-1.5 3.2-2.8a96 96 0 0 0 7.1-6.5c2.3-2.2 2.3-2.2 4.3-2.2z"/><path fill="#d8d8d8" d="m546 256-1 3-3-.5q-7.6-.9-15.3-.5-4.3.2-8.5-.6c-2.4-.6-2.4-.6-5.2.6v-2h-2v2h-1.8c-16.1-.2-16.1-.2-32.2 1v2l-3-1c-3.6.2-3.6.2-7 1l-1 2-1-1-1 2q-5 1-10 1l-2 1-3.4.3c-5 .5-9.3 2.2-14 4-2.6.7-2.6.7-5.6-.3l5-1v-2c4.5-1.8 8.2-2.2 13-2v-2c32.3-9 65.7-12.3 99-7"/><path fill="#c5c6c6" d="M140 611h2l2 6.3 1.1 3.6c.9 3.1.9 3.1.9 6.1h2v7h2l.4 2q1 6.7 3.6 13v3h2l3 9a45 45 0 0 1-16.8 11c-5.5 2-5.5 2-9.2 6l-4.7 2q-5.5 1.8-10.3 5v1l-1.8.5a33 33 0 0 0-10.5 4.8c-2.7 1.7-2.7 1.7-4.9 1.3L99 692q11.3-7.3 23.3-13.1 6-3 11.8-6.5C152.5 662 152.5 662 156 662l-1-2c-4-8.8-7-17.7-9.8-26.9l-.6-1.9c-2.1-6.7-4-13.2-4.6-20.2"/><path fill="#c1c1c2" d="M446 833a322 322 0 0 1 22.3 2.9c13.5 2.1 26.8 2.3 40.4 2.2h9.7q19.3 0 38.6-1.1l1 2a192 192 0 0 1-30 3.2l-13 .6q-8.8.3-17.6-.6-4-.3-8-.2H485l-1-1h-3.4a51 51 0 0 1-11.8-1.4A98 98 0 0 0 449 837v-2h-3z"/><path fill="#cfd0d1" d="M767 578h2c-.6 7.4-2.7 14-5.1 21l-1.3 3.6c-7 20.5-15.8 39.3-27.5 57.5l-1.7 2.7-1.6 2.4-1.4 2.2C729 669 729 669 726 670a22 22 0 0 1 3.6-7c1.6-2 1.6-2 1.8-5.1l.6-2.9 4-2 1-4 1.4-1.3c1.9-2 2.7-3.9 3.8-6.4l1-2.4.8-1.9h2l.3-2q1.3-5.2 3.9-10c1-2 1-2 .8-4h2l1-4.4.6-2.4c.5-2.2.5-2.2.4-4.2l2-1c.8-1.8.8-1.8 1.5-3.9l.8-2.4.8-2.5.9-2.5c1.2-3.8 2-6.6 2-10.7h2l.4-3.4c.6-3.6.6-3.6 1.6-5.6"/><path fill="#d8d7d3" d="M745 240h1c.2 4.4 0 8.3-1 12.6a79 79 0 0 0-1.4 16.5v3a68 68 0 0 0 5.3 27c.1 1.9.1 1.9-2 4.3l-9.8 8.5q-6.7 5.5-12.7 11.8-2.9 2.5-6.4 4.3c1.5-3.4 3.6-6 6-9l1-2 3-1 1-3 4-1c4.7-3.1 9.3-6.4 10.9-12q.4-4 .1-8l-2-1v-4l-1-2.6c-1-2.4-1-2.4 0-5.4l-.4-5c-1.6-15.7-1.6-15.7.4-23l2-1-1-7 3-1z"/><path fill="#cececf" d="m565.7 137 2 .3Q596 141.8 623 151v2h-10l-1-2c-1.9-.5-1.9-.5-4-.6l-4-.4v-2l-2.4-.4-3.3-.5-3.2-.6-5.9-1.1c-2.2-.6-2.2-.6-4.2.6l-6-3a18 18 0 0 0-10 0l-3-1v-2q-10.4-1.3-21-.7c-3-.3-3-.3-5-1.8l-1-1.5c7.4-3.7 19-.2 26.7 1"/><path fill="#e2e0e0" d="m464 893 16 .4 2.3.1q14.7.3 29.2 1.4 4 .1 8-.4c6.7-.7 13.4-.6 20.1-.6h4l9.4.1v2c-28.4 3.8-61 5-89-1z"/><path fill="#c4c5c5" d="M835 468h2l.4 2 .5 2.8.6 2.7c.5 2.6.5 2.6 1.5 5.5a202 202 0 0 1 0 14l1 1v21.6l.1 2.4c-.1 2-.1 2-1.1 3l-.1 4.4v2.4c0 2.4 0 2.4 1.1 5.2-.4 2.7-.4 2.7-1 5h-2l1 8-3-1v-2.3l.1-49.3q0-13.8-1.1-27.4"/><path fill="#c5c6c6" d="m682 259 1 2-4.3 7.5-1.3 2a37 37 0 0 1-5.4 7.5l1 2-1.8.6c-3 2-3.7 4.2-5.2 7.4l-4.6 6c-1.5 2-1.5 2-2.5 4.2-.9 1.8-.9 1.8-2.8 2.8-2.1 0-2.1 0-4.2-2l-1.9-2h-2v-2l-4 1-1-3c-2.5-1.4-2.5-1.4-5.5-2.6-5.4-2.2-5.4-2.2-6.5-4.4l-2.5-.8q-6.5-2.4-12.5-6.2c1.5-.7 1.5-.7 4-1a76 76 0 0 1 7.3 3.4l2.1 1.1 6.6 3.5 2.1 1.1 8 4.3q4.7 2.6 9.9 4.6l1-1.6c18-26.2 18-26.2 25-35.4"/><path fill="#d8d8d7" d="M511 132.8h3.7q11.6 0 23.3 1.2v2l-8.3.8c-2.7.2-2.7.2-5.7.2h-5.5l-3 .1c-2.5-.1-2.5-.1-5.5-1.1l-2.1.4q-8.5 1.7-16.9-.4v2l-4-.6c-4.3-.5-7.8 0-12 1.1a21 21 0 0 1-10-.5l1-3q22.5-2 45-2.2"/><path fill="#cacccd" d="M868 664q-3.5 10.8-8.6 21l-1.6 3.3A326 326 0 0 1 814 755l-2-1c8.3-12.7 8.3-12.7 11-14l.9-1.7c1.1-2.3 1.1-2.3 2.8-4.4a209 209 0 0 0 8-11l1.6-2.1 1.4-2 1.4-2c1.2-2 1.2-2 .9-5.8l3-1v-5l1.8-.2c3-1 3.4-2.2 4.8-5l1.4-2.5 1.4-2.9 1.5-2.8q5.2-10.4 8.1-21.5c1.1-3.5 2-6.1 6-6.1"/><path fill="#b8b9b9" d="m298 121 2 1a26 26 0 0 1-8 6h-4l-1 3c-2 1-2 1-4.6 1.9-4.8 1.8-8.3 4-12.4 7.1h-2v2l-2 .7a59 59 0 0 0-9.7 5.6l-2 1.3c-12 8.2-23.6 16.5-34.5 26q-5.2 4.4-10.8 8.4c.3-3.1 1-4 3.3-6.2l3-2.3 2.8-2.3 2.9-2.2c3.4-2.6 3.4-2.6 6.5-5.6 2-1.8 4.2-3 6.5-4.4l2-2a99 99 0 0 1 8.8-6q4.8-3 9.5-6.3 11.2-7.5 23-14.3l2.8-1.6 2.6-1.5 2.4-1.4c1.9-.9 1.9-.9 3.9-.9l1-3 6-2z"/><path fill="#cbcccc" d="M547 258c14 0 26.6 2.9 40 7v2l3.9.2a50 50 0 0 1 17.8 6l6.3 2.8-1 4-3-1h-1l-3-1v-3c-4.3-1-8.1-2-12.6-1.9A20 20 0 0 1 583 269l-1-2c-2.1-.5-2.1-.5-4.6-.6l-2.5-.3-1.9-.1v-2l-5 1-1-2c-2-.7-2-.7-4.5-1l-2.7-.6-2.9-.5-2.8-.6-7.1-1.3z"/><path fill="#cecfcf" d="M634 87c6-.2 6-.2 8 0l2 2 6.8.6c2.6.5 3.4 1.5 5.2 3.4 2.2-.2 2.2-.2 4-1l2 3c1.8.6 1.8.6 4 1l3.6 1c3.1 1 3.1 1 5.4 1l3 3 1-2c3 .8 3 .8 6 2l1 3c3 1.7 3 1.7 6.6 3.2l3.6 1.6 2.8 1.2v1a19 19 0 0 1-10.1-2c-17.2-7.5-35.1-13.2-52.9-19v-2z"/><path fill="#cecfce" d="M411 278a24 24 0 0 1-8 5.7l-2.7 1.3c-2.3 1-2.3 1-4.3 1v3l-2.4.1a35 35 0 0 0-11 5.3q-4.8 3-9.8 5.4c-2.1 1.2-2.1 1.2-3.8 4.2l-5 2c-5.2 3-5.2 3-8 8l-1.7.4c-3.4.9-5 3.2-7.3 5.6-4.4 3-4.4 3-7 3l-1 2c.7-5.2 4.5-7.2 8.4-10.3l3.6-2.7 2-1.5q14.9-11.3 31-20.5l2.1-1.2c19.7-11.3 19.7-11.3 24.9-10.8"/><path fill="#bebfc0" d="M714 329c0 3 0 3-2 5.2l-2.5 2.6-2.8 2.6q-4.2 4-8.7 7.8l-6.6 6-10.3 9q-9 7.5-17.4 15.4l-2 1.9-1.8 1.7-1.6 1.5c-1.4 1.3-1.4 1.3-2.3 3.3l-5 3-6 5c0-4.3 2.1-6 5-9h2v-2h2l1-3 4.3-2.9c2.8-1.7 4.6-3 6.7-5.6a19 19 0 0 1 5.9-5q6.8-4.6 12.6-10.2l1.9-1.7 1.8-1.7 1.5-1.5c1.5-1.5 1.5-1.5 2.3-4.4h3v-2l4.3-2.8q2.7-2 5-4.4l2.7-2.8h2v-2z"/><path fill="#cacbcb" d="m725 671 2 1-3 5h-2l-.8 1.7c-4.3 8-11.3 14.5-17.7 20.8a64 64 0 0 0-5.2 5.8 79 79 0 0 1-12.8 11.8A84 84 0 0 1 671 727c.5-3.8 2-5.6 5-8l2.4-1c3.4-1.3 5-3.4 7.6-6l3.7-2.6a13 13 0 0 0 5.3-6.4l2-.9c2.3-1 2.3-1 3.3-4.2l.7-2.9h4l3-6h3v-2l4-4v-2l4-4 2.7-2.7z"/><path fill="#b4b6b5" d="M855 803c0 4.1-1.7 5.3-4.3 8.4a59 59 0 0 0-6.3 8.3 18 18 0 0 1-4.8 5.3q-6 5-11.4 11a177 177 0 0 1-17.8 16.3l-1.8 1.4a25 25 0 0 1-7.6 4.3c1.6-4.4 5-6.8 8.6-9.7Q817 842 824 835q2.8-2.8 5.8-5.2c8-7 15-15.3 21.9-23.3z"/><path fill="#c6c8c7" d="M686 429h2c-1.7 3.9-1.7 3.9-4 5l-2 3-3 2.7c-10.7 8.7-10.7 8.7-20 19-2 2.3-2 2.3-4.3 3.6a40 40 0 0 0-7.8 6.7l-2.6 2.6-4 4c-2.1 2.2-4.7 3.7-7.3 5.4l-1-3 2.2-2 1.5-1.4 36-32.7z"/><path fill="#d4d4d4" d="m674 933-2 1-2.8 1.4-2.7 1.3c-2.6 1.3-2.6 1.3-5.5 3.3v-2l-5 4v-2h-3l-1 2-4.7 1.4-3 .8-3.3.8-17.8 4.7-3.5.9-3.2.8c-2.5.6-2.5.6-4.5.6v2l-5-1-1 2v-2l-4-1v-1l12.5-3 3.6-.9A60 60 0 0 1 636 945v-2l7-2.5 2-.7c4.5-1.6 8.2-2 13-1.8v-2l6.9-2 2-.7c4.9-1.4 4.9-1.4 7.1-.3"/><path fill="#cbcccd" d="m299 838 1 2-2.8 5a88 88 0 0 0-4.2 8.4c-1 1.6-1 1.6-4 2.6-1 2.2-1 2.2-2 5q-4 8.5-9.3 16.4L276 880l-1.7 2.6c-1.5 2.4-1.5 2.4-1.3 5.4q3.1 2.3 6.5 4.5 3.4 2.1 6.5 4.5v3a23 23 0 0 1-8-6l-3-2-3 1-2-2 2-1-3-2 1-8 3-1 .4-1.7c.6-2.3.6-2.3 2.8-4.4 3.6-3.5 6-7.7 8.6-12l1.5-2.5c2.9-4.4 2.9-4.4 3.7-9.4h3l.8-2.1q2.1-4.7 5.2-8.9"/><path fill="#d0d0d1" d="m808 759 2 1c-1.4 3.2-2.9 5-5.6 7.1s-2.6 2.1-4.4 4.9h-2l-.8 1.7c-1.4 2.6-3 4.3-5 6.3l-2.3 2.2-2.4 2.4-4.7 4.5-2 2c-2 2-2 2-3.8 4.9l-5 3-4.8 4.3q-6.3 5.8-13.2 10.7l-2-1q9.2-8.6 19.1-16.3c2.2-1.6 2.2-1.6 2.9-4.7l5-3c2.4-2 3-2.9 4-6l5-1 .2-2.3c1-3.6 2.6-3.8 5.8-5.7l4.7-5 2.3-2.6c2.1-2.4 2.1-2.4 4-5.4z"/><path fill="#cccdcd" d="M204 417c1 3.3 1 3.9 0 7l-.8 2.5-.8 2.7Q195 453.7 192 479l-3-1 1.2-10.3c1.5-12.8 1.5-12.8 2.8-16.7v-2.6c0-2.4 0-2.4 2-4.4l1.3-5 .7-3 .6-3.1.7-3.2 1.7-7.7h2l.4-2c.6-2 .6-2 1.6-3"/><path fill="#c9caca" d="M555 194h12.7l2.7-.1h2.5c2.1.1 2.1.1 4.1 1.1l2.9-.6c3.5-.5 4.1-.1 7.1 1.6l3.4 1c3.6 1 3.6 1 6.5 2.5 4.3 2 8.5 3 13.2 4 1.9.5 1.9.5 4.9 2.5v2l-2.6-.7A592 592 0 0 0 555 195z"/><path fill="#bebfbf" d="m908 727 1 2c-.7 1.7-.7 1.7-1.8 3.7l-1.3 2.3-1.3 2.4-1.4 2.4q-5.6 9.9-12.2 19.2a16 16 0 0 0-3 8l-2-1-2 3a325 325 0 0 1-20.7 27.4l-3 4-1.3 1.6h-2a32 32 0 0 1 4.7-7.4l1.6-2 1.7-2a338 338 0 0 0 19.4-26l8.4-12.2q4.4-6.2 7.2-13.4h2l.4-2.2c.6-2.6 1.3-4.5 2.6-6.8h2z"/><path fill="#cbcccc" d="m424 617 3 4-5.3 2.8c-2 1.2-2 1.2-3.7 4.2l-5 3-5.1 4.6q-5.7 5.2-11.5 10l-10.5 8.6-2.1 1.9c-2 2.2-2.9 4.1-3.8 6.9l-2-1-4 4-3-1q13.4-13.6 28.1-25.6l10.8-9.1 1.9-1.7q4.2-3.5 8-7.5c2.2-2.1 2.2-2.1 4.2-2.1zm-56 319c7.9.8 15.2 2.9 22.7 5.3A473 473 0 0 0 428 951l-1 3-3-1-1 2-1-3-3.9-.4q-6.6-.8-13-2.2c-2-.5-2-.5-4.1-.4v-2l-1.8-.3a162 162 0 0 1-19.8-5.2l-3-1-2.8-.8-2.6-.9c-2-.8-2-.8-3-2.8"/><path fill="#d2d3d4" d="m71 599 2 1a135 135 0 0 1 2.7 10.8l4.9 21q1 4.8 2.4 9.2v7l-2-1q-1.4-5-2.4-10.3-.7-3-1.6-5.7l-3-1v-7l-1-3 1-2h-2v-3.2c.1-3.6.1-3.6-.5-6.3q-.8-4.7-.5-9.5"/><path fill="#d0d1d1" d="M606 885v2l-22 4.9q-10 2.2-20.3 3h-2.2q-2.8.2-5.5.1l-2-2 5.8-1 3.3-.7c2.9-.3 2.9-.3 5.9.7v-2l2.8.1c3.1.1 3.1.1 5.3-1.2 1.9-.9 1.9-.9 4.1-.5l1.8.6v-2l9 1v-2c9.4-1.1 9.4-1.1 14-1"/><path fill="#dddddc" d="m248 325 1 3-4.2 6.8Q231.5 355.6 221 378h-2c.7-4.4 2-8 4-12l2-1 1-7h3l.8-2.5c3.8-10.8 3.8-10.8 7.2-12.5l1-7 3-1v-3c2.4-2.6 2.4-2.6 5-5z"/><path fill="#cdcecf" d="m711 772 3 1-1.5 1c-3.9 2.5-6.3 4.2-7.5 9l-1-2c-5.4 3.1-5.4 3.1-10 7.2-2.7 2.5-5.5 3-9 3.8v2l-3 1 1 2c-3 1-3 1-5 1l-9 5.7-3 1.3-4-2 1.6-.8c16-8.5 31.1-17.8 45.3-29z"/><path fill="#c5c5c4" d="M163 350h2q-3.3 10.2-7.8 20c-1.4 3-1.4 3-1.2 6h-2l-.4 1.7q-2.2 10.4-5.6 20.3l-1 3-2 5-2-1c.6-6.7 2.8-12.8 5-19.2l1.2-3.4q6-16.6 13.8-32.4"/><path fill="#d4d5d5" d="M537 774v2h5l-1 2c-2 .4-2 .4-4.7.6l-3 .3-3.2.2-3.2.3a314 314 0 0 1-23.1.9c-3.8 0-5.6-.1-8.8-2.3l3.4-.4c3.6-.2 3.6-.2 5.6-2.6l5 1 6-1h2l1 1 4-1v2l6.8-1.5c6.2-1.5 6.2-1.5 8.2-1.5"/><path fill="#ccc" d="m390 575 3 1q-11.6 11.6-24.3 21.8-5.4 4.5-10.4 9.5a12 12 0 0 1-7.3 2.7v-2c1.4-1.2 1.4-1.2 3.4-2.6q6.4-4.8 12.3-10.3c2.3-2.1 2.3-2.1 4.6-3.7 2-1.3 2-1.3 2.4-4l.3-2.4 2 2 1.7-1.5 2.2-2 2.2-2c1.9-1.5 1.9-1.5 3.9-1.5v-2c1.8-1.7 1.8-1.7 4-3"/><path fill="#c3c4c4" d="M774 349v4l-6 3v2l-2.1 1.3a27 27 0 0 0-6 4.9L757 367h-2v2l-3.2 3q-5.3 4.4-10.3 9l-1.5 1.4-9.3 8.6-2.2 2.1-4.2 4.1-2 2-1.8 1.6C719 402 719 402 717 402v-2c1.6-1.6 1.6-1.6 3.8-3.4 3-2.6 3-2.6 5.8-5.3 1.4-1.3 1.4-1.3 3.4-1.3v-2h2v-2c1.5-1.5 1.5-1.5 3.5-3.1q6.5-5.7 12.8-11.6l2-2 8-7.8c1.7-1.5 1.7-1.5 3.7-1.5l.8-1.8c1.4-2.5 3-4 5.2-6l2.1-1.8c1.9-1.4 1.9-1.4 3.9-1.4"/><path fill="#d4d4d5" d="m388 814 1.6.6q20.4 8 41.4 14.4v2l-5.9-.8c-2.4-.3-2.4-.3-6.1-.2l-5-1v-3l-3 1c-2.6-.3-2.6-.3-5-1l-1-2c-2.7-.9-2.7-.9-5.8-1.6l-3.2-.7-3-.7-4-1z"/><path fill="#cccdcd" d="m392 877 10 1v2h4.4l2.4-.1a7 7 0 0 1 4.2 1.1v2l6-1 1 2c3 1 3 1 6.7 1.6l3.7.8q4.8.8 9.6.6v2l3 1-1 1c-8.1 0-16-2.3-23.9-4.3l-3.6-1Q403.2 883 392 879z"/><path fill="#bbbdbe" d="M65 467c2.1 3.2 2.3 4 2.2 7.6v2.4l-.7 7q-.8 8.1-1 16.4l-.2 3.2L64 537h-1a395 395 0 0 1 2-70"/><path fill="#bfc0c0" d="M624 152a122 122 0 0 1 22 6.8l3.3 1.3q10.1 3.9 19.7 8.9v2l-9-2v-2l-3.7-.3c-2.8-.2-4-.5-6.2-2.2a15 15 0 0 0-7.4-2.7l-2.7-.5-2-.3-1-3-2.4 1-2.6 1-2-1v-3l-6-2z"/><path fill="#cdcece" d="M820 414c-1 3-1 3-3.1 4.3l-2.8 1.3-3.2 1.5-3.3 1.5-19.1 9.2-2.5 1.3-4.5 2.4c-5 2.6-5 2.6-7.7 2l-1.8-.5 2.4-.8 2.6-1.2 1-3h5v-2l1.8-.7q9-3.5 17.7-8.1c2.5-1.2 2.5-1.2 4.5-1.2l1-3 2.2-.4c3.3-.7 6.4-2.6 9.8-2.6"/><path fill="#c9cacb" d="M889 380c-1 3-1 3-3.2 4.4l-2.7 1.3-2.8 1.3c-2.3 1-2.3 1-4.3 1l.7 1.9 3.2 8.5 1 2.9A100 100 0 0 1 886 420h-2l-1.5-3.8-.8-2.2c-.7-2-.7-2-.7-5l-3-1-.2-3.3c-.6-4.7-2.3-8.8-4-13.2-.8-2.5-.8-2.5.2-6.5l9-2v-3c3.8-1.1 3.8-1.1 6 0"/><path fill="#c4c6c7" d="M375 740c5 1.8 9.7 4.4 14.4 7l15.6 8-2 2-9.2-4.3-2.6-1.2c-6.8-3.2-6.8-3.2-10-5.4-2.2-1.3-2.2-1.3-4.8-1.1-3.4 1.4-4.6 3.5-6.6 6.6L366 757h-2l.9-2.1 3.1-8.9h2z"/><path fill="#d1d2d3" d="M640 394h3c-1.6 4.2-4.7 6.8-8 9.7l-1.7 1.6q-6.8 6-14 11.7-3 2.7-5.9 5.6L611 425h-2v2c-3.5 3-3.5 3-6 3l-2-4q2.8-1 6-1 3.2-3.9 6-8l2.5-1c2.6-.7 2.6-.7 3.5-3 1-2 1-2 3.2-2.9a26 26 0 0 0 8-5.5l2.6-2.3c2-2 3.1-3.7 4.2-6.3h3z"/><path fill="#cfd0d0" d="M194 576q2.2 4 3.1 8.5l.6 2.6.6 2.7q2.6 11.9 6.9 23.3c.8 2.9.9 4.1-.2 6.9-2-3-2-3-2-5h-2l-1.5-5.7-.8-3.3c-.7-3-.7-3-.7-7h-2l-2-6 1-1-1-4.7q-1.2-5-1-10.3z"/><path fill="#c1c1c2" d="M835 468h2l.4 2 .5 2.8.6 2.7c.5 2.6.5 2.6 1.5 5.5a202 202 0 0 1 0 14l1 1q.3 7.6-1 15l-2-1a87 87 0 0 1-1-9.5l-1.4-16.3-.2-2.1q-.5-7-.4-14.1"/><path fill="#d1d1d1" d="M465 136v2l-3.4.6-4.6.8-2.3.4a141 141 0 0 0-11 2.3 26 26 0 0 1-8.7.9v2h-2.7c-2.7 0-4.8.2-7.3 1v-4l24.2-4.7 2-.4c4.7-.9 9-1 13.8-.9"/><path fill="#c1c2c2" d="M826 599h2c-.4 5.3-1.1 10-3 15l-1.3 4q-2.6 7.8-5.7 15.2c-1.2 2.8-1.2 2.8-1 5.8h-2l-1 4h-2c.7-4.8 2.5-9 4.2-13.6q5.5-15 9.8-30.4"/><path fill="#c2c3c2" d="M138 422h2l.1 5.3.1 3c-.2 2.7-.2 2.7-2.2 5.7-.6 2.4-.6 2.4-1 5.1l-.6 3-.5 3.2-.6 3.1c-.8 5-1.6 9.6-1.3 14.6l-3-1c-.3-7.4 1-14.3 2.4-21.6l.6-3.6a146 146 0 0 1 4-16.8m0 9 1 2Z"/><path fill="#bfc0c1" d="M140 611h2l2 6.3 1.1 3.6c.9 3.1.9 3.1.9 6.1h2v7h2l.3 1.9q1.7 8.8 4.7 17.1h-3a859 859 0 0 1-10-30.6l-.6-2c-1-3.4-1.4-6-1.4-9.4"/><path fill="#c0c2c3" d="M962 488h1c1.6 16 1.2 32 0 48h-1a74 74 0 0 1-1.1-15.3v-24.6c0-5.9 0-5.9 1.1-8.1"/><path fill="#c6c7c8" d="M301 835c3.7.6 6.4 1.6 9.7 3.5l2.3 1.3 2 1.2 2 1 2 1.8c3.3 2.4 6.4 3.8 10.1 5.3 1.9.9 1.9.9 2.9 2.9l6 2q4.2 1.9 8.2 4l2.1 1 2.1 1 1.9 1q2.7 1.6 4.7 4a133 133 0 0 1-25-10.8 187 187 0 0 1-21.1-12.2 21 21 0 0 0-10.9-4z"/><path fill="#d3d4d3" d="m946 625 2 1-.8 5.9c-.3 2.4-.3 2.4-.2 6.1v2l-2 1v6l-2 1-2 5 2 1h-3l-2 10h-2c.6-5.4 1.5-10.3 3-15.6l.7-2z"/><path fill="#d6d6d7" d="m771 435 3 3c-2.4 1.9-4 3-7 4l.6 2c4.7 17.3 4.7 17.3 4.4 24l-2 1-.4-2.4-.6-2.6-2-1 1-3c-.2-3.6-.2-3.6-1-7l-2-1 1-1-3-3 1-3c-.4-2.1-.4-2.1-1-4l2.4-.9c2.7-.8 2.7-.8 3.6-3.1z"/><path fill="#d0d1d1" d="M360 764a35 35 0 0 1-5 9.3l-1.7 2.3-1.8 2.5-3.5 4.7-1.6 2.2q-2 3-3.4 6l2.3.8c2.6 1.1 3.9 2.1 5.7 4.2l-6 2-2-4-1.2-1.8c-1.2-3.4 0-6 1.2-9.2h2l.9-1.9c1.1-2.1 1.1-2.1 3.1-4.1q2.5-3.6 4-7.6c1.4-3.3 3.3-5.4 7-5.4"/><path fill="#cacbcb" d="m128 278 1 2-2 4-1.5 2.5-1.5 2.7a283 283 0 0 0-11.6 22.6c-4.3 9.5-4.3 9.5-8.4 13.2q2.5-8.3 6.2-16.2c1-1.8 1-1.8.8-3.8l3-3q1.4-2.2 2.6-4.5l1.4-2.7 1.5-2.7 3-5.4 1.2-2.5q2-3.2 4.3-6.2"/><path fill="#bcbdbd" d="m779 873 2 1-5 3.8-2.7 2c-2.3 2.2-3 3.1-3.3 6.2l-1.7-.7c-3.2-.4-4.4.7-7 2.5l-2.5 1.7-1.8 1.5v2l-2.2.3c-2.9.7-4.7 1.7-7.2 3.2l-2.3 1.5-7.3 4.7-2.2 1.4-1.8.9-2-1q8.2-5.6 16.6-10.7l16.5-10.6 1.8-1.2z"/><path fill="#d0ccc4" d="m638 504 2 1v3.6q0 5.7 1 11.4c1 6.4 1 10.8-1 17l-1.5 10.2c-.5 2.8-.5 2.8-1.5 4.8h-2l.4-2.6c2-15 2.2-30.2 2.6-45.4"/><path fill="#d6d6d7" d="M750 814v3c-2 1.9-2 1.9-4.6 4l-2.8 2q-3 2.4-6.2 4.4c-2.5 1.4-2.5 1.4-3.4 3.6l-5.5 2.7q-6.9 3.8-13.5 8.3v-3c2.4-1.6 2.4-1.6 5-3l2-2 4-1v-3l1.7-.5q3.2-1 6.3-2.5l2-5 6-1c1.4-2 1.4-2 2-4v2z"/><path fill="#cdcecd" d="M454.7 193.9h8.3l7 .1v1l-17.2 3.3c-9.3 1.7-9.3 1.7-18.6 3.9-3.2.8-3.2.8-7.2.8v-2c3.5-2.3 6-2.5 10-3l3-1 3 1v-2l1.8-.4c6.6-1.7 6.6-1.7 9.9-1.7M451 195l4 1Z"/><path fill="#bcbdbd" d="m730 905 2 1-9.1 4.8-2.6 1.4c-13 6.8-13 6.8-15.3 6.8l-1 3h-3l-2 2c-2.7 1.5-3.8 2-7 2l-5 2c-4.8 2-4.8 2-7 2l-1 3-4-2h2v-2l3.6-1.2q15.1-5.3 29.3-12.7l12-6.2 2.3-1.2z"/><path fill="#bec0c1" d="m298 121 2 1a26 26 0 0 1-8 6h-4l-1 3c-2 1-2 1-4.6 1.9-4.8 1.8-8.3 4-12.4 7.1h-2v2l-2 .7c-4 1.7-7.4 4-11 6.3v-3c2-1.5 2-1.5 4.7-3.2l3-1.8 3.2-1.9 3.1-1.8c17.2-10.3 17.2-10.3 20-10.3l1-3 6-2z"/><path fill="#c9caca" d="m422 78-4 1v2l-17.4 4.5-3.8 1-3.4.9c-3.6.6-6.8.7-10.4.6l2-3c2.6-.2 2.6-.2 5 0l1-2h4q4.3-.8 8.6-1.9l2.3-.5 2.2-.5 2-.5c7.5-2.4 7.5-2.4 11.9-1.6"/><path fill="#c6c6c7" d="M218 379h2q-3 9.7-7 19-3.7 9-7 18h-2a108 108 0 0 1 14-37"/><path fill="#cccdcd" d="M269 421c1.1 1.6 1.1 1.6 2 4-.9 3.6-.9 3.6-2 7v3l-2 1 1 4h-2l-6 20h-1c-.4-7.4 1-13.1 3.3-20l1-3q2.6-8 5.7-16"/><path fill="#dfdfdf" d="M511 253.8h2.2q16.5-.2 32.8 2.2l-1 3-3-.5c-5.2-.7-10.3-.5-15.5-.4l-5.5-.1-2-2-7.6-.2H509l-24.1.2v-1c8.7-1.1 17.3-1.2 26-1.2"/><path fill="#bcbdbd" d="M446 833a492 492 0 0 1 29.2 3.6l9.8 1.4-1 3c-5.3.2-10-.3-15.2-1.4A98 98 0 0 0 449 837v-2h-3z"/><path fill="#b2b4b4" d="M189 480h2q0 12.5-.9 25.1l-.2 3.8-.3 3.5-.2 3.2-.4 2.4-2 1-.6-5.2-.3-3c-.1-2.8-.1-2.8.4-5.1.7-3.9.6-7.6.6-11.5v-2.4l-.1-5.8h1z"/><path fill="#c0c0c1" d="m682 259 1 2-4.3 7.5-1.3 2a37 37 0 0 1-5.4 7.5l1 2-1.8.6c-3 2-3.7 4.2-5.2 7.4q-2.3 3.1-5 6h-2a19 19 0 0 1 3.4-7.7l1.5-2 1.6-2.2 3.3-4.6 1.6-2.3 6.8-9.7c3.7-5.4 3.7-5.4 4.8-6.5"/><path fill="#cecfce" d="m885 605 2 1a109 109 0 0 1-9 33h-2c-.8-3-1.2-4.5 0-7.3l1-1.7h2l-.6-2.2c-.5-3.4.1-3.9 1.6-6.8l2.6-8.2.7-2.3zm-8 26 1 2Z"/><path fill="#a4afaf" d="M338 325a40 40 0 0 1-12.3 14.6q-5.1 4.5-9.4 9.7L314 352h-2c1.2-4.6 3.8-7 7-10.1q3-2.9 5.4-5.9c9.5-11 9.5-11 13.6-11"/><path fill="#cecfcf" d="M547 258c14 0 26.6 2.9 40 7-3.5 2.4-4.6 2.1-8.7 1.6l-3-.3-2.3-.3v-2l-5 1-1-2c-2-.7-2-.7-4.5-1l-2.7-.6-2.9-.5-2.8-.6-7.1-1.3z"/><path fill="#cacbcb" d="M252 509h1l3 43h-2l-1-4-.5-2.2a116 116 0 0 1-1.6-24.7c0-4.2 0-8 1.1-12.1"/><path fill="#d1cdce" d="m557 837 1 2a117 117 0 0 1-38 2l1-2c2.6-.4 2.6-.4 6-.6l3.7-.3 3.9-.2 3.8-.3q9.3-.7 18.6-.6"/><path fill="#ccc9c4" d="m603 610 1 3c-2 2-2 2-4.1 2.7-4.8 2.2-8.8 6-12.3 9.8-2 2-4.3 3-6.7 4.4q-6.6 3.5-13.1 7.2c-1.8.9-1.8.9-3.8.9v-2l3-1.6c8.3-4.5 15.9-9.3 23.2-15.2q4.8-3.7 9.8-7.2l2 1z"/><path fill="#d1d2d2" d="M936 361c2 1 2 1 2.9 3.3l.7 2.8.8 2.7.6 2.2h3l-1 3 2.4 8.4c3 9 3 9 2.6 13.6h-2l-.7-2.3-3.2-10.4-1-3.6-1.2-3.5-1-3.2c-.9-3-.9-3-2-5.7-1-2.6-1-4.6-.9-7.3"/><path fill="#c6c6c7" d="M771 468h2c1.5 5.5 1.7 11.1 2 16.8l.3 3.7q1.2 17.7.7 35.5h-1l-2-37h-2v-2h2l-.4-2a57 57 0 0 1-1.6-15"/><path fill="#bababb" d="m605.6 78.4 3 .3 2.4.3v2l3.1.3c6.5.7 12.7 2.8 18.9 4.7-3 2-3 2-6.5 1.4l-8.9-2.2-2.3-.6q-7-1.7-13.7-2.9L599 81l-1-2c2.7-1.4 4.6-.9 7.6-.6"/><path fill="#cbcbcc" d="M328 920c4.4.7 8 2.2 12 4l13 4.3c2 .7 2 .7 4 1.7v2l10 3c-3.2 1-3.9 1-7 .1l-2-.5-2-.6c-2.5-.7-2.5-.7-5-1l-1-3c-2-.8-2-.8-4-1l-2 1-1-1.3c-2.7-2.3-5.5-3.5-8.7-4.9l-3.6-1.6-2.7-1.2z"/><path fill="#c0c1c1" d="M187 520h2l1 12.5.3 3.6q.8 9 .7 17.9l-2 1-.4-3.2c-.5-3.6-.5-3.6-1.2-6.1q-.6-5.2-.3-10.4c0-2.5 0-2.5-1.1-5.3-.1-3.7-.2-6.5 1-10"/><path fill="#c7c8c7" d="M285 388h2q-2 6-4.7 12l-1.6 3.2-1.7 3.4-1.7 3.5L271 423h-1c.4-7 3.3-12.5 6.4-18.6l1.5-3.1c4.7-9.7 4.7-9.7 7.1-13.3"/><path fill="#c6c8c6" d="M426 202v2l-23.2 7.8-3.8 1.3c-3 .9-3 .9-5 .9v-2l3.1-1.2 4.1-1.7 2.1-.8a71 71 0 0 0 8-3.6c1.7-.7 1.7-.7 4.7.3v-2c3.5-1.2 6.4-1 10-1"/><path fill="#c3c4c5" d="M64 515h1l1.6 27.2.1 2.3.3 6.5.1 2.4v2.5l.1 2.1c-.2 2-.2 2-2.2 5v-3l-2-1 1-3-.5-8.3c-.7-11-.2-21.8.5-32.7"/><path fill="#d3d3d3" d="m466 774 7.4.4 2 .2c5.4.3 5.4.3 7.6 1.4v-2h2v2l3.4-.6 3.6-.4 1 1c3.4.1 5.8 0 9-1v3c-5.3 1-10.1 1-15.4.6l-2.2-.1q-7.2-.5-14.4-1.5v-2z"/><path fill="#c1c2c2" d="M712 843a299 299 0 0 1-25.9 14.9l-3.3 1.7A65 65 0 0 1 667 866c2.2-2.4 4.1-3.7 7-5l2.5-1.1 2.5-1.1c6.7-3.1 12.9-6.3 19-10.5 2-1.3 2-1.3 5-2.3l2-2c3.5-2.2 3.5-2.2 7-1"/><path fill="#cfd1d0" d="m746 300 1 3-17 15.3-11 9.7c0-4.3 2.3-5.8 5-9l1-2 3-1 1-3 1.7-.4c3.3-.9 5-2.7 7.4-5l2.6-2.4z"/><path fill="#e1e2e2" d="M774 478h1q2.2 17.4 2.2 35v3.3q0 11.4-1.2 22.7h-1v-10h-3v-2h2v-8h1a642 642 0 0 0-1-41"/><path fill="#c6c7c8" d="m464 893 10.8.4 3 .2q10.2.3 20.2 1.4v2a208 208 0 0 1-34-2z"/><path fill="#d1d2d2" d="m286 203 1 3-2 2-1 2-1.7.4c-3.9 1-6.5 3.8-9.3 6.6l-2 .9c-2.4 1.4-3 2.5-4 5.1v2l-1.7-.7c-2.4-.6-2.4-.6-4.6 1.1L259 227v-3q3.2-3 6.8-5.6l2-1.6q9-7 18.2-13.8"/><path fill="#cecfd0" d="m80 643 2 4 2-2 3 8.8.9 2.5.8 2.4.7 2.2c.6 2.1.6 2.1.6 6.1h-2l-1-4h-2c-2-4.4-2-4.4-1.6-7.3l.6-1.7-2-1c-.9-2-.9-2-1.6-4.6l-.8-2.5-.6-1.9z"/><path fill="#cecfcf" d="m264 684 2 1c-11 11.2-11 11.2-16 15h-2v2l-4 1-2-5 3-3 3 1c6.3-2.9 11-7.3 16-12"/><path fill="#c5c6c7" d="M890 441h2a147 147 0 0 1 4 31h-2a248 248 0 0 1-4-31"/><path fill="#d6d8d7" d="M632 946c-2.2 2.2-3.1 2.4-6.1 3l-2.5.6-2.5.5-2.6.6-6.3 1.3v2l-5-1-1 2v-2l-4-1v-1l12.8-3 3.6-1 3.5-.8 3.3-.8a12 12 0 0 1 6.8.6"/><path fill="#cdcfce" d="M447 768h4v2l2.2-.7c3.6-.4 4.8.8 7.8 2.7 3.2.3 3.2.3 6 0v2l3 2a103 103 0 0 1-24-4z"/><path fill="#bbb9b4" d="M619 587h2c-1.1 3-2.2 5.3-4 8v3l-2 1.1c-3.7 2.4-5.8 5.3-8.4 8.7a33 33 0 0 1-4.6 5.2h-2a17 17 0 0 1 5.6-8.5 70 70 0 0 0 10.4-13.3z"/><path fill="#bfc1c1" d="M391 214v2l-11.3 5-3.3 1.4-3 1.4-3 1.3c-2.4.9-2.4.9-5.4.9 1-3 1-3 2.9-4.2 2.1-.8 2.1-.8 5.1-.8l1-3v2l2.8-1.5c3.2-1.5 3.2-1.5 6.2-1.5v-2c3-1 5-1 8-1"/><path fill="#c1c3c3" d="M948 398c3 1.5 3.6 4 5 7h-2l.9 2a48 48 0 0 1 3.1 19h-2l-2.5-10.6-.7-3A47 47 0 0 1 948 398"/><path fill="#cacbca" d="m363 303 3 1-2 1.4-2.4 2q-1.3.8-2.5 1.8c-2.3 1.7-2.3 1.7-3.1 4.8l-1.7.4c-3.4.9-5 3.2-7.3 5.6-4.4 3-4.4 3-7 3l-1 2c.3-3 1-4 3-6l2.8-2.2 3-2.3 1.6-1.3 8.1-6.3 3-2.3z"/><path fill="#bfc0c1" d="M694 706c0 3 0 3-1.2 4.6A96 96 0 0 1 671 727c.5-3.8 2-5.6 5-8l2.4-1c3.4-1.3 5-3.4 7.6-6z"/><path fill="#c6c8c8" d="M868 664c-2.3 7.7-5.6 14.8-9 22l-1.7 3.5-1.6 3.3-1.4 3C853 698 853 698 851 699q1.5-5.4 4.3-10.4a82 82 0 0 0 6-16.2c2.3-8.4 2.3-8.4 6.7-8.4"/><path fill="#dbdcdc" d="m700 111 6.6 2.1q3.3 1.3 6.4 2.9l1-2 2 3 5 1 1 2 2 1-1 2c-5-.7-9.2-2.8-13.7-4.9l-2.4-1-2.3-1-2-1C701 114 701 114 700 111"/><path fill="#c7c9c9" d="M586 832v2l-5 2-2-1v2q-9.4 1-19 1v-2l13.8-2.6 3-.5 2.7-.5c2.5-.4 2.5-.4 6.5-.4"/><path fill="#d5d5d5" d="m105 324 1 2-3.4 6.8c-2.1 4-4 7.7-4.6 12.2h-2v5c-2.1-3.5-2.1-3.5-1.6-6l.6-2v-5l2-1 1-3 1.4-1.4c2-2 2.6-4 3.6-6.6z"/><path fill="#c5c6c7" d="M823 414a10 10 0 0 1 4 7 90 90 0 0 0 3.5 12.6c.6 2.8.2 4.7-.5 7.4-2.7-4-3.8-8.3-5.2-13l-.9-2.7-.8-2.6-.7-2.5a11 11 0 0 1 .6-6.2"/><path fill="#c4c5c5" d="M558 73c11-.4 21.2.6 32 3v2c-10.8-.6-21.3-2.2-32-4z"/><path fill="#c9cacb" d="M231 353h2a111 111 0 0 1-5.7 12.5l-1.4 2.8-1.4 2.8-3.5 6.9h-2c.7-4.4 2-8 4-12l2-1 1-7h3z"/><path fill="#dbdbdb" d="M513 68c2.3-.4 2.3-.4 4-1v2l3-1v3l-9.7.1h-2.8l-2.7.1h-2.5c-2.5-.2-4.1-1-6.3-2.2 6-1.3 11-2.3 17-1"/><path fill="#cdcdce" d="m683 791 2 3-3 1 1 2c-3 1-3 1-5 1l-9 5.7-3 1.3-4-2 1.8-1 8.1-4.4 2.9-1.6 2.7-1.5 2.6-1.4c1.8-1 1.8-1 2.9-2.1"/><path fill="#bebebe" d="m799 671 1 2-3 6c-2.2 3.8-2.2 3.8-3 8h-3l-.8 2.4C789 692 789 692 786 694a29 29 0 0 1 5.4-12.6l1.2-2c1.9-3.2 3.7-5.9 6.4-8.4"/><path fill="#dbdbdb" d="M71 599c2 1 2 1 2.6 2.9l1.7 8 .6 2.8 1.1 5.1c0 2.2 0 2.2-1.5 4L74 623l-1-3 1-2h-2v-3.2c.1-3.6.1-3.6-.5-6.3q-.8-4.7-.5-9.5"/><path fill="#bfc2c2" d="M831 575h2v4.3l.1 2.3q-.2 3.3-1.1 6.4l-.4 2.4q-1 3.9-2.6 7.6h-2a170 170 0 0 1 4-23"/><path fill="#bcbdbd" d="M693 181q11.4 5.4 22.3 11.8l1.9 1a18 18 0 0 1 6.8 6.2 66 66 0 0 1-10-4.7l-2.7-1.6-2.9-1.7-5.6-3.2-2.5-1.5c-2.3-1.3-2.3-1.3-4.5-2.3-1.8-1-1.8-1-2.8-4"/><path fill="#c3c3c4" d="M610 827v3h-3l-9.4 2q-5.3 1.2-10.6 1v-2l8.7-2.6 2.5-.7c7.5-2.2 7.5-2.2 11.8-.7"/><path fill="#b6b7b7" d="M855 803c0 4.1-1.7 5.3-4.3 8.4a60 60 0 0 0-6.3 8.3c-1.7 2.8-3.5 3.8-6.4 5.3l-1-2a806 806 0 0 1 18-20"/><path fill="#c4c6c6" d="m375 740 4 2c-1 2-1 2-2.8 2.8-3 1.7-4.4 4-6.3 6.8q-1.9 2.9-3.9 5.4h-2l.9-2.1 3.1-8.9h2z"/><path fill="#c6c6c6" d="M875 640h2q-2 11.5-7 22l-3 1v-8h2z"/><path fill="#dbdcdc" d="M892 461c2.3 3.6 2.2 6.8 2 11l3-1 1 15h-2v2l-2-1 1-4-2-1h2l-1-3 1-2-2-1c-1.3-7.4-1.3-7.4 0-10l-2-1z"/><path fill="#e0dfe0" d="M885 421h2l3.2 10.4a14 14 0 0 1-.2 8.6l-1-3h-2v-4l-2-2-.7-4-.2-2.1c-.1-1.9-.1-1.9.9-3.9"/><path fill="#d3d4d4" d="M624 152a91 91 0 0 1 19 6l-2 4-4-2v-2l-2.4 1-2.6 1-2-1v-3l-6-2z"/><path fill="#d0cfce" d="M303 725c0 2 0 2-1.5 3.5l-1.9 1.6-1.9 1.7C296 733 296 733 294 733v2l-5.3 4.6-3 2.5C283 744 283 744 280 744l-1-2 3.1-1.6q5.6-3.5 10.1-8C300 725 300 725 303 725"/><path fill="#b6b6b7" d="m877 775 2 1a321 321 0 0 1-15 19.6c-2 2.3-2 2.3-3.6 4.7L859 802h-2q1.8-4.2 4.9-7.6l1.7-2.1 1.7-2.1q6.2-7.5 11.7-15.2"/><path fill="#d9d8d8" d="m785 692 2 4-4 4 2 1v2l-2.4.2c-2.8.5-2.8.5-4 3.2-.9 2.6-.9 2.6.4 4.6h-6q2.6-5.3 6-10l2.1-3.2 1.9-2.8z"/><path fill="#bebfc1" d="M193 455h2l-1.2 11q-.7 6.6-1.8 13l-3-1 1-8.2.2-2.4q0-1.2.3-2.3l.2-2q.5-4.4 2.3-8.1"/><path fill="#bbbcbc" d="M640 394h3c-1.6 4.4-5 7-8.3 10l-1.7 1.6a173 173 0 0 1-10 8.4l-2-1c8.2-8.4 8.2-8.4 12-11.3a12 12 0 0 0 4-5.7h3z"/><path fill="#c2c4c6" d="M670 170a85 85 0 0 1 16.6 7.3l5.4 2.7v2h-6v-2l-8-3v-2l-2.3.2c-2.7-.2-2.7-.2-4.5-1.6-1.2-1.6-1.2-1.6-1.2-3.6"/><path fill="#c7c8c8" d="m660 377 1 3a27 27 0 0 1-10 9l-6 5c0-4.3 2.1-6 5-9h2v-2h2l1-3c2.6-1.7 2.6-1.7 5-3"/><path fill="#cbcccc" d="m935 359-14.6 7.7-3 1.7-3 1.5C912 371 912 371 909 371v-2l13-6v-2l2.8-.4c3.1-.4 3.1-.4 5.4-1.7 1.8-.9 1.8-.9 4.8.1"/><path fill="#cecfd0" d="M382 88v2l-8.7 3-2.5.9c-7.5 2.5-7.5 2.5-11.8 2.1 2.4-1.9 4-3 7-4l1-2 6-.8c3.3-.4 5.6-1.2 9-1.2"/><path fill="#d7d7d7" d="M544 960v2h-6l-1 3-3-1v-2h-4v2l-9-3v-1l9.8-.6 2.8-.1 2.7-.2 2.5-.1c2.2 0 2.2 0 5.2 1"/><path fill="#bfc0c0" d="M553 894v2a104 104 0 0 1-16.3 1.2h-2.2c-3.7 0-5.3 0-8.5-2.2q13.5-1.2 27-1"/><path fill="#c5c7c7" d="M358 865c5.7.8 10.8 3.2 16.1 5.4q7.4 2.9 14.9 4.6l2 1v2c-5.9-.6-11-2.8-16.5-4.9l-2.8-1A124 124 0 0 1 358 866z"/><path fill="#d6d6d7" d="M506 839h15v1l7 1v1l-22 1z"/><path fill="#c6c7c7" d="M772 711h2l-1 1.8c-1 2.1-1 2.1-1.4 4.4l-.6 1.8-3 1-4.6 5.5c-4.2 5.4-4.2 5.4-6.4 6.5.9-4.5 3.4-7.2 6.4-10.5l3-3.4 1.3-1.6 3-4z"/><path fill="#bfc0c1" d="m569 890 9 1-1 2q-10.3 2.6-21 2l-2-2 5.8-1 3.3-.7c2.9-.3 2.9-.3 5.9.7z"/><path fill="#cdcecf" d="M738 650c.8 2.3 1.2 3.5.2 5.8l-1.2 1.8-1.3 2-1.5 2-1.3 2.2c-3.5 5-3.5 5-6.9 6.2a22 22 0 0 1 3.6-7c1.6-2 1.6-2 1.8-5.1l.6-2.9c2-1.2 2-1.2 4-2z"/><path fill="#c9cacb" d="m774 794 2 1c-6.7 7.2-14.2 13-22 19l-2-1a402 402 0 0 1 22-19"/><path fill="#d4d4d4" d="m895 534 1 2h2l-.5 9.4c-.2 3.7-.4 5.5-2.5 8.6h-2l.9-7.4c0-2.5-.2-4.3-.9-6.6h2z"/><path fill="#cececf" d="M68 444c2 2 2 2 2 3.9l-.2 2.2-.2 2.4-.3 2.6-.3 2.5c-.6 4.7-.6 4.7-1 6.4l-2 1-.9-6.6c-.1-2.4.3-4.1.9-6.4v-4h2z"/><path fill="#cacbca" d="M658 95c6-.2 6-.2 8 0l2 2 7 1 2 5a160 160 0 0 1-19-6z"/><path fill="#d7d7d8" d="M669 726v3c-2.3 2-2.3 2-5.3 4.1l-3 2.2C658 737 658 737 655 738v-2l-3 1 1-3 2.3-.4 6.7-1.6-1-4z"/><path fill="#b2b3b3" d="M171 220c0 4.3-2.5 6.3-5.2 9.3a80 80 0 0 0-8 10.1L156 242h-2a44 44 0 0 1 13-18l2.3-2.3z"/><path fill="#cccece" d="M602 953c-3.9 2.4-8 2.9-12.4 3.6l-2.3.4q-5.6 1.2-11.3 1l4-1v-2a94 94 0 0 1 22-2"/><path fill="#cbcccc" d="M646 465c0 4.4-1.3 6.2-4.2 9.5a59 59 0 0 1-8.8 6.5l-1-3 2.6-2.3z"/><path fill="#ddd" d="M837 502h1l1 8 3 1-.5 2.7a45 45 0 0 0-.5 8.3l-2 1c-2-3.1-2.2-3.7-2.2-7.2v-5l.1-2.5z"/><path fill="#c5c6c6" d="m905 369 3 1v3l-10.1 5.2-2.2 1-2 1c-1.7.8-1.7.8-3.7.8.2-1.9.2-1.9 1-4 2.3-1 2.3-1 5-1.6l5-1.4 1-2h3z"/><path fill="#cacbcd" d="M644 293c4.3.5 8 1.2 12 3l3-3c1 3 1 3 .3 5.1-1.3 1.9-1.3 1.9-3.2 2.9-2.1 0-2.1 0-4.2-2l-1.9-2h-2v-2l-4 1z"/><path fill="#d5d6d6" d="m314 113 3 2c-7.3 3.7-7.3 3.7-10.7 5-2.5 1-4.3 2.4-6.3 4l-2-1 1-4 3 1v-3h6l1-3h3z"/><path fill="#d4d4d3" d="m388 814 15 6v2l-4.7-.4-2.7-.3q-3.4-.4-6.6-1.3z"/><path fill="#cfd0d0" d="M360 764a38 38 0 0 1-6.6 11.3L352 777l-3.1 4-1-2q2-4.7 5-9l1-2c1.4-2.7 3-4 6-4"/><path fill="#cccccd" d="m68 580 2 1a115 115 0 0 1 1.4 10.4l.6 5.6h-2c-2.1-4.6-2.1-4.6-1-8h-2l-1-5h2z"/><path fill="#e2e2e2" d="M628 211c5.5-.1 5.5-.1 8.2.6 2 .6 2 .6 4.8-.6l1 2h-3l4 2-2 1-1 2-12-5z"/><path fill="#c0c1c0" d="m390 575 3 1c-3 3-6 6-9.2 8.8l-2 1.8C380 588 380 588 378 588c1.4-3.4 3.2-5.6 6-8h2v-2c1.8-1.7 1.8-1.7 4-3"/><path fill="#c8c9c9" d="M772 556h1q-.6 10.7-3 21h-2v-4l-2-1 2-1c.7-2.6.7-2.6 1.1-5.6l.5-3 .4-2.4h2z"/><path fill="#dcdcdc" d="m737 182 2 4-3 1 1 3h-3v4l-2 1v4c-2.2 1.9-2.2 1.9-5 3-2.3-.8-2.3-.8-4-2l2.3-.7c3.4-1.6 4-3 5.5-6.4l1.3-2.8.9-2.1h2z"/><path fill="#d9dad9" d="M480 135v2c-3.5 2.1-3.5 2.1-6.1 1.6l-1.9-.6-2 1-5-1 1-3 5.3-.6 3-.3c2.7-.1 2.7-.1 5.7.9"/><path fill="#dfe0e0" d="m503 775 7 1v2l7 1v1l-9.3.1H505l-2.6.1h-2.3c-2.1-.2-2.1-.2-5.1-2.2l3.4-.4 3.6-.6z"/><path fill="#cac9ca" d="M188 500h2l-1 18-2 1-.6-5.2-.3-3c-.1-3.9.6-7 1.9-10.8"/><path fill="#e3e4e4" d="m590 74 3 2 3-1 2 2 2-1 7 2v1h-3.1c-3.8-.1-3.8-.1-7 .6a12 12 0 0 1-6.9-.6v-3l-3-1z"/><path fill="#d5d5d5" d="M428 952c11.5 1 11.5 1 17 2v1l-3.7.4-7.1 1.2c-2.2.4-2.2.4-5.2-.6-.7-2-.7-2-1-4"/><path fill="#c1c1c1" d="m455.2 890.4 2.3.5 5.5 1.1-1 2-6.7-.4-3.8-.3q-3.9-.2-7.5-1.3v-2c4-1.3 7.2-.4 11.2.4"/><path fill="#b6b7b7" d="M629 820v2l-7.1 2.5-2 .7A30 30 0 0 1 608 827v-2l6.1-2 3.5-1q5.6-1.8 11.4-2"/><path fill="#c4c5c5" d="M826 599h2c-.4 5.3-1.1 10-3 15l-1 3-3-2z"/><path fill="#c1c2c1" d="m321 708 3 2-2.3 1.3a30 30 0 0 0-5.7 4.7l-4 3-2 1.6-5 3.4c1.6-4.2 4.7-6.8 8-9.7l1.7-1.5c4-3.7 4-3.7 6.3-4.8"/><path fill="#c4c5c6" d="M65 467c4.1 6.1 2 15 1 22-2-2-2-2-2.2-4.5q0-8.9 1.2-17.5"/><path fill="#c6c7c7" d="M72 422h1c.2 7.3-.3 14-2 21l-2-1c-.5-7 1.3-13.3 3-20"/><path fill="#bcbcbc" d="M163 350h2c-2.2 7-4.9 13.4-8 20h-2a89 89 0 0 1 8-20"/><path fill="#cacbcb" d="M493 256c-3.4 2-6.3 2.4-10.2 2.6l-3.3.3-2.5.1v2l-9-1a48 48 0 0 1 25-4"/><path fill="#c4c4c4" d="M526 961v1c-7.3 1.2-14.6 1-22 1h-3v-2a66 66 0 0 1 25 0"/><path fill="#bcbdbd" d="m652 941-8.7 3-2.5.9c-7.5 2.5-7.5 2.5-11.8 2.1 3-2 3-2 7-2v-2c5.3-2 10.5-3.8 16-2"/><path fill="#c1c2c2" d="M889 587h2a95 95 0 0 1-3 17h-2a38 38 0 0 1 3-17"/><path fill="#bdbcbd" d="M338 325c-2 4.8-5 9-9.8 11.4l-2.2.6c0-3 0-3 2.1-5.3l2.8-2.4 2.7-2.4c2.4-1.9 2.4-1.9 4.4-1.9"/><path fill="#cdcdcc" d="M479 134h18l-1 2h-5v2l-1.9-.2-2.5-.3-2.4-.3-4.2-.2z"/><path fill="#c6c7c7" d="m298 121 2 1a26 26 0 0 1-8 6h-4l-1 3-5 1 1-3 6-2 1-3 6-2z"/><path fill="#d3d3d3" d="M556 69c2.7 1.4 2.7 1.4 5 3v-2c4.8 1.9 4.8 1.9 7 3v-2h2v3h-16l-1-4z"/><path fill="#bec0c0" d="m285 666 2 1q-8.5 8.7-18 16l-2-1 5.6-5.2 1.6-1.5q5.3-4.8 10.8-9.3"/><path fill="#b3b4b5" d="M444 74v2c-6.8 1.6-13 2.3-20 2a33 33 0 0 1 20-4"/><path fill="#d3d4d4" d="M814 641c1 3 1 3 .3 5l-1.2 2a42 42 0 0 0-3.1 7l-4-1 5-11h3z"/><path fill="#cdcece" d="M261 584c3 3 2.6 5.8 3 10l-2 1-3 5-5-2c2.3-2.5 3.8-3.4 7-5z"/><path fill="#c0c2c2" d="m284 281 3 1-14 14-2-1 4-5h2l.7-1.7c1.7-3 3.9-5 6.3-7.3"/><path fill="#d3d3d4" d="m298 266 2 2a19 19 0 0 1-5.9 7.6l-2 1.8q-2.9 2.2-6.1 3.6c3.1-6.5 3.1-6.5 6.4-8.4 3-1.8 4-3.6 5.6-6.6"/><path fill="#cecfcf" d="m617 880 4 1v2l-4.7 1.5-2.7.8c-2.6.7-2.6.7-6.6.7 1-3 1-3 2.8-4.2 2.5-1 4.5-1 7.2-.8z"/><path fill="#dadadb" d="m850 698 2 2-3.7 6.5-1.1 1.9c-1 1.8-1 1.8-3.2 4.6h-4v-2l3-1v-5l1.8-.1c2.6-.8 2.6-.8 4-4z"/><path fill="#bebfc0" d="M133 569a27 27 0 0 1 3.1 10.8l.5 3.5.4 2.7h-3c-2.4-10.8-2.4-10.8-2-16z"/><path fill="#d7d6d6" d="M608 147q7.6 1.4 15 4v2l-4.8.2h-2.7c-2.5-.2-2.5-.2-4.3-1.6-1.2-1.6-1.2-1.6-1.2-3.6z"/><path fill="#cecfcf" d="m605.6 78.4 3 .3 2.4.3-1 3 7 1c-4 1.5-7.2.6-11.2-.3l-3.8-.8-3-.9-1-2c2.7-1.4 4.6-.9 7.6-.6"/><path fill="#d8d8d1" d="m935 662 1 2h3l-1 2.4-1 2.6 1 2-3 1-2 3c-1.7-5 0-8.4 2-13"/><path fill="#dfe0e0" d="m321 633 2 2-2 1-1.2 2.3a27 27 0 0 1-7.8 7.7h-2v-4l3.3-1.2c3.6-1.5 5-3.2 6.7-6.8z"/><path fill="#cdcece" d="M138 422h2l.2 5.3v3c-.2 2.7-.2 2.7-1.7 4.6L137 436l-2-1zm0 9 1 2Z"/><path fill="#d2d2d3" d="M328 244h3c-.4 2.8-.8 3.8-3 5.7l-2.4 1.5-2.5 1.5C321 254 321 254 319 255l-1-3h2v-2h3v-2l2-.9c2.2-1 2.2-1 3-3.1"/><path fill="#d2d6d4" d="M583 887h3l1 4-4.3.7-2.4.4c-2.3-.1-2.3-.1-4-1.6L575 889c5.8-1.1 5.8-1.1 8 0z"/><path fill="#bcbdbe" d="M521 839h17l-1 3-17-1z"/><path fill="#d1d2d2" d="M347 170v2h-2l-1 2-3 2-1 2c-4 0-4 0-6-1v-2l5.4-2.5 3-1.4c2.6-1.1 2.6-1.1 4.6-1.1"/><path fill="#b9babb" d="M755 140c3.4 1 6 2 9 4-.6 3.2-1.6 5.2-3.6 7.8l-1.3 1.8-1.1 1.4c-.6-1.8-.6-1.8-1-4l2-3h2l1-4-3-.9c-3-1.1-3-1.1-4-3.1"/><path fill="#d3d4d4" d="m744 637 1 2 2 1-3.3 6-1.9 3.4-1.8 2.6h-3c0-3 0-3 1.4-4.4l1.6-1.6c1.2-2.3 1.2-2.3 2.2-4.7l1-2.4z"/><path fill="#dddcdd" d="M252 496h1a118 118 0 0 1 1 20l-3-2c-.3-2.4-.3-2.4-.2-5.2v-3q.3-4.9 1.2-9.8"/><path fill="#d1d1d2" d="m195 444 3 1-2 10h-3l-1 2 .4-4.8.2-2.7c.4-2.5.4-2.5 2.4-5.5"/><path fill="#e5e5e6" d="M83 376c2 3 2 3 1.8 5.5l-.7 2.7-.6 2.7-.5 2.1-4-2v-2l2-1-.6-1.8c-.4-2.2-.4-2.2.6-5.2z"/><path fill="#d2d2d2" d="m202 284 3 3-2.9 2.1a14 14 0 0 0-5.1 8.9h-2l-2 2c0-4.1 2.2-6.5 4.5-9.7z"/><path fill="#c1c3c3" d="M346 236c-1.3 4-2.8 4.2-6.4 6.1l-3 1.6C334 245 334 245 331 246c1.5-4 3.7-5.3 7.5-7.2l3-1.6c2.5-1.2 2.5-1.2 4.5-1.2"/><path fill="#c4c4c5" d="M888 759c1.1 3.3.8 4.7 0 8l-2-1-6 9-2-1z"/><path fill="#bcbcbd" d="M148 638h2l5 15h-3l-2-5.2-1.1-3c-.9-2.8-.9-2.8-.9-6.8"/><path fill="#bbbbbc" d="m78 632 1 2h2c1.6 4.9 2.2 8.8 2 14-2-1-2-1-2.9-3.4l-.7-3-.8-2.8C78 636 78 636 78 632"/><path fill="#d9d9d8" d="m424 617 3 4-5.3 2.8c-2 1.2-2 1.2-3.7 4.2l-2-1c1.4-3.4 3.2-5.6 6-8h2z"/><path fill="#c4c4c5" d="m885 605 2 1-1.5 8.3c-.5 2.7-.5 2.7-1.5 5.7h-2c.4-5.3 1-10 3-15"/><path fill="#cfd0d2" d="M64 515h1l1 26-3 1z"/><path fill="#b8b8b8" d="M835 468h2l1.6 7.3q.6 3.8.4 7.7h-3q-1.1-7.4-1-15"/><path fill="#c7c7c7" d="M142 406h2l-.5 8.2a12 12 0 0 1-3.5 6.8c-1.3-3.7-.7-6 .4-9.7l1-3q.2-1.2.6-2.3"/><path fill="#c9caca" d="M428 271c-1.6 3.1-4.2 3.5-7.4 4.7L417 277c-3 .9-3 .9-5-.1 4.1-4.5 10-6.6 16-6"/><path fill="#bebebe" d="m682 259 1 2-3.8 6.6-1.1 1.8c-2.8 4.5-2.8 4.5-5.1 5.6a20 20 0 0 1 5-10.8l2.3-3z"/><path fill="#d7d7d7" d="M546.1 135h4.9l1 2c-8.2 2.4-8.2 2.4-11.6.6L539 136c2.5-1.3 4.3-1.1 7.1-1"/><path fill="#cfcece" d="m712 843-6.2 4-1.8 1.2c-4.5 2.9-4.5 2.9-7.4 2.5l-1.6-.7c2.7-1.7 5-3 8-4l2-2c3.5-2.2 3.5-2.2 7-1"/><path fill="#cdcdc9" d="M144 627h4v7h2v4l-3 1z"/><path fill="#d4d5d5" d="M949 612h1l.7 6c.3 2.2.3 2.2 1.3 5h-3l-1 4-1-1q0-2.4.4-4.8l.2-2.7q.5-3.2 1.4-6.5"/><path fill="#bdbebe" d="M892 569h1v6.3l.1 3.5a25 25 0 0 1-1.1 7.2h-2c-.2-6 .5-11.2 2-17"/><path fill="#cccccd" d="m238 340 3 1-7 12-3-1 1.9-4 1-2.2c1.1-1.8 1.1-1.8 3.1-2.8z"/><path fill="#c0c1c0" d="M429 887h11v2l3 1-1 1q-2.5 0-4.9-.4l-2.7-.2c-2.4-.4-2.4-.4-5.4-1.4z"/><path fill="#9c9fa8" d="M838 824a28 28 0 0 1-11 12c.6-3.8 2.2-5.6 5-8.2l2-2.2c2-1.6 2-1.6 4-1.6"/><path fill="#c3c4c4" d="M199 430h2l-.9 5.3-.5 2.9c-.5 2.6-1.3 4.5-2.6 6.8l-1-1a50 50 0 0 1 3-14"/><path fill="#d0d1d1" d="M148 394c0 4.5-1.3 7.9-3 12l-2-1q.6-5.1 2-10z"/><path fill="#bfc0c2" d="m205 185 2 1-10 10-3-1 3.3-3.9 1.8-2.2c1.9-1.9 3.3-3 5.9-3.9"/><path fill="#c0c0c1" d="m746 170 1 2c-1.4 2.6-1.4 2.6-3.3 5.6l-2 3C740 183 740 183 738 184v-4h2l.8-2.7c1.2-3.4 2.5-5 5.2-7.3"/><path fill="#bbbcbc" d="m368 936 9 1.5c3 .5 3 .5 6 1.5v2l2 1a53 53 0 0 1-17-5z"/><path fill="#c3c3c4" d="M433 830c8.6 1 8.6 1 12 2v2l-7 2v-3l-5-1z"/><path fill="#c2c4c4" d="M727 831v3l-6.5 4.2-1.9 1.1-4.6 2.7v-3c2.4-1.6 2.4-1.6 5-3l2-2z"/><path fill="#cdcecb" d="M639 816v2l-4.7 1.5-2.6.8c-2.7.7-5 .8-7.7.7 2.2-2.2 4-3 7-4.2l2.6-1c2.4-.8 2.4-.8 5.4.2"/><path fill="#babcbd" d="m466 774 9.4.5c3.7.2 5.5.4 8.6 2.5h-14v-2z"/><path fill="#d4d6d7" d="m309 645 2 2c-3.3 3.6-7 6.2-11 9v-3h2l.3-1.9c.7-2.1.7-2.1 2.6-3.2l2.1-.9z"/><path fill="#bdbdbe" d="m128 278 1 2c-.7 1.7-.7 1.7-1.9 3.7l-1.2 2.2-1.3 2.2-1.4 2.3-3.2 5.6c-1-3-1-3 .6-6.3l2.3-3.8 1.1-2c2.8-4.7 2.8-4.7 4-5.9"/><path fill="#c3c4c4" d="M668 230c3.3-.5 5.3-.4 8.2 1.3q3 2.2 5.8 4.7l-1 2-13-7z"/><path fill="#bdbebf" d="M425 143v2l-5.3 1.5-3 .8c-2.7.7-2.7.7-5.7.7v-2l4.8-1.5 2.6-.8c2.6-.7 2.6-.7 6.6-.7"/><path fill="#bcbdbd" d="m418 825 13 4v2c-5-.4-8.8-.8-13-4z"/><path fill="#d8d8d9" d="m596 761 6 2c-3.6 2.4-7 4.3-11.4 3.6l-1.6-.6v-3h7z"/><path fill="#c6c7c8" d="m611 757 3 2-4.7 2-2.6 1.1c-2.8 1-4.8 1-7.7.9 1.5-3 3.4-3.1 6.4-4.2l3-1.2z"/><path fill="#c2c2c2" d="m110 685 3 1a51 51 0 0 1-10 7c-2.2-.4-2.2-.4-4-1l5.3-3.6 3-2z"/><path fill="#e4e4e4" d="m80 643 2 4 2-2 2 9-4-1c-1-2-1-2-1.7-4.6l-.8-2.5-.5-1.9z"/><path fill="#dbdcdb" d="m202 616 1 1.5c3 2.2 5.5 1.7 9 1.5v3l-7 1v-2h-2z"/><path fill="#bdb9b0" d="m609 601 2 2-2.8 3.3-1.6 1.9c-3 3.3-3 3.3-4.6 4.8h-2c1.5-5.3 5-8.4 9-12"/><path fill="#d2d3d3" d="M959 556c1.6 1.6 1.6 1.6 3 4-.8 3.8-.8 3.8-2 7l2 1h-2l-1 2v-2l-2-1 .4-4.4.3-2.4c.3-2.2.3-2.2 1.3-4.2"/><path fill="#d0d0d0" d="M118 294c1.1 2.8 1 3.9 0 6.8l-1.4 3-1.5 3-1.1 2.2-1-2h-2c0-2.7 1.1-3.1 3-5 1.2-2 1.2-2 2.2-4.2l1-2.2z"/><path fill="#fff" d="m585 267 9.3 3c2.7 1 2.7 1 3.7 3-6 .5-9.8-1-15-4z"/><path fill="#babbbb" d="M465 136v2l-12 2v-3c4-1.3 7.9-1 12-1"/><path fill="#c5c6c6" d="m446 833 10 1 1 3h-8v-2h-3z"/><path fill="#c8c9c9" d="m808 759 2 1a19 19 0 0 1-5.6 7.3l-2 1.5-1.4 1.2-2-1 1.9-2.3c2.2-2.7 2.2-2.7 4.1-5.7z"/><path fill="#d3d5d6" d="m349 609 4 2-8 7-2-1z"/><path fill="#b8b8b9" d="M194 576a20 20 0 0 1 2.6 9.3l.3 2.7.1 2h-2c-2.4-8.8-2.4-8.8-2-13z"/><path fill="#d7d7d7" d="M129 526h2l1 10-4-1c-.1-6.7-.1-6.7 1-9"/><path fill="#c5c6c6" d="M254 485h1c.1 6.4.2 12.7-1 19h-1l-1-13h2z"/><path fill="#e6e5e4" d="m744 293 3 1c1.2 3.6 1.2 3.6 2 7l-2 2h-3z"/><path fill="#d2d3d3" d="m233 248 2 2-2.4 2.3C230 255 230 255 228 258l-3 1c.6-3.6 2-5.3 4.6-7.7l1.9-2z"/><path fill="#c1c2c2" d="M604 203c6.4-.4 6.4-.4 9.4 1.4 1.6 1.6 1.6 1.6 1.6 3.6l-4.4-1-2.4-.5c-2.2-.5-2.2-.5-4.2-1.5z"/><path fill="#cacbca" d="M526 134h12v2l-2.3.2-3 .2-3.1.3c-2.6.1-2.6.1-4.6 1.3z"/><path fill="#cfd0d0" d="M493 960h16v1l-2.4.1-3 .3-3.1.2-2.5.4-1 2-4-2z"/><path fill="#b9babb" d="M440 955c6.4-.2 12-.2 18 2v1c-5.8.2-10.4-.4-16-2l-1 2z"/><path fill="#bcbdbd" d="M415 950h4.3l2.3-.1q3.3.2 6.4 1.1l-1 3-3-1-1 2-1-3-7-1z"/><path fill="#e3e4e3" d="M447 768h4v2l5-1v3c-3.7.7-6.4 1.2-10 0z"/><path fill="#c4c5c6" d="m725 761 2 1q-5.1 5.5-11 10h-2c1.3-3.8 3-4.8 6-7.2l2.8-2.2z"/><path fill="#f0f0f0" d="M65 459h1l.4 2.4c.5 2.6.5 2.6 1.6 4.6l-1.4 4.6-1 2.5-.6 1.9h-1l-1-10h2z"/><path fill="#b7b9b9" d="M830 442h2c1.6 4.2 2.2 7.5 2 12h-2z"/><path fill="#b6b7b8" d="M944 384h2c2.3 8.4 2.3 8.4 2 13h-2a34 34 0 0 1-2-13"/><path fill="#c4c4c4" d="M444 265v2l-5.8 2-3.3 1.2c-2.9.8-2.9.8-5.9-.2l5-1v-2a26 26 0 0 1 10-2"/><path fill="#bababb" d="M390 153v2l-2.2.6-2.7.8-2.8.7c-2.5.7-2.5.7-3.3 2.9l-2-2h2v-2l3.8-1.5 2.2-.8c2-.7 2-.7 5-.7"/><path fill="#b6b7b7" d="m286 898 4.4 1.4 2.4.8c2.2.8 2.2.8 4.2 1.8v2l5 2-2 1q-3.7-1.8-7.1-4l-2-1.1-4.9-2.9z"/><path fill="#b7b9b9" d="m485 894 13 1v2h-13z"/><path fill="#d8d9d9" d="M610 827v3q-5.5-.1-11-1c4.2-2.8 6.2-3.2 11-2"/><path fill="#bebfbf" d="M841 713h2a43 43 0 0 1-6.8 12.2L835 727l-1-3c1.4-2.7 1.4-2.7 3.3-5.7l2-3z"/><path fill="#d0d1d0" d="M831 588c.7 1.6.7 1.6 1 4-1.4 3.3-1.4 3.3-3 6h-2l1-9z"/><path fill="#d2d3d3" d="M640 394h3c-1.6 4.3-4.5 6.3-8 9 .9-4.7.9-4.7 2-7h3z"/><path fill="#c3c5c3" d="m363 303 3 1-4.9 4-2.7 2.3C356 312 356 312 354 312c1.1-3.4 2-4.1 4.9-6.2l2-1.7z"/><path fill="#bbbdbc" d="m257 226 2 1-11 10-1-3z"/><path fill="#c1c2c3" d="M700 111c9.6 2.9 9.6 2.9 13 6-5-.5-8.6-1.6-13-4z"/><path fill="#c9cac9" d="M487 68h9v2l4 1h-14z"/><path fill="#b8b8b9" d="M328 920q9 1.3 16 7c-4-.6-7.2-1.9-10.8-3.6l-3-1.3-2.2-1.1z"/><path fill="#c1c4c4" d="M635 878a21 21 0 0 1-13 4v-2l4.8-1.6 2.7-.8c2.5-.6 2.5-.6 5.5.4"/><path fill="#b1b2b3" d="m797 859 3 1-3 2.4-3 2.6v2h-5c2.4-3.1 4.6-6 8-8"/><path fill="#c0c1c1" d="M301 835c5.2.5 8.8 3.2 13 6l-3 1-5.2-3c-2-1.3-2-1.3-5.8-1z"/><path fill="#b4b6b7" d="M378 811c3.7.5 6.7 1.1 10 3v2l2 1c-4.4-.7-8-2.2-12-4z"/><path fill="#c7c9ca" d="M750 627c.9 2.5 1.1 3.6.2 6.1l-1.1 2.1-1.2 2.2-.9 1.6h-2l1.4-4.3.7-2.4c.9-2.3.9-2.3 2.9-5.3"/><path fill="#c2c3c6" d="m71 599 2 1c.6 2.5.6 2.5 1.1 5.6l.5 3 .4 2.4h-3c-1-4-1-7.8-1-12"/><path fill="#bababa" d="m921 366-4.3 2.5-2.4 1.4C912 371 912 371 909 371v-2l3.8-2 2-1.2c2.6-1 3.7-.7 6.2.2"/><path fill="#c9cbcb" d="M366 226c-7.7 6-7.7 6-11 6l1-3h2v-2c4.6-2.1 4.6-2.1 8-1"/><path fill="#fff" d="m582 194 2 .9c3.1 1.2 3.1 1.2 6.8 2.1l3.2 1 1 2-5.3-1-3-.5c-2.7-.5-2.7-.5-5.7-1.5z"/><path fill="#b7b7b8" d="m674 933-2 1-2.8 1.4-2.7 1.3c-2.6 1.3-2.6 1.3-5.5 3.3v-2l-2-1 6.4-2.6 3.6-1.4c3-1 3-1 5 0"/><path fill="#babbbb" d="m799 671 1 2c-1 2.2-1 2.2-2.4 4.6l-1.5 2.5-1.1 1.9h-2a33 33 0 0 1 4-10z"/><path fill="#d2d3d3" d="M155 652c2.5 3 3.5 5.2 4 9l-4-1-2-7z"/><path fill="silver" d="M834 557h2c.3 8.6.3 8.6-2 12l-1-1a102 102 0 0 1 1-11"/><path fill="#bebebf" d="M896 486h2v10h-3c-.1-7.7-.1-7.7 1-10"/><path fill="#b8b9ba" d="M653 459h2c-1.7 4.3-4.7 6.9-8 10l-2-1 3.9-4.5c1-1.3 1-1.3 2.2-2.5z"/><path fill="#b6b8b9" d="M834 455c2.1 3.2 2.2 4 2.1 7.7v2.4l-.1 1.9h-2l-.9-8.5-.1-2.5z"/><path fill="#c7c8c9" d="M81 386h1c.1 6.6.1 6.6-1 10h-2l-1 3-1-6h2z"/><path fill="#bdbfbe" d="M218 379h2l-1.3 4.4-.8 2.5-.9 2.1-3 1a21 21 0 0 1 4-10"/><path fill="#c3c3c3" d="m211 273 2 1-3.3 4.4-1.9 2.4C206 283 206 283 203 285c1.5-5 4.6-8.2 8-12"/><path fill="#b9bab9" d="M437 199v2a26 26 0 0 1-10 2v-2c3.6-2.4 5.7-2.2 10-2"/><path fill="#dedede" d="M495 133h10l-1 3-8 1z"/><path fill="#c8c9c9" d="M632 946c-3.4 3.4-8.3 4-13 4.1l-2-.1c2.6-1.5 3.9-2 7-2v-2c3-1 5-1 8 0"/><path fill="#a1a4a3" d="m815 844 4 1-3.3 3-1.9 1.8-1.8 1.2-3-1z"/><path fill="#cfd3d0" d="m676 719 3 1c-1.1 3.3-2 4-5.1 5.8L671 727c.5-3.8 2.2-5.5 5-8"/><path fill="#cbc8ca" d="m256 314 1 2-2.9 4-1.6 2.3-1.5 1.7h-2c1.2-5 2.8-7.1 7-10"/><path fill="#cacac9" d="M411 278a14 14 0 0 1-7.7 4.7l-2.4.7-1.9.6c1-3 1-3 3.8-4.7 3-1.2 5-1.6 8.2-1.3"/><path fill="#ddddde" d="m131 272 3 1c-.7 2-.7 2-2 4-2.6.8-2.6.8-5 1v-4h4z"/><path fill="#bdbebe" d="m617 207 7 1.3 2 .7 1 3-4.4-.8-2.5-.5-2.1-.7z"/><path fill="#dbdbdb" d="m478 67 8 1v3l-7 1z"/><path fill="#dcdddd" d="M580 956q-2.9 1.7-6.2 2.5l-1.8.5-1 2v-3h-6v-1a92 92 0 0 1 15-1m-97-182h2v2h4v2l2 1-13-1v-1l5-1z"/><path fill="#bfc0c1" d="M303 725v2l-4.5 3.6-2.5 2-2 1.4c0-3 0-3 1.5-4.6l1.9-1.6 1.9-1.6c1.7-1.2 1.7-1.2 3.7-1.2"/><path fill="#fefefe" d="m248.2 695.3 2.8.7c-2.3 2.5-2.3 2.5-5 5h-3l-1-3c2-2.8 2.6-3 6.2-2.7"/><path fill="#c1c2c5" d="m359 602 1 2c-3.3 4.8-3.3 4.8-6.7 5.8l-2.3.2v-2l4-3.1 2.3-1.7z"/><path fill="#d0d0d0" d="M189 544c2 2 2 2 2.2 4l-.2 6-2 1-.4-3.3c-.5-3.6-.5-3.6-1.6-6.7z"/><path fill="#cdcdce" d="M189 480h2v11l-2-1v-2h-2z"/><path fill="#cdd0ce" d="M688 429c-1.7 3.9-1.7 3.9-4 5l-2 3-3 1c1.3-4.3 4-9 9-9"/><path fill="#cdcece" d="M717 402v2h-2v5l-3-1-3 3-2-1 3.9-4 2.2-2.2c1.9-1.8 1.9-1.8 3.9-1.8"/><path fill="#b9bbbb" d="M285 388h2a42 42 0 0 1-5 11c-.7-1.6-.7-1.6-1-4q1.7-3.6 4-7"/><path fill="#babbbc" d="M936 361c2.6 1.3 2.7 2.2 3.7 4.9l.8 2c.5 2.1.5 2.1-.5 5.1v-2h-2a19 19 0 0 1-2-10"/><path fill="#b8b9b8" d="m318 343 2 2-2.9 3.5-1.6 2-1.5 1.5h-2c1.3-4 3-6.2 6-9"/><path fill="#e3e2e3" d="m429 141 1 2h5v2h-2.7c-2.7 0-4.8.2-7.3 1v-4z"/><path fill="#c4c5c5" d="M340 103v2l-4.4 2-2.4 1.2-2.2.8-2-1c3-3.6 6.3-5 11-5"/><path fill="#c7c7c8" d="M467 69h12v3l-4.3.2h-2.4C470 72 470 72 467 69"/><path fill="#c8c8ca" d="m371 807 9 3-2 1-1 2-3-2h-4z"/><path fill="#b2b3b3" d="M828 430c2.3 3.4 2.5 6 3 10l-2 1-1-5-.7-2.7q0-1.2-.3-2.3z"/><path fill="#bcbdbd" d="M885 421h2a26 26 0 0 1 2 10h-2a26 26 0 0 1-2-10"/><path fill="#b9babb" d="m746 300 1 3-9 8c0-3 0-3 1.5-4.5l2-1.6c2.7-2 2.7-2 4.5-4.9"/><path fill="#c8c8c5" d="m743 284 2 1c.4 2.3.4 2.3.6 5l.3 2.8.1 2.2c-2-1.7-2-1.7-4-4 0-4 0-4 1-7"/><path fill="#bebfc0" d="m139 261 1 3c-1.2 2-1.2 2-3 4.2l-1.7 2.2-1.3 1.6-2-1z"/><path fill="#d0d1d1" d="M628 211c5.8-.1 5.8-.1 8 1l-1 4-7-3z"/><path fill="#d6d6d7" d="m737 182 2 4-3 1 1 3h-3l-1 3-1-2 1-3h2z"/><path fill="#cacaca" d="M602 951h10v3l-5-1-1 2v-2l-4-1z"/><path fill="#c2c4c5" d="m299 838 1 2a34 34 0 0 1-8 11c1.6-4.8 4.3-8.8 7-13"/><path fill="#d1d2d2" d="m321 708 3 2-2.3 1.3a25 25 0 0 0-5.7 4.7l-2-2z"/><path fill="#c3c4c3" d="m924 694 1 2c-1 2.6-1 2.6-2.4 5.6l-1.5 3-1.1 2.4h-1l1-7h2z"/><path fill="#b1b2b2" d="M939 653c1.6 4 .3 7-1 11h-2l1-8h2z"/><path fill="#cbcccc" d="M875 640h2l-2 9-3-1z"/><path fill="#bebfc0" d="M957 568h2c1 5.9 1 5.9 1 8l-3 4z"/><path fill="#b4b6b7" d="M191 565h2l1 10h-2c-1.2-3.5-1-6.4-1-10"/><path fill="#cecfcf" d="m256 559 4 4-2 6h-2z"/><path fill="#e8e6e8" d="M131 484c2 3 2 3 1.8 5.5l-.7 2.7-.6 2.7-.5 2.1h-1v-6l-.1-3.3c.1-2.7.1-2.7 1.1-3.7"/><path fill="#d3d4d4" d="M962 478h1l.1 4.9.1 2.7c-.2 2.4-.2 2.4-2.2 4.4l-1-8h2z"/><path fill="#c0c0c2" d="M260 449h2l-.4 4.4-.2 2.4c-.4 2.2-.4 2.2-2.4 4.2v-4.4l-.1-2.4c.1-2.2.1-2.2 1.1-4.2"/><path fill="#c2c3c3" d="M800 424v2c-5.4 3-5.4 3-8.4 2.7l-1.6-.7c6.6-4 6.6-4 10-4"/><path fill="#c0c2c3" d="M820 414c-1 3-1 3-2.8 4l-2.3.7-2.2.7-1.7.6v-3c6.8-3 6.8-3 9-3"/><path fill="#d5d6d6" d="m660 377 1 3-5 4-2-1c1.2-3.7 2.6-4.2 6-6"/><path fill="#bebfc0" d="M86 370h1l-1 9h-2l-1 2 1-5 .5-2.7c.5-2.3.5-2.3 1.5-3.3"/><path fill="#c8c8c8" d="m780 342 3 1c-4.6 4.9-4.6 4.9-8 6v-3c2.3-2.2 2.3-2.2 5-4"/><path fill="#d4d5d4" d="M668 226v2l4 1-1 1c-6.6-.6-6.6-.6-9-3 3-1 3-1 6-1"/><path fill="#e3e3e3" d="m396.4 210.3 1.6.7-4 1v3l-3 1v-2l-3-1c5.4-3 5.4-3 8.4-2.7"/><path fill="#b7b8b8" d="M404 209v2l-10 3v-2c6.6-3 6.6-3 10-3"/><path fill="#c5c5c4" d="m439 140 1 2c-3.5 1.2-6.4 1-10 1v-2c3-1 5.8-1 9-1"/><path fill="#b9bbbc" d="M370 93c-2.4 2.4-3.3 2.3-6.6 2.6l-2.5.3-1.9.1c3.8-3 6.2-4.5 11-3"/><path fill="#b7b7b9" d="M602 953c-3.8 2-6.9 3.1-11.2 3H587v-1a40 40 0 0 1 15-2"/><path fill="#d4d3d4" d="M516 895h6v2l3 1h-9z"/><path fill="#d6d6d7" d="M269 885h3l1 3 2 2-1 3-4-2 2-1-3-2z"/><path fill="#b6b8ab" d="M363 803c5.8 1.9 5.8 1.9 8 3l-1 3c-3-1.3-3-1.3-6-3z"/><path fill="#b9bcbd" d="M862 673h2l-1.4 4.4-.7 2.5c-.9 2.1-.9 2.1-2.9 3.1.5-3.7 1.1-6.7 3-10"/><path fill="#cacbcc" d="M366 598a19 19 0 0 1-5 7l-2-1c3.4-6 3.4-6 7-6"/><path fill="#dfdfe1" d="M894 565c1.4 4 .6 6.8 0 11-1.5-1.1-1.5-1.1-3-3-.4-3-.4-3 0-6z"/><path fill="#bebbb8" d="M634 552h2c-.5 3.5-.9 6.7-2 10h-2q.7-5 2-10"/><path fill="#bfc0c0" d="M774 349v4l-7 3c3.1-7 3.1-7 7-7"/><path fill="#ced0d3" d="M357 167v2l-9 2 1-3c2.7-1.4 5-1 8-1"/><path fill="#bebdbe" d="m581 75 9 1v2l-9-1z"/><path fill="#d6d6d6" d="m461 69 9 2v1h-11l2-1z"/><path fill="#c5c7c7" d="M283 864c.8 1.7.8 1.7 1 4-2.4 2.8-2.4 2.8-5 5 0-4 1.7-5.8 4-9"/><path fill="#bbbcbc" d="M586 832v2c-4.6 2.1-4.6 2.1-8 1v-2c2.9-.8 4.9-1 8-1"/><path fill="#cfd0d0" d="m841 818 2 1v3c-2.5 1.7-2.5 1.7-5 3l-1-2z"/><path fill="#d5d6d6" d="M467 772v2l3 2-10-1v-2c4.8-1 4.8-1 7-1"/><path fill="#cfcfd2" d="m699 701 2 1-5 6-2-4c2.4-1.6 2.4-1.6 5-3"/><path fill="#b8b9b9" d="M330 700c0 3 0 3-1.5 4.6l-2 1.6-2 1.6-1.5 1.2c0-3 0-3 1.5-4.6l2-1.6 2-1.6z"/><path fill="#bfc0bf" d="m251 696 2 1-3 3h-2v2l-4 1-1-2 2.3-1.4q3-1.7 5.7-3.6"/><path fill="#b1b3b4" d="M882 411h2l2 9h-2c-1.5-3.4-2-5.2-2-9"/><path fill="#bdbdbd" d="M148 387h2v7l-4 1c.9-5.7.9-5.7 2-8"/><path fill="#d3d3d4" d="m697 344 1 3c-1.2 1.6-1.2 1.6-3 3-2.2-.3-2.2-.3-4-1l1-2h3v-2z"/><path fill="#cfcfcf" d="M328 332h4l-1 3c-2.6 1.2-2.6 1.2-5 2 0-3 0-3 2-5"/><path fill="#c3c4c5" d="M112 307c.9 2.5 1.1 3.7.3 6.2-1.3 1.8-1.3 1.8-4.3 2.8 1-3.4 2-6 4-9"/><path fill="#babbbc" d="M171 220c0 4.4-2.1 5.8-5 9l-3-2z"/><path fill="#dee1e1" d="m192 194 3 1v3c-2 1.7-2 1.7-4 3-.6-1.8-.6-1.8-1-4z"/><path fill="#d7d7d6" d="M604 146q3.2.6 6 2v3l-6-1z"/><path fill="#c9cbcb" d="M438 74h6v2l-11 2v-2h5z"/><path fill="#cfd0d1" d="m582 74-1 3-11-1v-1q6-1 12-1"/><path fill="#dededd" d="m556 69 3 3-1 2-5-1 1-3z"/><path fill="#d4d4d4" d="m498 894 8 1v2h-8z"/><path fill="#c3c5c5" d="M608 883h7v2l-8 1z"/><path fill="#b2b3b4" d="M349 796c3.4.5 5 1 8 3l-1 3-5.5-3.8-1.5-1.2z"/><path fill="#d1d2d2" d="m375 740 4 2c-1 2-1 2-3 2.8l-2 .2-2-2z"/><path fill="#c8c9c9" d="m273 676 3 1-7 6-2-1z"/><path fill="#c7c8c8" d="M941 647c1.1 3.8 1.1 3.8 0 6l2 1h-3l-2 2 1-7h2z"/><path fill="#c0c0c1" d="m946 625 2 1c-.6 6.2-.6 6.2-1 8l-2 1z"/><path fill="#bdbdbf" d="M202 611h2c2 4.4 2 4.4 1.6 7.3l-.6 1.7a18 18 0 0 1-3-9"/><path fill="#c2c2c3" d="M138 602h2c1.4 2.7 1 5 1 8h-2z"/><path fill="#bcbcbd" d="M896 527h2v9h-2c-.8-3.4-1.1-5.7 0-9"/><path fill="#cbcbcc" d="M896 519h2v8l-3-1z"/><path fill="#efefef" d="M68 437h1l2 8-4 1c-1.3-3.8-.4-5.4 1-9"/><path fill="#d9dad9" d="M607 425v3l-4 2-2-4c2-1 2-1 6-1"/><path fill="#c6c6c7" d="m290 380 2 4-5 5c0-4.3.7-5.6 3-9"/><path fill="#cecfcf" d="m223 370 1 2-3 6h-2c.5-3.7 1.1-5.6 4-8"/><path fill="#cdcdce" d="m248 325 1 3c-2 3.2-2 3.2-4 6l-1-2-2-1z"/><path fill="#cbcaca" d="m182 314 2 2-5 8-2-2z"/><path fill="#cdccce" d="m672 273 2 3-2 2 1 2h-5z"/><path fill="#d0d1d0" d="m396 150 2 3-8 2v-3z"/><path fill="#bababd" d="m608 147 9 2v2l-7-1v-2z"/><path fill="#cdcecf" d="m723 122 2 .5c2 .7 2 .7 4-.5l1 5c-3-1.1-5.3-2.2-8-4z"/><path fill="#e2e3e3" d="m340 99 2 3 1-3v3l3 1c-5.7 1.1-5.7 1.1-8 0z"/><path fill="#b9bbbc" d="m352 97 1 2h-2v2l-8 1c2.9-2.3 5.5-3.8 9-5"/><path fill="#c2c5c5" d="M606 885v2l-8 1v-2c3-1 5-1 8-1"/><path fill="#d6d7d8" d="M279 872c0 3.6-1 5-3 8l-2-4z"/><path fill="#dadada" d="m485 838 8 1a16 16 0 0 1-8 3z"/><path fill="#bdbebe" d="M647 813a15 15 0 0 1-7 4l-3-1h2v-2c2.7-1.4 5-1 8-1"/><path fill="#e3e3e3" d="m346 793 5 2c-3.6 3-3.6 3-7 3z"/><path fill="#d9dada" d="m420 759 1 3 3-1v3l2 1-9-2 3-1z"/><path fill="#e4e5e5" d="M811 751h3l-2 7-4 1 1.5-3.4c1.6-3.1 1.6-3.1 1.5-4.6"/><path fill="#bfc1c2" d="M636 747v2c-5.7 3-5.7 3-8 3 1-3 1-3 2.9-4.2 2.1-.8 2.1-.8 5.1-.8"/><path fill="#d1d2d1" d="m792 681 2 1v5h-4c.9-4.9.9-4.9 2-6"/><path fill="#dcdcdb" d="m230 608 2 1v2l-3 1-2 3v-3l-3-1z"/><path fill="#ceccc6" d="m613 595 5 1c-1.6 3.2-4.8 4.4-8 6 1.9-4.7 1.9-4.7 3-7"/><path fill="#dedfdf" d="M839 481h1v7h-3l-1-5h3z"/><path fill="#bfc2c2" d="M273 414c1 3 1 3 .2 5.6-1.2 2.4-1.2 2.4-3.2 3.4l1-7h2z"/><path fill="#b8b9ba" d="M948 398c3 1.5 3.6 4 5 7l-5-1z"/><path fill="#c2c4c4" d="m596 144 7 1 1 3-8-2z"/><path fill="#c5c6c6" d="M690 107c3.3.6 6 1.4 9 3v1c-3.6.2-5.9-.1-9-2z"/><path fill="#d5d7d6" d="m328.2 107 1.8 1-1 2h-5l-1-3c3-1 3-1 5.2 0"/><path fill="#fafafa" d="m678 99 7 2-1 3-6-2z"/><path fill="#dfdfde" d="M532 68h6c-1.7 2-1.7 2-4 4-2.2-.2-2.2-.2-4-1l2-1z"/><path fill="#ddd" d="m558 959-1 2h-2l-1 2-1-2-4-2c3.4-.8 5.7-1.1 9 0"/><path fill="#dadbdd" d="m452 956 4.3-.1 2.4-.1c2.3.2 2.3.2 5.3 2.2l-6 1v-2h-6z"/><path fill="#b9bbbb" d="M664 804v2l-4 2-3-1c2.5-3 2.7-3 7-3"/><path fill="#dddede" d="m778 790 2 2-3 4c-2-1-2-1-3-4z"/><path fill="#e2e3e1" d="m683 791 2 3-3 1 1 2-3 1v-3l-2-1z"/><path fill="#c3c5c3" d="m711 772 3 1-7 5v-3c1.8-1.7 1.8-1.7 4-3"/><path fill="#babcbd" d="M378 742c3.4 1.2 5.6 2.3 8 5-3.4-.5-5-1-8-3z"/><path fill="#aeb1b3" d="m346 686 2 2c-4.4 4-4.4 4-6 5l-3-1z"/><path fill="#dbdbdb" d="m98 686 .9 2c1 2.2 1 2.2 3.1 3l-4 2-2-2z"/><path fill="#dbdddd" d="M710.6 689h2.4l-5 5-1-4c1-1 1-1 3.6-1"/><path fill="#b7bbbc" d="m351 681 3 1-5 5h-2c1.2-2.5 2-4 4-6"/><path fill="#d8dbdb" d="M142 668h7c-1.2 1.5-1.2 1.5-3 3h-4z"/><path fill="#bec0c0" d="M738 650c.7 1.8.7 1.8 1 4-1.3 2.3-1.3 2.3-3 4h-2c1.1-3 2.2-5.3 4-8"/><path fill="#b1b2b2" d="M821 616h2c-.7 6.8-.7 6.8-3 9z"/><path fill="#dadcdc" d="m374 585 2 2 2-1 1 3-4 2c-1-1-1-1-1-3.6z"/><path fill="#e5e6e6" d="m258 567 1 2 3 1-4 1-1 4-1-6h2z"/><path fill="#dcdedd" d="M772 556h1l-1 12h-1l-1-8h2z"/><path fill="#dadedf" d="M64 533c2 4 2 4 2 8l-3 1z"/><path fill="#bec0bf" d="M257 461h2l-1 9c-2-4.2-2.2-4.8-1-9"/><path fill="#b6b9b8" d="M679 437c-1.4 3.4-3 5-6 7 .6-3.6 1.9-7 6-7"/><path fill="#cfd0cf" d="m805 420 2 3c-2.6 1.5-3.9 2-7 2v-2z"/><path fill="#e7e8e7" d="m936 356 3 1v2h-2l-2 4v-3l-2-1h2z"/><path fill="#bbbcbd" d="M231 353h2a29 29 0 0 1-5 9c.5-3.7.9-5.8 3-9"/><path fill="#d1d2d3" d="m238 340 3 1-3 5-3-1v-2h2z"/><path fill="#c2c3c3" d="m723 321 3 1-8 6c1.6-3.2 2.5-4.7 5-7"/><path fill="#d8dada" d="m644 293 7 1 1 2-4 1v-2l-4 1z"/><path fill="#c1c0c0" d="M616 278c5.8.9 5.8.9 8 2v2c-3.7-.5-5.6-1.1-8-4"/><path fill="#b9bbbc" d="M319 253c-1.1 3.4-2 4.2-5 6l-3-1c5.8-5 5.8-5 8-5"/><path fill="#bfc2c2" d="m409 206 1 3-6 2-1-3z"/><path fill="#d1d1d2" d="m410 146 1 4h-5l-1-3z"/><path fill="#d0d1d1" d="m675 98 2 5-5-1v-2l-2-1c3-1 3-1 5-1"/><path fill="#fff" d="M695 846h2v3l-3 1zM529 189h7v1h-7zm133 674 2 2-4 1 2-1zm89-123h4v2zM273 216h5l-3 2zm25 691 2 1-2 2zm382-469h3v2h-3zm60-140h3v2l-3-1zM470 191h5v1h-5zm243 725 2 1h-3zm-29-62 3 1-3 1zm47-29 3 1h-3zm117-127v3ZM433 271h2v2h-2zm118-80 4 1Zm-6-1 4 1Zm-65 0 4 1Zm-4-1 2 2-3-1zm10 773h2l-1 2zM302 833l3 1Zm224-59 2 2h-2zm219-25 2 1-2 1zm74-11 2 2h-2zm1-3 1 2-2-1zm-664-40 1 2-2-1zm56-8 3 1Zm-32 0 3 1Zm465-299 1 2-2-1zm35-31 2 1-2 1zm251-1 1 2-2-1zm2-1 2 1-2 1zm-248-2 1 2-2-1zm49-47 3 1Zm-112-21 2 1-2 1zm159-97 3 1Zm42-14 3 1Zm-29 691 2 1Zm-430 0 2 1Zm304-3 2 1Zm-312 0 2 1Zm-17-8 2 1Zm554-98 2 1Zm9-14 2 1Zm2-1 2 1Zm-146-9 2 1Zm-518-35 2 1Zm-72-7 2 1Zm49-2 2 1Zm63-24 2 1ZM157 376l2 1Zm758-12 2 1Zm-147-8 2 1Zm-681 0 2 1Zm633-155 2 1Zm-280-5 2 1Zm99-6 2 1Zm2-1 2 1Zm254-7 2 1Zm68-3 2 1Zm-61 0 2 1Zm16-4 2 1Zm21-1 2 1Zm-8 0 2 1Zm-203-15 2 1Zm-20-7 2 1Zm-316-30 2 1Zm174-55 2 1Z"/></svg>