<?xml version="1.0" encoding="UTF-8"?>
<svg version="1.1" xmlns="http://www.w3.org/2000/svg" width="1024" height="1024">
<path d="M0 0 C337.92 0 675.84 0 1024 0 C1024 337.92 1024 675.84 1024 1024 C686.08 1024 348.16 1024 0 1024 C0 686.08 0 348.16 0 0 Z " fill="#000000" transform="translate(0,0)"/>
<path d="M0 0 C24.3208688 -0.68936703 46.86173649 7.83841432 64.9453125 24.15234375 C65.72648438 24.85101563 66.50765625 25.5496875 67.3125 26.26953125 C82.97911332 41.06878882 94.37351584 63.62846897 95.1484375 85.3671875 C95.31925324 95.71139436 94.60500515 105.10077804 91.9453125 115.15234375 C91.67847656 116.16425781 91.41164063 117.17617188 91.13671875 118.21875 C87.17374304 131.44628226 80.21382985 142.97998162 70.9453125 153.15234375 C70.32140625 153.85746094 69.6975 154.56257812 69.0546875 155.2890625 C54.41898304 170.93942714 33.09977246 180.64580947 11.82421875 181.53125 C-7.56463635 181.98979077 -22.49227988 180.17113028 -39.62890625 170.95703125 C-42.40948976 169.49223127 -45.11355565 168.24331809 -48.0546875 167.15234375 C-48.828125 167.86519531 -49.6015625 168.57804688 -50.3984375 169.3125 C-59.86559934 178.02222793 -59.86559934 178.02222793 -64.3046875 181.83984375 C-67.00395954 184.17661025 -69.54718711 186.61082688 -72.0546875 189.15234375 C-74.50132187 191.63197704 -76.97576524 194.00674751 -79.6171875 196.27734375 C-83.58954909 199.6966903 -87.41745634 203.25756246 -91.2421875 206.83984375 C-91.8911499 207.44763672 -92.5401123 208.05542969 -93.20874023 208.68164062 C-93.86044189 209.29201172 -94.51214355 209.90238281 -95.18359375 210.53125 C-98.66853716 213.79498202 -102.16923017 217.04109059 -105.6796875 220.27734375 C-106.2041748 220.76130615 -106.72866211 221.24526855 -107.26904297 221.74389648 C-109.99948655 224.26214031 -112.73407667 226.77576277 -115.47265625 229.28515625 C-120.84448619 234.21464537 -126.13061785 239.18126998 -131.25 244.375 C-133.65216621 246.74076975 -136.18844435 248.9253892 -138.7421875 251.125 C-143.36290887 255.17593648 -147.83913681 259.38928624 -152.34472656 263.56738281 C-162.99316502 273.43740886 -173.66082984 283.28869071 -184.4296875 293.02734375 C-185.22761719 293.75566406 -186.02554688 294.48398437 -186.84765625 295.234375 C-188.74858729 296.88633454 -190.67635654 298.2853837 -192.7421875 299.71484375 C-195.49201965 302.05332881 -195.49201965 302.05332881 -195.0546875 305.96484375 C-194.51214183 308.61540541 -193.77057919 311.20041258 -193.0625 313.8125 C-191.9086924 318.43147652 -191.37496607 323.04373935 -190.9296875 327.77734375 C-190.8462207 328.65688721 -190.76275391 329.53643066 -190.67675781 330.44262695 C-187.48474581 366.12476116 -197.12079662 398.79792671 -219.4921875 426.83984375 C-240.85442194 452.24161486 -272.00076212 469.44508063 -305.29888916 472.34799194 C-310.59136911 472.67878101 -315.87827308 472.73411208 -321.1796875 472.71484375 C-321.98151459 472.71469269 -322.78334167 472.71454163 -323.60946655 472.71438599 C-337.4445911 472.66340354 -350.0178603 471.04790459 -363.0546875 466.15234375 C-363.80427734 465.87438965 -364.55386719 465.59643555 -365.32617188 465.31005859 C-377.74278903 460.56628834 -390.20330349 454.251517 -400.08984375 445.3046875 C-402.02215548 443.94448695 -402.02215548 443.94448695 -404.46875 444.1796875 C-407.83827382 445.44707637 -409.77092971 447.29004613 -412.3671875 449.77734375 C-413.34584634 450.69975783 -414.32501497 451.62163134 -415.3046875 452.54296875 C-416.2121875 453.4040625 -417.1196875 454.26515625 -418.0546875 455.15234375 C-419.31722059 456.28665083 -420.58714961 457.412828 -421.8671875 458.52734375 C-422.49625 459.07519531 -423.1253125 459.62304688 -423.7734375 460.1875 C-425.60256188 461.76292733 -427.43633917 463.33234299 -429.2734375 464.8984375 C-435.81224968 470.47568619 -442.26995974 476.10964808 -448.60546875 481.91796875 C-451.38045206 484.44953247 -454.20239173 486.92090515 -457.0390625 489.3828125 C-459.34076514 491.40349331 -461.60233129 493.46546993 -463.8671875 495.52734375 C-467.30846955 498.63763226 -470.81790048 501.61712687 -474.4296875 504.52734375 C-478.98249257 508.20806222 -483.28886161 512.07883023 -487.5715332 516.0637207 C-491.68229707 519.86619389 -495.97735273 523.39497674 -500.33984375 526.90625 C-503.16142245 529.24064965 -505.86059462 531.67224973 -508.5546875 534.15234375 C-512.91754471 538.16395398 -517.41342341 541.93770235 -522.0234375 545.66015625 C-527.53098177 550.1882661 -532.89289076 554.88989491 -538.24853516 559.59619141 C-539.50059531 560.67494667 -540.77280684 561.73058106 -542.06005859 562.76708984 C-542.70023926 563.2873877 -543.34041992 563.80768555 -544 564.34375 C-544.87422607 565.03706421 -544.87422607 565.03706421 -545.76611328 565.74438477 C-547.40843278 567.23435561 -547.40843278 567.23435561 -547.1796875 570.40234375 C-546.56894762 572.43814334 -545.95555599 574.47318876 -545.328125 576.50390625 C-545.07289063 577.33664062 -544.81765625 578.169375 -544.5546875 579.02734375 C-544.296875 579.78789063 -544.0390625 580.5484375 -543.7734375 581.33203125 C-537.79863167 604.77664977 -542.77143971 629.26094265 -554.1796875 650.08984375 C-561.4703645 662.11003321 -570.53093857 671.20991028 -582.0546875 679.15234375 C-582.89773438 679.73757813 -583.74078125 680.3228125 -584.609375 680.92578125 C-591.29030485 685.24100479 -598.5296558 687.69155139 -606.0546875 690.15234375 C-607.01890625 690.508125 -607.983125 690.86390625 -608.9765625 691.23046875 C-629.65027159 697.42208721 -654.5900205 694.14764206 -673.51660156 684.28491211 C-696.33437787 671.84379122 -711.85397858 652.90263323 -720.00390625 628.28515625 C-726.14331389 603.27275474 -722.32145546 576.84128256 -709.14599609 554.86425781 C-706.20898875 550.25703286 -702.72776054 546.18067083 -699.0546875 542.15234375 C-698.38050781 541.38535156 -697.70632813 540.61835937 -697.01171875 539.828125 C-682.28783477 523.99925911 -659.69358118 513.06500293 -638.12890625 511.94921875 C-619.70399319 511.61456474 -603.94718054 514.74033801 -587.84765625 523.99609375 C-585.19835088 525.46912797 -585.19835088 525.46912797 -583.07885742 524.38818359 C-581.16561463 523.22006937 -579.55284548 522.0168967 -577.875 520.53515625 C-577.28323975 520.01687256 -576.69147949 519.49858887 -576.08178711 518.96459961 C-575.1402478 518.12940796 -575.1402478 518.12940796 -574.1796875 517.27734375 C-572.82975579 516.09337511 -571.47948783 514.90978976 -570.12890625 513.7265625 C-569.44747559 513.12763184 -568.76604492 512.52870117 -568.06396484 511.91162109 C-565.05977006 509.28121677 -562.02758815 506.68410755 -558.9921875 504.08984375 C-557.83461226 503.09898539 -556.67706019 502.10809996 -555.51953125 501.1171875 C-554.94831543 500.62847168 -554.37709961 500.13975586 -553.78857422 499.63623047 C-551.45928832 497.64279205 -549.13154616 495.64755709 -546.80419922 493.65185547 C-545.64622201 492.65934975 -544.48770103 491.66747809 -543.32861328 490.67626953 C-540.26277087 488.05322297 -537.20838181 485.41812591 -534.16796875 482.765625 C-533.53181641 482.21326172 -532.89566406 481.66089844 -532.24023438 481.09179688 C-531.01826973 480.03038233 -529.79936406 478.96543277 -528.58398438 477.89648438 C-526.08182802 475.7287311 -524.22910635 474.21048337 -521.0546875 473.15234375 C-521.0546875 472.49234375 -521.0546875 471.83234375 -521.0546875 471.15234375 C-519.58778191 469.81962495 -518.05146249 468.56320506 -516.4921875 467.33984375 C-511.74758166 463.54782286 -507.12682687 459.65034806 -502.5546875 455.65234375 C-498.17306296 451.82863135 -493.76406203 448.06077689 -489.2421875 444.40234375 C-484.88386454 440.8744841 -480.72510763 437.17498579 -476.58203125 433.3984375 C-473.98506357 431.09046777 -471.32064737 428.89678512 -468.6171875 426.71484375 C-464.81381247 423.63897787 -461.15386098 420.46481209 -457.5546875 417.15234375 C-443.49009684 404.237942 -443.49009684 404.237942 -437.0546875 401.15234375 C-437.31161377 400.51433838 -437.56854004 399.87633301 -437.83325195 399.21899414 C-439.02806455 396.22402951 -440.19751899 393.21971309 -441.3671875 390.21484375 C-441.77130859 389.21259766 -442.17542969 388.21035156 -442.59179688 387.17773438 C-448.03305208 373.06586112 -449.5836093 358.96953644 -449.50073242 343.94067383 C-449.49217543 341.58652328 -449.52122506 339.234776 -449.55273438 336.88085938 C-449.60062156 326.37406972 -448.06929542 317.22586544 -445.0546875 307.15234375 C-444.68250447 305.85859455 -444.31099754 304.56465065 -443.94018555 303.27050781 C-434.95222299 272.75616865 -412.40156507 246.00280358 -385.0546875 230.15234375 C-364.49131506 218.96526849 -344.28926745 213.76794369 -320.86889648 213.83666992 C-318.62239223 213.83983641 -316.37720303 213.81623343 -314.13085938 213.79101562 C-301.08118243 213.73237001 -288.8085564 215.62376607 -276.5546875 220.33984375 C-275.7613501 220.63955078 -274.9680127 220.93925781 -274.15063477 221.24804688 C-257.89401446 227.5701564 -244.37870648 236.99643437 -231.0546875 248.15234375 C-229.9455262 249.07707929 -228.83615072 250.001558 -227.7265625 250.92578125 C-226.84484375 251.66054688 -225.963125 252.3953125 -225.0546875 253.15234375 C-224.09949219 252.24613281 -223.14429688 251.33992187 -222.16015625 250.40625 C-215.39680498 244.02288201 -208.6272516 237.78567393 -201.32421875 232.01953125 C-198.99367581 230.17303104 -198.99367581 230.17303104 -196.87890625 227.91015625 C-195.0546875 226.15234375 -195.0546875 226.15234375 -193.0546875 226.15234375 C-193.0546875 225.49234375 -193.0546875 224.83234375 -193.0546875 224.15234375 C-191.69140625 222.77734375 -191.69140625 222.77734375 -189.7421875 221.15234375 C-186.28451201 218.21484953 -182.90224009 215.21509759 -179.5546875 212.15234375 C-175.76399077 208.69535347 -171.94081618 205.28499227 -168.0703125 201.91796875 C-162.11717054 196.70320099 -156.27848359 191.35840409 -150.4296875 186.02734375 C-146.68085073 182.61500846 -142.89922173 179.24830325 -139.07421875 175.921875 C-135.02803661 172.37657421 -131.04725563 168.75775376 -127.0546875 165.15234375 C-117.5625 156.5806108 -117.5625 156.5806108 -113.1796875 152.77734375 C-109.79673989 149.83090551 -106.48221211 146.81325016 -103.1796875 143.77734375 C-99.31438564 140.22488327 -95.44601448 136.67634783 -91.5546875 133.15234375 C-90.78125 132.45109375 -90.0078125 131.74984375 -89.2109375 131.02734375 C-83.6046875 126.15234375 -83.6046875 126.15234375 -81.0546875 126.15234375 C-81.69654495 123.83867153 -82.34296142 121.52644805 -82.9921875 119.21484375 C-83.17458984 118.55548828 -83.35699219 117.89613281 -83.54492188 117.21679688 C-84.28064851 113.91413202 -84.28064851 113.91413202 -86.0546875 111.15234375 C-86.64681868 107.17556147 -86.82921586 103.16403722 -87.0546875 99.15234375 C-87.13332031 97.88519531 -87.21195313 96.61804688 -87.29296875 95.3125 C-88.25760788 72.62012013 -80.30381075 51.63126827 -66.0546875 34.15234375 C-65.36761719 33.3015625 -64.68054688 32.45078125 -63.97265625 31.57421875 C-50.1668241 15.3554754 -28.66843202 3.27878441 -7.4296875 0.33984375 C-4.95423523 0.18571182 -2.47757453 0.1235619 0 0 Z " fill="#D3A853" transform="translate(829.0546875,175.84765625)"/>
<path d="M0 0 C0.97000946 0.00149048 1.94001892 0.00298096 2.93942261 0.0045166 C21.2233835 0.05456207 39.2255708 1.14087247 57.375 3.3125 C58.60976074 3.45703613 59.84452148 3.60157227 61.11669922 3.75048828 C101.81642297 8.6526959 140.74563913 21.07074894 179.375 34.3125 C179.375 34.9725 179.375 35.6325 179.375 36.3125 C182.675 36.9725 185.975 37.6325 189.375 38.3125 C189.375 38.9725 189.375 39.6325 189.375 40.3125 C190.096875 40.415625 190.81875 40.51875 191.5625 40.625 C194.375 41.3125 194.375 41.3125 196.53125 42.65625 C200.11093303 44.74112034 203.80166583 46.09359889 207.6875 47.5 C208.42806641 47.77263672 209.16863281 48.04527344 209.93164062 48.32617188 C211.74443402 48.99281203 213.55949316 49.65328541 215.375 50.3125 C215.375 50.9725 215.375 51.6325 215.375 52.3125 C217.355 52.6425 219.335 52.9725 221.375 53.3125 C221.375 53.9725 221.375 54.6325 221.375 55.3125 C222.01566406 55.48265625 222.65632812 55.6528125 223.31640625 55.828125 C228.87865317 57.38654888 233.48823714 59.23171472 238.375 62.3125 C238.375 62.9725 238.375 63.6325 238.375 64.3125 C239.07625 64.56 239.7775 64.8075 240.5 65.0625 C243.375 66.3125 243.375 66.3125 246.1875 68.25 C249.84558508 70.61699623 253.26579696 71.89553343 257.375 73.3125 C257.6875 76 257.6875 76 257.375 79.3125 C255.7372432 81.00758355 254.06630927 82.6708458 252.375 84.3125 C251.04950345 86.12317268 249.77690926 87.97354137 248.5546875 89.85546875 C247.85923828 90.92144287 247.16378906 91.98741699 246.44726562 93.08569336 C245.71447617 94.22355893 244.98206122 95.36166577 244.25 96.5 C243.49435966 97.66623896 242.7384986 98.83233493 241.98242188 99.99829102 C237.53862914 106.86865198 233.15692124 113.77744167 228.875 120.75 C228.42495605 121.48178467 227.97491211 122.21356934 227.51123047 122.9675293 C225.83946761 125.72471025 224.39819231 128.24292306 223.375 131.3125 C218.55653977 130.78935289 215.13777842 128.47955772 211.1875 125.875 C196.63072646 116.55705144 181.50617681 108.77228085 165.84399414 101.48876953 C163.30645982 100.27984633 160.80906166 99.00626995 158.30859375 97.72265625 C153.78711193 95.45047301 149.23009235 93.67095206 144.4375 92.0625 C143.59541992 91.77511963 142.75333984 91.48773926 141.88574219 91.19165039 C140.04162365 90.56415168 138.1963598 89.94001102 136.35009766 89.31884766 C133.20032336 88.2534144 130.05922301 87.16449827 126.91796875 86.07421875 C113.03355029 81.30025566 99.14463222 77.22371742 84.83081055 73.94750977 C82.375 73.3125 82.375 73.3125 79.61572266 72.31640625 C75.64062035 71.08500496 71.75827486 70.55855413 67.63671875 70.05859375 C66.79768509 69.95281509 65.95865143 69.84703644 65.0941925 69.73805237 C63.31862104 69.51580393 61.54266327 69.29662281 59.76635742 69.08032227 C57.10804997 68.75556471 54.45150572 68.41861143 51.79492188 68.08007812 C35.52739474 66.04245925 19.3898746 65.10360143 3 65.125 C1.91347137 65.12490936 1.91347137 65.12490936 0.80499268 65.12481689 C-13.39937569 65.14148823 -27.4866744 65.91098305 -41.625 67.3125 C-42.44677734 67.39258301 -43.26855469 67.47266602 -44.11523438 67.55517578 C-52.38809799 68.39133861 -60.43116413 69.75998893 -68.49755859 71.78808594 C-71.12483352 72.4357089 -73.75932049 73.0495322 -76.39453125 73.6640625 C-88.58979096 76.52029858 -100.68718381 79.51398486 -112.625 83.3125 C-113.49205566 83.58739258 -114.35911133 83.86228516 -115.25244141 84.14550781 C-118.06777121 85.04448766 -120.87837675 85.95682108 -123.6875 86.875 C-124.55665039 87.15593506 -125.42580078 87.43687012 -126.32128906 87.72631836 C-131.0399867 89.29541756 -135.41848443 91.10935221 -139.82641602 93.40844727 C-142.32973696 94.66673388 -144.92049523 95.57441175 -147.5625 96.5 C-153.683146 98.80141937 -159.3031538 101.68035963 -165.03149414 104.79907227 C-170.1052009 107.54934302 -175.25030425 110.04258293 -180.5 112.4375 C-186.34767147 115.12314138 -191.74810389 118.09327577 -197.10546875 121.68359375 C-199.6107766 123.30330441 -202.15423951 124.64920985 -204.8125 126 C-211.97387496 129.83097805 -218.25869688 134.84200736 -224.66455078 139.79736328 C-226.48715027 141.20596259 -228.31766676 142.6032816 -230.15234375 143.99609375 C-245.0165332 155.30229593 -258.7712487 167.39821181 -272 180.5625 C-272.65379639 181.21162354 -273.30759277 181.86074707 -273.98120117 182.52954102 C-281.42968174 190.00268229 -288.11323672 198.01943915 -294.625 206.3125 C-295.3984375 207.29089844 -296.171875 208.26929688 -296.96875 209.27734375 C-305.95190001 220.73099457 -314.43534949 232.64326931 -321.625 245.3125 C-321.96772949 245.91594238 -322.31045898 246.51938477 -322.66357422 247.14111328 C-325.00122977 251.26316262 -327.31896347 255.39600592 -329.62792969 259.53417969 C-330.44350234 260.98879066 -331.27086594 262.43678516 -332.1015625 263.8828125 C-338.7342149 275.47925637 -343.6381301 287.94695605 -348.625 300.3125 C-348.9432373 301.09641113 -349.26147461 301.88032227 -349.58935547 302.68798828 C-356.66848119 320.22233226 -362.09025031 337.78376473 -365.98876953 356.29394531 C-366.5678238 359.04123119 -367.16935522 361.78244465 -367.77734375 364.5234375 C-370.62384585 377.66969663 -372.25900404 390.93870649 -373.625 404.3125 C-373.72216309 405.17069336 -373.81932617 406.02888672 -373.91943359 406.91308594 C-375.01321226 417.75661523 -374.86707934 428.67571242 -374.875 439.5625 C-374.87633942 440.6477597 -374.87767883 441.73301941 -374.87905884 442.85116577 C-374.87416322 461.19201503 -373.97578183 479.11353064 -371.625 497.3125 C-371.45677734 498.7044458 -371.45677734 498.7044458 -371.28515625 500.12451172 C-370.58079121 505.89095703 -369.68187827 511.60047615 -368.625 517.3125 C-368.44130859 518.31007324 -368.25761719 519.30764648 -368.06835938 520.33544922 C-365.33589601 534.78931295 -361.77259546 548.87445239 -357.5 562.9375 C-357.18239212 563.98567398 -357.18239212 563.98567398 -356.85836792 565.05502319 C-354.66325961 572.25528037 -352.40123688 579.33468774 -349.23095703 586.17724609 C-348.44104875 588.96070211 -348.67640624 590.58852584 -349.625 593.3125 C-351.22875977 594.76293945 -351.22875977 594.76293945 -353.31640625 595.92578125 C-354.08807129 596.36486816 -354.85973633 596.80395508 -355.65478516 597.25634766 C-356.908479 597.93383057 -356.908479 597.93383057 -358.1875 598.625 C-359.04649902 599.10501465 -359.90549805 599.5850293 -360.79052734 600.07958984 C-367.30466972 603.68625615 -373.92526019 607.06204102 -380.6171875 610.32421875 C-385.83534926 612.88119617 -390.94195358 615.65105711 -396.04345703 618.43212891 C-399.21707661 620.14041514 -402.10572468 621.54380601 -405.625 622.3125 C-407.58993251 619.36510123 -408.19096756 617.08052952 -408.98632812 613.68554688 C-410.24241088 609.01845041 -412.1244974 604.56187555 -413.875 600.0625 C-417.7224202 589.98687999 -421.09950263 579.87152944 -424.01367188 569.48925781 C-424.56437635 567.52836281 -425.13267393 565.57242922 -425.703125 563.6171875 C-441.75379998 506.6755072 -448.46378097 437.81501003 -436.06689453 379.48925781 C-435.45374523 376.4689047 -435.10001302 373.43582813 -434.75 370.375 C-433.96969732 364.28740054 -432.89298408 358.31705204 -431.625 352.3125 C-431.45887207 351.52367432 -431.29274414 350.73484863 -431.12158203 349.92211914 C-430.37892104 346.48667309 -429.57024889 343.12386693 -428.58984375 339.74609375 C-427.7330514 336.69702301 -427.13151595 333.68714619 -426.58764648 330.5703125 C-422.22639982 306.64332651 -412.18709019 283.45437417 -402.80297852 261.14038086 C-401.31808239 257.5757069 -399.89016856 253.98990303 -398.47460938 250.3972168 C-396.97373166 246.71445966 -395.20765782 243.25931895 -393.125 239.875 C-391.53133451 237.28422375 -391.53133451 237.28422375 -390.328125 234.19921875 C-388.47414571 229.81942099 -386.20037325 225.70673393 -383.875 221.5625 C-383.42745361 220.76320068 -382.97990723 219.96390137 -382.51879883 219.14038086 C-379.08837649 213.05561916 -375.51801654 207.11459196 -371.625 201.3125 C-371.16222656 200.62043457 -370.69945312 199.92836914 -370.22265625 199.21533203 C-363.35449327 188.97089317 -356.29981986 178.96920575 -348.625 169.3125 C-347.97402344 168.47976562 -347.32304687 167.64703125 -346.65234375 166.7890625 C-341.33423438 160.04041448 -335.74104862 153.52798932 -330.10839844 147.04150391 C-329.05659954 145.81555924 -328.01959665 144.57684979 -326.99316406 143.32958984 C-326.46174805 142.68844238 -325.93033203 142.04729492 -325.3828125 141.38671875 C-324.90215332 140.79850342 -324.42149414 140.21028809 -323.92626953 139.60424805 C-322.625 138.3125 -322.625 138.3125 -320.625 138.3125 C-320.29435547 137.47525391 -320.29435547 137.47525391 -319.95703125 136.62109375 C-318.20077378 133.57725748 -315.94949464 131.69084509 -313.3125 129.375 C-309.62689037 126.12180841 -306.09002984 122.79891891 -302.625 119.3125 C-295.26452475 112.252351 -287.70554387 105.54253764 -279.625 99.3125 C-278.68785156 98.56871094 -277.75070312 97.82492188 -276.78515625 97.05859375 C-261.50125753 85.05119287 -245.17240236 74.48200659 -228.625 64.3125 C-227.82626465 63.81991699 -227.0275293 63.32733398 -226.20458984 62.81982422 C-223.8725911 61.38870695 -221.53223388 59.97263563 -219.1875 58.5625 C-218.48351074 58.13171143 -217.77952148 57.70092285 -217.05419922 57.25708008 C-213.5550675 55.18175373 -211.78834346 54.3125 -207.625 54.3125 C-207.625 53.6525 -207.625 52.9925 -207.625 52.3125 C-194.44140625 46.453125 -194.44140625 46.453125 -192.02978516 45.3828125 C-190.43419904 44.67265519 -188.84010177 43.95914266 -187.24755859 43.2421875 C-181.90885459 40.84489648 -176.51373603 38.70525993 -171.03125 36.65625 C-168.47092328 35.64621285 -165.9900807 34.5840626 -163.48828125 33.4453125 C-157.86484389 30.91992318 -152.09561949 28.81495046 -146.3125 26.6875 C-144.19064894 25.90569816 -142.06952331 25.12192391 -139.94921875 24.3359375 C-139.02197998 23.99481934 -138.09474121 23.65370117 -137.1394043 23.30224609 C-134.66774624 22.3775326 -134.66774624 22.3775326 -132.57299805 21.2578125 C-130.43570593 20.22064054 -128.44872722 19.68619776 -126.1328125 19.1640625 C-125.27075195 18.96554688 -124.40869141 18.76703125 -123.52050781 18.5625 C-122.60624023 18.35625 -121.69197266 18.15 -120.75 17.9375 C-114.73454216 16.55041579 -108.77992661 15.12373684 -102.875 13.3125 C-82.97086721 7.51200067 -62.16734587 4.73753039 -41.625 2.3125 C-40.89196655 2.22422943 -40.15893311 2.13595886 -39.40368652 2.04501343 C-26.24694808 0.48879058 -13.24325497 -0.05087898 0 0 Z " fill="#FBFBFB" transform="translate(504.625,69.6875)"/>
<path d="M0 0 C1.16333008 2.48657227 1.16333008 2.48657227 2.26953125 5.81640625 C2.68050049 7.04343262 3.09146973 8.27045898 3.51489258 9.53466797 C3.94853117 10.87692287 4.38104056 12.21954304 4.8125 13.5625 C5.14439835 14.57815033 5.14439835 14.57815033 5.48300171 15.61431885 C9.61477101 28.26612515 13.09008723 41.01009706 16 54 C16.22526367 54.98661621 16.45052734 55.97323242 16.68261719 56.98974609 C19.9854423 71.56976366 22.32937547 86.14751551 24 101 C24.0788443 101.65936554 24.1576886 102.31873108 24.23892212 102.99807739 C24.86618769 108.36960851 25.28974236 113.72389329 25.5546875 119.125 C25.59673309 119.9811792 25.63877869 120.8373584 25.68209839 121.71948242 C26.10660364 131.16618891 26.15084967 140.60867585 26.13037109 150.06347656 C26.12500348 152.99809937 26.13036253 155.93256922 26.13671875 158.8671875 C26.14694515 177.49218221 25.47451301 195.58438616 22.1875 213.9375 C21.91409334 215.51125741 21.64147982 217.08515279 21.36962891 218.65917969 C20.71259594 222.44195897 20.04057055 226.22183099 19.35992432 230.00042725 C19.03480516 231.80663863 18.71323449 233.61348787 18.39208984 235.42041016 C13.60971765 262.2043054 5.87332267 288.29918094 -3 314 C-3.52262693 315.58274221 -4.04365533 317.16601389 -4.5625 318.75 C-6.26658898 323.87206055 -8.13487745 328.93481948 -10 334 C-10.66 334 -11.32 334 -12 334 C-12.33 336.31 -12.66 338.62 -13 341 C-13.66 341 -14.32 341 -15 341 C-15.309375 342.27875 -15.61875 343.5575 -15.9375 344.875 C-18.44393169 353.37720946 -22.91834931 361.16947666 -27 369 C-27.66 369 -28.32 369 -29 369 C-29.24234375 369.65871094 -29.4846875 370.31742188 -29.734375 370.99609375 C-35.60755976 384.935844 -44.45412891 397.35833112 -53.25390625 409.56152344 C-54.95306996 411.93446068 -56.62224333 414.32542149 -58.28125 416.7265625 C-62.92284295 423.43269204 -67.5246739 429.95054347 -73.1015625 435.92578125 C-75.20436395 438.22328653 -77.12486923 440.62425459 -79.0625 443.0625 C-83.6145316 448.68326946 -88.52333458 453.92819775 -93.50805664 459.16625977 C-96.65190819 462.47332014 -99.72844801 465.8116098 -102.7109375 469.265625 C-105.00350718 471.90725981 -107.29610659 474.33062246 -110 476.5625 C-112.56694928 478.7367993 -114.97897051 480.95236199 -117.3125 483.375 C-120.89313716 487.0036994 -124.76867977 490.17473077 -128.7421875 493.36328125 C-131.13312393 495.28332074 -133.48258597 497.24601157 -135.8203125 499.23046875 C-145.44470861 507.36116773 -155.41807398 514.66290376 -165.91992188 521.61914062 C-167.70005252 522.80087993 -169.4684558 524.0002525 -171.234375 525.203125 C-213.61026423 554 -213.61026423 554 -222 554 C-222 554.66 -222 555.32 -222 556 C-224.51840432 557.13071214 -227.03948931 558.25464988 -229.5625 559.375 C-230.61920898 559.85066406 -230.61920898 559.85066406 -231.69726562 560.3359375 C-236.07662336 562.27334922 -240.36448919 563.7939144 -245 565 C-245 565.66 -245 566.32 -245 567 C-245.72775635 567.23871826 -246.4555127 567.47743652 -247.20532227 567.72338867 C-254.49634888 570.13193234 -261.72434098 572.6812087 -268.9375 575.3125 C-279.56000135 579.16410625 -290.23097288 582.84117905 -300.97827148 586.32958984 C-302.64872442 586.88351615 -304.30349292 587.48449935 -305.953125 588.09765625 C-311.10820312 589.62435246 -316.42469686 590.15034219 -321.74414062 590.85546875 C-323.03288086 591.03529297 -323.03288086 591.03529297 -324.34765625 591.21875 C-325.12117432 591.32123047 -325.89469238 591.42371094 -326.69165039 591.52929688 C-329.05750272 591.93736462 -329.05750272 591.93736462 -331.38647461 592.97485352 C-334.41203583 594.16161966 -337.25917428 594.67254251 -340.46875 595.18359375 C-341.74540527 595.38766846 -343.02206055 595.59174316 -344.33740234 595.80200195 C-345.72471962 596.01523997 -347.11225985 596.22703162 -348.5 596.4375 C-349.215047 596.54605316 -349.93009399 596.65460632 -350.66680908 596.76644897 C-355.09218318 597.43330212 -359.52049751 598.07739418 -363.95129395 598.70715332 C-365.81307115 598.97327997 -367.67369788 599.24742425 -369.53417969 599.52246094 C-407.69533728 605.00335577 -446.90259769 602.86711057 -485 598 C-486.97644575 597.76982857 -488.95299 597.54049928 -490.9296875 597.3125 C-508.22742998 595.16481068 -525.54594875 590.69541275 -542 585 C-545.03619095 584.00355769 -548.07965796 583.0305768 -551.125 582.0625 C-551.94468262 581.80162598 -552.76436523 581.54075195 -553.60888672 581.27197266 C-558.7506296 579.65451385 -563.90222304 578.20701872 -569.125 576.875 C-573.90954603 575.63285824 -578.26836479 574.19897081 -582.71484375 572.0546875 C-585.48825875 570.77464981 -588.32123445 569.74294797 -591.1875 568.6875 C-597.24522782 566.39462171 -602.93853289 563.59081646 -608.69140625 560.640625 C-612.36489983 558.81905794 -616.07998821 557.27017509 -619.9140625 555.82421875 C-622.01244948 554.99508082 -623.99756631 554.03745999 -626 553 C-626 552.34 -626 551.68 -626 551 C-626.969375 550.87625 -627.93875 550.7525 -628.9375 550.625 C-629.948125 550.41875 -630.95875 550.2125 -632 550 C-632.33 549.34 -632.66 548.68 -633 548 C-634.97888961 547.27306096 -636.97954558 546.60183749 -639 546 C-639 545.34 -639 544.68 -639 544 C-640.25103516 543.64035156 -640.25103516 543.64035156 -641.52734375 543.2734375 C-645.53772696 541.80281328 -648.93494749 539.85174236 -652.5625 537.625 C-653.20896484 537.23828125 -653.85542969 536.8515625 -654.52148438 536.453125 C-658.23775961 534.19992049 -661.66462716 531.80401786 -665 529 C-664.67698799 522.86277186 -661.6043679 517.83769272 -658 513 C-657.34 513 -656.68 513 -656 513 C-655.62875 511.72576172 -655.62875 511.72576172 -655.25 510.42578125 C-653.89662825 506.71669679 -652.0916094 503.51058232 -650 500.1875 C-649.46632813 499.31061523 -649.46632813 499.31061523 -648.921875 498.41601562 C-646.25982143 494.12991071 -646.25982143 494.12991071 -644 493 C-643.32379401 491.37710562 -642.65080316 489.75277886 -641.99609375 488.12109375 C-640.12568834 484.13823046 -637.51906734 480.59517377 -635 477 C-631.62537285 477.54723683 -629.91765 478.0549 -627 480 C-627 480.66 -627 481.32 -627 482 C-626.278125 482.0825 -625.55625 482.165 -624.8125 482.25 C-621.41002254 483.15732732 -619.72533481 484.79377658 -617 487 C-615.31863693 487.73559634 -613.63555608 488.46780034 -611.93994141 489.16992188 C-608.67667996 490.56623309 -605.53657052 492.20209451 -602.375 493.8125 C-596.32588142 496.86803708 -590.23831191 499.78586961 -584.0625 502.578125 C-581.69865885 503.67562268 -579.38802758 504.81965565 -577.0703125 506.0078125 C-573.42083516 507.84031601 -569.7388778 509.28781936 -565.875 510.625 C-564.83110107 510.98634033 -564.83110107 510.98634033 -563.76611328 511.35498047 C-561.18013202 512.24480963 -558.59022796 513.12260834 -556 514 C-554.85402344 514.39058594 -553.70804688 514.78117188 -552.52734375 515.18359375 C-549.29952911 516.28178508 -546.07018199 517.37506435 -542.83892822 518.46307373 C-540.93332418 519.1053423 -539.02889817 519.75110276 -537.12451172 520.39697266 C-519.3288495 526.34924186 -501.49260841 530.02864689 -483 533 C-481.80246094 533.20189941 -480.60492188 533.40379883 -479.37109375 533.61181641 C-442.98093214 539.59342469 -404.25330046 539.69790294 -367.90380859 533.47851562 C-363.76387156 532.79629967 -359.60744559 532.33002824 -355.4375 531.875 C-350.99617352 531.38095914 -347.22311654 530.43396868 -343 529 C-340.11802956 528.28936742 -337.21634168 527.67682165 -334.3125 527.0625 C-282.36395237 516.05683559 -233.07619161 492.18828658 -191 460 C-190.154375 459.35546875 -189.30875 458.7109375 -188.4375 458.046875 C-186.27743316 456.38182348 -184.13702714 454.69447114 -182 453 C-180.83984375 452.10087891 -180.83984375 452.10087891 -179.65625 451.18359375 C-173.77685132 446.57868497 -168.27069056 441.66471767 -162.8046875 436.5859375 C-160.57149806 434.52692439 -158.31287578 432.52988396 -156 430.5625 C-147.70837876 423.36142602 -140.09790909 415.36697391 -133 407 C-132.14277344 406.03191406 -131.28554688 405.06382812 -130.40234375 404.06640625 C-94.09550794 362.87869865 -68.71485403 313.37792793 -53.77636719 260.70898438 C-53.00600517 258.02095389 -52.19746705 255.3467721 -51.3828125 252.671875 C-47.60657904 239.95797562 -45.529626 227.28097565 -43.859375 214.1328125 C-43.40217164 210.59288943 -42.86935962 207.19581797 -41.92578125 203.75390625 C-40.8500765 199.39208235 -40.59120626 195.28497735 -40.4375 190.8125 C-40.37710537 189.25637443 -40.31339481 187.70037342 -40.24609375 186.14453125 C-40.22216553 185.46753174 -40.1982373 184.79053223 -40.17358398 184.09301758 C-40 182 -40 182 -39.49731445 179.79125977 C-38.80748734 175.91949079 -38.81796567 172.12115494 -38.796875 168.1953125 C-38.78995132 167.33167587 -38.78302765 166.46803925 -38.77589417 165.57823181 C-38.75851797 162.76044216 -38.75229047 159.94284093 -38.75 157.125 C-38.74799088 155.68155716 -38.74799088 155.68155716 -38.74594116 154.20895386 C-38.75113801 136.95847307 -39.76482053 120.11341174 -42 103 C-42.20012695 101.43499756 -42.20012695 101.43499756 -42.40429688 99.83837891 C-43.71950529 88.67816275 -43.71950529 88.67816275 -47 78 C-47.72521596 75.37827588 -48.41359184 72.76504461 -49.0625 70.125 C-49.23587891 69.44308594 -49.40925781 68.76117188 -49.58789062 68.05859375 C-50.40704916 64.76312839 -51.06060624 61.56956295 -51.53515625 58.19921875 C-51.98199125 55.12394255 -52.87821015 52.75825093 -54.1796875 49.953125 C-55.14512435 47.65446583 -55.81804512 45.33510979 -56.5 42.9375 C-57.37372025 39.87483167 -58.26820742 37.48274284 -59.75 34.625 C-61 32 -61 32 -60.82250977 29.97949219 C-59.7313474 27.35344752 -58.63604778 26.91236841 -56.08984375 25.703125 C-55.27281982 25.30593262 -54.4557959 24.90874023 -53.61401367 24.49951172 C-52.2891394 23.88100342 -52.2891394 23.88100342 -50.9375 23.25 C-49.09891518 22.36206851 -47.26037404 21.47404658 -45.421875 20.5859375 C-44.50341797 20.14862305 -43.58496094 19.71130859 -42.63867188 19.26074219 C-38.96744612 17.50665172 -35.32523588 15.69729244 -31.6875 13.875 C-31.0488501 13.55668213 -30.4102002 13.23836426 -29.75219727 12.91040039 C-24.46755715 10.2650567 -19.24674999 7.50634605 -14.0456543 4.70068359 C-12.36663222 3.79512772 -10.68338998 2.89741002 -9 2 C-7.93007813 1.40832031 -6.86015625 0.81664062 -5.7578125 0.20703125 C-3 -1 -3 -1 0 0 Z " fill="#FBFBFB" transform="translate(936,359)"/>
<path d="M0 0 C0.84974396 -0.00367584 1.69948792 -0.00735168 2.57498169 -0.01113892 C46.02697177 -0.10942637 100.99308949 7.90788263 138.62890625 30.87890625 C141.0394719 32.29893449 143.21231308 33.10724487 145.875 33.9375 C157.99418774 38.22255694 168.96814865 45.4637141 179.0625 53.3125 C177.48231536 57.98163314 174.93934603 61.63736012 172.125 65.625 C171.12617201 67.05850313 170.1274778 68.49209948 169.12890625 69.92578125 C168.61859863 70.65490723 168.10829102 71.3840332 167.58251953 72.13525391 C165.22332485 75.51451798 162.89400559 78.91410553 160.5625 82.3125 C159.65756218 83.62630904 158.7526142 84.94011108 157.84765625 86.25390625 C155.88479183 89.10764679 153.93697697 91.97111171 151.99609375 94.83984375 C151.49464844 95.57783203 150.99320313 96.31582031 150.4765625 97.07617188 C149.51067168 98.4981778 148.54828295 99.92257041 147.58984375 101.34960938 C144.2874244 106.2000378 144.2874244 106.2000378 142.0625 107.3125 C140.27734375 106.6328125 140.27734375 106.6328125 138 105.4375 C137.11183594 104.97601563 136.22367188 104.51453125 135.30859375 104.0390625 C134.23738281 103.46929687 133.16617187 102.89953125 132.0625 102.3125 C130.69933603 101.59092422 129.33604671 100.86958523 127.97265625 100.1484375 C125.75465769 98.97395493 123.53694418 97.79894312 121.31982422 96.62280273 C112.70526249 92.05534412 104.16220465 87.83313456 95.0625 84.3125 C93.37463002 83.62590882 91.68712855 82.93841103 90 82.25 C85.40560497 80.41652248 80.77383204 78.81549069 76.0625 77.3125 C74.66862061 76.86233521 74.66862061 76.86233521 73.24658203 76.40307617 C65.32090358 73.8956187 57.37514634 71.87161158 49.25 70.125 C48.10724609 69.86525391 46.96449219 69.60550781 45.78710938 69.33789062 C30.3771145 66.00437021 14.7375274 66.07923635 -0.96166992 66.01733398 C-2.97476245 66.00584909 -4.98782538 65.98545306 -7.00073242 65.95581055 C-22.07353764 65.73547309 -36.19155154 67.18264005 -50.9375 70.3125 C-52.13286377 70.56410889 -53.32822754 70.81571777 -54.55981445 71.07495117 C-57.24617129 71.68228773 -59.90332018 72.34639646 -62.5625 73.0625 C-63.95045776 73.42722412 -63.95045776 73.42722412 -65.36645508 73.79931641 C-73.20766533 75.94127312 -80.76454035 78.70840135 -88.28955078 81.77246094 C-89.10536621 82.1027832 -89.92118164 82.43310547 -90.76171875 82.7734375 C-91.47416748 83.07040527 -92.18661621 83.36737305 -92.9206543 83.67333984 C-94.9375 84.3125 -94.9375 84.3125 -98.9375 84.3125 C-98.9375 84.9725 -98.9375 85.6325 -98.9375 86.3125 C-100.20589526 86.81865298 -101.47733102 87.31719099 -102.75 87.8125 C-103.45769531 88.0909375 -104.16539062 88.369375 -104.89453125 88.65625 C-106.9375 89.3125 -106.9375 89.3125 -109.9375 89.3125 C-109.9375 89.9725 -109.9375 90.6325 -109.9375 91.3125 C-111.56510417 91.99609375 -113.19270833 92.6796875 -114.8203125 93.36328125 C-137.38179645 103.47848531 -157.51118932 119.0555506 -175.9375 135.3125 C-176.46375977 135.77414551 -176.99001953 136.23579102 -177.53222656 136.71142578 C-189.71325003 147.4423274 -200.33899213 159.23144699 -209.9375 172.3125 C-210.38963867 172.92367676 -210.84177734 173.53485352 -211.30761719 174.16455078 C-212.69245496 176.04135772 -214.06709036 177.92513779 -215.4375 179.8125 C-215.85918457 180.38798584 -216.28086914 180.96347168 -216.71533203 181.55639648 C-218.97693795 184.71327937 -220.54434642 187.70598121 -221.9375 191.3125 C-222.87048434 192.63790951 -223.85074386 193.93128764 -224.875 195.1875 C-227.09814204 198.07490617 -228.76595224 200.75640311 -230.0859375 204.18359375 C-231.74957272 208.34268181 -233.73644127 212.36496143 -235.6328125 216.421875 C-236.98717223 219.29143563 -236.98717223 219.29143563 -237.9375 222.3125 C-238.5975 222.3125 -239.2575 222.3125 -239.9375 222.3125 C-240.06874268 223.04557373 -240.19998535 223.77864746 -240.33520508 224.53393555 C-240.8896184 227.09160801 -241.6195054 229.33884845 -242.57421875 231.76953125 C-260.7782265 279.20307756 -262.71541964 327.51940322 -255.9375 377.3125 C-255.76653809 378.57481445 -255.59557617 379.83712891 -255.41943359 381.13769531 C-255.02148384 383.75924476 -254.54549874 385.72522827 -253.5 388.125 C-251.6551315 392.72812779 -250.78592946 397.44151677 -249.9375 402.3125 C-251.87120231 403.31982399 -253.80960306 404.31813288 -255.75 405.3125 C-257.36841797 406.1478125 -257.36841797 406.1478125 -259.01953125 407 C-261.9375 408.3125 -261.9375 408.3125 -264.9375 408.3125 C-265.2675 409.3025 -265.5975 410.2925 -265.9375 411.3125 C-268.15234375 412.48046875 -268.15234375 412.48046875 -270.875 413.5 C-271.77089844 413.84417969 -272.66679687 414.18835938 -273.58984375 414.54296875 C-275.9375 415.3125 -275.9375 415.3125 -277.9375 415.3125 C-278.2675 416.3025 -278.5975 417.2925 -278.9375 418.3125 C-281.01171875 419.33984375 -281.01171875 419.33984375 -283.625 420.25 C-287.85077471 421.82266048 -291.21446892 423.74774526 -294.9375 426.3125 C-298.94852844 428.21246084 -302.58874585 429.51708685 -306.9375 430.3125 C-312.81880737 413.36414736 -318.20440852 396.80785149 -320.4453125 378.94921875 C-320.8701271 375.81031088 -321.39741663 372.71892019 -321.953125 369.6015625 C-322.93935792 363.72188727 -323.37809159 357.95396512 -323.5625 352 C-323.59827148 350.91678467 -323.63404297 349.83356934 -323.67089844 348.7175293 C-323.78107558 344.91615566 -323.86590071 341.11475261 -323.9375 337.3125 C-323.95907166 336.19035095 -323.95907166 336.19035095 -323.9810791 335.04553223 C-324.34919296 314.92370267 -324.49415192 295.19294302 -320.9375 275.3125 C-320.72795215 273.98346727 -320.52076479 272.6540593 -320.31640625 271.32421875 C-316.07781501 245.97165125 -308.24156334 220.84647184 -297.9375 197.3125 C-297.6075 196.3225 -297.2775 195.3325 -296.9375 194.3125 C-296.2775 194.3125 -295.6175 194.3125 -294.9375 194.3125 C-294.71835937 193.06082031 -294.49921875 191.80914062 -294.2734375 190.51953125 C-292.93976587 184.55757683 -290.34070935 179.40917933 -287.5625 174 C-287.02939209 172.95110596 -286.49628418 171.90221191 -285.94702148 170.8215332 C-274.64473153 148.86948744 -261.41238841 127.75721203 -244.9375 109.3125 C-244.27234375 108.53777344 -243.6071875 107.76304687 -242.921875 106.96484375 C-231.74215613 94.13457583 -219.55084559 81.55601602 -205.9375 71.3125 C-204.7299374 70.37698755 -203.52294939 69.44073315 -202.31640625 68.50390625 C-189.54769489 58.6751298 -176.24063417 49.75651035 -161.9375 42.3125 C-160.43799059 41.49628074 -158.93937924 40.67841059 -157.44140625 39.859375 C-109.07365372 13.66289335 -54.93385054 0.11302876 0 0 Z " fill="#FBFBFB" transform="translate(512.9375,190.6875)"/>
<path d="M0 0 C2.78559305 6.65200332 5.15724641 13.31261503 7.125 20.25 C7.51401489 21.60883301 7.51401489 21.60883301 7.91088867 22.99511719 C9.71794868 29.50353249 10.94213444 35.8569736 11.67578125 42.578125 C11.74330777 44.94565125 11.74330777 44.94565125 13 46 C13.28725974 47.69573488 13.51566534 49.40151331 13.71875 51.109375 C13.84596436 52.16745361 13.97317871 53.22553223 14.10424805 54.31567383 C14.23484619 55.44900146 14.36544434 56.5823291 14.5 57.75 C14.6338208 58.90072998 14.7676416 60.05145996 14.90551758 61.23706055 C16.72100198 77.06732205 16.72100198 77.06732205 17 84 C17.07927734 85.95679688 17.07927734 85.95679688 17.16015625 87.953125 C17.74790717 110.88043437 15.19287614 134.19599451 11.5625 156.8125 C11.36954346 158.02526611 11.17658691 159.23803223 10.9777832 160.48754883 C9.5091208 169.14924431 7.37553151 177.5463964 5 186 C4.720354 187.02101807 4.44070801 188.04203613 4.15258789 189.09399414 C-1.25187135 208.73402191 -7.85039453 227.77380338 -17 246 C-17.35787598 246.71833008 -17.71575195 247.43666016 -18.08447266 248.17675781 C-27.35965582 266.66432138 -38.31827726 283.67846437 -51 300 C-51.69222656 300.90621094 -52.38445312 301.81242187 -53.09765625 302.74609375 C-56.20508902 306.79600064 -59.41346377 310.7036738 -62.8359375 314.4921875 C-64.22168093 316.11599957 -64.22168093 316.11599957 -65 319 C-66.55541992 320.52978516 -66.55541992 320.52978516 -68.54296875 322.1640625 C-73.06140222 325.99733606 -77.17232659 330.1416073 -81.3125 334.375 C-87.58100704 340.70029067 -93.93669579 346.56311453 -101 352 C-102.32435299 353.06201344 -103.64713945 354.12598195 -104.96875 355.19140625 C-115.84998666 363.89760865 -127.16711196 371.64897079 -139 379 C-139.70415039 379.4429541 -140.40830078 379.8859082 -141.13378906 380.34228516 C-157.70557692 390.71659103 -175.57374744 399.46165232 -194 406 C-195.63128461 406.62741716 -197.26138334 407.25792177 -198.890625 407.890625 C-210.96879638 412.51974208 -222.95020099 415.9290744 -235.62011719 418.50927734 C-238.79983013 419.16492189 -241.95994773 419.90230071 -245.125 420.625 C-250.76419418 421.81790646 -256.42888898 422.75397986 -262.125 423.625 C-262.92437988 423.7482666 -263.72375977 423.8715332 -264.54736328 423.99853516 C-277.9443485 425.97084636 -291.22321399 426.18631962 -304.74169922 426.18530273 C-307.96465532 426.18747616 -311.187261 426.20564537 -314.41015625 426.22460938 C-356.32441762 426.33779119 -356.32441762 426.33779119 -367 421 C-368.83125732 420.77414493 -370.66523088 420.57028483 -372.5 420.375 C-388.19947595 418.20122641 -403.60451388 413.25792292 -418.625 408.3125 C-419.45845947 408.03962158 -420.29191895 407.76674316 -421.15063477 407.4855957 C-427.61504521 405.29378854 -433.50656929 402.47758857 -439.375 399 C-441.95764408 397.49297829 -444.50594592 396.40167106 -447.3125 395.375 C-458.56446195 391.05132944 -470.48076034 384.40385307 -480 377 C-478.32307307 371.84576448 -475.25288343 367.71742379 -472.1875 363.3125 C-471.32995117 362.06968262 -471.32995117 362.06968262 -470.45507812 360.80175781 C-464.8911208 352.77202487 -459.1748593 344.85387278 -453.421875 336.95898438 C-451.26347242 333.98525115 -449.13129071 330.99320974 -447 328 C-444.0626613 328.61648351 -441.80919663 329.54266648 -439.234375 331.07421875 C-438.51677002 331.49179443 -437.79916504 331.90937012 -437.05981445 332.33959961 C-436.29757568 332.78440674 -435.53533691 333.22921387 -434.75 333.6875 C-427.53885293 337.8059527 -420.38642453 341.02029884 -412.55078125 343.74609375 C-410.19715259 344.57724315 -407.86993467 345.48763093 -405.578125 346.4765625 C-398.5632727 349.46323542 -391.25590103 351.67527856 -384 354 C-382.13988281 354.59748047 -382.13988281 354.59748047 -380.2421875 355.20703125 C-372.9949458 357.4109191 -365.92319022 358.68936223 -358.40234375 359.56640625 C-355.61078628 359.92216156 -352.97824912 360.39624309 -350.25 361.0625 C-341.88666637 363.07862793 -333.15866901 363.16509055 -324.59375 363.23828125 C-323.16110809 363.25283607 -323.16110809 363.25283607 -321.69952393 363.26768494 C-318.63297252 363.29245632 -315.56664126 363.30519134 -312.5 363.3125 C-311.45187134 363.31511841 -310.40374268 363.31773682 -309.32385254 363.32043457 C-292.84399712 363.32484347 -277.17915418 362.33329215 -261 359 C-259.19440095 358.65938156 -257.38841919 358.32078466 -255.58203125 357.984375 C-246.80232771 356.29609899 -238.41052474 354.06660671 -230 351 C-228.58465961 350.53758734 -227.16803277 350.07908915 -225.75 349.625 C-213.47369033 345.50335091 -201.59434119 340.77357665 -190 335 C-188.89567627 334.45085937 -188.89567627 334.45085937 -187.76904297 333.890625 C-167.59805467 323.76928444 -149.33918657 311.44011875 -132 297 C-131.35546875 296.48050781 -130.7109375 295.96101563 -130.046875 295.42578125 C-127.53101885 293.39233441 -125.81628767 291.72443151 -124 289 C-123.34 289 -122.68 289 -122 289 C-121.66162109 288.1646875 -121.66162109 288.1646875 -121.31640625 287.3125 C-119.61424498 284.32235319 -117.43740432 282.36277877 -114.9375 280 C-109.25059648 274.47336969 -104.60087162 268.46198809 -100 262 C-99.16841314 260.87240782 -98.33503116 259.74613766 -97.5 258.62109375 C-92.46384067 251.78356114 -87.99679396 244.81910974 -83.8828125 237.390625 C-82.05079772 234.09147806 -80.13008077 230.8599253 -78.1875 227.625 C-75.94571157 223.79928431 -74.13864454 220.14293227 -72.7265625 215.94921875 C-71.90527884 213.74588248 -70.85691803 211.76207863 -69.75 209.6875 C-64.34215514 199.0848466 -60.28479297 187.44255659 -57.671875 175.84375 C-56.93860995 172.74016302 -56.00537852 169.73372291 -55.0625 166.6875 C-42.30120812 122.29189453 -44.5020859 74.33755407 -56.58203125 30.1875 C-57 28 -57 28 -56 26 C-54.328125 25.25390625 -54.328125 25.25390625 -52.25 24.5625 C-48.87619794 23.3678619 -46.03510765 21.91691009 -43 20 C-39.09788185 17.91887032 -35.19920503 16.2770275 -31.02734375 14.84375 C-28.51715448 13.79904695 -26.32962226 12.4050123 -24 11 C-21.29261105 9.56035948 -18.55453226 8.18475687 -15.8125 6.8125 C-14.72678711 6.26045898 -14.72678711 6.26045898 -13.61914062 5.69726562 C-8.23962199 3 -8.23962199 3 -6 3 C-6 2.34 -6 1.68 -6 1 C-3.92446352 0.4465236 -2.15634036 0 0 0 Z " fill="#FBFBFB" transform="translate(822,414)"/>
<path d="M0 0 C24.3208688 -0.68936703 46.86173649 7.83841432 64.9453125 24.15234375 C65.72648438 24.85101563 66.50765625 25.5496875 67.3125 26.26953125 C82.97911332 41.06878882 94.37351584 63.62846897 95.1484375 85.3671875 C95.31925324 95.71139436 94.60500515 105.10077804 91.9453125 115.15234375 C91.67847656 116.16425781 91.41164063 117.17617188 91.13671875 118.21875 C87.17374304 131.44628226 80.21382985 142.97998162 70.9453125 153.15234375 C70.32140625 153.85746094 69.6975 154.56257812 69.0546875 155.2890625 C54.41898304 170.93942714 33.09977246 180.64580947 11.82421875 181.53125 C-13.82429907 182.13782996 -33.83482528 177.42119841 -54.0546875 161.15234375 C-54.74691406 160.62382812 -55.43914063 160.0953125 -56.15234375 159.55078125 C-67.22840403 150.61066102 -74.61779795 138.12190708 -80.0546875 125.15234375 C-80.0546875 124.16234375 -80.0546875 123.17234375 -80.0546875 122.15234375 C-80.7146875 122.15234375 -81.3746875 122.15234375 -82.0546875 122.15234375 C-82.25964844 121.44207031 -82.46460938 120.73179687 -82.67578125 120 C-83.07990234 118.62134766 -83.07990234 118.62134766 -83.4921875 117.21484375 C-83.75902344 116.29832031 -84.02585937 115.38179688 -84.30078125 114.4375 C-84.84494801 112.21209445 -84.84494801 112.21209445 -86.0546875 111.15234375 C-86.64681868 107.17556147 -86.82921586 103.16403722 -87.0546875 99.15234375 C-87.13332031 97.88519531 -87.21195313 96.61804688 -87.29296875 95.3125 C-88.25760788 72.62012013 -80.30381075 51.63126827 -66.0546875 34.15234375 C-65.36761719 33.3015625 -64.68054688 32.45078125 -63.97265625 31.57421875 C-50.1668241 15.3554754 -28.66843202 3.27878441 -7.4296875 0.33984375 C-4.95423523 0.18571182 -2.47757453 0.1235619 0 0 Z " fill="#D3A853" transform="translate(829.0546875,175.84765625)"/>
<path d="M0 0 C0.91652344 0.4434375 1.83304688 0.886875 2.77734375 1.34375 C4.52976834 2.20610305 6.26775786 3.09779055 8 4 C8 4.66 8 5.32 8 6 C8.57621094 6.27070312 9.15242187 6.54140625 9.74609375 6.8203125 C23.73608039 14.14262786 34.06096969 28.1733396 41 42 C41 42.99 41 43.98 41 45 C41.66 45 42.32 45 43 45 C43.82236809 47.64310924 44.63296425 50.28895946 45.4375 52.9375 C45.78264648 54.04061523 45.78264648 54.04061523 46.13476562 55.16601562 C53.1911082 78.58489171 49.35981022 103.45234457 38.51171875 124.94921875 C31.17972343 138.33579732 21.48609748 148.39429372 9 157 C8.15695313 157.58523438 7.31390625 158.17046875 6.4453125 158.7734375 C-0.23561735 163.08866104 -7.4749683 165.53920764 -15 168 C-15.96421875 168.35578125 -16.9284375 168.7115625 -17.921875 169.078125 C-38.59558409 175.26974346 -63.535333 171.99529831 -82.46191406 162.13256836 C-105.27969037 149.69144747 -120.79929108 130.75028948 -128.94921875 106.1328125 C-135.08862639 81.12041099 -131.26676796 54.68893881 -118.09130859 32.71191406 C-115.15430125 28.10468911 -111.67307304 24.02832708 -108 20 C-107.32582031 19.23300781 -106.65164062 18.46601562 -105.95703125 17.67578125 C-78.4138633 -11.93441619 -35.24311615 -17.3262247 0 0 Z " fill="#D3A853" transform="translate(238,698)"/>
<path d="M0 0 C1.82333849 2.73500774 3.20958684 5.48233408 4.61376953 8.44555664 C8.28173942 16.12420631 12.32658767 22.60105695 18 29 C18.50144531 29.63164062 19.00289062 30.26328125 19.51953125 30.9140625 C23.39250775 35.75795047 28.00928859 39.35123543 33 43 C31.64571539 46.10412761 30.22865747 47.91475724 27.625 50.0625 C18.14738723 58.09897308 9.17434212 66.7061238 0.14111328 75.23388672 C-4.30263806 79.42239903 -8.79592654 83.54304869 -13.35546875 87.60546875 C-17.61047314 91.45822753 -21.77919647 95.40268121 -25.95922852 99.33642578 C-30.10879179 103.23814406 -34.28628352 107.10523862 -38.5 110.9375 C-42.50066929 114.58675915 -46.35936483 118.33230052 -50.16015625 122.1875 C-52.57410299 124.56557067 -55.1208782 126.7619527 -57.6875 128.97265625 C-62.30822137 133.02359273 -66.78444931 137.23694249 -71.29003906 141.41503906 C-80.16478037 149.64102715 -89.06617451 157.8382335 -98 166 C-99.33224609 167.22589844 -99.33224609 167.22589844 -100.69140625 168.4765625 C-101.53574219 169.24742187 -102.38007812 170.01828125 -103.25 170.8125 C-103.97703125 171.47894531 -104.7040625 172.14539063 -105.453125 172.83203125 C-108.84727598 175.72122419 -112.4115153 178.3584458 -116 181 C-116.47308594 179.80246094 -116.94617188 178.60492188 -117.43359375 177.37109375 C-123.48334264 162.35674514 -130.54818733 149.41448337 -141 137 C-142.00910875 135.6735471 -143.01216203 134.34236877 -144 133 C-142.40079021 128.8182154 -139.31128568 126.23271478 -136.0625 123.3125 C-135.48636963 122.78720703 -134.91023926 122.26191406 -134.31665039 121.72070312 C-129.78759081 117.62520412 -125.12230847 113.73470507 -120.33984375 109.9375 C-117.95012858 108.03006133 -117.95012858 108.03006133 -115.81640625 105.75 C-114 104 -114 104 -112 104 C-112 103.34 -112 102.68 -112 102 C-110.63671875 100.625 -110.63671875 100.625 -108.6875 99 C-105.22982451 96.06250578 -101.84755259 93.06275384 -98.5 90 C-94.70930327 86.54300972 -90.88612868 83.13264852 -87.015625 79.765625 C-81.06248304 74.55085724 -75.22379609 69.20606034 -69.375 63.875 C-65.62616323 60.46266471 -61.84453423 57.0959595 -58.01953125 53.76953125 C-53.97334911 50.22423046 -49.99256813 46.60541001 -46 43 C-36.5078125 34.42826705 -36.5078125 34.42826705 -32.125 30.625 C-28.74205239 27.67856176 -25.42752461 24.66090641 -22.125 21.625 C-18.25969814 18.07253952 -14.39132698 14.52400408 -10.5 11 C-9.7265625 10.29875 -8.953125 9.5975 -8.15625 8.875 C-2.55 4 -2.55 4 0 4 C0 2.68 0 1.36 0 0 Z " fill="#FBFBFB" transform="translate(748,298)"/>
<path d="M0 0 C3.2079325 1.54100682 3.93814513 3.9269426 5.52734375 7.06640625 C12.19833459 19.53896525 21.76579325 30.40013834 32.08984375 40.00390625 C30.5328325 43.89643437 28.07550269 46.06533602 24.96484375 48.81640625 C24.46766846 49.25871582 23.97049316 49.70102539 23.45825195 50.15673828 C22.00728721 51.44497582 20.54872512 52.72464092 19.08984375 54.00390625 C18.42597656 54.59300781 17.76210938 55.18210937 17.078125 55.7890625 C14.03625869 58.47461475 10.95897923 61.11763111 7.87109375 63.75 C1.33228157 69.32724869 -5.12542849 74.96121058 -11.4609375 80.76953125 C-14.23592081 83.30109497 -17.05786048 85.77246765 -19.89453125 88.234375 C-22.19623389 90.25505581 -24.45780004 92.31703243 -26.72265625 94.37890625 C-30.1639383 97.48919476 -33.67336923 100.46868937 -37.28515625 103.37890625 C-41.83796132 107.05962472 -46.14433036 110.93039273 -50.42700195 114.9152832 C-54.53776582 118.71775639 -58.83282148 122.24653924 -63.1953125 125.7578125 C-66.0168912 128.09221215 -68.71606337 130.52381223 -71.41015625 133.00390625 C-75.77301346 137.01551648 -80.26889216 140.78926485 -84.87890625 144.51171875 C-89.7801194 148.54132441 -94.54909123 152.72198981 -99.33203125 156.890625 C-99.92048828 157.40028809 -100.50894531 157.90995117 -101.11523438 158.43505859 C-102.3590299 159.52219543 -103.59142413 160.62246255 -104.81445312 161.73291016 C-105.42869141 162.28253418 -106.04292969 162.8321582 -106.67578125 163.3984375 C-107.22524414 163.89835205 -107.77470703 164.3982666 -108.34082031 164.91333008 C-109.91015625 166.00390625 -109.91015625 166.00390625 -112.91015625 166.00390625 C-113.26207031 165.24207031 -113.61398437 164.48023438 -113.9765625 163.6953125 C-117.29843709 156.74799777 -120.89931032 150.83788909 -125.91015625 145.00390625 C-126.58949219 144.18019531 -127.26882813 143.35648438 -127.96875 142.5078125 C-133.28916981 136.27694652 -139.11137984 131.55336785 -145.91015625 127.00390625 C-145.38662936 122.98719131 -143.53360856 121.41285786 -140.53515625 118.81640625 C-139.63023437 118.02878906 -138.7253125 117.24117187 -137.79296875 116.4296875 C-134.10630405 113.32749403 -130.37473629 110.28424066 -126.62890625 107.25390625 C-123.13107474 104.35914914 -119.79230221 101.30801086 -116.4375 98.25 C-113.84053232 95.94203027 -111.17611612 93.74834762 -108.47265625 91.56640625 C-103.60432054 87.62898459 -98.9767022 83.47725982 -94.36328125 79.24609375 C-86.43977297 72.00390625 -86.43977297 72.00390625 -83.91015625 72.00390625 C-83.91015625 71.34390625 -83.91015625 70.68390625 -83.91015625 70.00390625 C-82.44325066 68.67118745 -80.90693124 67.41476756 -79.34765625 66.19140625 C-74.60305041 62.39938536 -69.98229562 58.50191056 -65.41015625 54.50390625 C-61.02853171 50.68019385 -56.61953078 46.91233939 -52.09765625 43.25390625 C-47.73933329 39.7260466 -43.58057638 36.02654829 -39.4375 32.25 C-36.84053232 29.94203027 -34.17611612 27.74834762 -31.47265625 25.56640625 C-26.71095826 21.71552532 -22.19897791 17.65116648 -17.6953125 13.50390625 C-13.94601681 10.13847954 -10.05180979 6.97137537 -6.125 3.81640625 C-1.46507851 0.00299607 -1.46507851 0.00299607 0 0 Z " fill="#FAFBFB" transform="translate(391.91015625,576.99609375)"/>
<path d="M0 0 C0.66 0.33 1.32 0.66 2 1 C-6.91 9.91 -15.82 18.82 -25 28 C-25.66 27.67 -26.32 27.34 -27 27 C-18.35373511 17.56916662 -9.61529055 8.45142857 0 0 Z " fill="#272727" transform="translate(341,321)"/>
<path d="M0 0 C0.33 0.99 0.66 1.98 1 3 C-5.6 9.6 -12.2 16.2 -19 23 C-19.99 22.67 -20.98 22.34 -22 22 C-14.74 14.74 -7.48 7.48 0 0 Z " fill="#D2D3D2" transform="translate(294,273)"/>
<path d="M0 0 C0.66 0.33 1.32 0.66 2 1 C-4.47251453 8.83514917 -11.77773464 15.86788775 -19 23 C-19.66 22.67 -20.32 22.34 -21 22 C-19.38405168 19.95880212 -17.7143618 17.95927063 -16 16 C-15.34 16 -14.68 16 -14 16 C-13.78472656 15.44570312 -13.56945312 14.89140625 -13.34765625 14.3203125 C-11.53289173 11.19576141 -9.15315214 9.24721243 -6.4375 6.875 C-2.71412066 3.83511822 -2.71412066 3.83511822 0 0 Z " fill="#C8C9C9" transform="translate(198,192)"/>
<path d="M0 0 C0.66 0.99 1.32 1.98 2 3 C-1.63 6.96 -5.26 10.92 -9 15 C-9.66 14.67 -10.32 14.34 -11 14 C-10.37351562 13.24074219 -9.74703125 12.48148438 -9.1015625 11.69921875 C-8.28429687 10.70535156 -7.46703125 9.71148438 -6.625 8.6875 C-5.81289063 7.70136719 -5.00078125 6.71523438 -4.1640625 5.69921875 C-1.94395043 3.01091621 -1.94395043 3.01091621 0 0 Z " fill="#D0D2D2" transform="translate(721,677)"/>
<path d="M0 0 C-2.05811498 5.55691045 -7.38512193 8.6275891 -12 12 C-12.66 11.67 -13.32 11.34 -14 11 C-12.04709472 9.16056628 -10.08818082 7.32840869 -8.125 5.5 C-7.29162109 4.71302734 -7.29162109 4.71302734 -6.44140625 3.91015625 C-2.2265625 0 -2.2265625 0 0 0 Z " fill="#C6C7C7" transform="translate(666,375)"/>
<path d="M0 0 C0 3 0 3 -1.390625 4.71875 C-2.00421875 5.3065625 -2.6178125 5.894375 -3.25 6.5 C-4.20326172 7.41458984 -4.20326172 7.41458984 -5.17578125 8.34765625 C-7.0352165 10.03189846 -8.92421132 11.5884637 -11 13 C-11.66 12.67 -12.32 12.34 -13 12 C-8.84792208 7.7373638 -4.63678779 3.73204871 0 0 Z " fill="#CECFCF" transform="translate(690,352)"/>
<path d="M0 0 C0.33 0.99 0.66 1.98 1 3 C-0.36328125 5.04296875 -0.36328125 5.04296875 -2.3125 7.1875 C-2.94800781 7.90292969 -3.58351562 8.61835938 -4.23828125 9.35546875 C-6 11 -6 11 -8 11 C-6.63629701 8.00779732 -5.05091917 5.70973471 -2.875 3.25 C-2.33617187 2.63640625 -1.79734375 2.0228125 -1.2421875 1.390625 C-0.62730469 0.70226562 -0.62730469 0.70226562 0 0 Z " fill="#C6C6C6" transform="translate(169,223)"/>
<path d="M0 0 C0.6875 1.6875 0.6875 1.6875 1 4 C-0.3125 6.75 -0.3125 6.75 -2 9 C-2.66 9 -3.32 9 -4 9 C-4 9.99 -4 10.98 -4 12 C-4.66 12 -5.32 12 -6 12 C-4.43358249 7.69235185 -2.31663844 3.93828536 0 0 Z " fill="#BABBBB" transform="translate(131,274)"/>
<path d="M0 0 C-3.30342709 1.41575447 -6.41011248 2.6221171 -10 3 C-10.99 2.34 -11.98 1.68 -13 1 C-11.58622218 0.63447197 -10.16879424 0.28304505 -8.75 -0.0625 C-7.96109375 -0.25972656 -7.1721875 -0.45695313 -6.359375 -0.66015625 C-3.89605178 -1.01497267 -2.34395868 -0.76877544 0 0 Z " fill="#BCBCBB" transform="translate(448,199)"/>
<path d="M0 0 C1.67542976 0.28604898 3.34385343 0.61781233 5 1 C2.31158141 3.25245881 0.35358125 4.88213958 -3 6 C-1.125 1.125 -1.125 1.125 0 0 Z " fill="#BFC0C0" transform="translate(301,836)"/>
<path d="M0 0 C0.33 0.66 0.66 1.32 1 2 C-0.375 4 -0.375 4 -2 6 C-2.66 6 -3.32 6 -4 6 C-4 6.66 -4 7.32 -4 8 C-4.66 7.67 -5.32 7.34 -6 7 C-4.02 4.69 -2.04 2.38 0 0 Z " fill="#B6B7B7" transform="translate(802,767)"/>
</svg>
