<?xml version="1.0" encoding="UTF-8"?>
<svg version="1.1" xmlns="http://www.w3.org/2000/svg" width="512" height="512">
<path d="M0 0 C168.96 0 337.92 0 512 0 C512 168.96 512 337.92 512 512 C343.04 512 174.08 512 0 512 C0 343.04 0 174.08 0 0 Z " fill="#FDFDFD" transform="translate(0,0)"/>
<path d="M0 0 C0.47566406 0.32613281 0.95132812 0.65226562 1.44140625 0.98828125 C1.44140625 1.64828125 1.44140625 2.30828125 1.44140625 2.98828125 C2.02148438 3.24867187 2.6015625 3.5090625 3.19921875 3.77734375 C11.55692336 8.29108666 15.93671572 16.49941145 19.44140625 24.98828125 C22.24645311 34.64328937 21.56077441 46.89898714 17.44140625 55.98828125 C17.11269531 56.92800781 16.78398437 57.86773437 16.4453125 58.8359375 C12.16919174 70.53978359 4.71133331 78.66099904 -6.55859375 83.98828125 C-17.22695949 88.91935364 -31.72351221 88.67672242 -42.7109375 84.83984375 C-44.55859375 83.98828125 -44.55859375 83.98828125 -47.55859375 81.98828125 C-51.36449845 81.89147743 -53.29837 83.44459961 -55.9691925 85.91786194 C-57.29613435 87.23321338 -58.61204935 88.559744 -59.91918945 89.89477539 C-61.00293098 90.97764076 -61.00293098 90.97764076 -62.10856628 92.0823822 C-64.49343972 94.47004152 -66.86383423 96.87155466 -69.234375 99.2734375 C-70.88545359 100.93197661 -72.53741774 102.58963458 -74.19023132 104.2464447 C-78.53755195 108.60903619 -82.87272686 112.9835065 -87.20550537 117.36053467 C-91.62909809 121.82504813 -96.06403895 126.27825658 -100.49804688 130.73242188 C-109.19605823 139.47332985 -117.881284 148.22682535 -126.55859375 156.98828125 C-125.83542969 158.61636719 -125.83542969 158.61636719 -125.09765625 160.27734375 C-124.4594939 161.72259377 -123.82148098 163.16790978 -123.18359375 164.61328125 C-122.86648438 165.32613281 -122.549375 166.03898438 -122.22265625 166.7734375 C-118.20257168 175.90237954 -117.11777883 183.45616721 -117.12109375 193.42578125 C-117.12002625 194.10057526 -117.11895874 194.77536926 -117.11785889 195.47061157 C-117.14160874 205.83094673 -117.87905612 214.56730735 -122.55859375 223.98828125 C-123.00460937 224.95894531 -123.450625 225.92960938 -123.91015625 226.9296875 C-133.79318532 246.77856431 -150.64700292 257.78624606 -170.86328125 265.26171875 C-189.00440041 270.15193348 -207.89975548 266.91875868 -224.55859375 258.98828125 C-225.84443359 258.1375 -225.84443359 258.1375 -227.15625 257.26953125 C-229.39679608 255.77784476 -229.39679608 255.77784476 -231.50462532 256.23294449 C-233.83634063 257.09042129 -235.0449116 258.06827094 -236.82443237 259.79241943 C-237.4470546 260.38924026 -238.06967682 260.9860611 -238.71116638 261.60096741 C-239.38253128 262.25955246 -240.05389618 262.91813751 -240.74560547 263.59667969 C-241.46141281 264.28795456 -242.17722015 264.97922943 -242.91471863 265.69145203 C-245.28190049 267.98415363 -247.63650875 270.28915525 -249.98828125 272.59765625 C-250.79248631 273.38589027 -251.59669136 274.1741243 -252.42526627 274.9862442 C-256.67969763 279.16051657 -260.92305093 283.34573424 -265.15917969 287.53857422 C-268.66579655 291.00516288 -272.19286585 294.4486671 -275.74023438 297.87353516 C-280.02534128 302.01066783 -284.27241277 306.18344818 -288.49481583 310.38452911 C-290.10813565 311.97771481 -291.73419217 313.55811074 -293.37301254 315.12505341 C-302.45513266 323.11501586 -302.45513266 323.11501586 -307.07794189 333.72497559 C-306.56806148 337.03459392 -305.66714691 339.83991624 -304.55859375 342.98828125 C-304.29015004 347.00636526 -304.38982522 350.96693462 -304.55859375 354.98828125 C-304.56503906 355.68308594 -304.57148438 356.37789063 -304.578125 357.09375 C-305.15406553 367.4393485 -312.11156376 377.22999392 -319.55859375 383.98828125 C-321.21851466 384.99943918 -322.88488029 386.00012082 -324.55859375 386.98828125 C-325.31462891 387.75785156 -325.31462891 387.75785156 -326.0859375 388.54296875 C-327.92726712 390.35010923 -329.74838255 391.12041693 -332.12109375 392.11328125 C-332.90613281 392.44585937 -333.69117188 392.7784375 -334.5 393.12109375 C-335.17933594 393.40726562 -335.85867188 393.6934375 -336.55859375 393.98828125 C-337.21859375 394.31828125 -337.87859375 394.64828125 -338.55859375 394.98828125 C-349.39963842 395.9211482 -360.2227367 395.51759829 -370.55859375 391.98828125 C-370.55859375 391.32828125 -370.55859375 390.66828125 -370.55859375 389.98828125 C-371.54859375 389.98828125 -372.53859375 389.98828125 -373.55859375 389.98828125 C-373.55859375 389.32828125 -373.55859375 388.66828125 -373.55859375 387.98828125 C-374.28046875 387.92640625 -375.00234375 387.86453125 -375.74609375 387.80078125 C-379.42972645 386.73662069 -380.93803031 384.73987286 -383.55859375 381.98828125 C-384.36167969 381.52679688 -385.16476562 381.0653125 -385.9921875 380.58984375 C-393.89112176 375.66052404 -396.88279292 366.57689002 -398.8984375 357.9296875 C-401.21801289 344.08086167 -399.42957597 332.6001005 -391.25390625 321.1171875 C-384.2215663 312.28625369 -374.85856906 304.05061649 -363.18408203 302.71704102 C-360.65634047 302.62266999 -358.1500102 302.62762976 -355.62109375 302.67578125 C-354.35749023 302.67094727 -354.35749023 302.67094727 -353.06835938 302.66601562 C-346.38113832 302.72264336 -339.98569293 303.50839752 -333.80859375 306.17578125 C-330.76808171 307.27374393 -329.64557999 307.04990965 -326.55859375 305.98828125 C-323.95003544 303.98758682 -321.67887411 301.67532693 -319.36572266 299.34472656 C-318.3088324 298.3031691 -318.3088324 298.3031691 -317.23059082 297.24057007 C-314.90500531 294.94278204 -312.59457571 292.63043394 -310.28515625 290.31640625 C-308.67609034 288.71511222 -307.06657695 287.11426775 -305.45663452 285.51385498 C-302.08581138 282.15795621 -298.72284724 278.7944084 -295.36474609 275.42578125 C-291.05368462 271.10311229 -286.72028556 266.80363648 -282.38030434 262.51002884 C-279.0516781 259.21081325 -275.73695281 255.89790451 -272.42612839 252.58083344 C-270.83354767 250.98928178 -269.23621351 249.40247233 -267.63414383 247.82047272 C-265.39988364 245.6107919 -263.18542815 243.38299601 -260.97509766 241.14941406 C-260.30610443 240.49570831 -259.63711121 239.84200256 -258.94784546 239.16848755 C-257.3161237 237.49843675 -255.83626631 235.94222414 -254.55859375 233.98828125 C-254.61270758 230.5653511 -255.76421941 228.30086246 -257.43359375 225.36328125 C-264.99942194 210.83689112 -265.66763896 190.85805144 -262.51171875 174.98828125 C-259.40872456 165.22147986 -254.23208919 155.75637118 -247.55859375 147.98828125 C-247.05070313 147.33859375 -246.5428125 146.68890625 -246.01953125 146.01953125 C-236.26696494 134.00215097 -220.69103631 125.14092731 -205.55859375 121.98828125 C-200.86403013 121.5079747 -196.21310285 121.41652798 -191.49609375 121.42578125 C-189.57543091 121.42940674 -189.57543091 121.42940674 -187.6159668 121.43310547 C-173.80569492 121.70024898 -162.98956664 125.12382015 -151.44140625 132.7890625 C-149.46701475 134.15376659 -149.46701475 134.15376659 -146.55859375 134.98828125 C-146.31109375 134.36953125 -146.06359375 133.75078125 -145.80859375 133.11328125 C-144.32119006 130.58469498 -143.12181366 130.26989121 -140.55859375 128.98828125 C-140.17151245 128.14426758 -140.17151245 128.14426758 -139.77661133 127.28320312 C-138.08178767 124.08990941 -135.61909422 121.78314971 -133.0703125 119.26953125 C-132.25999321 118.45989929 -132.25999321 118.45989929 -131.43330383 117.63391113 C-130.29164143 116.49526347 -129.14755587 115.35904088 -128.0012207 114.22509766 C-126.25742708 112.49949634 -124.52170505 110.76609189 -122.78710938 109.03125 C-121.6736464 107.92270548 -120.55972869 106.8146175 -119.4453125 105.70703125 C-118.93054855 105.19338013 -118.41578461 104.679729 -117.88542175 104.1505127 C-114.91648507 101.21994329 -111.83904046 98.56163015 -108.55859375 95.98828125 C-107.50164154 94.8542337 -106.47612158 93.68942956 -105.49609375 92.48828125 C-103.29317825 89.85497609 -101.12610176 87.28069912 -98.55859375 84.98828125 C-97.89859375 84.98828125 -97.23859375 84.98828125 -96.55859375 84.98828125 C-96.22859375 83.99828125 -95.89859375 83.00828125 -95.55859375 81.98828125 C-93.98779297 80.46069336 -93.98779297 80.46069336 -91.98828125 78.828125 C-86.76389793 74.39754022 -82.26719125 69.40329405 -77.67578125 64.33398438 C-76.72445312 63.29854492 -76.72445312 63.29854492 -75.75390625 62.2421875 C-74.9033667 61.30354858 -74.9033667 61.30354858 -74.03564453 60.34594727 C-72.55859375 58.98828125 -72.55859375 58.98828125 -70.55859375 58.98828125 C-70.77515625 58.48683594 -70.99171875 57.98539062 -71.21484375 57.46875 C-74.82708087 47.65216117 -75.68961117 34.34229585 -71.93359375 24.42578125 C-71.186441 22.92363848 -70.39375665 21.44333213 -69.55859375 19.98828125 C-69.12289063 19.15167969 -68.6871875 18.31507812 -68.23828125 17.453125 C-61.55376514 5.34428844 -51.89618476 -2.23377716 -38.75390625 -6.28515625 C-26.07385745 -9.16839473 -11.02537742 -6.88324667 0 0 Z " fill="#020202" transform="translate(447.55859375,62.01171875)"/>
<path d="M0 0 C3.01168537 0.01618395 6.02204427 -0.00002204 9.03369141 -0.01904297 C21.09244343 -0.031528 32.43365827 1.02960971 44.24853516 3.39111328 C45.69865615 3.65185329 47.14950975 3.90855241 48.60107422 4.16113281 C59.06887657 5.98306887 69.69772083 8.13209898 79.62353516 12.01611328 C82.40840009 13.07244136 84.68415465 13.72006215 87.56103516 14.26611328 C93.19857782 15.45498282 98.09919011 17.86105142 103.24853516 20.39111328 C104.18439453 20.84478271 104.18439453 20.84478271 105.13916016 21.30761719 C113.40181538 25.31684646 121.48438975 29.46386716 129.24853516 34.39111328 C128.78117386 39.21463456 126.70723358 41.61534811 123.56103516 45.20361328 C119.58997418 49.79928757 115.80938311 54.4696161 112.24853516 59.39111328 C108.82898134 58.69002691 105.97062364 57.38604809 102.84619141 55.84423828 C101.79713623 55.33111084 100.74808105 54.8179834 99.66723633 54.28930664 C98.55968994 53.74540283 97.45214355 53.20149902 96.31103516 52.64111328 C84.73545169 47.03013296 73.6047321 41.92388116 61.00244141 39.06689453 C58.24853516 38.39111328 58.24853516 38.39111328 55.60400391 37.44189453 C27.46660443 28.63053195 -9.14568968 29.26088084 -37.75146484 35.39111328 C-39.09362061 35.65649902 -39.09362061 35.65649902 -40.46289062 35.92724609 C-52.71386786 38.35355559 -64.21884456 41.61678768 -75.75146484 46.39111328 C-76.75822266 46.77912109 -77.76498047 47.16712891 -78.80224609 47.56689453 C-102.90784203 57.05908454 -123.89743641 71.74540363 -143.09521484 88.92236328 C-144.80119948 90.43521758 -146.55485663 91.87812055 -148.31396484 93.32861328 C-151.50780605 96.05999785 -154.22290928 99.0650478 -156.93896484 102.26611328 C-158.80870521 104.45822268 -160.74492207 106.5773165 -162.68896484 108.70361328 C-173.69022678 121.09850917 -183.19144417 135.65507298 -190.75146484 150.39111328 C-191.10595703 151.03822266 -191.46044922 151.68533203 -191.82568359 152.35205078 C-194.64130032 157.62715881 -196.51225208 163.18754494 -198.46630859 168.82861328 C-199.61173358 172.00377313 -200.88492367 175.05675703 -202.25146484 178.14111328 C-211.75088121 200.74317291 -214.97766038 226.24181561 -215.06396484 250.57861328 C-215.06658325 251.28966217 -215.06920166 252.00071106 -215.07189941 252.73330688 C-215.07613661 263.61366161 -214.40386595 274.29004985 -213.00146484 285.07861328 C-212.84460205 286.3105542 -212.68773926 287.54249512 -212.52612305 288.81176758 C-210.48720249 303.19569204 -205.74768995 316.60259238 -200.84326172 330.21728516 C-198.92850875 335.62798574 -197.23812497 340.65842201 -196.75146484 346.39111328 C-197.22044189 346.73891846 -197.68941895 347.08672363 -198.17260742 347.44506836 C-200.3049637 349.02870497 -202.43448257 350.61611446 -204.56396484 352.20361328 C-205.30195313 352.75082031 -206.03994141 353.29802734 -206.80029297 353.86181641 C-207.5125 354.39355469 -208.22470703 354.92529297 -208.95849609 355.47314453 C-209.61309814 355.96016846 -210.2677002 356.44719238 -210.94213867 356.94897461 C-212.78338859 358.34574506 -212.78338859 358.34574506 -214.30493164 360.04614258 C-215.75146484 361.39111328 -215.75146484 361.39111328 -218.68896484 361.82861328 C-222.48934441 361.28570191 -223.31122535 360.28283862 -225.75146484 357.39111328 C-226.89233398 354.95263672 -226.89233398 354.95263672 -227.78662109 352.25048828 C-228.12113281 351.26177734 -228.45564453 350.27306641 -228.80029297 349.25439453 C-229.13480469 348.22701172 -229.46931641 347.19962891 -229.81396484 346.14111328 C-230.49155216 344.11480456 -231.1699234 342.08875779 -231.84912109 340.06298828 C-232.17106445 339.09200195 -232.49300781 338.12101562 -232.82470703 337.12060547 C-233.63596822 334.73127456 -234.49435717 332.37244103 -235.39599609 330.01611328 C-237.97764629 323.11187299 -239.74573793 316.1985491 -240.18896484 308.82861328 C-240.58082975 302.50874947 -241.89007687 296.48710926 -243.29223633 290.32836914 C-243.46440674 289.56145752 -243.63657715 288.7945459 -243.81396484 288.00439453 C-244.04792969 286.99566284 -244.04792969 286.99566284 -244.28662109 285.96655273 C-245.60673498 278.65253943 -245.92015743 271.38852542 -245.95458984 263.96923828 C-245.96028992 262.98856384 -245.96598999 262.0078894 -245.97186279 260.99749756 C-245.98126288 258.9267279 -245.98782678 256.85594362 -245.99169922 254.78515625 C-246.00130901 251.69128527 -246.03234088 248.59810744 -246.06396484 245.50439453 C-246.15751591 227.72009609 -244.20784418 210.62491222 -239.75146484 193.39111328 C-239.30152721 191.55274741 -238.85238447 189.71418691 -238.40380859 187.87548828 C-235.94507229 177.9556486 -233.52403969 168.48990705 -228.75146484 159.39111328 C-227.41051152 156.28010158 -226.07074287 153.17056531 -224.78662109 150.03564453 C-224.44501953 149.22482422 -224.10341797 148.41400391 -223.75146484 147.57861328 C-223.44208984 146.82966797 -223.13271484 146.08072266 -222.81396484 145.30908203 C-221.75146484 143.39111328 -221.75146484 143.39111328 -218.75146484 141.39111328 C-217.59374942 139.45536534 -217.59374942 139.45536534 -216.68896484 137.20361328 C-216.36798828 136.46755859 -216.04701172 135.73150391 -215.71630859 134.97314453 C-214.66371297 132.29983385 -214.66371297 132.29983385 -213.90771484 129.05908203 C-212.5788732 124.84360128 -210.69885577 121.57982435 -208.31396484 117.89111328 C-207.87584473 117.20476807 -207.43772461 116.51842285 -206.98632812 115.8112793 C-193.91453299 95.57891674 -193.91453299 95.57891674 -185.55615234 88.89892578 C-183.68477904 87.33539744 -182.19494718 85.69362461 -180.62646484 83.82861328 C-171.96964127 73.66969246 -162.2586172 64.59653159 -151.75146484 56.39111328 C-148.74277532 53.96495726 -145.86346448 51.50311291 -143.12646484 48.76611328 C-139.60502696 45.2446754 -136.50359879 42.97515793 -131.75146484 41.39111328 C-130.76146484 41.39111328 -129.77146484 41.39111328 -128.75146484 41.39111328 C-128.64890381 40.776875 -128.54634277 40.16263672 -128.44067383 39.52978516 C-127.28401738 35.94058554 -123.93260942 34.6648071 -120.81396484 32.89111328 C-120.1368042 32.49601562 -119.45964355 32.10091797 -118.76196289 31.69384766 C-112.38293865 28.0422026 -105.92800173 25.07589846 -98.75146484 23.39111328 C-98.75146484 22.73111328 -98.75146484 22.07111328 -98.75146484 21.39111328 C-95.78146484 20.73111328 -92.81146484 20.07111328 -89.75146484 19.39111328 C-89.75146484 18.73111328 -89.75146484 18.07111328 -89.75146484 17.39111328 C-89.11080078 17.20935547 -88.47013672 17.02759766 -87.81005859 16.84033203 C-86.94509766 16.58896484 -86.08013672 16.33759766 -85.18896484 16.07861328 C-84.34205078 15.83498047 -83.49513672 15.59134766 -82.62255859 15.34033203 C-79.69441077 14.43052737 -79.69441077 14.43052737 -76.79052734 13.03564453 C-70.98065262 10.49909405 -64.79505875 9.03589402 -58.68896484 7.39111328 C-56.86655273 6.87677734 -56.86655273 6.87677734 -55.00732422 6.35205078 C-36.88870663 1.46067746 -18.72548101 -0.11927058 0 0 Z " fill="#040404" transform="translate(249.75146484375,4.60888671875)"/>
<path d="M0 0 C3.68772443 0.71955599 4.42775571 2.44747739 6.5625 5.5 C7.89159184 8.00572799 9.02086851 10.57594073 10.125 13.1875 C10.43091064 13.90083496 10.73682129 14.61416992 11.05200195 15.34912109 C13.28714344 20.64790131 15.08167097 25.94263589 16.5625 31.5 C16.88992188 32.59957031 17.21734375 33.69914062 17.5546875 34.83203125 C19.46155403 41.2555269 21.0376809 47.57828472 22.1328125 54.1875 C22.5348173 56.64628023 22.5348173 56.64628023 23.5625 59.5 C28.6680065 74.81651949 27.79730846 92.26337387 27.8125 108.25 C27.81383942 109.0926239 27.81517883 109.9352478 27.81655884 110.80340576 C27.81011115 129.66312663 26.66865064 148.1842363 22.23803711 166.58154297 C21.20774591 171.03260948 20.6589648 175.48433739 20.08984375 180.015625 C19.91582031 180.83546875 19.74179687 181.6553125 19.5625 182.5 C18.9025 182.83 18.2425 183.16 17.5625 183.5 C17.08826748 185.54306977 17.08826748 185.54306977 16.8125 188.0625 C15.95337529 193.25815894 14.50171083 198.01361491 12.6875 202.9375 C12.44290039 203.62336182 12.19830078 204.30922363 11.94628906 205.01586914 C10.42424322 209.02930016 8.81863325 211.70520801 5.5625 214.5 C2.59483209 217.70508134 1.65698154 221.10735917 0.3828125 225.19140625 C-0.81964887 228.57547611 -2.59972635 231.41728291 -4.4375 234.5 C-4.7159375 235.24894531 -4.994375 235.99789062 -5.28125 236.76953125 C-6.75975234 240.26099456 -8.76323197 243.30712883 -10.875 246.4375 C-11.31384521 247.09065186 -11.75269043 247.74380371 -12.20483398 248.41674805 C-18.91238972 258.26880402 -26.32408766 267.51521413 -34.40234375 276.27734375 C-36.24397634 278.28864691 -37.9983619 280.34819672 -39.75 282.4375 C-53.36842111 297.90876752 -70.95549188 309.81063572 -88.4375 320.5 C-89.48550781 321.14710938 -90.53351563 321.79421875 -91.61328125 322.4609375 C-97.02384112 325.71964827 -102.32001126 328.47182064 -108.28125 330.578125 C-110.53232276 331.43483489 -110.53232276 331.43483489 -112.53125 333.109375 C-114.4375 334.5 -114.4375 334.5 -117.4375 334.5 C-117.4375 335.16 -117.4375 335.82 -117.4375 336.5 C-120.87188215 337.84146494 -124.31048417 339.17175905 -127.75 340.5 C-128.72646484 340.8815625 -129.70292969 341.263125 -130.70898438 341.65625 C-131.64677734 342.0171875 -132.58457031 342.378125 -133.55078125 342.75 C-134.41485596 343.08515625 -135.27893066 343.4203125 -136.16918945 343.765625 C-138.4375 344.5 -138.4375 344.5 -141.4375 344.5 C-141.4375 345.16 -141.4375 345.82 -141.4375 346.5 C-159.41892535 352.17237393 -177.5243548 355.86597018 -196.35107422 357.24291992 C-198.42368601 357.28107705 -198.42368601 357.28107705 -199.4375 358.5 C-202.17772261 358.65199943 -204.89016525 358.73724972 -207.6328125 358.7734375 C-208.47995819 358.78596558 -209.32710388 358.79849365 -210.19992065 358.81140137 C-236.2411131 359.12020073 -261.90168273 358.39766972 -286.515625 348.83203125 C-289.53859754 347.69762931 -292.45222624 347.12099894 -295.640625 346.62109375 C-302.10680874 345.5283821 -307.8948571 343.24120002 -313.9375 340.75 C-314.98808594 340.33234375 -316.03867187 339.9146875 -317.12109375 339.484375 C-336.341703 331.69159399 -336.341703 331.69159399 -338.4375 327.5 C-338.86317896 324.57132874 -338.96216218 322.42053405 -337.46679688 319.796875 C-336.10246575 317.96953558 -334.67251158 316.23062419 -333.1875 314.5 C-332.20106692 313.31420905 -331.21666476 312.12672547 -330.234375 310.9375 C-329.76064453 310.36773437 -329.28691406 309.79796875 -328.79882812 309.2109375 C-326.83560563 306.74353017 -325.13706614 304.15456045 -323.4375 301.5 C-322.92590332 301.735979 -322.41430664 301.97195801 -321.88720703 302.21508789 C-305.19544251 309.88794512 -289.03124598 317.20009653 -270.9375 320.7734375 C-267.4375 321.5 -267.4375 321.5 -265.4375 322.5 C-262.64199858 323.0581622 -259.8352189 323.49257191 -257.01879883 323.93286133 C-254.80681394 324.28315384 -252.59676983 324.64630766 -250.39038086 325.03027344 C-241.14835878 326.53378068 -232.11020906 326.8402325 -222.76245117 326.81567383 C-220.27021977 326.81252554 -217.7791943 326.83603151 -215.28710938 326.86132812 C-200.24990898 326.92074541 -185.66469268 324.82904458 -171.0625 321.25 C-170.20293701 321.04093018 -169.34337402 320.83186035 -168.45776367 320.61645508 C-119.51781367 308.32702072 -74.60570746 280.29747613 -44.4375 239.5 C-43.98906738 238.90123047 -43.54063477 238.30246094 -43.07861328 237.68554688 C-19.57340829 206.02927512 -3.40591881 164.91080999 -3.234375 125.25390625 C-3.22867493 124.20331528 -3.22297485 123.1527243 -3.21710205 122.07029724 C-3.20770844 119.85587553 -3.20114069 117.6414402 -3.19726562 115.42700195 C-3.18761688 112.1027672 -3.15656171 108.77916686 -3.125 105.45507812 C-2.99107711 78.21320464 -8.28386017 52.19836105 -19.11425781 27.17089844 C-20.64222192 23.6125084 -21.75254601 20.30361983 -22.4375 16.5 C-21.68859497 15.93285278 -21.68859497 15.93285278 -20.92456055 15.35424805 C-18.65624246 13.63435512 -16.39060187 11.91096917 -14.125 10.1875 C-13.33931641 9.59259766 -12.55363281 8.99769531 -11.74414062 8.38476562 C-10.6081543 7.51948242 -10.6081543 7.51948242 -9.44921875 6.63671875 C-8.75272217 6.10780029 -8.05622559 5.57888184 -7.33862305 5.03393555 C-5.42011198 3.55214508 -5.42011198 3.55214508 -3.83911133 1.83520508 C-2.4375 0.5 -2.4375 0.5 0 0 Z " fill="#040404" transform="translate(480.4375,150.5)"/>
<path d="M0 0 C-1.84280193 4.07901101 -4.37885289 7.67808242 -6.875 11.375 C-7.30941406 12.02210937 -7.74382812 12.66921875 -8.19140625 13.3359375 C-9.04827939 14.61224103 -9.9060059 15.88797211 -10.76464844 17.16308594 C-12.51785459 19.77002725 -14.25920467 22.38475865 -16 25 C-19.93633623 23.77858691 -23.6238144 22.29038145 -27.35253906 20.5378418 C-36.33532799 16.35415373 -45.28410632 13.83116908 -55 12 C-56.28970703 11.73292236 -56.28970703 11.73292236 -57.60546875 11.46044922 C-65.52991029 9.94571964 -73.30950598 9.69172006 -81.34521484 9.73925781 C-83.49735674 9.74998682 -85.64866433 9.73929402 -87.80078125 9.7265625 C-96.03883811 9.71799455 -103.913637 10.31837066 -112 12 C-113.03326416 12.19505127 -113.03326416 12.19505127 -114.08740234 12.39404297 C-143.78717244 18.18318091 -168.97398511 34.93974078 -190 56 C-190.57363281 56.53882813 -191.14726562 57.07765625 -191.73828125 57.6328125 C-218.04332924 82.56712598 -231.31004634 122.27841946 -232.3359375 157.7902832 C-232.56815263 174.2703006 -229.86797039 190.50269032 -224.734375 206.16015625 C-223.90147563 209.38099582 -223.49371615 211.6958317 -224 215 C-226.2734375 217.30859375 -226.2734375 217.30859375 -229.375 219.4375 C-229.91431152 219.81511475 -230.45362305 220.19272949 -231.00927734 220.58178711 C-232.11960388 221.35673308 -233.23573337 222.12342894 -234.35742188 222.88183594 C-235.90857017 223.93776031 -237.43193186 225.03417301 -238.953125 226.1328125 C-245.69230769 231 -245.69230769 231 -248 231 C-251.97617746 223.13561361 -254.15092159 215.03456403 -256.1875 206.5 C-256.43709473 205.45658447 -256.68668945 204.41316895 -256.94384766 203.33813477 C-257.66487417 200.2320809 -258.34115562 197.11979258 -259 194 C-259.20012695 193.10990234 -259.40025391 192.21980469 -259.60644531 191.30273438 C-261.44568929 182.07032184 -261.37219155 172.77146554 -261.37060547 163.39453125 C-261.37494954 160.53323481 -261.41128853 157.6735221 -261.44921875 154.8125 C-261.54751962 138.77589619 -259.26797117 123.41812159 -254.125 108.1875 C-253.86871826 107.40947021 -253.61243652 106.63144043 -253.34838867 105.82983398 C-252.58451102 103.54615078 -251.79782009 101.27201945 -251 99 C-250.77618652 98.35256836 -250.55237305 97.70513672 -250.32177734 97.03808594 C-244.78838245 81.30985519 -236.42829707 66.00396081 -226 53 C-225.31679687 52.12730469 -224.63359375 51.25460938 -223.9296875 50.35546875 C-214.90467921 39.04994761 -205.45268003 28.87370616 -194 20 C-193.20207031 19.33613281 -192.40414062 18.67226562 -191.58203125 17.98828125 C-137.18325035 -27.1813427 -62.03817092 -29.54682117 0 0 Z " fill="#040304" transform="translate(336,96)"/>
<path d="M0 0 C5.19364674 11.15672262 9.00902115 22.33136576 11.75 34.3125 C11.96068115 35.23119873 12.1713623 36.14989746 12.38842773 37.09643555 C14.26877785 45.62926562 15.15485012 53.96583233 15.16796875 62.69921875 C15.17129715 63.4967305 15.17462555 64.29424225 15.17805481 65.11592102 C15.18308019 66.79236278 15.18546451 68.46881439 15.18530273 70.14526367 C15.18747975 72.66407421 15.20565673 75.18243902 15.22460938 77.70117188 C15.38957439 124.32372761 -4.35576344 164.73542602 -36 198 C-36.6909375 198.75539063 -37.381875 199.51078125 -38.09375 200.2890625 C-49.17367394 212.00821282 -62.91551768 221.27696581 -77 229 C-77.61633301 229.34369629 -78.23266602 229.68739258 -78.86767578 230.04150391 C-104.28961024 244.06535644 -132.90685522 250.44769995 -161.75 250.4375 C-163.10794174 250.43860275 -163.10794174 250.43860275 -164.49331665 250.43972778 C-179.545294 250.40769559 -193.45998965 249.15939222 -208 245 C-208.98000977 244.72704102 -209.96001953 244.45408203 -210.96972656 244.17285156 C-221.80837175 241.09973131 -232.19990592 237.64435798 -242 232 C-240.39051342 228.54288853 -238.38068584 225.47136563 -236.25 222.3125 C-235.54359375 221.26191406 -234.8371875 220.21132813 -234.109375 219.12890625 C-233.41328125 218.09636719 -232.7171875 217.06382812 -232 216 C-230.83220126 214.25075525 -229.66538571 212.50085329 -228.5 210.75 C-227.25 208.875 -227.25 208.875 -226 207 C-225.32710937 207.27070313 -224.65421875 207.54140625 -223.9609375 207.8203125 C-183.64486028 223.88291846 -143.58050452 226.1052283 -103 209 C-91.08361275 203.64344807 -80.02150798 197.41585201 -70 189 C-68.82817763 188.04160232 -67.65629956 187.08327273 -66.484375 186.125 C-48.19751965 170.98618139 -34.11879934 151.9463641 -25 130 C-24.65453125 129.24074219 -24.3090625 128.48148438 -23.953125 127.69921875 C-20.50348332 119.80484643 -18.69479236 111.4172652 -17 103 C-16.72748413 101.70811768 -16.72748413 101.70811768 -16.44946289 100.39013672 C-14.75986068 91.56138087 -14.6439491 82.82536645 -14.6875 73.875 C-14.68932281 73.09998138 -14.69114563 72.32496277 -14.69302368 71.52645874 C-14.7573167 55.30639778 -16.66142302 40.8639977 -21.9140625 25.453125 C-22.90889765 22.28969237 -23.54729758 19.27957756 -24 16 C-23.21351074 15.43285278 -23.21351074 15.43285278 -22.41113281 14.85424805 C-20.02380858 13.13238648 -17.6369005 11.40994891 -15.25 9.6875 C-14.425 9.09259766 -13.6 8.49769531 -12.75 7.88476562 C-11.95078125 7.30791016 -11.1515625 6.73105469 -10.328125 6.13671875 C-9.5949707 5.60780029 -8.86181641 5.07888184 -8.10644531 4.53393555 C-6.66763108 3.48617595 -5.25078847 2.40774096 -3.85449219 1.30395508 C-2 0 -2 0 0 0 Z " fill="#030303" transform="translate(423,187)"/>
<path d="M0 0 C2.13485836 3.62557843 2.74506362 7.26387907 3.5 11.375 C4.36825152 16.08432073 5.44383734 20.47525395 7 25 C10.63837846 39.79131635 10.23390344 55.60051314 10.25 70.75 C10.25167175 71.58930054 10.25334351 72.42860107 10.25506592 73.29333496 C10.25989997 114.11015004 10.25989997 114.11015004 5 122 C5.144375 120.78957031 5.28875 119.57914062 5.4375 118.33203125 C9.08253618 84.12377166 9.376891 47.70248237 1.27050781 14.13037109 C0.12153552 9.2981923 -0.16198805 4.9713574 0 0 Z " fill="#383839" transform="translate(498,188)"/>
<path d="M0 0 C2.54173977 -0.02716824 5.08318415 -0.04691969 7.625 -0.0625 C8.33785156 -0.07087891 9.05070313 -0.07925781 9.78515625 -0.08789062 C10.48769531 -0.09111328 11.19023437 -0.09433594 11.9140625 -0.09765625 C12.5529541 -0.10289307 13.1918457 -0.10812988 13.85009766 -0.11352539 C16 0 16 0 18.71142578 0.49780273 C22.73904627 1.11285955 26.63586086 1.14326699 30.703125 1.1328125 C31.95811798 1.13424759 31.95811798 1.13424759 33.23846436 1.13571167 C35.01021398 1.13639044 36.78196613 1.13455733 38.55371094 1.13037109 C41.19993045 1.12509974 43.84597381 1.13028389 46.4921875 1.13671875 C57.69387174 1.14064696 68.82366182 0.74679033 80 0 C80 0.33 80 0.66 80 1 C78.78441406 1.13277344 77.56882812 1.26554687 76.31640625 1.40234375 C74.73174516 1.58050091 73.1471111 1.75889875 71.5625 1.9375 C70.35883789 2.06801758 70.35883789 2.06801758 69.13085938 2.20117188 C65.24423336 2.30548394 65.24423336 2.30548394 62 4 C59.13122602 4.12658894 56.28807297 4.18878832 53.41796875 4.203125 C52.53458328 4.20882507 51.65119781 4.21452515 50.74104309 4.22039795 C48.8536601 4.22988015 46.96626032 4.23639461 45.07885742 4.24023438 C42.26513721 4.24973778 39.45221379 4.28063825 36.63867188 4.3125 C24.16126925 4.38349518 12.27626049 3.21097744 0 1 C0 0.67 0 0.34 0 0 Z " fill="#727171" transform="translate(219,505)"/>
<path d="M0 0 C3.14318488 0.0317945 6.28586768 0.04105491 9.42919922 0.046875 C11.45134076 0.05602478 13.47347725 0.06639399 15.49560547 0.078125 C16.88773254 0.08449982 16.88773254 0.08449982 18.3079834 0.09100342 C22.84216131 0.14110309 27.12774059 0.36354768 31.58935547 1.28125 C31.58935547 1.61125 31.58935547 1.94125 31.58935547 2.28125 C30.67573242 2.27077637 29.76210938 2.26030273 28.82080078 2.24951172 C12.90487394 2.09222398 -2.96348705 2.00414231 -18.84814453 3.15625 C-19.94545898 3.23472168 -21.04277344 3.31319336 -22.17333984 3.39404297 C-28.4425429 3.89700798 -34.57775438 4.73233517 -40.76342773 5.87109375 C-44.36659729 6.42936405 -47.7725726 6.42117584 -51.41064453 6.28125 C-51.41064453 5.95125 -51.41064453 5.62125 -51.41064453 5.28125 C-34.5093698 0.77978267 -17.42116655 -0.17773867 0 0 Z " fill="#747475" transform="translate(250.41064453125,4.71875)"/>
<path d="M0 0 C-1.87144695 0.82065069 -3.74734336 1.6311584 -5.625 2.4375 C-6.66914063 2.88996094 -7.71328125 3.34242188 -8.7890625 3.80859375 C-11.88685251 4.95801705 -14.73210054 5.57311223 -18 6 C-18 6.66 -18 7.32 -18 8 C-46.4888539 16.43438287 -46.4888539 16.43438287 -58 16 C-58 15.67 -58 15.34 -58 15 C-56.76697144 14.75092896 -56.76697144 14.75092896 -55.5090332 14.49682617 C-52.4416725 13.87252678 -49.37621326 13.23976029 -46.31176758 12.60131836 C-44.34004002 12.19320037 -42.36631488 11.79477206 -40.39257812 11.39648438 C-39.14541016 11.13544922 -37.89824219 10.87441406 -36.61328125 10.60546875 C-35.46641846 10.36981201 -34.31955566 10.13415527 -33.13793945 9.89135742 C-29.99011958 8.99719338 -27.73403878 7.76372247 -25 6 C-22.6484375 5.33984375 -22.6484375 5.33984375 -20.375 4.9375 C-17.14111345 4.35804934 -15.84666929 3.89777953 -13 2 C-11.16401396 1.38072982 -9.30672304 0.82274064 -7.4375 0.3125 C-6.46683594 0.04050781 -5.49617188 -0.23148437 -4.49609375 -0.51171875 C-2 -1 -2 -1 0 0 Z " fill="#848484" transform="translate(357,489)"/>
<path d="M0 0 C3.3 0.33 6.6 0.66 10 1 C10 1.66 10 2.32 10 3 C11.91619141 3.38285156 11.91619141 3.38285156 13.87109375 3.7734375 C19.12046977 4.9399655 24.04603854 6.71026064 29.0625 8.625 C29.92810547 8.94984375 30.79371094 9.2746875 31.68554688 9.609375 C33.79244496 10.40091682 35.89712802 11.19783722 38 12 C38 12.33 38 12.66 38 13 C29.93987929 13.80601207 23.4113395 10.93732354 16 8 C14.86820313 7.55785156 13.73640625 7.11570312 12.5703125 6.66015625 C7.83077933 4.75391369 4.12483484 3.09362613 0 0 Z " fill="#616162" transform="translate(152,484)"/>
<path d="M0 0 C2 3 2 3 2 6 C2.99 6.33 3.98 6.66 5 7 C5.6953125 9.03125 5.6953125 9.03125 6.125 11.5 C6.47887416 14.53930366 6.47887416 14.53930366 8 17 C8.15958101 18.35052814 8.27728276 19.70609162 8.375 21.0625 C8.69672469 24.42988508 9.33292686 27.18803222 10.625 30.3125 C11.99077405 33.97525768 12.13543328 34.57099149 11 38 C10.59007812 36.83082031 10.18015625 35.66164063 9.7578125 34.45703125 C9.21359785 32.90883441 8.6693239 31.36065843 8.125 29.8125 C7.72087891 28.65911133 7.72087891 28.65911133 7.30859375 27.48242188 C6.22561936 24.40518976 5.14235246 21.34774672 3.90625 18.328125 C2.83286919 15.57064672 2.09338696 12.80741961 1.375 9.9375 C1.11460938 8.91527344 0.85421875 7.89304687 0.5859375 6.83984375 C0 4 0 4 0 0 Z " fill="#696969" transform="translate(10,315)"/>
<path d="M0 0 C0.33 0 0.66 0 1 0 C1.40544453 3.95308416 0.88478455 6.5288777 -0.8515625 10.01171875 C-3.28917882 15.3132101 -4.46288789 20.67912157 -5.625 26.375 C-6.02807958 28.32151722 -6.43669247 30.2668991 -6.8515625 32.2109375 C-7.02510254 33.05962402 -7.19864258 33.90831055 -7.37744141 34.78271484 C-8 37 -8 37 -10 40 C-10.48674816 32.52428296 -8.6911692 26.04305601 -6.6875 18.875 C-6.37876953 17.72128906 -6.07003906 16.56757813 -5.75195312 15.37890625 C-4.26697499 9.95795449 -2.82143702 4.87891571 0 0 Z " fill="#767676" transform="translate(19,169)"/>
<path d="M0 0 C6.44189737 6.88616615 7.26468012 14.0585351 7.3125 23.125 C7.31797852 23.88901123 7.32345703 24.65302246 7.32910156 25.44018555 C7.26796064 30.30879526 6.53819405 34.37928958 5 39 C4.67 39 4.34 39 4 39 C4.00785522 37.98015015 4.00785522 37.98015015 4.01586914 36.93969727 C4.03685071 33.81397451 4.04972687 30.68826665 4.0625 27.5625 C4.07087891 26.49322266 4.07925781 25.42394531 4.08789062 24.32226562 C4.10684631 18.12375772 3.82063259 12.1450519 3 6 C2.34 6 1.68 6 1 6 C0.67 4.02 0.34 2.04 0 0 Z " fill="#565656" transform="translate(461,77)"/>
<path d="M0 0 C2.13485836 3.62557843 2.74506362 7.26387907 3.5 11.375 C4.36846921 16.0855015 5.45345442 20.47171454 7 25 C8.48902249 31.3788988 9.24693031 37.45634673 9 44 C8.67 44 8.34 44 8 44 C7.70996094 42.37191406 7.70996094 42.37191406 7.4140625 40.7109375 C7.15127083 39.26558332 6.88823714 37.82027312 6.625 36.375 C6.43550781 35.30572266 6.43550781 35.30572266 6.2421875 34.21484375 C5.46720437 29.99118568 4.40005948 26.06892286 3 22 C1.13962934 14.64385545 -0.45641432 7.60690534 0 0 Z " fill="#7B7B7B" transform="translate(498,188)"/>
<path d="M0 0 C1.47906892 -0.02689216 2.95827483 -0.04634621 4.4375 -0.0625 C5.26121094 -0.07410156 6.08492188 -0.08570313 6.93359375 -0.09765625 C9 0 9 0 10 1 C11.5756216 1.0992724 13.15563044 1.13079953 14.734375 1.1328125 C15.70117188 1.13410156 16.66796875 1.13539063 17.6640625 1.13671875 C18.68242188 1.13285156 19.70078125 1.12898438 20.75 1.125 C21.75289062 1.12886719 22.75578125 1.13273437 23.7890625 1.13671875 C24.76101562 1.13542969 25.73296875 1.13414062 26.734375 1.1328125 C28.06807129 1.13112061 28.06807129 1.13112061 29.42871094 1.12939453 C32.04094099 0.99793973 34.45222923 0.57705919 37 0 C33.27920193 3.88992526 33.27920193 3.88992526 30.12744141 4.16113281 C19.64951798 4.35446073 10.02452915 4.42300995 0 1 C0 0.67 0 0.34 0 0 Z " fill="#6A696A" transform="translate(77,453)"/>
<path d="M0 0 C0.99 0.33 1.98 0.66 3 1 C1.55367187 2.01320313 1.55367187 2.01320313 0.078125 3.046875 C-1.19806102 3.94771219 -2.47409467 4.84876528 -3.75 5.75 C-4.38421875 6.1934375 -5.0184375 6.636875 -5.671875 7.09375 C-8.42094216 9.04100591 -10.89222278 10.89073619 -13.265625 13.296875 C-15 15 -15 15 -18 15.5 C-21.70376422 14.88270596 -22.75458765 13.96715204 -25 11 C-26.44483088 8.24794118 -27.12534382 6.77295357 -26.625 3.6875 C-26.41875 3.130625 -26.2125 2.57375 -26 2 C-24 5 -24 5 -24 8 C-23.34 8 -22.68 8 -22 8 C-21.34 9.65 -20.68 11.3 -20 13 C-16.01820418 12.47644207 -14.0183775 11.51131463 -11.125 8.75 C-7.56285174 5.49087003 -4.09708582 2.57072052 0 0 Z " fill="#6C6C6C" transform="translate(49,351)"/>
<path d="M0 0 C-1.45241736 3.33234574 -3.2850086 5.54225606 -5.84375 8.109375 C-6.97103516 9.24052734 -6.97103516 9.24052734 -8.12109375 10.39453125 C-8.90613281 11.17183594 -9.69117187 11.94914062 -10.5 12.75 C-11.28503906 13.54277344 -12.07007812 14.33554688 -12.87890625 15.15234375 C-13.63042969 15.90128906 -14.38195312 16.65023437 -15.15625 17.421875 C-15.84525391 18.10862305 -16.53425781 18.79537109 -17.24414062 19.50292969 C-19 21 -19 21 -21 21 C-21 21.66 -21 22.32 -21 23 C-21.66 22.67 -22.32 22.34 -23 22 C-18.50879458 16.56327764 -13.64492557 11.50810204 -8.6875 6.5 C-8.06472168 5.86433105 -7.44194336 5.22866211 -6.80029297 4.57373047 C-6.21006348 3.98221191 -5.61983398 3.39069336 -5.01171875 2.78125 C-4.48022217 2.24564453 -3.94872559 1.71003906 -3.40112305 1.15820312 C-2 0 -2 0 0 0 Z " fill="#191919" transform="translate(89,70)"/>
<path d="M0 0 C0.33 0 0.66 0 1 0 C0.77437628 6.31746423 -0.74406984 11.62469393 -2.9375 17.5 C-3.20256348 18.21865234 -3.46762695 18.93730469 -3.74072266 19.67773438 C-5.74229979 24.87114989 -5.74229979 24.87114989 -8 26 C-7.7834375 24.9790625 -7.7834375 24.9790625 -7.5625 23.9375 C-6.94824485 20.97182862 -6.94824485 20.97182862 -6.6875 17.8125 C-5.54544881 11.47930704 -2.92595968 5.7075895 0 0 Z " fill="#707070" transform="translate(496,336)"/>
<path d="M0 0 C-1.98 0.33 -3.96 0.66 -6 1 C-6 1.66 -6 2.32 -6 3 C-6.96099609 3.16435547 -6.96099609 3.16435547 -7.94140625 3.33203125 C-12.07665173 4.09005688 -15.93520333 4.8161863 -19.75 6.625 C-23.12869857 8.05444939 -25.37629092 8.26514944 -29 8 C-28 6 -28 6 -25.74682617 5.11450195 C-22.56315957 4.17011155 -19.37893184 3.23038155 -16.1875 2.3125 C-15.08083984 1.97927734 -13.97417969 1.64605469 -12.83398438 1.30273438 C-11.76857422 0.99271484 -10.70316406 0.68269531 -9.60546875 0.36328125 C-8.62731201 0.07751221 -7.64915527 -0.20825684 -6.64135742 -0.50268555 C-3.98341413 -1.00312279 -2.51902228 -0.8936061 0 0 Z " fill="#6E6E6E" transform="translate(199,12)"/>
<path d="M0 0 C0.73046875 1.6875 0.73046875 1.6875 1 4 C-0.51171875 6.4375 -0.51171875 6.4375 -2.6875 9 C-3.74517578 10.2684375 -3.74517578 10.2684375 -4.82421875 11.5625 C-7 14 -7 14 -9.20703125 16.125 C-11.22752096 17.97072348 -11.22752096 17.97072348 -12 21 C-12.66 21 -13.32 21 -14 21 C-12.40277147 16.06485078 -9.51692784 12.34276068 -6.4375 8.25 C-5.93025391 7.56550781 -5.42300781 6.88101563 -4.90039062 6.17578125 C-1.20225024 1.20225024 -1.20225024 1.20225024 0 0 Z " fill="#6B6B6B" transform="translate(59,98)"/>
<path d="M0 0 C-2.64 0.66 -5.28 1.32 -8 2 C-8 2.66 -8 3.32 -8 4 C-11.4352048 6.29013653 -12.985331 6.17842973 -17 6 C-17 6.66 -17 7.32 -17 8 C-18.24176695 8.70226141 -19.49385599 9.38629109 -20.75 10.0625 C-21.44609375 10.44535156 -22.1421875 10.82820313 -22.859375 11.22265625 C-25.36140628 12.1312406 -26.5332355 11.88336837 -29 11 C-27.71086513 10.32845067 -26.41859796 9.66291141 -25.125 9 C-24.40570313 8.62875 -23.68640625 8.2575 -22.9453125 7.875 C-21 7 -21 7 -19 7 C-19 6.34 -19 5.68 -19 5 C-16.03 4.34 -13.06 3.68 -10 3 C-10 2.34 -10 1.68 -10 1 C-5.8922935 -0.58706842 -4.40767604 -1.10191901 0 0 Z " fill="#656566" transform="translate(170,21)"/>
<path d="M0 0 C4.4909571 0.73349993 8.96727312 1.52396397 13.4375 2.375 C14.69433594 2.60960937 15.95117188 2.84421875 17.24609375 3.0859375 C21.1368485 4.03332211 24.37684514 5.32633621 28 7 C19.27203722 9.79614368 8.05984067 4.37993318 0 1 C0 0.67 0 0.34 0 0 Z " fill="#585858" transform="translate(190,497)"/>
<path d="M0 0 C1.08506842 3.30869455 0.88446498 5.5615221 0.125 8.9375 C-0.05804688 9.77152344 -0.24109375 10.60554688 -0.4296875 11.46484375 C-0.71199219 12.71974609 -0.71199219 12.71974609 -1 14 C-1.3373313 15.66586208 -1.67183175 17.33230863 -2 19 C-2.99 19.33 -3.98 19.66 -5 20 C-5.04254356 18.00045254 -5.04080783 15.99958364 -5 14 C-4.67 13.67 -4.34 13.34 -4 13 C-3.46451656 9.90409573 -3.03426398 6.79878868 -2.59765625 3.6875 C-2.40042969 2.800625 -2.20320313 1.91375 -2 1 C-1.34 0.67 -0.68 0.34 0 0 Z " fill="#575757" transform="translate(502,314)"/>
<path d="M0 0 C7.23820173 0.34467627 11.91590189 2.10214991 18 6 C18 6.66 18 7.32 18 8 C19.32 8.66 20.64 9.32 22 10 C20 11 20 11 17.625 10.3125 C15 9 15 9 13.1953125 7.05859375 C10.65471243 4.6762161 8.53747868 3.84582623 5.25 2.75 C4.26515625 2.41484375 3.2803125 2.0796875 2.265625 1.734375 C1.51796875 1.49203125 0.7703125 1.2496875 0 1 C0 0.67 0 0.34 0 0 Z " fill="#808080" transform="translate(431,57)"/>
<path d="M0 0 C2.56489714 3.12902408 4.13534179 6.27109139 5.6875 10 C6.34298828 11.546875 6.34298828 11.546875 7.01171875 13.125 C8 16 8 16 8 20 C5 19 5 19 3.9375 16.9375 C2.15909012 11.36514905 0.86825924 5.7883949 0 0 Z " fill="#717071" transform="translate(486,156)"/>
<path d="M0 0 C2.95529457 0.36040178 3.75137927 1.02476855 5.5625 3.3125 C5.2325 3.9725 4.9025 4.6325 4.5625 5.3125 C3.9025 4.6525 3.2425 3.9925 2.5625 3.3125 C-1.51828833 3.61478062 -5.06780876 6.19084255 -8.4375 8.3125 C-9.4275 9.7975 -9.4275 9.7975 -10.4375 11.3125 C-11.7575 10.9825 -13.0775 10.6525 -14.4375 10.3125 C-13.73882812 9.75820312 -13.04015625 9.20390625 -12.3203125 8.6328125 C-11.41023438 7.90835938 -10.50015625 7.18390625 -9.5625 6.4375 C-8.65757812 5.71820313 -7.75265625 4.99890625 -6.8203125 4.2578125 C-1.90390606 0.24409052 -1.90390606 0.24409052 0 0 Z " fill="#6C6C6C" transform="translate(480.4375,150.6875)"/>
<path d="M0 0 C2.68954383 0.59599565 5.37635823 1.20150828 8.0625 1.8125 C9.19075195 2.0609668 9.19075195 2.0609668 10.34179688 2.31445312 C15.17946606 3.42439454 19.49519105 4.91211378 24 7 C24 7.33 24 7.66 24 8 C17.375 8.125 17.375 8.125 14 7 C14 6.34 14 5.68 14 5 C13.11248047 4.94392578 13.11248047 4.94392578 12.20703125 4.88671875 C7.42978922 4.48926468 3.91240961 4.02896228 0 1 C0 0.67 0 0.34 0 0 Z " fill="#6A6A6A" transform="translate(325,16)"/>
<path d="M0 0 C-20.38713753 8.86244982 -20.38713753 8.86244982 -26 7 C-24.96875 6.731875 -23.9375 6.46375 -22.875 6.1875 C-20.42814781 5.49536253 -18.53074608 4.75470818 -16.25 3.5625 C-4.33333333 -2.16666667 -4.33333333 -2.16666667 0 0 Z " fill="#535353" transform="translate(357,489)"/>
<path d="M0 0 C0.71484375 1.546875 0.71484375 1.546875 1 4 C-0.05391226 6.53857885 -1.13965574 8.84495527 -2.4375 11.25 C-2.77587891 11.8996875 -3.11425781 12.549375 -3.46289062 13.21875 C-4.29786887 14.81814494 -5.14753114 16.40985859 -6 18 C-6.66 18 -7.32 18 -8 18 C-6.42094998 10.90069383 -4.6424873 5.64626833 0 0 Z " fill="#838383" transform="translate(487,362)"/>
<path d="M0 0 C0.98120464 3.05263664 0.98120464 4.94736336 0 8 C1.1446875 8.433125 1.1446875 8.433125 2.3125 8.875 C5 10 5 10 8 12 C8 12.66 8 13.32 8 14 C3.63958149 12.81079495 0.69345085 11.72939349 -2 8 C-2.375 4.875 -2.375 4.875 -2 2 C-1.34 1.34 -0.68 0.68 0 0 Z " fill="#727171" transform="translate(144,470)"/>
<path d="M0 0 C7.39139585 0.40751042 13.99822721 1.58507186 21 4 C17.44806348 5.20101451 14.72400293 4.8293019 11.0625 4.1875 C9.53302734 3.93033203 9.53302734 3.93033203 7.97265625 3.66796875 C5.14569701 3.03273875 2.65069022 2.15693109 0 1 C0 0.67 0 0.34 0 0 Z " fill="#494949" transform="translate(304,11)"/>
<path d="M0 0 C0.74609375 1.609375 0.74609375 1.609375 1 4 C-0.65234375 7.015625 -0.65234375 7.015625 -2.9375 10.25 C-3.68902344 11.32765625 -4.44054688 12.4053125 -5.21484375 13.515625 C-5.80394531 14.33546875 -6.39304688 15.1553125 -7 16 C-7.74609375 14.390625 -7.74609375 14.390625 -8 12 C-6.34765625 8.984375 -6.34765625 8.984375 -4.0625 5.75 C-2.93521484 4.13351563 -2.93521484 4.13351563 -1.78515625 2.484375 C-1.19605469 1.66453125 -0.60695313 0.8446875 0 0 Z " fill="#777777" transform="translate(44,119)"/>
<path d="M0 0 C7.08076251 -0.40850553 13.19925959 1.09579269 20 3 C20 3.33 20 3.66 20 4 C15.1666528 4.08333357 10.76307437 3.95261487 6 3 C6 2.34 6 1.68 6 1 C4.02 1 2.04 1 0 1 C0 0.67 0 0.34 0 0 Z " fill="#3C3C3C" transform="translate(282,7)"/>
<path d="M0 0 C4.61513112 1.31860889 8.09897612 3.21355437 12 6 C11.625 8.4375 11.625 8.4375 11 11 C10.01 11.495 10.01 11.495 9 12 C9 11.0925 9 10.185 9 9.25 C8.35436499 5.96539372 8.35436499 5.96539372 6.15234375 4.7109375 C4.12694174 3.71788325 2.10315462 2.81443345 0 2 C0 1.34 0 0.68 0 0 Z " fill="#515151" transform="translate(367,33)"/>
<path d="M0 0 C0.33 0 0.66 0 1 0 C1.58819531 5.73490428 -0.29393157 10.06191892 -3 15 C-3.66 15.66 -4.32 16.32 -5 17 C-3.18181818 3.18181818 -3.18181818 3.18181818 0 0 Z " fill="#8B8B8C" transform="translate(19,169)"/>
<path d="M0 0 C0.92876314 2.51047492 1.18752942 3.58063041 0.07421875 6.0703125 C-0.38339844 6.74835938 -0.84101562 7.42640625 -1.3125 8.125 C-1.76238281 8.80820312 -2.21226563 9.49140625 -2.67578125 10.1953125 C-4 12 -4 12 -6 14 C-5.57202798 8.29370646 -3.15654048 4.58921384 0 0 Z " fill="#626262" transform="translate(56,384)"/>
<path d="M0 0 C0.66 0 1.32 0 2 0 C0.69045524 4.23083691 -0.83854716 8.127397 -3 12 C-3.99 12.495 -3.99 12.495 -5 13 C-4.39254603 8.14036821 -2.27241033 4.2594482 0 0 Z " fill="#818181" transform="translate(34,135)"/>
<path d="M0 0 C0.55171875 0.22558594 1.1034375 0.45117188 1.671875 0.68359375 C-0.28143368 1.71400888 -2.24094028 2.73268305 -4.203125 3.74609375 C-5.29367188 4.31457031 -6.38421875 4.88304687 -7.5078125 5.46875 C-8.43851563 5.86964844 -9.36921875 6.27054688 -10.328125 6.68359375 C-10.988125 6.35359375 -11.648125 6.02359375 -12.328125 5.68359375 C-10.75465324 4.64762475 -9.16890954 3.63027643 -7.578125 2.62109375 C-6.69640625 2.05261719 -5.8146875 1.48414063 -4.90625 0.8984375 C-2.328125 -0.31640625 -2.328125 -0.31640625 0 0 Z " fill="#7E7F7F" transform="translate(139.328125,33.31640625)"/>
<path d="M0 0 C0.95465783 2.16967689 1.14401212 3.56328793 0.3984375 5.82421875 C-0.35870385 7.5684743 -1.17609198 9.28627131 -2 11 C-2.66 11 -3.32 11 -4 11 C-4.33 11.99 -4.66 12.98 -5 14 C-4.23510329 8.95168169 -2.27247598 4.54495196 0 0 Z " fill="#767676" transform="translate(25,155)"/>
<path d="M0 0 C0.66 0.33 1.32 0.66 2 1 C-1.17320782 4.53586014 -3.16743695 6.58578031 -8 7 C-5.42215154 4.35247996 -3.08351902 2.05567935 0 0 Z " fill="#686868" transform="translate(113,48)"/>
<path d="M0 0 C3.45390549 2.66892697 4.12452998 5.84151743 5 10 C4.546875 12.22265625 4.546875 12.22265625 4 14 C3.32471777 12.42032193 2.66010306 10.83608097 2 9.25 C1.62875 8.36828125 1.2575 7.4865625 0.875 6.578125 C0 4 0 4 0 0 Z " fill="#7F7E7F" transform="translate(17,339)"/>
<path d="M0 0 C0.33 1.32 0.66 2.64 1 4 C-1.31 5.65 -3.62 7.3 -6 9 C-4.47291037 5.56404834 -2.40072955 2.88087546 0 0 Z " fill="#686868" transform="translate(151,461)"/>
<path d="M0 0 C0.66666667 1.33333333 1.33333333 2.66666667 2 4 C2.391875 4.66 2.78375 5.32 3.1875 6 C4.17413108 8.42863035 3.86626039 9.57447091 3 12 C2.67 10.68 2.34 9.36 2 8 C1.34 8 0.68 8 0 8 C0 5.36 0 2.72 0 0 Z " fill="#7A7A7A" transform="translate(494,176)"/>
<path d="M0 0 C1.98146451 0.44829514 3.96014211 0.90892498 5.9375 1.375 C7.03964844 1.63023438 8.14179688 1.88546875 9.27734375 2.1484375 C10.17582031 2.42945313 11.07429688 2.71046875 12 3 C12.33 3.66 12.66 4.32 13 5 C7.85611138 4.56407724 4.24514783 4.18386087 0 1 C0 0.67 0 0.34 0 0 Z " fill="#3E3E3E" transform="translate(325,16)"/>
<path d="M0 0 C1 2 1 2 0.3125 4.5 C-1.15567038 7.29651501 -2.09303901 7.93411431 -5 9 C-3.7508258 5.54074837 -2.32472205 2.85306797 0 0 Z " fill="#4D4D4D" transform="translate(157,452)"/>
<path d="M0 0 C1.32 0 2.64 0 4 0 C4 0.66 4 1.32 4 2 C5.32 2.66 6.64 3.32 8 4 C6 5 6 5 3.4375 4.25 C1 3 1 3 0 0 Z " fill="#595859" transform="translate(445,63)"/>
</svg>
