<?xml version="1.0" encoding="UTF-8"?>
<svg version="1.1" xmlns="http://www.w3.org/2000/svg" width="1200" height="400">
<path d="M0 0 C396 0 792 0 1200 0 C1200 132 1200 264 1200 400 C804 400 408 400 0 400 C0 268 0 136 0 0 Z " fill="#FDFDFD" transform="translate(0,0)"/>
<path d="M0 0 C0 0.66 0 1.32 0 2 C0.57621094 2.09667969 1.15242188 2.19335938 1.74609375 2.29296875 C4.47757859 3.14981235 5.94046886 4.40308084 8.0625 6.3125 C8.73410156 6.90675781 9.40570313 7.50101563 10.09765625 8.11328125 C16.74797154 14.70897383 19.24671382 22.22222091 19.5 31.5 C19.12918379 43.0300666 14.88386226 50.69162208 7 59 C2.29896907 63 2.29896907 63 -1 63 C-1.33 63.99 -1.66 64.98 -2 66 C-12.18846832 68.52457622 -21.89471988 69.10931696 -32 66 C-32 65.34 -32 64.68 -32 64 C-34.83737844 63.66036387 -34.83737844 63.66036387 -38 64 C-40.15891129 65.68738017 -40.15891129 65.68738017 -41.875 68.0625 C-44.25387593 71.07471303 -46.69080156 73.66586911 -49.59765625 76.15625 C-54.84378426 80.65840601 -59.68691496 85.54103451 -64.5625 90.4375 C-65.46935547 91.34048828 -66.37621094 92.24347656 -67.31054688 93.17382812 C-71.90126219 97.77120147 -76.36688966 102.41633288 -80.58544922 107.35888672 C-83.54296808 110.79009862 -86.74920016 113.82698897 -90.25 116.6875 C-93.01742194 118.7042322 -93.01742194 118.7042322 -94 121 C-93.34 121 -92.68 121 -92 121 C-85.06223226 134.9179683 -85.06223226 134.9179683 -85 142 C-84.94392578 143.64162109 -84.94392578 143.64162109 -84.88671875 145.31640625 C-84.7547619 151.86563306 -84.81790695 157.80141698 -87 164 C-87.33773437 164.96550781 -87.67546875 165.93101562 -88.0234375 166.92578125 C-88.99136096 169.62704282 -89.98384991 172.31657452 -91 175 C-91.66 175 -92.32 175 -93 175 C-93.185625 175.66 -93.37125 176.32 -93.5625 177 C-98.45907144 187.21893169 -109.65676003 195.73820205 -120 200 C-126.07989204 201.76383515 -131.93878183 202.35750094 -138.25 202.3125 C-139.07411377 202.30758545 -139.89822754 202.3026709 -140.74731445 202.29760742 C-150.61101045 202.11026733 -161.39136114 200.96500778 -169 194 C-169 193.34 -169 192.68 -169 192 C-169.99 192 -170.98 192 -172 192 C-172.31904297 192.81210937 -172.31904297 192.81210937 -172.64453125 193.640625 C-174.48973182 196.85244386 -177.03787746 199.20792672 -179.6875 201.75 C-183.00926411 204.95722052 -186.20826597 208.19460786 -189.21289062 211.70410156 C-192.92633854 215.96939719 -196.83748443 219.99891062 -200.83203125 224 C-201.54985275 224.7211499 -202.26767426 225.4422998 -203.00724792 226.18530273 C-204.50930527 227.69238218 -206.01268256 229.19814717 -207.51733398 230.70263672 C-209.82889461 233.01641031 -212.13230884 235.33810131 -214.43554688 237.66015625 C-215.90055305 239.12809197 -217.3660307 240.59555735 -218.83203125 242.0625 C-219.52158401 242.75923828 -220.21113678 243.45597656 -220.92158508 244.17382812 C-221.87849495 245.12612305 -221.87849495 245.12612305 -222.85473633 246.09765625 C-223.41542313 246.65976807 -223.97610992 247.22187988 -224.55378723 247.80102539 C-226 249 -226 249 -228 249 C-227.67 250.98 -227.34 252.96 -227 255 C-226.34 255 -225.68 255 -225 255 C-224.38106043 267.89457429 -225.7427396 276.82684296 -234.125 287.015625 C-236.85124804 289.90090418 -239.60686583 291.93750668 -243 294 C-243.66 294 -244.32 294 -245 294 C-245 294.66 -245 295.32 -245 296 C-250.0581464 297.65754602 -254.59564523 298.3242102 -259.9375 298.25 C-260.64116699 298.24323242 -261.34483398 298.23646484 -262.06982422 298.22949219 C-273.05894356 298.01037226 -279.85730269 294.59828709 -287.51953125 286.75 C-289.29255219 284.65418632 -290.27833501 282.64610495 -291 280 C-291.66 280 -292.32 280 -293 280 C-295.56943008 274.02744178 -296.55032801 269.11077738 -296.5 262.625 C-296.49572998 261.79009033 -296.49145996 260.95518066 -296.48706055 260.0949707 C-296.3030045 253.42147578 -294.98066391 248.46235548 -291 243 C-289.9171875 241.4221875 -289.9171875 241.4221875 -288.8125 239.8125 C-281.29311548 232.29311548 -273.73052787 227.74043345 -262.9375 227.625 C-255.44006467 227.69923203 -249.02944916 229.34469374 -242 232 C-241.7598114 231.43482162 -241.5196228 230.86964325 -241.27215576 230.28733826 C-239.73396591 227.52167024 -237.88634046 225.63940211 -235.64550781 223.40258789 C-234.74407043 222.49807388 -233.84263306 221.59355988 -232.91387939 220.66163635 C-231.92713914 219.68179716 -230.94021643 218.70214167 -229.953125 217.72265625 C-228.9386608 216.70938535 -227.9245673 215.6957432 -226.91082764 214.68174744 C-224.78542786 212.55791051 -222.65671621 210.43746994 -220.52539062 208.31958008 C-217.80583357 205.61695814 -215.09285042 202.90785552 -212.38212967 200.19637394 C-210.28736517 198.10188273 -208.18999358 196.0100186 -206.09175873 193.91900444 C-205.09132814 192.92173683 -204.09148516 191.92387936 -203.09226227 190.92540169 C-198.22354959 186.06428913 -193.400632 181.27033271 -188 177 C-188.48157043 173.82163518 -189.27796884 171.35511229 -190.5625 168.375 C-192 165 -192 165 -192 162 C-192.66 162 -193.32 162 -194 162 C-195.26188451 156.07016871 -195.25736775 150.16014348 -195.3125 144.125 C-195.35600586 142.54912109 -195.35600586 142.54912109 -195.40039062 140.94140625 C-195.45515045 134.21015948 -194.55061623 129.70592622 -191 124 C-190.443125 122.88625 -189.88625 121.7725 -189.3125 120.625 C-182.62508628 109.20175243 -171.44937875 99.45882005 -159 95 C-158.11054688 94.64164062 -157.22109375 94.28328125 -156.3046875 93.9140625 C-152.08729916 92.74755083 -148.22881965 92.69839596 -143.875 92.75 C-142.61139648 92.76341431 -142.61139648 92.76341431 -141.32226562 92.77709961 C-130.35048292 92.97993046 -122.43881714 93.9705271 -113.27734375 100.44140625 C-111.0013959 102.15222324 -111.0013959 102.15222324 -108 103 C-107.76893555 102.44368896 -107.53787109 101.88737793 -107.29980469 101.31420898 C-105.65024536 98.37728696 -103.59101926 96.34931181 -101.203125 93.97265625 C-100.73187195 93.50186142 -100.2606189 93.03106659 -99.77508545 92.54600525 C-98.77885457 91.55278746 -97.78020234 90.56199318 -96.77929688 89.57348633 C-95.26379224 88.0761271 -93.75633308 86.57103266 -92.25 85.06445312 C-84.87734914 77.72906778 -84.87734914 77.72906778 -80.97949219 74.48999023 C-78.14439724 72.12067416 -75.5752563 69.64630858 -73 67 C-72.21729736 66.20682373 -71.43459473 65.41364746 -70.62817383 64.59643555 C-69.82919678 63.784729 -69.03021973 62.97302246 -68.20703125 62.13671875 C-66.40898809 60.32017993 -64.6108072 58.50377743 -62.8125 56.6875 C-61.89791016 55.75615234 -60.98332031 54.82480469 -60.04101562 53.86523438 C-59.16767578 52.98544922 -58.29433594 52.10566406 -57.39453125 51.19921875 C-56.20114136 49.99011841 -56.20114136 49.99011841 -54.98364258 48.7565918 C-53 47 -53 47 -51 47 C-51.16008545 46.44602539 -51.3201709 45.89205078 -51.48510742 45.32128906 C-52.47333341 40.86607203 -52.26972265 36.29580616 -52.3125 31.75 C-52.34150391 30.73808594 -52.37050781 29.72617188 -52.40039062 28.68359375 C-52.47500112 19.83364144 -50.13977128 13.47165081 -44 7 C-31.1372293 -4.4105224 -15.89553649 -8.55913504 0 0 Z " fill="#030303" transform="translate(454,47)"/>
<path d="M0 0 C23.43 0 46.86 0 71 0 C71.495 0.495 71.495 0.495 72 1 C73.80570303 1.27584183 75.61214176 1.54756069 77.42163086 1.79736328 C92.2911175 3.94743882 105.1472831 9.94700493 114.6171875 22.0703125 C120.39949006 30.79508855 121.4808624 38.58282198 121.375 48.875 C121.38660156 49.99519531 121.39820313 51.11539063 121.41015625 52.26953125 C121.36229642 65.9414896 117.46243788 75.05021924 108.0859375 85.0390625 C102.89938894 89.88410992 95.30783993 96 88 96 C88.26676204 97.98491642 88.26676204 97.98491642 89 100 C90.485 100.495 90.485 100.495 92 101 C93.578125 103.08203125 93.578125 103.08203125 95.25 105.8125 C95.85457031 106.79734375 96.45914063 107.7821875 97.08203125 108.796875 C97.71496094 109.85390625 98.34789062 110.9109375 99 112 C99.66386719 113.09828125 100.32773437 114.1965625 101.01171875 115.328125 C106 123.70600913 106 123.70600913 106 126 C106.66 126 107.32 126 108 126 C109.65278892 128.40817691 111.18524594 130.812382 112.6875 133.3125 C113.58537 134.78289877 114.4838104 136.25294937 115.3828125 137.72265625 C115.8252832 138.44984863 116.26775391 139.17704102 116.72363281 139.92626953 C118.97861303 143.58996539 121.35316857 147.17515426 123.72265625 150.765625 C124.94302509 152.90033747 125.46374853 154.6256617 126 157 C120.55587925 157.19832862 115.11387554 157.34318442 109.66699219 157.43945312 C107.81603356 157.47959284 105.96532718 157.53412078 104.11523438 157.60351562 C88.75337406 158.16513202 88.75337406 158.16513202 84.51123047 155.34619141 C82.93664021 153.27721367 81.94305112 151.41416495 81 149 C80.49210938 148.16210938 79.98421875 147.32421875 79.4609375 146.4609375 C79.10257813 145.77257812 78.74421875 145.08421875 78.375 144.375 C76.9285505 141.66466259 75.43820772 139.08720482 73.6875 136.5625 C72 134 72 134 72 132 C71.34 132 70.68 132 70 132 C69.62488281 131.29875 69.24976563 130.5975 68.86328125 129.875 C66.04084854 124.64247992 63.16246043 119.51931908 59.8828125 114.55859375 C59 113 59 113 59 111 C58.34 111 57.68 111 57 111 C55.68 108.36 54.36 105.72 53 103 C47.06 103 41.12 103 35 103 C34.67 120.49 34.34 137.98 34 156 C22.78 156 11.56 156 0 156 C0 104.52 0 53.04 0 0 Z " fill="#030303" transform="translate(602,65)"/>
<path d="M0 0 C1.3424881 0.00648056 1.3424881 0.00648056 2.71209717 0.01309204 C5.30051948 0.03194597 7.88836769 0.06268682 10.4765625 0.1015625 C11.24131897 0.11230301 12.00607544 0.12304352 12.79400635 0.1341095 C20.90542128 0.30924207 28.53163053 1.26597447 36.375 3.375 C38.33296594 3.8556657 40.29132926 4.33471442 42.25 4.8125 C57.52198382 8.64011307 72.1714774 14.01496658 86.17578125 21.25390625 C88.063349 22.21612995 89.99724183 23.08650957 91.9375 23.9375 C94.375 25.375 94.375 25.375 95.5625 27.25 C95.31761792 30.02533019 94.06209964 30.99948061 92.05078125 32.8125 C89.93770072 34.78273826 88.04480257 36.90401927 86.125 39.0625 C85.43921875 39.82949219 84.7534375 40.59648438 84.046875 41.38671875 C82.32877855 43.27298664 82.32877855 43.27298664 81.375 45.375 C76.71549595 44.70547903 72.80570606 42.93199599 68.5625 41 C63.80854028 38.85275695 59.05361452 36.82814516 54.1550293 35.03173828 C52.7354565 34.50798971 51.32818626 33.95093191 49.92578125 33.3828125 C47.10662137 32.27089255 44.25545435 31.31757431 41.375 30.375 C40.7365918 30.15489258 40.09818359 29.93478516 39.44042969 29.70800781 C26.78094678 25.4960128 14.34395441 24.88723307 1.125 24.875 C0.32492523 24.8706897 -0.47514954 24.86637939 -1.29946899 24.86193848 C-15.76463119 24.82859965 -29.54990332 26.57650102 -43.42578125 30.82421875 C-45.625 31.375 -45.625 31.375 -49.625 31.375 C-49.625 32.035 -49.625 32.695 -49.625 33.375 C-50.49382812 33.54515625 -51.36265625 33.7153125 -52.2578125 33.890625 C-58.62871249 35.23036683 -63.32314692 36.48697441 -68.625 40.375 C-70.11357315 40.96707788 -71.61550299 41.52600672 -73.125 42.0625 C-90.29789793 48.67934373 -118.63536549 68.27131151 -126.5234375 85.31640625 C-127.625 87.375 -127.625 87.375 -129.8984375 89.60546875 C-133.24627599 93.00606687 -135.68525873 96.68185326 -138.25 100.6875 C-138.72695312 101.40873047 -139.20390625 102.12996094 -139.6953125 102.87304688 C-142.72414228 107.56352632 -144.84283225 112.08232062 -146.625 117.375 C-147.285 117.375 -147.945 117.375 -148.625 117.375 C-149.73608056 121.23019116 -150.82495745 125.08971804 -151.87890625 128.9609375 C-152.09353516 129.74597656 -152.30816406 130.53101563 -152.52929688 131.33984375 C-152.97432696 132.9694198 -153.41697207 134.59964876 -153.85742188 136.23046875 C-155.51316071 142.26316071 -155.51316071 142.26316071 -156.625 143.375 C-157.16321792 146.11131801 -157.58978036 148.8592058 -158.02734375 151.61328125 C-158.625 154.375 -158.625 154.375 -159.62109375 156.30859375 C-169.00859365 175.63150211 -162.0826647 207.01647255 -159.625 227.375 C-158.965 227.375 -158.305 227.375 -157.625 227.375 C-157.48964844 228.06722656 -157.35429687 228.75945312 -157.21484375 229.47265625 C-155.64407437 236.611662 -153.26773478 242.77523944 -149.87475586 249.20922852 C-148.5037753 251.91378276 -147.62920411 254.01292106 -147.59375 257.06640625 C-149.02899727 260.27940297 -150.96017116 261.44217232 -153.875 263.375 C-158.53430262 266.54371708 -158.53430262 266.54371708 -162.5625 270.4375 C-163.243125 271.076875 -163.92375 271.71625 -164.625 272.375 C-166.62890625 272.24609375 -166.62890625 272.24609375 -168.625 271.375 C-169.75 269.625 -169.75 269.625 -170.625 267.375 C-170.95113281 266.56160156 -171.27726563 265.74820312 -171.61328125 264.91015625 C-172.11408203 263.65525391 -172.11408203 263.65525391 -172.625 262.375 C-173.35142081 260.85285321 -174.08050897 259.33197596 -174.8125 257.8125 C-176.68795314 253.63502006 -177.29379859 249.92901943 -177.625 245.375 C-178.285 245.375 -178.945 245.375 -179.625 245.375 C-180.46570884 241.53482928 -181.30169585 237.69366241 -182.13354492 233.8515625 C-182.55470241 231.91093015 -182.97946589 229.97108149 -183.40429688 228.03125 C-183.67177734 226.79375 -183.93925781 225.55625 -184.21484375 224.28125 C-184.46097412 223.15009766 -184.70710449 222.01894531 -184.96069336 220.85351562 C-186.31922276 213.73983427 -186.79236617 206.89465064 -186.828125 199.671875 C-186.83382507 198.75400208 -186.83952515 197.83612915 -186.84539795 196.89044189 C-186.85480303 194.95073582 -186.86136396 193.01101408 -186.86523438 191.07128906 C-186.87483485 188.17482603 -186.90585732 185.27910633 -186.9375 182.3828125 C-187.0076644 169.82981195 -186.12465662 157.69637423 -183.625 145.375 C-183.295 145.045 -182.965 144.715 -182.625 144.375 C-182.32047609 142.94139514 -182.0557826 141.49928273 -181.80859375 140.0546875 C-180.64334654 133.99885139 -178.73713864 128.30668267 -176.6875 122.5 C-176.34009766 121.48164062 -175.99269531 120.46328125 -175.63476562 119.4140625 C-175.29251953 118.434375 -174.95027344 117.4546875 -174.59765625 116.4453125 C-174.13758179 115.12684326 -174.13758179 115.12684326 -173.66821289 113.78173828 C-172.59583564 111.30771652 -171.27119368 109.49658417 -169.625 107.375 C-168.6130983 105.0468034 -167.61421747 102.71292499 -166.625 100.375 C-158.54644437 85.43567526 -148.40731818 71.60294292 -136.625 59.375 C-136.0686084 58.78750977 -135.5122168 58.20001953 -134.93896484 57.59472656 C-121.95211649 43.93116105 -107.99853314 32.74245639 -91.625 23.375 C-91.0283252 23.02953125 -90.43165039 22.6840625 -89.81689453 22.328125 C-81.30511724 17.43512728 -73.12539171 14.01184341 -63.625 11.375 C-59.8622362 10.09352452 -56.20702443 8.64942603 -52.609375 6.953125 C-36.25139339 -0.00986665 -17.46231453 -0.08782534 0 0 Z " fill="#070607" transform="translate(310.625,5.625)"/>
<path d="M0 0 C5.32978589 6.79588346 7.82908876 14.6947095 10.1875 22.875 C10.51685547 23.96941406 10.84621094 25.06382812 11.18554688 26.19140625 C17.22397887 46.47957736 17.22397887 46.47957736 17.6875 55.75 C17.75324219 56.94109375 17.81898438 58.1321875 17.88671875 59.359375 C17.92410156 60.23078125 17.96148437 61.1021875 18 62 C18.66 62 19.32 62 20 62 C21.17998804 112.07143101 21.17998804 112.07143101 13.359375 132.41015625 C12.11911198 135.68544855 11.71027139 138.43632005 11.35546875 141.890625 C7.32666812 165.79779356 -13.58603871 193.01511832 -30 210 C-30.60618164 210.63196289 -31.21236328 211.26392578 -31.83691406 211.91503906 C-44.51059608 225.0726803 -57.18204471 235.71680145 -73 245 C-74.09183594 245.65355469 -75.18367187 246.30710937 -76.30859375 246.98046875 C-88.13324742 254 -88.13324742 254 -93 254 C-93 254.66 -93 255.32 -93 256 C-96.14777772 257.22107752 -99.29792919 258.4349006 -102.453125 259.63671875 C-104.51416492 260.4289026 -106.56974178 261.2362552 -108.609375 262.08203125 C-116.91044595 265.39981598 -125.620689 266.95936642 -134.39013672 268.52587891 C-136.13078921 268.84209473 -137.86713413 269.18300914 -139.59814453 269.54833984 C-148.48495846 271.29137253 -157.30084012 271.37225469 -166.32373047 271.37060547 C-168.96779403 271.37494712 -171.61013968 271.4112888 -174.25390625 271.44921875 C-190.13157209 271.55438536 -205.24627828 268.8846758 -220.375 264.0625 C-221.18952637 263.81089111 -222.00405273 263.55928223 -222.84326172 263.30004883 C-240.33107311 257.83446344 -240.33107311 257.83446344 -246 255 C-246 254.34 -246 253.68 -246 253 C-246.680625 252.9175 -247.36125 252.835 -248.0625 252.75 C-251.8746907 251.77667472 -254.64070329 250.04192545 -258 248 C-257.51315883 243.30240977 -255.60394272 240.90793986 -252.5625 237.375 C-250.21646903 234.62603916 -248.00565987 232.00848981 -246 229 C-239.74777495 229.27787667 -236.15224989 230.24315112 -231 234 C-220.87187569 239.46496708 -209.35035363 241.7987412 -198.1875 244.1875 C-197.02371826 244.43790039 -197.02371826 244.43790039 -195.83642578 244.69335938 C-167.17577295 250.62441208 -135.30501003 246.34949348 -108.46875 235.0234375 C-106.27473322 234.11389257 -104.17411992 233.44977998 -101.875 232.875 C-99.04121957 232.26153522 -99.04121957 232.26153522 -97.62890625 230.61328125 C-95.62704627 228.63062376 -93.56894738 227.59700827 -91.0625 226.3125 C-60.04084905 209.70248217 -35.26198341 183.68085185 -20 152 C-19.5771875 151.16339844 -19.154375 150.32679688 -18.71875 149.46484375 C-15.80813987 143.42905929 -14.05579966 137.62514528 -12.68359375 131.07421875 C-12.08027571 128.36101135 -11.34512064 125.81102037 -10.4375 123.1875 C0.68780085 90.97048295 -4.05578214 52.67632006 -16.984375 21.6640625 C-17.95921019 19.10699481 -18.54937973 16.69392554 -19 14 C-18.443125 13.57589844 -17.88625 13.15179688 -17.3125 12.71484375 C-12.57623065 9.07463674 -8.0275034 5.32831121 -3.62890625 1.28515625 C-2 0 -2 0 0 0 Z " fill="#070707" transform="translate(484,114)"/>
<path d="M0 0 C1.42900552 0.74567653 2.86593901 1.4764785 4.3125 2.1875 C5.00988281 2.53167969 5.70726562 2.87585938 6.42578125 3.23046875 C6.94527344 3.48441406 7.46476563 3.73835938 8 4 C7.49227295 9.32097944 6.18250503 13.16280635 3.6875 17.875 C0.92566326 23.17755644 -1.63317226 28.50895964 -4 34 C-8.08254706 32.76574159 -11.35989618 31.18406229 -15 29 C-16.98451771 28.28856912 -18.98202112 27.61008664 -21 27 C-21 26.34 -21 25.68 -21 25 C-29.51505651 23.10400332 -37.99161904 22.70062121 -46.6875 22.5625 C-47.74380615 22.52833984 -48.8001123 22.49417969 -49.88842773 22.45898438 C-56.53249943 22.42159102 -61.11427518 23.47769321 -66.89135742 26.79956055 C-69 28 -69 28 -72.625 29.25 C-80.6092083 33.38995986 -85.15221879 40.67725993 -88.24951172 48.93603516 C-92.98256445 63.98270025 -92.04850776 82.84777423 -85 97 C-83.20539604 100.19907663 -81.24779862 103.10635502 -79 106 C-78.13375 107.3303125 -78.13375 107.3303125 -77.25 108.6875 C-70.76733794 115.35023601 -62.28548551 118.98124083 -53.0390625 119.265625 C-51.23437515 119.27088648 -49.42962872 119.26546825 -47.625 119.25 C-46.28308594 119.26160156 -46.28308594 119.26160156 -44.9140625 119.2734375 C-37.10891605 119.25074812 -30.11520306 117.759417 -22.6875 115.4375 C-20.38066602 114.72056126 -18.1349019 114.02811441 -15.76953125 113.53515625 C-15.18558594 113.35855469 -14.60164062 113.18195313 -14 113 C-13.67 112.34 -13.34 111.68 -13 111 C-9.43410312 109.05496534 -5.79172433 107.44977695 -2 106 C1.11995486 111.89324807 3.54814942 117.88717023 5.8515625 124.14453125 C6.93969053 127.13071466 6.93969053 127.13071466 9 130 C9.625 132.375 9.625 132.375 9 135 C4.10429282 139.49371363 -2.87452572 141.89294736 -8.8515625 144.5703125 C-10.90187355 145.50134705 -12.92295923 146.50060911 -14.90234375 147.57421875 C-35.11837714 156.87920259 -62.86230882 153.17827694 -83 146 C-99.47523606 139.22744368 -113.03857643 125.34421186 -120 109 C-120 108.34 -120 107.68 -120 107 C-120.66 107 -121.32 107 -122 107 C-122.81706167 103.9595402 -123.6278202 100.91743317 -124.4375 97.875 C-124.66759766 97.0190625 -124.89769531 96.163125 -125.13476562 95.28125 C-130.08464765 76.62952061 -130.24354661 55.55126475 -122.21875 37.7890625 C-120.94279989 34.99247119 -120.94279989 34.99247119 -120.0078125 31.94921875 C-114.62452369 16.19579608 -100.90197336 5.31457389 -86.8125 -2.5 C-82.15127133 -4.65289864 -77.04731416 -5.29486052 -72 -6 C-72 -6.66 -72 -7.32 -72 -8 C-48.83317156 -11.28441112 -20.65550676 -13.18882019 0 0 Z " fill="#060606" transform="translate(872,73)"/>
<path d="M0 0 C43.23 0 86.46 0 131 0 C131 10.23 131 20.46 131 31 C115.16 31 99.32 31 83 31 C83 72.58 83 114.16 83 157 C71.45 157 59.9 157 48 157 C48 115.42 48 73.84 48 31 C32.16 31 16.32 31 0 31 C0 20.77 0 10.54 0 0 Z " fill="#050505" transform="translate(895,65)"/>
<path d="M0 0 C1.68029297 -0.01160156 1.68029297 -0.01160156 3.39453125 -0.0234375 C14.73904083 0.00273207 25.38770191 1.51732551 36.125 5.1875 C37.75328958 5.72582718 39.38219444 6.26229701 41.01171875 6.796875 C42.16486572 7.17682617 42.16486572 7.17682617 43.34130859 7.56445312 C46.97425326 8.71818629 50.66260429 9.63668191 54.37109375 10.51171875 C56.82617843 11.36311509 58.50729867 12.60227658 60.5 14.25 C59.9513441 18.45135138 58.57628971 20.9311654 56.0625 24.3125 C53.9197929 27.21566682 52.00889426 29.96682807 50.5 33.25 C47.30698734 32.87871946 44.92742919 32.50745319 42.15234375 30.8359375 C39.39091368 29.18477313 36.80409056 28.18533117 33.75 27.1875 C32.78578125 26.86652344 31.8215625 26.54554687 30.828125 26.21484375 C21.65919147 23.55671396 13.23620035 22.87738205 3.74633789 22.87939453 C1.46617983 22.87505459 -0.8119839 22.83874116 -3.09179688 22.80078125 C-13.51536296 22.72241175 -22.48765133 24.35816562 -32.5 27.25 C-35.49271287 27.9589229 -38.49265347 28.6055686 -41.5 29.25 C-41.5 29.91 -41.5 30.57 -41.5 31.25 C-42.05945313 31.43433594 -42.61890625 31.61867188 -43.1953125 31.80859375 C-66.81997452 40.35449239 -85.29020588 59.84010891 -97.5 81.25 C-98.01915306 82.48392901 -98.50201541 83.73411933 -98.9375 85 C-99.96619596 87.8975834 -101.15017798 90.61376711 -102.5 93.375 C-105.22262949 99.38356162 -106.34440769 105.78751562 -107.5 112.25 C-107.68820313 113.30058594 -107.87640625 114.35117188 -108.0703125 115.43359375 C-110.00152808 132.58629938 -109.96632603 152.08418491 -103.5 168.25 C-103.1875 172.125 -103.1875 172.125 -103.5 175.25 C-105.5 177.25 -105.5 177.25 -108.6875 178.5 C-112.46498024 180.0109921 -114.97228703 182.28188676 -117.82421875 185.140625 C-119.5 186.25 -119.5 186.25 -121.50048828 186.05224609 C-123.5 185.25 -123.5 185.25 -124.48901367 183.63037109 C-124.82509644 182.58743896 -124.82509644 182.58743896 -125.16796875 181.5234375 C-125.4211084 180.74524658 -125.67424805 179.96705566 -125.93505859 179.1652832 C-126.30751709 177.90784302 -126.30751709 177.90784302 -126.6875 176.625 C-127.07929443 175.35112427 -127.07929443 175.35112427 -127.47900391 174.05151367 C-129.69497904 166.43383196 -130.47631727 159.1718733 -130.5 151.25 C-131.16 151.25 -131.82 151.25 -132.5 151.25 C-132.57515721 146.50353305 -132.62906792 141.75742586 -132.66479492 137.01049805 C-132.67971634 135.40171257 -132.70006091 133.79296656 -132.72631836 132.18432617 C-132.88721653 122.06036115 -132.2592512 113.07449118 -129.5 103.25 C-128.99055981 101.08553352 -128.48940352 98.91908475 -128 96.75 C-127.06511074 92.69881322 -125.68949371 89.77247563 -123.5 86.25 C-122.92585105 84.82516246 -122.38465128 83.38665996 -121.875 81.9375 C-111.31697233 55.06252048 -89.23414837 29.57120621 -63.5 16.25 C-62.18 16.25 -60.86 16.25 -59.5 16.25 C-59.5 15.59 -59.5 14.93 -59.5 14.25 C-51.04652157 10.11992218 -42.46885744 7.04052879 -33.5 4.25 C-32.46359375 3.91355469 -31.4271875 3.57710937 -30.359375 3.23046875 C-20.2808703 0.67003891 -10.36853177 -0.0715894 0 0 Z " fill="#080808" transform="translate(310.5,59.75)"/>
<path d="M0 0 C10.45962025 28.79091346 16.3159971 59.19823059 6 89 C5.71104858 89.93670532 5.71104858 89.93670532 5.41625977 90.89233398 C-4.8802776 123.58247334 -26.91989435 152.29323948 -57 169 C-59.3984375 169.73828125 -59.3984375 169.73828125 -61 170 C-61 170.66 -61 171.32 -61 172 C-62.26839526 172.50615298 -63.53983102 173.00469099 -64.8125 173.5 C-65.87404297 173.91765625 -65.87404297 173.91765625 -66.95703125 174.34375 C-69 175 -69 175 -72 175 C-72 175.66 -72 176.32 -72 177 C-74.68657212 177.96100105 -77.37419711 178.91886249 -80.0625 179.875 C-80.81466797 180.14441406 -81.56683594 180.41382813 -82.34179688 180.69140625 C-95.79874292 185.46833082 -108.70757385 187.3375328 -122.95068359 187.20581055 C-125.02583853 187.18726913 -127.10055109 187.1853037 -129.17578125 187.18554688 C-140.14696619 187.14528399 -140.14696619 187.14528399 -145 186 C-145 185.34 -145 184.68 -145 184 C-145.886875 184.061875 -146.77375 184.12375 -147.6875 184.1875 C-153.5926351 184.22410208 -159.31448468 182.43634071 -165 181 C-165 180.34 -165 179.68 -165 179 C-166.485 178.8453125 -166.485 178.8453125 -168 178.6875 C-172.3445524 178.04911679 -176.00917391 176.85779835 -180 175 C-180.92578125 173.234375 -180.92578125 173.234375 -181 171 C-179.70703125 168.37890625 -179.70703125 168.37890625 -177.8125 165.5625 C-177.20019531 164.63566406 -176.58789062 163.70882812 -175.95703125 162.75390625 C-174.0611458 160.08604349 -172.0726217 157.53218305 -170 155 C-168.35 155.33 -166.7 155.66 -165 156 C-165 156.66 -165 157.32 -165 158 C-164.17757813 158.12503906 -163.35515625 158.25007812 -162.5078125 158.37890625 C-158.5813477 159.07412663 -154.74217872 159.972499 -150.875 160.9375 C-150.17246094 161.10701172 -149.46992188 161.27652344 -148.74609375 161.45117188 C-143.36342186 162.78920846 -143.36342186 162.78920846 -141.18920898 164.05029297 C-138.15822548 165.36517262 -135.58930413 165.24183773 -132.29296875 165.23046875 C-130.98392578 165.22853516 -129.67488281 165.22660156 -128.32617188 165.22460938 C-127.64611084 165.21840576 -126.9660498 165.21220215 -126.26538086 165.20581055 C-124.2047881 165.18765234 -122.14464854 165.18530047 -120.08398438 165.18554688 C-111.65095733 165.14828755 -103.99745541 164.87908395 -96 162 C-95.03320312 161.70996094 -95.03320312 161.70996094 -94.046875 161.4140625 C-88.29614855 159.65574686 -83.11133781 157.15478401 -77.7734375 154.3984375 C-75 153 -75 153 -71.5 151.625 C-48.91684906 141.13996564 -29.1657493 119.61175688 -19.62890625 96.70703125 C-17.82991998 91.50776323 -16.47977433 86.25141647 -15.4921875 80.83984375 C-15 79 -15 79 -13 76 C-10.06724735 62.11092613 -9.70215407 40.7283351 -15.03125 27.42578125 C-16.02640211 24.93388828 -16.38656283 22.85004843 -16.625 20.1875 C-16.73714844 19.00220703 -16.73714844 19.00220703 -16.8515625 17.79296875 C-16.90054688 17.20128906 -16.94953125 16.60960937 -17 16 C-17.66 16 -18.32 16 -19 16 C-18.70225449 12.6489035 -18.27875827 11.277235 -15.85546875 8.8671875 C-14.97503906 8.20976562 -14.09460938 7.55234375 -13.1875 6.875 C-12.31480469 6.21242187 -11.44210937 5.54984375 -10.54296875 4.8671875 C-9.28419922 3.94292969 -9.28419922 3.94292969 -8 3 C-7.31550781 2.42507812 -6.63101563 1.85015625 -5.92578125 1.2578125 C-4 0 -4 0 0 0 Z " fill="#080808" transform="translate(439,143)"/>
<path d="M0 0 C6.8371875 -0.0928125 6.8371875 -0.0928125 13.8125 -0.1875 C15.22635986 -0.21481201 16.64021973 -0.24212402 18.09692383 -0.27026367 C26.98341027 -0.32815812 35.39441974 -0.0205429 43.0078125 4.97265625 C43.70648437 5.66230469 44.40515625 6.35195312 45.125 7.0625 C45.84945312 7.75472656 46.57390625 8.44695312 47.3203125 9.16015625 C51.17176469 13.37883993 50.53753317 18.64130694 50.40234375 24.08203125 C49.81176739 29.83298354 47.96245387 33.80347712 44 38 C37.92914988 42.34961292 31.94935453 43.12678315 24.609375 43.09765625 C23.31999023 43.09515869 22.03060547 43.09266113 20.70214844 43.09008789 C18.25083496 43.07643188 18.25083496 43.07643188 15.75 43.0625 C7.95375 43.0315625 7.95375 43.0315625 0 43 C0 28.81 0 14.62 0 0 Z " fill="#F9F9F9" transform="translate(637,95)"/>
<path d="M0 0 C3.70274916 2.14759451 7.02289585 4.34509032 8.75 8.375 C9.51239246 13.71174724 9.28130924 18.58183133 7.75 23.75 C4.28445276 28.29853075 0.78999936 31.8903008 -5.04296875 32.8203125 C-10.63393431 32.92594478 -15.59973564 32.56832223 -20.0625 28.875 C-21.25 27.375 -21.25 27.375 -21.25 25.375 C-22.24 25.045 -23.23 24.715 -24.25 24.375 C-26.16334314 19.45012268 -25.95761044 13.52370838 -25.25 8.375 C-20.37840936 -1.26704098 -9.58258248 -4.32120229 0 0 Z " fill="#1C1C1C" transform="translate(823.25,269.625)"/>
<path d="M0 0 C2.8966092 2.23662229 3.8598841 3.40484966 5.4375 6.8125 C6.36738177 14.51723463 6.51091052 18.9221663 1.875 25.4375 C-2.62748401 29.61053396 -5.94381383 30.59688375 -12 30.6875 C-13.54300781 30.72617187 -13.54300781 30.72617187 -15.1171875 30.765625 C-19.40006405 30.2984021 -21.9631745 28.84029671 -24.70703125 25.52734375 C-28.5394814 18.82359762 -29.27390427 13.13756294 -27.4375 5.625 C-25.44545936 2.30493226 -23.09230572 -0.89540065 -19.31640625 -2.17578125 C-12.46707468 -3.38448682 -6.09096038 -3.71183323 0 0 Z " fill="#141414" transform="translate(941.125,271.5625)"/>
<path d="M0 0 C2.64 0 5.28 0 8 0 C8 1.32 8 2.64 8 4 C8.66 4 9.32 4 10 4 C10.33 5.32 10.66 6.64 11 8 C11.66 8 12.32 8 13 8 C13.66 10.31 14.32 12.62 15 15 C18.02236775 13.48881612 18.56873062 11.07174387 20 8.0625 C22.7904328 2.2095672 22.7904328 2.2095672 25 0 C28.625 -0.125 28.625 -0.125 32 0 C32.50546083 4.37438707 33.00340532 8.74959827 33.5 13.125 C33.64308594 14.3625 33.78617188 15.6 33.93359375 16.875 C34.13662109 18.67324219 34.13662109 18.67324219 34.34375 20.5078125 C34.46943359 21.60754395 34.59511719 22.70727539 34.72460938 23.84033203 C34.99235784 26.91231845 35.04872366 29.91822819 35 33 C32.36 33 29.72 33 27 33 C26.67 26.07 26.34 19.14 26 12 C23.06185997 13.46907001 22.6713774 15.59447806 21.375 18.5625 C20.92898438 19.57441406 20.48296875 20.58632813 20.0234375 21.62890625 C19.68570313 22.41136719 19.34796875 23.19382812 19 24 C16.73828125 24.34375 16.73828125 24.34375 14 24 C11.98046875 21.59375 11.98046875 21.59375 10.1875 18.5 C9.58292969 17.4790625 8.97835937 16.458125 8.35546875 15.40625 C7.90816406 14.6121875 7.46085938 13.818125 7 13 C5.48937307 14.51062693 5.80467543 15.89391289 5.71875 18 C5.68136719 18.804375 5.64398437 19.60875 5.60546875 20.4375 C5.57066406 21.283125 5.53585937 22.12875 5.5 23 C5.43139491 24.66684971 5.35869777 26.33353774 5.28125 28 C5.25095703 28.7425 5.22066406 29.485 5.18945312 30.25 C5 32 5 32 4 33 C2.00041636 33.04080783 -0.00045254 33.04254356 -2 33 C-1.85903487 29.37479395 -1.71131601 25.74989159 -1.5625 22.125 C-1.52318359 21.11179687 -1.48386719 20.09859375 -1.44335938 19.0546875 C-1.17743851 12.67258664 -0.71710563 6.34748471 0 0 Z " fill="#181718" transform="translate(841,269)"/>
<path d="M0 0 C7 0 7 0 9.00390625 1.65234375 C9.51824219 2.40644531 10.03257812 3.16054688 10.5625 3.9375 C11.13484375 4.75089844 11.7071875 5.56429688 12.296875 6.40234375 C12.85890625 7.25957031 13.4209375 8.11679687 14 9 C14.56203125 9.84691406 15.1240625 10.69382812 15.703125 11.56640625 C16.72930828 13.11813485 17.74250604 14.67858487 18.73828125 16.25 C19.89634475 18.14149601 19.89634475 18.14149601 22 19 C22 12.73 22 6.46 22 0 C24.64 0 27.28 0 30 0 C30 10.89 30 21.78 30 33 C27.03 33 24.06 33 21 33 C20.5359375 31.63875 20.5359375 31.63875 20.0625 30.25 C17.69691322 24.66905254 12.4922411 15.74612055 7 13 C7 19.6 7 26.2 7 33 C4.69 33 2.38 33 0 33 C0 22.11 0 11.22 0 0 Z " fill="#29292A" transform="translate(954,269)"/>
<path d="M0 0 C16.22222222 0 16.22222222 0 22 4 C24.07888723 7.44875 24.49351166 9.96965477 24 14 C22.125 16.875 22.125 16.875 20 19 C19.34 19 18.68 19 18 19 C18.91716016 22.36292059 19.56892711 24.56892711 22.0625 27.0625 C24.34827803 29.34827803 24.64897767 30.840799 25 34 C22.36 34 19.72 34 17 34 C16.69707031 33.21753906 16.39414062 32.43507813 16.08203125 31.62890625 C15.66308594 30.61699219 15.24414062 29.60507812 14.8125 28.5625 C14.40644531 27.55316406 14.00039063 26.54382813 13.58203125 25.50390625 C13.05996094 24.67761719 12.53789063 23.85132813 12 23 C10.35 22.67 8.7 22.34 7 22 C7 25.63 7 29.26 7 33 C4.69 33 2.38 33 0 33 C0 22.11 0 11.22 0 0 Z " fill="#1A1A1A" transform="translate(665,268)"/>
<path d="M0 0 C6 0 6 0 8.125 1.65234375 C8.74375 2.40644531 9.3625 3.16054688 10 3.9375 C10.6703125 4.7521875 11.340625 5.566875 12.03125 6.40625 C20 16.9047619 20 16.9047619 20 20 C20.66 20 21.32 20 22 20 C22 13.4 22 6.8 22 0 C24.31 0 26.62 0 29 0 C29 10.89 29 21.78 29 33 C23 33 23 33 20.8046875 31.0234375 C20.16789063 30.14945312 19.53109375 29.27546875 18.875 28.375 C18.19695313 27.46234375 17.51890625 26.5496875 16.8203125 25.609375 C15.43846828 23.62853392 14.07266093 21.64544269 12.75 19.625 C10.84882715 16.58733897 10.84882715 16.58733897 7 13 C7 19.6 7 26.2 7 33 C4.69 33 2.38 33 0 33 C0 22.11 0 11.22 0 0 Z " fill="#2C2C2C" transform="translate(866,321)"/>
<path d="M0 0 C7 0 7 0 8.98803711 1.62060547 C9.4960083 2.36197754 10.00397949 3.10334961 10.52734375 3.8671875 C11.09130859 4.67027344 11.65527344 5.47335937 12.23632812 6.30078125 C12.79771484 7.15027344 13.35910156 7.99976563 13.9375 8.875 C14.52595703 9.71675781 15.11441406 10.55851562 15.72070312 11.42578125 C20 17.63846545 20 17.63846545 20 20 C20.66 20 21.32 20 22 20 C21.99214478 19.14450562 21.99214478 19.14450562 21.98413086 18.27172852 C21.96341779 15.70199677 21.9503581 13.13228253 21.9375 10.5625 C21.92912109 9.66466797 21.92074219 8.76683594 21.91210938 7.84179688 C21.90727539 6.56079102 21.90727539 6.56079102 21.90234375 5.25390625 C21.89448853 4.06776733 21.89448853 4.06776733 21.88647461 2.85766602 C22 1 22 1 23 0 C24.98 0 26.96 0 29 0 C29 10.89 29 21.78 29 33 C26.69 33 24.38 33 22 33 C20.34765625 30.921875 20.34765625 30.921875 19 28 C17.4953763 25.73635935 15.97896328 23.48801357 14.4375 21.25 C13.83905273 20.36634766 13.83905273 20.36634766 13.22851562 19.46484375 C11.09769475 16.21490149 11.09769475 16.21490149 8 14 C7.67 20.27 7.34 26.54 7 33 C4.69 33 2.38 33 0 33 C0 22.11 0 11.22 0 0 Z " fill="#1B1B1B" transform="translate(779,321)"/>
<path d="M0 0 C16 0 16 0 21 2 C23.18481571 4.71218502 23.93471596 6.55233804 24.4375 10 C23.89484595 13.72105636 22.63395916 15.36604084 20 18 C19.34 18 18.68 18 18 18 C18.474375 19.093125 18.94875 20.18625 19.4375 21.3125 C20.40187809 23.53476255 21.23166828 25.69500485 22 28 C22.66 28 23.32 28 24 28 C24.33 29.65 24.66 31.3 25 33 C22.36 33 19.72 33 17 33 C16.62488281 32.14535156 16.24976563 31.29070312 15.86328125 30.41015625 C15.35152344 29.30542969 14.83976563 28.20070313 14.3125 27.0625 C13.81363281 25.96035156 13.31476562 24.85820312 12.80078125 23.72265625 C12.20652344 22.82417969 11.61226562 21.92570312 11 21 C9.35 20.67 7.7 20.34 6 20 C6 23.96 6 27.92 6 32 C4.02 32 2.04 32 0 32 C0 21.44 0 10.88 0 0 Z " fill="#151516" transform="translate(541,269)"/>
<path d="M0 0 C7 0 7 0 8.71484375 1.14453125 C9.32005859 1.97017578 9.32005859 1.97017578 9.9375 2.8125 C10.41316406 3.4415625 10.88882812 4.070625 11.37890625 4.71875 C11.91386719 5.4715625 12.44882813 6.224375 13 7 C14.06541016 8.40765625 14.06541016 8.40765625 15.15234375 9.84375 C21 17.65432777 21 17.65432777 21 20 C21.66 20 22.32 20 23 20 C23 13.4 23 6.8 23 0 C24.98 0 26.96 0 29 0 C29 10.56 29 21.12 29 32 C26.69 32 24.38 32 22 32 C19.8370865 29.74238266 18.37790795 27.90730232 16.75 25.3125 C16.11964844 24.37374023 16.11964844 24.37374023 15.4765625 23.41601562 C13.66367167 20.69382892 11.96428093 17.93815927 10.328125 15.10546875 C9.17226053 12.87033973 9.17226053 12.87033973 7 12 C7 18.93 7 25.86 7 33 C4.69 33 2.38 33 0 33 C0 22.11 0 11.22 0 0 Z " fill="#1C1C1C" transform="translate(1020,269)"/>
<path d="M0 0 C17.27678571 -0.66964286 17.27678571 -0.66964286 21.5 2.375 C24 5 24 5 25 7 C24.91348369 8.54613014 24.75997364 10.08909387 24.5625 11.625 C24.46066406 12.44226563 24.35882812 13.25953125 24.25390625 14.1015625 C24.17011719 14.72804688 24.08632813 15.35453125 24 16 C23.34 16 22.68 16 22 16 C21.71125 16.639375 21.4225 17.27875 21.125 17.9375 C20 20 20 20 18 21 C14.32984725 21.1377685 10.67388652 21.04271961 7 21 C7 24.63 7 28.26 7 32 C4.69 32 2.38 32 0 32 C0 21.44 0 10.88 0 0 Z " fill="#1E1E1E" transform="translate(883,269)"/>
<path d="M0 0 C2.64 0 5.28 0 8 0 C8 4.29 8 8.58 8 13 C11.11756732 10.065819 13.48018894 7.28500994 15.8125 3.6875 C18.35192486 0.15352232 18.35192486 0.15352232 21.16015625 -0.51171875 C23.375 -0.5 23.375 -0.5 27 0 C25.22075779 4.02341203 22.59775504 6.68338671 19.55859375 9.8046875 C17.48710282 12.72242661 16.93781187 14.40197243 17 18 C18.48047324 20.56274764 20.40520031 22.61203056 22.4375 24.75 C28 30.80709501 28 30.80709501 28 33 C24.77084778 33.57663433 23.09220635 33.87296982 20 33 C17.60995411 30.70452428 15.77176235 28.28075505 13.859375 25.578125 C11.82311294 22.60992883 11.82311294 22.60992883 8 19 C8 23.62 8 28.24 8 33 C5.36 33 2.72 33 0 33 C0 22.11 0 11.22 0 0 Z " fill="#383838" transform="translate(817,321)"/>
<path d="M0 0 C5.1665625 -0.0309375 5.1665625 -0.0309375 10.4375 -0.0625 C11.52474365 -0.071604 12.6119873 -0.08070801 13.73217773 -0.09008789 C15.00750366 -0.09383423 15.00750366 -0.09383423 16.30859375 -0.09765625 C17.62041626 -0.10551147 17.62041626 -0.10551147 18.95874023 -0.11352539 C21 0 21 0 22 1 C22.125 3.5 22.125 3.5 22 6 C21 7 21 7 17.83984375 7.09765625 C15.90818359 7.08025391 15.90818359 7.08025391 13.9375 7.0625 C12.64714844 7.05347656 11.35679687 7.04445313 10.02734375 7.03515625 C9.02832031 7.02355469 8.02929688 7.01195312 7 7 C7 9.31 7 11.62 7 14 C10.63 14 14.26 14 18 14 C18 15.98 18 17.96 18 20 C14.37 20 10.74 20 7 20 C7 22.31 7 24.62 7 27 C8.60681641 26.98259766 8.60681641 26.98259766 10.24609375 26.96484375 C11.64322743 26.95546701 13.04036299 26.94636669 14.4375 26.9375 C15.14455078 26.92912109 15.85160156 26.92074219 16.58007812 26.91210938 C18.38693559 26.90346412 20.19387603 26.94779989 22 27 C23 28 23 28 23 34 C15.41 34 7.82 34 0 34 C0 22.78 0 11.56 0 0 Z " fill="#313132" transform="translate(992,268)"/>
<path d="M0 0 C0 1.65 0 3.3 0 5 C-2 6 -2 6 -3.625 5.5625 C-7.10298661 4.73876633 -10.47067517 4.47480285 -14 5 C-16.8100346 6.79363911 -18.50940468 8.01880935 -20 11 C-20.35032356 16.34243433 -20.4561069 19.64786539 -17 24 C-12.95807022 26.69461986 -10.7948504 26.23200889 -6 26 C-4.70366379 24.93354885 -4.70366379 24.93354885 -4.9375 22.4375 C-4.958125 21.633125 -4.97875 20.82875 -5 20 C-6.65 19.67 -8.3 19.34 -10 19 C-10 17.02 -10 15.04 -10 13 C-6.04 13 -2.08 13 2 13 C2 18.61 2 24.22 2 30 C-5.39935485 32.46645162 -11.21091128 32.42780034 -18.875 31.5625 C-22.82072413 29.58963793 -24.20484856 27.62173677 -26.12109375 23.70703125 C-28.10042581 17.61068851 -27.82101917 11.55428187 -25.875 5.5 C-19.44697578 -3.07069896 -9.36213457 -3.84087572 0 0 Z " fill="#191919" transform="translate(930,322)"/>
<path d="M0 0 C7.26 0 14.52 0 22 0 C22 1.65 22 3.3 22 5 C21 6 21 6 18.05859375 6.09765625 C16.26615234 6.08025391 16.26615234 6.08025391 14.4375 6.0625 C12.64119141 6.04896484 12.64119141 6.04896484 10.80859375 6.03515625 C9.88175781 6.02355469 8.95492187 6.01195312 8 6 C8 7.98 8 9.96 8 12 C11.63 12 15.26 12 19 12 C19 14.31 19 16.62 19 19 C15.04 19 11.08 19 7 19 C7 21.64 7 24.28 7 27 C12.28 27 17.56 27 23 27 C23 28.98 23 30.96 23 33 C15.41 33 7.82 33 0 33 C0 22.11 0 11.22 0 0 Z " fill="#2A2A2A" transform="translate(572,269)"/>
<path d="M0 0 C3.47914941 -0.02887814 6.95826831 -0.04675687 10.4375 -0.0625 C11.92733398 -0.07506836 11.92733398 -0.07506836 13.44726562 -0.08789062 C14.39150391 -0.09111328 15.33574219 -0.09433594 16.30859375 -0.09765625 C17.62041626 -0.10551147 17.62041626 -0.10551147 18.95874023 -0.11352539 C21 0 21 0 22 1 C22 2.65 22 4.3 22 6 C17.05 6 12.1 6 7 6 C7 8.64 7 11.28 7 14 C10.96 14 14.92 14 19 14 C19 15.65 19 17.3 19 19 C15.04 19 11.08 19 7 19 C7 21.97 7 24.94 7 28 C12.28 28 17.56 28 23 28 C23 29.98 23 31.96 23 34 C19.35418313 34.02887512 15.70839537 34.04675585 12.0625 34.0625 C10.50112305 34.07506836 10.50112305 34.07506836 8.90820312 34.08789062 C7.91884766 34.09111328 6.92949219 34.09433594 5.91015625 34.09765625 C4.53549194 34.10551147 4.53549194 34.10551147 3.13305664 34.11352539 C1 34 1 34 0 33 C-0.08843793 30.55169574 -0.11528752 28.13179401 -0.09765625 25.68359375 C-0.0962413 24.95253922 -0.09482635 24.22148468 -0.09336853 23.46827698 C-0.08775408 21.12464368 -0.07519922 18.78110461 -0.0625 16.4375 C-0.05748686 14.85221492 -0.05292363 13.26692834 -0.04882812 11.68164062 C-0.03777997 7.7877239 -0.02050572 3.89387795 0 0 Z " fill="#242424" transform="translate(636,268)"/>
<path d="M0 0 C1.98 0 3.96 0 6 0 C6.33 4.29 6.66 8.58 7 13 C11.62 13 16.24 13 21 13 C21.33 9.04 21.66 5.08 22 1 C23.98 1 25.96 1 28 1 C28 11.23 28 21.46 28 32 C26.02 32 24.04 32 22 32 C22 27.71 22 23.42 22 19 C17.05 19 12.1 19 7 19 C7 23.62 7 28.24 7 33 C4.69 33 2.38 33 0 33 C0 22.11 0 11.22 0 0 Z " fill="#151515" transform="translate(725,321)"/>
<path d="M0 0 C6.93 0 13.86 0 21 0 C21 1.65 21 3.3 21 5 C16.38 5 11.76 5 7 5 C7 7.64 7 10.28 7 13 C10.63 13 14.26 13 18 13 C18 14.98 18 16.96 18 19 C14.04 19 10.08 19 6 19 C6 21.64 6 24.28 6 27 C11.61 27 17.22 27 23 27 C23 28.98 23 30.96 23 33 C15.41 33 7.82 33 0 33 C0 22.11 0 11.22 0 0 Z " fill="#1B1B1B" transform="translate(726,269)"/>
<path d="M0 0 C3.3125 -0.25 3.3125 -0.25 7 0 C10.23736004 3.1809881 11.26858532 7.32972546 12.5625 11.5625 C13.7339136 15.34511419 14.77750518 18.66625778 17 22 C17.66 20.35 18.32 18.7 19 17 C19.66 17 20.32 17 21 17 C20.896875 16.21625 20.79375 15.4325 20.6875 14.625 C21.13502617 9.43369641 23.50507972 5.50867736 26 1 C27.98 1 29.96 1 32 1 C31.42651172 5.26019866 30.40508389 8.81497808 28.6875 12.75 C28.24277344 13.78769531 27.79804687 14.82539063 27.33984375 15.89453125 C26.89769531 16.91933594 26.45554687 17.94414062 26 19 C25.24183036 20.80909785 24.49111925 22.62135064 23.75 24.4375 C23.43546875 25.19933594 23.1209375 25.96117187 22.796875 26.74609375 C21.94883471 29.1447175 21.44139692 31.49727944 21 34 C18.03 34 15.06 34 12 34 C5.40862423 16.862423 5.40862423 16.862423 4 9 C3.34 9 2.68 9 2 9 C1.34 6.03 0.68 3.06 0 0 Z " fill="#1D1D1D" transform="translate(598,268)"/>
<path d="M0 0 C-0.33 1.32 -0.66 2.64 -1 4 C-1.86882813 3.97679687 -2.73765625 3.95359375 -3.6328125 3.9296875 C-4.78523437 3.91164063 -5.93765625 3.89359375 -7.125 3.875 C-8.26195312 3.85179687 -9.39890625 3.82859375 -10.5703125 3.8046875 C-14.05757767 4.00327891 -16.7553862 4.7475199 -20 6 C-20.08126087 8.08268593 -20.13930839 10.16628658 -20.1875 12.25 C-20.22230469 13.41015625 -20.25710938 14.5703125 -20.29296875 15.765625 C-19.97774992 19.24564084 -19.41246034 20.54023652 -17 23 C-12.43481788 25.02896983 -5.66417053 24.55472351 -1 23 C-0.67 24.65 -0.34 26.3 0 28 C-4.39974253 32.1261267 -8.9004253 31.48665954 -14.640625 31.34375 C-18.8769921 30.91026127 -21.0164352 30.06207966 -24 27 C-28.16459526 21.73945861 -28.4421926 17.48830254 -28.43359375 10.8671875 C-27.67770289 5.86877405 -24.88970776 2.1333757 -21 -1 C-13.51573106 -3.87856498 -7.02494719 -4.21496831 0 0 Z " fill="#202020" transform="translate(794,271)"/>
<path d="M0 0 C2.84375 1.02734375 2.84375 1.02734375 5 2 C4.67 3.65 4.34 5.3 4 7 C3.505 6.835 3.01 6.67 2.5 6.5 C-1.03444089 5.79311182 -4.39690701 5.93994845 -8 6 C-8.33 7.65 -8.66 9.3 -9 11 C-7.80375 11.4125 -6.6075 11.825 -5.375 12.25 C-1.16298586 13.82108875 2.77772717 15.77772717 6 19 C6.44166754 22.05381556 6.48223087 24.95105642 6 28 C3.5625 31 3.5625 31 1 33 C0.67 33.33 0.34 33.66 0 34 C-2.10029986 34.152323 -4.20687139 34.22189372 -6.3125 34.25 C-7.46363281 34.27578125 -8.61476563 34.3015625 -9.80078125 34.328125 C-13.21723798 33.97771918 -14.53441038 33.31339273 -17 31 C-16.34 29.35 -15.68 27.7 -15 26 C-14.01 26 -13.02 26 -12 26 C-12 26.66 -12 27.32 -12 28 C-10.54176788 28.0270043 -9.08339325 28.04639787 -7.625 28.0625 C-6.40683594 28.07990234 -6.40683594 28.07990234 -5.1640625 28.09765625 C-2.95062858 28.14466334 -2.95062858 28.14466334 -1 27 C-1.11173521 24.55093214 -1.11173521 24.55093214 -2 22 C-4.22766195 20.6721318 -4.22766195 20.6721318 -6.9375 19.9375 C-11.72531027 18.44260097 -11.72531027 18.44260097 -13.31640625 15.87890625 C-13.54199219 15.25886719 -13.76757812 14.63882812 -14 14 C-14.66 14 -15.32 14 -16 14 C-16.45772706 9.33118401 -16.62494858 6.0559476 -14.1875 1.9375 C-9.56338262 -0.87323801 -5.286714 -0.72160608 0 0 Z " fill="#181818" transform="translate(712,268)"/>
<path d="M0 0 C2.3046875 0.40625 2.3046875 0.40625 5.3046875 2.40625 C5.6346875 3.39625 5.9646875 4.38625 6.3046875 5.40625 C6.9646875 5.73625 7.6246875 6.06625 8.3046875 6.40625 C8.35906357 7.98919782 8.39765021 9.57269256 8.4296875 11.15625 C8.45289063 12.03796875 8.47609375 12.9196875 8.5 13.828125 C8.29167949 16.57795568 7.80575611 18.1093128 6.3046875 20.40625 C2.27359994 22.97148754 -0.92916128 24.21750978 -5.6953125 23.40625 C-8.5703125 21.03125 -8.5703125 21.03125 -10.6953125 18.40625 C-10.6953125 17.74625 -10.6953125 17.08625 -10.6953125 16.40625 C-11.3553125 16.40625 -12.0153125 16.40625 -12.6953125 16.40625 C-13.55237151 6.76909754 -13.55237151 6.76909754 -10.8203125 2.78125 C-6.96303819 -0.15027847 -4.71350555 -0.17192118 0 0 Z " fill="#ECECEC" transform="translate(931.6953125,273.59375)"/>
<path d="M0 0 C3.62989775 2.9845826 6.67948498 5.98533419 7.4375 10.75 C6.85426566 15.08259796 4.91074288 17.79818283 2 21 C-0.32595946 22.16297973 -1.78723231 22.16600691 -4.375 22.1875 C-5.14585937 22.20167969 -5.91671875 22.21585937 -6.7109375 22.23046875 C-9.28261026 21.97154607 -10.84834486 21.42653788 -13 20 C-14.53937625 15.38187125 -14.52175897 10.82274505 -14 6 C-10.58129116 0.10567441 -6.59177344 -0.6819076 0 0 Z " fill="#F1F1F1" transform="translate(819,274)"/>
<path d="M0 0 C4.47915328 -0.02886338 8.95828291 -0.04675187 13.4375 -0.0625 C14.71689453 -0.07087891 15.99628906 -0.07925781 17.31445312 -0.08789062 C19.13686523 -0.09272461 19.13686523 -0.09272461 20.99609375 -0.09765625 C22.12200928 -0.10289307 23.2479248 -0.10812988 24.40795898 -0.11352539 C27 0 27 0 28 1 C28 2.65 28 4.3 28 6 C24.7 6 21.4 6 18 6 C18 14.91 18 23.82 18 33 C16.02 33 14.04 33 12 33 C11 32 11 32 10.88647461 29.49975586 C10.89171143 28.41573486 10.89694824 27.33171387 10.90234375 26.21484375 C10.90556641 25.04501953 10.90878906 23.87519531 10.91210938 22.66992188 C10.92048828 21.43822266 10.92886719 20.20652344 10.9375 18.9375 C10.94201172 17.70193359 10.94652344 16.46636719 10.95117188 15.19335938 C10.96300392 12.12885883 10.97948827 9.06445279 11 6 C7.37 6 3.74 6 0 6 C0 4.02 0 2.04 0 0 Z " fill="#181818" transform="translate(691,321)"/>
<path d="M0 0 C8.91 0 17.82 0 27 0 C27 1.98 27 3.96 27 6 C23.7 6 20.4 6 17 6 C17 14.91 17 23.82 17 33 C14.69 33 12.38 33 10 33 C10 24.09 10 15.18 10 6 C7.03 6 4.06 6 1 6 C0.67 5.67 0.34 5.34 0 5 C0 3.35 0 1.7 0 0 Z " fill="#222222" transform="translate(1055,269)"/>
<path d="M0 0 C0.50546083 4.37438707 1.00340532 8.74959827 1.5 13.125 C1.64308594 14.3625 1.78617188 15.6 1.93359375 16.875 C2.06894531 18.07382812 2.20429687 19.27265625 2.34375 20.5078125 C2.46943359 21.60754395 2.59511719 22.70727539 2.72460938 23.84033203 C2.99235784 26.91231845 3.04872366 29.91822819 3 33 C0.36 33 -2.28 33 -5 33 C-5.33 26.07 -5.66 19.14 -6 12 C-8.33075929 12.95865509 -8.33075929 12.95865509 -10 16 C-11.24127561 12.27617317 -11.52680389 8.86824568 -11 5 C-8.16664579 -0.44004009 -5.79034689 -0.21620899 0 0 Z " fill="#0F0F10" transform="translate(873,269)"/>
<path d="M0 0 C2.31 0 4.62 0 7 0 C7 10.89 7 21.78 7 33 C4.69 33 2.38 33 0 33 C0 22.11 0 11.22 0 0 Z " fill="#222122" transform="translate(850,321)"/>
<path d="M0 0 C2.31 0 4.62 0 7 0 C7 10.89 7 21.78 7 33 C4.69 33 2.38 33 0 33 C0 22.11 0 11.22 0 0 Z " fill="#1E1E1E" transform="translate(763,321)"/>
<path d="M0 0 C1.98 0 3.96 0 6 0 C6.89571109 10.48670989 6.97960463 20.51069502 6 31 C4.02 31 2.04 31 0 31 C0 20.77 0 10.54 0 0 Z " fill="#0C0C0C" transform="translate(818,322)"/>
<path d="M0 0 C0.886875 0.268125 1.77375 0.53625 2.6875 0.8125 C2.6875 1.1425 2.6875 1.4725 2.6875 1.8125 C1.81091232 2.03779892 0.93432465 2.26309784 0.03117371 2.495224 C-3.88893475 4.03959263 -5.86229446 5.8920795 -8.8112793 8.88891602 C-9.32427582 9.40454102 -9.83727234 9.92016602 -10.36581421 10.45141602 C-12.04886274 12.14738236 -13.71749596 13.85684043 -15.38671875 15.56640625 C-16.55820411 16.75044068 -17.73073122 17.93344524 -18.9042511 19.11546326 C-21.98424674 22.22200658 -25.05289341 25.3395005 -28.1184082 28.46032715 C-33.03297255 33.46129651 -37.96117317 38.44874017 -42.89585304 43.42985344 C-44.61735404 45.17181143 -46.3318772 46.92042609 -48.04582214 48.66981506 C-49.0976184 49.73526443 -50.14963388 50.80049745 -51.2019043 51.86547852 C-52.11868454 52.7987648 -53.03546478 53.73205109 -53.98002625 54.69361877 C-56.3125 56.8125 -56.3125 56.8125 -59.3125 57.8125 C-58.23837492 54.59012476 -57.68023396 54.07058673 -55.125 52.0625 C-51.99984064 49.48695967 -49.41378116 46.76289717 -46.8671875 43.62109375 C-44.80488544 41.22198357 -42.5561955 39.04344054 -40.3125 36.8125 C-39.3232305 35.82390503 -38.33431115 34.83495957 -37.34570312 33.84570312 C-30.32356771 26.82356771 -23.30143229 19.80143229 -16.27929688 12.77929688 C-15.77914062 12.27857666 -15.27898437 11.77785645 -14.76367188 11.26196289 C-13.37185293 9.87178304 -11.97413882 8.48751288 -10.57617188 7.10351562 C-8.21809848 4.77507056 -8.21809848 4.77507056 -5.875 1.9375 C-3.3125 -0.1875 -3.3125 -0.1875 0 0 Z " fill="#C1C1C1" transform="translate(419.3125,110.1875)"/>
<path d="M0 0 C-1.53824946 3.63343559 -3.71855582 5.98907908 -6.47802734 8.78442383 C-6.93031204 9.24503204 -7.38259674 9.70564026 -7.84858704 10.1802063 C-9.33896417 11.69459811 -10.83681808 13.20129608 -12.3359375 14.70703125 C-13.37732427 15.75738606 -14.41863379 16.80781746 -15.45986938 17.85832214 C-17.64010821 20.05502687 -19.82468148 22.24732083 -22.01171875 24.43725586 C-24.81704854 27.24798777 -27.60584001 30.07454498 -30.39098167 32.90526295 C-32.53409372 35.07805993 -34.6883149 37.23957359 -36.84581375 39.39807701 C-37.87937241 40.43584978 -38.90879726 41.47775633 -39.93400192 42.52378273 C-41.36522404 43.98175447 -42.81381788 45.42261224 -44.26318359 46.86254883 C-45.49323624 48.10020744 -45.49323624 48.10020744 -46.74813843 49.36286926 C-49 51 -49 51 -51.29605103 50.7585907 C-51.85835419 50.50825577 -52.42065735 50.25792084 -53 50 C-52.01 50 -51.02 50 -50 50 C-49.76112061 49.43645813 -49.52224121 48.87291626 -49.27612305 48.29229736 C-47.72128723 45.4993488 -45.84127694 43.58694409 -43.58203125 41.32324219 C-42.21050903 39.94226349 -42.21050903 39.94226349 -40.8112793 38.53338623 C-39.81194096 37.53762674 -38.81234162 36.54212913 -37.8125 35.546875 C-36.7885255 34.52155297 -35.76484802 33.49593423 -34.74145508 32.47003174 C-32.5994283 30.32506048 -30.45383556 28.18373869 -28.30566406 26.04492188 C-25.54804154 23.2987223 -22.79953278 20.54360341 -20.05360413 17.78571701 C-17.94346055 15.66836117 -15.82859499 13.55577378 -13.71224976 11.44461823 C-12.69645217 10.4301574 -11.68214533 9.41420165 -10.66934204 8.3967514 C-9.25704713 6.97939876 -7.83768069 5.56910289 -6.41796875 4.15917969 C-5.61125732 3.35405945 -4.8045459 2.54893921 -3.97338867 1.71942139 C-2 0 -2 0 0 0 Z " fill="#2F2F2F" transform="translate(262,229)"/>
<path d="M0 0 C0 3.80952964 -0.89220788 4.27967327 -3.51660156 6.93652344 C-4.6684494 8.11223907 -4.6684494 8.11223907 -5.84356689 9.31170654 C-6.68409607 10.15243713 -7.52462524 10.99316772 -8.390625 11.859375 C-9.24678406 12.72314758 -10.10294312 13.58692017 -10.98504639 14.47686768 C-12.80042959 16.30307124 -14.61982553 18.12529315 -16.44287109 19.94384766 C-19.23854061 22.73854459 -22.0122319 25.55384988 -24.78515625 28.37109375 C-26.54817671 30.13932041 -28.31245817 31.90629087 -30.078125 33.671875 C-30.91055725 34.52070251 -31.7429895 35.36953003 -32.60064697 36.24407959 C-33.38115417 37.01528137 -34.16166138 37.78648315 -34.96582031 38.58105469 C-35.99174286 39.6100589 -35.99174286 39.6100589 -37.03839111 40.65985107 C-39 42 -39 42 -41.25213623 41.71368408 C-41.82893127 41.47816833 -42.40572632 41.24265259 -43 41 C-42.01 41 -41.02 41 -40 41 C-39.65340332 40.16553345 -39.65340332 40.16553345 -39.29980469 39.31420898 C-37.65024536 36.37728696 -35.59101926 34.34931181 -33.203125 31.97265625 C-32.73187195 31.50186142 -32.2606189 31.03106659 -31.77508545 30.54600525 C-30.77885457 29.55278746 -29.78020234 28.56199318 -28.77929688 27.57348633 C-27.26379224 26.0761271 -25.75633308 24.57103266 -24.25 23.06445312 C-19.6510765 18.48877516 -15.0021165 14.1291219 -10 10 C-8.31288577 8.3540349 -6.6454378 6.68762851 -5 5 C-3.33333333 3.33333333 -1.66666667 1.66666667 0 0 Z " fill="#323232" transform="translate(386,109)"/>
<path d="M0 0 C0.33 0.66 0.66 1.32 1 2 C1.66 2 2.32 2 3 2 C5.59677255 7.80804852 5.02408363 13.18920378 4.625 19.375 C4.56828125 20.39722656 4.5115625 21.41945313 4.453125 22.47265625 C4.31238311 24.98255335 4.16104835 27.49133774 4 30 C2.68 30 1.36 30 0 30 C0 20.1 0 10.2 0 0 Z " fill="#060607" transform="translate(868,323)"/>
<path d="M0 0 C1.258125 -0.04125 2.51625 -0.0825 3.8125 -0.125 C4.52019531 -0.14820313 5.22789062 -0.17140625 5.95703125 -0.1953125 C8 0 8 0 11 2 C11.25 5.5625 11.25 5.5625 11 9 C10 10 10 10 7.96875 10.1328125 C7.1540625 10.13023437 6.339375 10.12765625 5.5 10.125 C4.6853125 10.12757813 3.870625 10.13015625 3.03125 10.1328125 C1 10 1 10 0 9 C-0.07179964 7.48071962 -0.08392007 5.95832518 -0.0625 4.4375 C-0.05347656 3.61121094 -0.04445313 2.78492188 -0.03515625 1.93359375 C-0.02355469 1.29550781 -0.01195312 0.65742188 0 0 Z " fill="#D4D4D4" transform="translate(671,274)"/>
<path d="M0 0 C3.625 0.1875 3.625 0.1875 6.625 2.1875 C6.875 5.75 6.875 5.75 6.625 9.1875 C5.625 10.1875 5.625 10.1875 3.59375 10.3203125 C2.7790625 10.31773437 1.964375 10.31515625 1.125 10.3125 C0.3103125 10.31507813 -0.504375 10.31765625 -1.34375 10.3203125 C-3.375 10.1875 -3.375 10.1875 -4.375 9.1875 C-4.5078125 7.375 -4.5078125 7.375 -4.5 5.1875 C-4.50257813 4.465625 -4.50515625 3.74375 -4.5078125 3 C-4.26658206 -0.29208598 -3.39285961 0.1884922 0 0 Z " fill="#D7D7D7" transform="translate(551.375,273.8125)"/>
<path d="M0 0 C3.5625 0.1875 3.5625 0.1875 5.5625 2.1875 C5.8125 5.1875 5.8125 5.1875 5.5625 8.1875 C3.5625 10.1875 3.5625 10.1875 1.6171875 10.3828125 C-0.40104167 10.31770833 -2.41927083 10.25260417 -4.4375 10.1875 C-4.46439216 8.70843108 -4.48384621 7.22922517 -4.5 5.75 C-4.51160156 4.92628906 -4.52320313 4.10257812 -4.53515625 3.25390625 C-4.36839634 -0.27473335 -3.65003385 0.19909276 0 0 Z " fill="#F9F9F9" transform="translate(894.4375,273.8125)"/>
<path d="M0 0 C0.33 0 0.66 0 1 0 C0.93941406 0.95132813 0.87882813 1.90265625 0.81640625 2.8828125 C-0.0968531 17.91024711 -0.53714201 32.95339469 -1 48 C-1.66 48 -2.32 48 -3 48 C-3.07515721 43.25353305 -3.12906792 38.50742586 -3.16479492 33.76049805 C-3.17971634 32.15171257 -3.20006091 30.54296656 -3.22631836 28.93432617 C-3.3873929 18.79926361 -2.89317567 9.79722134 0 0 Z " fill="#565656" transform="translate(181,163)"/>
<path d="M0 0 C1.98 0 3.96 0 6 0 C6 10.89 6 21.78 6 33 C3.69 33 1.38 33 -1 33 C-1 32.67 -1 32.34 -1 32 C0.98 32 2.96 32 5 32 C5 22.1 5 12.2 5 2 C3.68 2 2.36 2 1 2 C1 8.27 1 14.54 1 21 C0.01 20.67 -0.98 20.34 -2 20 C-1.86177801 16.85378318 -1.71314916 13.70814434 -1.5625 10.5625 C-1.52318359 9.66466797 -1.48386719 8.76683594 -1.44335938 7.84179688 C-1.40146484 6.98779297 -1.35957031 6.13378906 -1.31640625 5.25390625 C-1.27974854 4.46314697 -1.24309082 3.6723877 -1.20532227 2.85766602 C-1 1 -1 1 0 0 Z " fill="#515151" transform="translate(802,321)"/>
<path d="M0 0 C4.47915328 -0.02886338 8.95828291 -0.04675187 13.4375 -0.0625 C14.71689453 -0.07087891 15.99628906 -0.07925781 17.31445312 -0.08789062 C19.13686523 -0.09272461 19.13686523 -0.09272461 20.99609375 -0.09765625 C22.12200928 -0.10289307 23.2479248 -0.10812988 24.40795898 -0.11352539 C27 0 27 0 28 1 C28 2.65 28 4.3 28 6 C24.7 6 21.4 6 18 6 C18 5.67 18 5.34 18 5 C20.97 5 23.94 5 27 5 C27 4.01 27 3.02 27 2 C18.75 2 10.5 2 2 2 C2 2.99 2 3.98 2 5 C4.97 5 7.94 5 11 5 C11 5.33 11 5.66 11 6 C7.37 6 3.74 6 0 6 C0 4.02 0 2.04 0 0 Z " fill="#4D4D4D" transform="translate(691,321)"/>
<path d="M0 0 C0.99 0 1.98 0 3 0 C3 0.66 3 1.32 3 2 C3.66 2 4.32 2 5 2 C5 2.66 5 3.32 5 4 C6.0725 3.979375 7.145 3.95875 8.25 3.9375 C11.14790424 3.9857984 13.28612141 4.13155885 16 5 C15.67 5.99 15.34 6.98 15 8 C12.91731407 8.08126087 10.83371342 8.13930839 8.75 8.1875 C7.58984375 8.22230469 6.4296875 8.25710938 5.234375 8.29296875 C1.77731593 7.97982934 0.48434437 7.34290892 -2 5 C-1.34 3.35 -0.68 1.7 0 0 Z " fill="#090909" transform="translate(697,294)"/>
<path d="M0 0 C2.84614024 2.84614024 2.45579076 5.80369142 2.625 9.625 C2.66367187 10.33140625 2.70234375 11.0378125 2.7421875 11.765625 C2.83647724 13.50998524 2.91932891 15.25495691 3 17 C1.35 17 -0.3 17 -2 17 C-2.05383848 14.54137599 -2.09359038 12.0839245 -2.125 9.625 C-2.14175781 8.92632812 -2.15851562 8.22765625 -2.17578125 7.5078125 C-2.19344267 5.67102514 -2.10303261 3.83398037 -2 2 C-1.34 1.34 -0.68 0.68 0 0 Z " fill="#070707" transform="translate(871,283)"/>
<path d="M0 0 C0.77085937 -0.01417969 1.54171875 -0.02835937 2.3359375 -0.04296875 C4.84334888 0.20948393 6.45761902 0.93556533 8.625 2.1875 C8.295 3.5075 7.965 4.8275 7.625 6.1875 C5.95888095 6.230221 4.29117115 6.22813832 2.625 6.1875 C2.295 5.8575 1.965 5.5275 1.625 5.1875 C-0.70317964 4.81989269 -3.0368385 4.48508419 -5.375 4.1875 C-5.705 3.1975 -6.035 2.2075 -6.375 1.1875 C-4.04904054 0.02452027 -2.58776769 0.02149309 0 0 Z " fill="#101010" transform="translate(785.375,268.8125)"/>
<path d="M0 0 C0.99 0.33 1.98 0.66 3 1 C3 7.6 3 14.2 3 21 C2.01 21 1.02 21 0 21 C0 14.07 0 7.14 0 0 Z " fill="#040404" transform="translate(781,331)"/>
<path d="M0 0 C0.33 0 0.66 0 1 0 C1.33725065 3.04127817 1.66992332 6.08294191 2 9.125 C2.09539063 9.9809375 2.19078125 10.836875 2.2890625 11.71875 C2.76845209 16.17022474 3.11765458 20.51441925 3 25 C0.36 25 -2.28 25 -5 25 C-5 21.37 -5 17.74 -5 14 C-4.67 14 -4.34 14 -4 14 C-4 16.97 -4 19.94 -4 23 C-2.35 23 -0.7 23 1 23 C0.83628906 22.19304687 0.67257812 21.38609375 0.50390625 20.5546875 C-0.08897993 16.37231212 -0.10894252 12.34055182 -0.0625 8.125 C-0.05798828 7.34125 -0.05347656 6.5575 -0.04882812 5.75 C-0.03714093 3.83329986 -0.01920908 1.91663952 0 0 Z " fill="#676767" transform="translate(873,277)"/>
<path d="M0 0 C0.33 0 0.66 0 1 0 C1 1.65 1 3.3 1 5 C-2.54950034 6.16306443 -5.55823948 5.92365049 -9.25 5.5625 C-10.32765625 5.46066406 -11.4053125 5.35882813 -12.515625 5.25390625 C-13.33546875 5.17011719 -14.1553125 5.08632813 -15 5 C-15.28875 5.598125 -15.5775 6.19625 -15.875 6.8125 C-17 9 -17 9 -19 12 C-19.39013716 13.9896995 -19.73202649 15.99019869 -20 18 C-20.33 18 -20.66 18 -21 18 C-21.66964286 10.23214286 -21.66964286 10.23214286 -18.625 6.5625 C-14.94072115 2.96594208 -13.15936053 2.84252065 -8.04296875 2.8984375 C-5.62434131 3.01867519 -3.34781119 3.4130472 -1 4 C-0.67 2.68 -0.34 1.36 0 0 Z " fill="#A1A1A1" transform="translate(930,323)"/>
<path d="M0 0 C0.66 0.33 1.32 0.66 2 1 C-4.27 7.27 -10.54 13.54 -17 20 C-17.66 19.67 -18.32 19.34 -19 19 C-13.30628533 12.54790121 -7.63191855 6.50639713 -1 1 C-0.67 0.67 -0.34 0.34 0 0 Z " fill="#393939" transform="translate(229,88)"/>
<path d="M0 0 C0.33 0 0.66 0 1 0 C1 1.65 1 3.3 1 5 C1.804375 4.979375 2.60875 4.95875 3.4375 4.9375 C6 5 6 5 7 6 C7.1875 8.4375 7.1875 8.4375 7 11 C4.40664095 13.59335905 2.51252968 13.27726563 -1.02734375 13.36328125 C-3 13 -3 13 -6 10 C-2.37 10.33 1.26 10.66 5 11 C5 9.68 5 8.36 5 7 C3.35 7 1.7 7 0 7 C0 4.69 0 2.38 0 0 Z " fill="#AEAEAE" transform="translate(919,336)"/>
<path d="M0 0 C1 2 1 2 1.33984375 3.859375 C2.19191204 6.62229465 3.61698441 8.12761936 5.5625 10.25 C6.20316406 10.95640625 6.84382812 11.6628125 7.50390625 12.390625 C7.99761719 12.92171875 8.49132812 13.4528125 9 14 C8.67 14.66 8.34 15.32 8 16 C7.01 16 6.02 16 5 16 C3.140625 13.98828125 3.140625 13.98828125 1.25 11.3125 C0.61578125 10.44238281 -0.0184375 9.57226562 -0.671875 8.67578125 C-2 6 -2 6 -1.765625 3.23046875 C-1 1 -1 1 0 0 Z " fill="#373737" transform="translate(833,334)"/>
<path d="M0 0 C0.33 0 0.66 0 1 0 C1.02684312 2.81256281 1.04676188 5.62487241 1.0625 8.4375 C1.07087891 9.23994141 1.07925781 10.04238281 1.08789062 10.86914062 C1.0965143 12.91295221 1.0522815 14.95683902 1 17 C0 18 0 18 -3.0625 18.0625 C-4.031875 18.041875 -5.00125 18.02125 -6 18 C-6 15.03 -6 12.06 -6 9 C-5.67 9 -5.34 9 -5 9 C-5 11.31 -5 13.62 -5 16 C-3.68 16 -2.36 16 -1 16 C-1.01160156 15.43152344 -1.02320313 14.86304688 -1.03515625 14.27734375 C-1.09223194 9.39329516 -0.81956772 4.81496035 0 0 Z " fill="#403F40" transform="translate(845,284)"/>
<path d="M0 0 C0.66 0 1.32 0 2 0 C2 6.6 2 13.2 2 20 C1.34 20 0.68 20 0 20 C-0.66 18.68 -1.32 17.36 -2 16 C-1.34 16 -0.68 16 0 16 C0 10.72 0 5.44 0 0 Z " fill="#C2C2C2" transform="translate(1041,269)"/>
<path d="M0 0 C1.32 0 2.64 0 4 0 C4.25033647 5.50740242 4.25033647 5.50740242 3.03125 7.90625 C1.86873111 10.26651562 1.60533391 12.13954899 1.375 14.75 C1.30023437 15.54921875 1.22546875 16.3484375 1.1484375 17.171875 C1.09945312 17.77515625 1.05046875 18.3784375 1 19 C0.67 19 0.34 19 0 19 C0 12.73 0 6.46 0 0 Z " fill="#0C0B0B" transform="translate(889,322)"/>
<path d="M0 0 C0.33 0 0.66 0 1 0 C1.24915939 1.76813112 1.47366632 3.53974982 1.6875 5.3125 C1.81511719 6.29863281 1.94273437 7.28476562 2.07421875 8.30078125 C2 11 2 11 0.51953125 12.85546875 C0.01808594 13.23316406 -0.48335937 13.61085938 -1 14 C-1.28875 13.38125 -1.5775 12.7625 -1.875 12.125 C-2.93720042 9.86674235 -2.93720042 9.86674235 -5 8 C-4.34 7.67 -3.68 7.34 -3 7 C-1.94647157 4.69034152 -0.94280904 2.3570226 0 0 Z " fill="#272727" transform="translate(861,276)"/>
<path d="M0 0 C0.33 0.66 0.66 1.32 1 2 C3.12576782 2.46651207 3.12576782 2.46651207 5.5625 2.625 C6.38878906 2.69976562 7.21507812 2.77453125 8.06640625 2.8515625 C8.70449219 2.90054687 9.34257813 2.94953125 10 3 C10 3.33 10 3.66 10 4 C8.95199219 4.09087891 8.95199219 4.09087891 7.8828125 4.18359375 C6.97273437 4.26738281 6.06265625 4.35117187 5.125 4.4375 C4.22007812 4.51871094 3.31515625 4.59992188 2.3828125 4.68359375 C-0.01110861 4.86989285 -0.01110861 4.86989285 -2 6 C-2.33 5.01 -2.66 4.02 -3 3 C-3.99 3.495 -3.99 3.495 -5 4 C-5.33 4.99 -5.66 5.98 -6 7 C-8.0625 7.6875 -8.0625 7.6875 -10 8 C-7.80926025 2.88827391 -5.76796198 0 0 0 Z " fill="#2B2B2A" transform="translate(924,270)"/>
<path d="M0 0 C0.98484375 0.00902344 1.9696875 0.01804687 2.984375 0.02734375 C4.10585938 0.04474609 4.10585938 0.04474609 5.25 0.0625 C5.25 1.0525 5.25 2.0425 5.25 3.0625 C0.3 3.0625 -4.65 3.0625 -9.75 3.0625 C-9.75 2.4025 -9.75 1.7425 -9.75 1.0625 C-6.43929162 0.06140485 -3.44915231 -0.04106134 0 0 Z " fill="#030303" transform="translate(1007.75,269.9375)"/>
<path d="M0 0 C3.02203748 3.32319242 3.37581809 5.56841757 3.36328125 10.0078125 C3.36263672 11.15894531 3.36199219 12.31007813 3.36132812 13.49609375 C3.34521484 14.69363281 3.32910156 15.89117187 3.3125 17.125 C3.31572266 18.33027344 3.31894531 19.53554687 3.32226562 20.77734375 C3.2669837 29.7330163 3.2669837 29.7330163 1 32 C1.00523682 31.2793335 1.01047363 30.55866699 1.01586914 29.81616211 C1.03676875 26.52328375 1.04970131 23.23041941 1.0625 19.9375 C1.07087891 18.80376953 1.07925781 17.67003906 1.08789062 16.50195312 C1.10424847 10.89121133 1.01812097 5.52350669 0 0 Z " fill="#555454" transform="translate(720,97)"/>
<path d="M0 0 C0.66 0.33 1.32 0.66 2 1 C-0.4293086 3.48730862 -2.86977494 5.96337167 -5.3125 8.4375 C-6.34793945 9.49807617 -6.34793945 9.49807617 -7.40429688 10.58007812 C-8.07138672 11.25361328 -8.73847656 11.92714844 -9.42578125 12.62109375 C-10.03848877 13.2442749 -10.65119629 13.86745605 -11.2824707 14.50952148 C-13 16 -13 16 -16 17 C-14.92587492 13.77762476 -14.36773396 13.25808673 -11.8125 11.25 C-8.55454118 8.57525603 -5.90243206 5.69534719 -3.26171875 2.41796875 C-2 1 -2 1 0 0 Z " fill="#CBCBCB" transform="translate(376,151)"/>
<path d="M0 0 C1.134375 0.020625 2.26875 0.04125 3.4375 0.0625 C3.7675 0.7225 4.0975 1.3825 4.4375 2.0625 C2.1275 2.0625 -0.1825 2.0625 -2.5625 2.0625 C-2.5625 4.3725 -2.5625 6.6825 -2.5625 9.0625 C-0.5825 9.0625 1.3975 9.0625 3.4375 9.0625 C3.4375 9.3925 3.4375 9.7225 3.4375 10.0625 C0.7975 10.0625 -1.8425 10.0625 -4.5625 10.0625 C-4.58939216 8.58343108 -4.60884621 7.10422517 -4.625 5.625 C-4.63660156 4.80128906 -4.64820313 3.97757812 -4.66015625 3.12890625 C-4.49001835 -0.47121162 -3.73687179 0.06555915 0 0 Z " fill="#C5C5C5" transform="translate(894.5625,273.9375)"/>
<path d="M0 0 C1.32 0 2.64 0 4 0 C4.10836453 1.43583001 4.18576167 2.8740202 4.25 4.3125 C4.29640625 5.11300781 4.3428125 5.91351563 4.390625 6.73828125 C4 9 4 9 0 12 C0 8.04 0 4.08 0 0 Z " fill="#060607" transform="translate(978,270)"/>
<path d="M0 0 C-1.46966358 3.39859703 -3.38037514 5.64963709 -6 8.25 C-6.70125 8.95640625 -7.4025 9.6628125 -8.125 10.390625 C-10 12 -10 12 -12 12 C-10.53033642 8.60140297 -8.61962486 6.35036291 -6 3.75 C-5.29875 3.04359375 -4.5975 2.3371875 -3.875 1.609375 C-2 0 -2 0 0 0 Z " fill="#2E2E2E" transform="translate(281,151)"/>
<path d="M0 0 C0.66 0 1.32 0 2 0 C3.1482685 2.296537 3.11561175 3.58313167 3.09765625 6.1328125 C3.09282227 7.34130859 3.09282227 7.34130859 3.08789062 8.57421875 C3.07951172 9.41597656 3.07113281 10.25773437 3.0625 11.125 C3.05798828 11.97449219 3.05347656 12.82398438 3.04882812 13.69921875 C3.03702874 15.79950909 3.01909306 17.8997633 3 20 C2.67 20 2.34 20 2 20 C1.67 14.39 1.34 8.78 1 3 C0.34 3 -0.32 3 -1 3 C-0.67 2.01 -0.34 1.02 0 0 Z " fill="#BCBBBC" transform="translate(865,281)"/>
<path d="M0 0 C1.65 0.33 3.3 0.66 5 1 C4.67 2.65 4.34 4.3 4 6 C0.37 5.34 -3.26 4.68 -7 4 C-7 3.67 -7 3.34 -7 3 C-5.5459375 2.814375 -5.5459375 2.814375 -4.0625 2.625 C-2.5465625 2.315625 -2.5465625 2.315625 -1 2 C-0.67 1.34 -0.34 0.68 0 0 Z " fill="#262626" transform="translate(712,269)"/>
<path d="M0 0 C0.99 0.33 1.98 0.66 3 1 C2.34 1 1.68 1 1 1 C1 2.65 1 4.3 1 6 C7.93 6.495 7.93 6.495 15 7 C15 7.33 15 7.66 15 8 C12.91731407 8.08126087 10.83371342 8.13930839 8.75 8.1875 C7.58984375 8.22230469 6.4296875 8.25710938 5.234375 8.29296875 C1.77731593 7.97982934 0.48434437 7.34290892 -2 5 C-1.34 3.35 -0.68 1.7 0 0 Z " fill="#535354" transform="translate(697,294)"/>
<path d="M0 0 C-3.08566284 2.05710856 -5.36985312 2.78346093 -8.9375 3.6875 C-9.97777344 3.95949219 -11.01804687 4.23148437 -12.08984375 4.51171875 C-14.8705956 4.97828785 -16.38480882 4.93894816 -19 4 C-16.79645201 3.265484 -14.59268289 2.53192843 -12.38671875 1.8046875 C-10.47312397 1.15951479 -8.57688108 0.46297399 -6.6875 -0.25 C-3.92509575 -1.02090351 -2.64060319 -1.01561661 0 0 Z " fill="#A2A2A2" transform="translate(362,323)"/>
<path d="M0 0 C0 0.33 0 0.66 0 1 C-0.94101563 1.03738281 -1.88203125 1.07476562 -2.8515625 1.11328125 C-4.71941406 1.21189453 -4.71941406 1.21189453 -6.625 1.3125 C-8.46964844 1.39951172 -8.46964844 1.39951172 -10.3515625 1.48828125 C-14.04332272 1.80850526 -14.04332272 1.80850526 -17.2109375 3.60546875 C-20 5 -20 5 -22.375 4.6875 C-22.91125 4.460625 -23.4475 4.23375 -24 4 C-16.23702211 -0.71248522 -8.79851917 -0.41732107 0 0 Z " fill="#606060" transform="translate(199,275)"/>
<path d="M0 0 C-1.47721422 3.45201639 -3.43794001 5.64961936 -6.125 8.25 C-6.84945312 8.95640625 -7.57390625 9.6628125 -8.3203125 10.390625 C-8.87460937 10.92171875 -9.42890625 11.4528125 -10 12 C-10 8.07290865 -8.72099538 7.1810287 -6.125 4.3125 C-5.04605469 3.10013672 -5.04605469 3.10013672 -3.9453125 1.86328125 C-2 0 -2 0 0 0 Z " fill="#BEBEBE" transform="translate(798,103)"/>
<path d="M0 0 C1.98 0.99 1.98 0.99 4 2 C3.67 2.66 3.34 3.32 3 4 C2.34 3.67 1.68 3.34 1 3 C1 8.94 1 14.88 1 21 C0.67 21 0.34 21 0 21 C0 14.07 0 7.14 0 0 Z " fill="#C1C1C2" transform="translate(1027,281)"/>
<path d="M0 0 C3.63 0 7.26 0 11 0 C11 0.33 11 0.66 11 1 C7.7 1 4.4 1 1 1 C2.65 1.33 4.3 1.66 6 2 C5.67 2.99 5.34 3.98 5 5 C3.35 5 1.7 5 0 5 C0 3.35 0 1.7 0 0 Z " fill="#191A19" transform="translate(920,336)"/>
<path d="M0 0 C0.66 0.33 1.32 0.66 2 1 C-1.3 4.3 -4.6 7.6 -8 11 C-8.66 10.67 -9.32 10.34 -10 10 C-6.92118304 6.12948725 -3.99926986 2.97088618 0 0 Z " fill="#373737" transform="translate(772,79)"/>
<path d="M0 0 C0.33 0 0.66 0 1 0 C1.31899351 15.31168831 1.31899351 15.31168831 -1.5625 19 C-2.036875 19.33 -2.51125 19.66 -3 20 C-2.85691406 19.16210938 -2.71382813 18.32421875 -2.56640625 17.4609375 C-1.97619612 13.8545501 -1.44952065 10.24327924 -0.9375 6.625 C-0.76089844 5.37976563 -0.58429688 4.13453125 -0.40234375 2.8515625 C-0.26957031 1.91054687 -0.13679688 0.96953125 0 0 Z " fill="#4A4A4A" transform="translate(478,217)"/>
<path d="M0 0 C2.64 0 5.28 0 8 0 C7.34 1.32 6.68 2.64 6 4 C5.236875 3.814375 4.47375 3.62875 3.6875 3.4375 C0.91032625 2.77180827 0.91032625 2.77180827 -2 4 C-1.34 2.68 -0.68 1.36 0 0 Z " fill="#484848" transform="translate(836,321)"/>
<path d="M0 0 C2.31 0 4.62 0 7 0 C7 0.99 7 1.98 7 3 C5.35 2.67 3.7 2.34 2 2 C2.33 4.31 2.66 6.62 3 9 C0.87491756 5.81237635 0.4979837 3.73487777 0 0 Z " fill="#7C7C7C" transform="translate(598,268)"/>
<path d="M0 0 C0 3 0 3 -1.75 5.04296875 C-2.4925 5.75066406 -3.235 6.45835938 -4 7.1875 C-4.7425 7.90292969 -5.485 8.61835937 -6.25 9.35546875 C-7.11625 10.16951172 -7.11625 10.16951172 -8 11 C-8.66 10.67 -9.32 10.34 -10 10 C-6.66666667 6.66666667 -3.33333333 3.33333333 0 0 Z " fill="#2C2C2C" transform="translate(386,109)"/>
<path d="M0 0 C0.99 0.33 1.98 0.66 3 1 C2.0409375 2.051875 2.0409375 2.051875 1.0625 3.125 C-1.16386102 6.22841233 -1.65080943 8.24620139 -2 12 C-2.33 12 -2.66 12 -3 12 C-3.36923077 4.61538462 -3.36923077 4.61538462 -1.5 1.5 C-1.005 1.005 -0.51 0.51 0 0 Z " fill="#BABABA" transform="translate(912,329)"/>
<path d="M0 0 C1.65 0.33 3.3 0.66 5 1 C2.11912454 3.40072955 -0.56404834 5.47291037 -4 7 C-2.79618552 4.50638429 -1.54571278 2.31856917 0 0 Z " fill="#484848" transform="translate(269,298)"/>
<path d="M0 0 C4.30840713 1.07710178 7.63576723 2.03947516 11 5 C9.68 5.33 8.36 5.66 7 6 C6.67 5.01 6.34 4.02 6 3 C5.195625 2.87625 4.39125 2.7525 3.5625 2.625 C2.716875 2.41875 1.87125 2.2125 1 2 C0.67 1.34 0.34 0.68 0 0 Z " fill="#494949" transform="translate(704,280)"/>
<path d="M0 0 C0.66 0 1.32 0 2 0 C0.55746343 3.36591866 -1.33264727 5.51047079 -4 8 C-4.66 7.67 -5.32 7.34 -6 7 C-5.04882866 5.8274869 -4.08882991 4.66212985 -3.125 3.5 C-2.59132812 2.8503125 -2.05765625 2.200625 -1.5078125 1.53125 C-0.76144531 0.77328125 -0.76144531 0.77328125 0 0 Z " fill="#C0C0C0" transform="translate(235,111)"/>
<path d="M0 0 C0.33 0 0.66 0 1 0 C1.25 2.3125 1.25 2.3125 1 5 C-0.5625 6.875 -0.5625 6.875 -3 8 C-6.75 7.6875 -6.75 7.6875 -10 7 C-10 6.67 -10 6.34 -10 6 C-7.03 5.34 -4.06 4.68 -1 4 C-0.67 2.68 -0.34 1.36 0 0 Z " fill="#232323" transform="translate(712,291)"/>
<path d="M0 0 C0.33 0.99 0.66 1.98 1 3 C-0.98 4.98 -2.96 6.96 -5 9 C-5.66 8.67 -6.32 8.34 -7 8 C-4.69 5.36 -2.38 2.72 0 0 Z " fill="#C7C7C7" transform="translate(417,282)"/>
<path d="M0 0 C0.66 0.33 1.32 0.66 2 1 C1.2884375 1.6496875 1.2884375 1.6496875 0.5625 2.3125 C-1.23686957 4.02309613 -1.23686957 4.02309613 -2 7 C-4.0625 7.6875 -4.0625 7.6875 -6 8 C-4.55746343 4.63408134 -2.66735273 2.48952921 0 0 Z " fill="#353535" transform="translate(920,270)"/>
<path d="M0 0 C0.33 0.66 0.66 1.32 1 2 C-1.47812494 5.45167403 -2.79606135 7.23163306 -7 8 C-6.02133662 6.85373678 -5.04205413 5.70800212 -4.0625 4.5625 C-3.51722656 3.92441406 -2.97195312 3.28632812 -2.41015625 2.62890625 C-1.63204305 1.73008851 -0.84063472 0.84063472 0 0 Z " fill="#A9A9A9" transform="translate(198,74)"/>
<path d="M0 0 C2.31 0 4.62 0 7 0 C6.67 1.32 6.34 2.64 6 4 C6 3.01 6 2.02 6 1 C4.8553125 1.4640625 4.8553125 1.4640625 3.6875 1.9375 C1.81210323 2.67893593 -0.08684652 3.36228217 -2 4 C-1.34 2.68 -0.68 1.36 0 0 Z " fill="#484849" transform="translate(866,269)"/>
<path d="M0 0 C1 2 1 2 0.25 4.9375 C-0.92931463 7.82682085 -1.78177928 8.95850565 -4 11 C-3.5247412 9.35303396 -3.04468109 7.70745272 -2.5625 6.0625 C-2.29566406 5.14597656 -2.02882812 4.22945313 -1.75390625 3.28515625 C-1 1 -1 1 0 0 Z " fill="#666666" transform="translate(139,116)"/>
</svg>
