<?xml version="1.0" encoding="UTF-8"?>
<svg version="1.1" xmlns="http://www.w3.org/2000/svg" width="400" height="500">
<path d="M0 0 C132 0 264 0 400 0 C400 165 400 330 400 500 C268 500 136 500 0 500 C0 335 0 170 0 0 Z " fill="#FCFCFC" transform="translate(0,0)"/>
<path d="M0 0 C6.61119713 2.75217256 9.84173694 8.43347388 12.9375 14.625 C13.89848031 24.92816861 13.57416762 33.13996223 6.9375 41.625 C2.60861834 46.32411496 -1.70387241 49.34234322 -8.21875 49.890625 C-9.3221875 49.88546875 -10.425625 49.8803125 -11.5625 49.875 C-12.6659375 49.88015625 -13.769375 49.8853125 -14.90625 49.890625 C-18.0625 49.625 -18.0625 49.625 -20.65625 48.546875 C-23.67551697 47.39014285 -25.04112911 47.50222581 -28.0625 48.625 C-30.30385339 50.67255444 -30.30385339 50.67255444 -32.25 53.1875 C-33.48283201 54.69848531 -34.74594367 56.18637885 -36.0625 57.625 C-36.7225 57.625 -37.3825 57.625 -38.0625 57.625 C-38.0625 58.285 -38.0625 58.945 -38.0625 59.625 C-38.7225 59.625 -39.3825 59.625 -40.0625 59.625 C-40.0625 60.285 -40.0625 60.945 -40.0625 61.625 C-41.77734375 63.28125 -41.77734375 63.28125 -44 65.125 C-46.98295179 67.51426999 -46.98295179 67.51426999 -49.0625 70.625 C-49.7225 70.625 -50.3825 70.625 -51.0625 70.625 C-51.0625 71.285 -51.0625 71.945 -51.0625 72.625 C-51.7225 72.625 -52.3825 72.625 -53.0625 72.625 C-53.0625 73.285 -53.0625 73.945 -53.0625 74.625 C-53.7225 74.625 -54.3825 74.625 -55.0625 74.625 C-55.0625 75.285 -55.0625 75.945 -55.0625 76.625 C-56.671875 78.2109375 -56.671875 78.2109375 -58.8125 80 C-61.6868732 82.44117866 -64.44793992 84.90149992 -67.0625 87.625 C-66.00221927 90.88740223 -64.90643516 93.95513715 -63.4375 97.0625 C-60.10095247 105.99418108 -61.13976023 116.56155196 -64.80859375 125.203125 C-70.2829701 135.77668681 -78.95604546 143.86759973 -90.26171875 147.7734375 C-99.5629021 149.85736142 -110.31797221 150.66215833 -118.9375 146.0625 C-119.63617188 145.58683594 -120.33484375 145.11117187 -121.0546875 144.62109375 C-123.81070321 143.25380969 -125.1541272 143.73672512 -128.0625 144.625 C-129.89171283 146.20631169 -129.89171283 146.20631169 -131.40844727 148.25439453 C-134.82953188 152.40703074 -138.54270035 155.95257162 -142.52734375 159.5546875 C-144.63534497 161.52559453 -146.7354193 163.50472085 -148.83520508 165.484375 C-150.2762726 166.82614262 -151.73213681 168.15219503 -153.20239258 169.46191406 C-162.60182383 177.37541045 -162.60182383 177.37541045 -166.85986328 188.36425781 C-166.90017319 191.4583425 -166.60134152 194.40999452 -166.20141602 197.47314453 C-165.69421869 202.27279161 -167.4931138 205.66241358 -170.0625 209.625 C-175.23655068 215.76646772 -181.23964537 219.14089916 -189.17578125 219.9375 C-195.97657057 220.18850952 -201.58811028 219.9202904 -207.0625 215.625 C-212.69803493 210.37655232 -216.68622014 205.10856001 -217.33984375 197.3203125 C-217.5700247 188.61026522 -216.84198374 183.56260196 -211.8125 176.4375 C-207.22589554 171.74665453 -202.20818337 168.90573132 -195.58203125 168.45703125 C-194.68871094 168.45058594 -193.79539062 168.44414062 -192.875 168.4375 C-191.99457031 168.42332031 -191.11414063 168.40914062 -190.20703125 168.39453125 C-187.0625 168.625 -187.0625 168.625 -185.11872864 169.37065125 C-182.61671273 170.26916798 -180.7298427 170.68941159 -178.0625 170.625 C-174.32111875 168.53050476 -171.5684199 165.578117 -168.6171875 162.5 C-167.33426315 161.21863159 -167.33426315 161.21863159 -166.02542114 159.91137695 C-164.22570095 158.10162409 -162.43946667 156.27837364 -160.66601562 154.44287109 C-157.94346347 151.63115877 -155.17593872 148.87061287 -152.3984375 146.11328125 C-150.65598377 144.34918474 -148.91630119 142.58234586 -147.1796875 140.8125 C-146.34968231 139.98411621 -145.51967712 139.15573242 -144.66452026 138.30224609 C-143.91268463 137.51543457 -143.160849 136.72862305 -142.38623047 135.91796875 C-141.71832489 135.2324292 -141.05041931 134.54688965 -140.36227417 133.84057617 C-138.76329222 131.59877299 -138.76329222 131.59877299 -139.30860901 128.48318481 C-139.93037351 126.12592378 -140.61303621 124.02498608 -141.59765625 121.8046875 C-143.30923447 117.41361844 -143.56366934 113.42994751 -143.5 108.75 C-143.49170166 107.95988525 -143.48340332 107.16977051 -143.47485352 106.35571289 C-143.14254263 94.85018767 -138.24955383 87.04067475 -130.37109375 78.87109375 C-126.1006145 74.91768025 -121.44792386 72.71827429 -116.0625 70.625 C-115.27875 70.26792969 -114.495 69.91085938 -113.6875 69.54296875 C-102.29714082 65.55973303 -90.68517254 70.16409477 -80.12164307 74.40400696 C-77.96020404 74.85299477 -77.96020404 74.85299477 -76.06292725 73.3478241 C-75.01035736 72.36003716 -75.01035736 72.36003716 -73.93652344 71.35229492 C-73.13599548 70.60948776 -72.33546753 69.8666806 -71.51068115 69.10136414 C-70.65637512 68.27771866 -69.80206909 67.45407318 -68.921875 66.60546875 C-68.03969299 65.75890213 -67.15751099 64.91233551 -66.24859619 64.04011536 C-64.38204637 62.2340638 -62.52300835 60.42022199 -60.67089844 58.59936523 C-57.84796071 55.84707328 -54.97002177 53.16254624 -52.0859375 50.47460938 C-41.09282439 40.54504426 -41.09282439 40.54504426 -36.81292725 27.01631165 C-36.94287411 24.76611552 -37.20080542 22.59760143 -37.55737305 20.37304688 C-38.20421343 15.57348497 -37.21921153 12.75489731 -34.765625 8.6796875 C-25.68198926 -2.27901066 -13.25933847 -3.93348063 0 0 Z " fill="#030303" transform="translate(303.0625,53.375)"/>
<path d="M0 0 C-0.62393651 3.76119476 -2.34773715 6.18960042 -4.5625 9.25 C-5.20316406 10.14203125 -5.84382812 11.0340625 -6.50390625 11.953125 C-6.99761719 12.62859375 -7.49132812 13.3040625 -8 14 C-10.74879901 13.3862089 -13.13039758 12.55988011 -15.66015625 11.328125 C-23.64386879 7.54655933 -31.49841467 4.29208147 -40.0625 2.0625 C-40.82248291 1.86366211 -41.58246582 1.66482422 -42.36547852 1.45996094 C-70.69019621 -5.51666208 -101.8848736 -0.36363146 -127 14 C-127.5976416 14.34015137 -128.1952832 14.68030273 -128.81103516 15.03076172 C-154.10576444 29.71104988 -173.99304679 53.02287849 -183 81 C-183.24266602 81.73379883 -183.48533203 82.46759766 -183.73535156 83.22363281 C-187.75872519 95.96166552 -188.45530399 108.43814064 -188.4375 121.6875 C-188.43783234 122.852173 -188.43783234 122.852173 -188.43817139 124.04037476 C-188.40480585 135.01168713 -187.90550987 145.61956587 -184 156 C-183.57460937 157.16917969 -183.14921875 158.33835938 -182.7109375 159.54296875 C-181.81717072 161.98122726 -180.92132227 164.41872368 -180.0234375 166.85546875 C-179 170 -179 170 -179 173 C-180.8984375 174.60546875 -180.8984375 174.60546875 -183.375 176.1875 C-184.18710938 176.71730469 -184.99921875 177.24710938 -185.8359375 177.79296875 C-188 179 -188 179 -190 179 C-190 179.66 -190 180.32 -190 181 C-191.875 180.73046875 -191.875 180.73046875 -194 180 C-208.36986924 159.89216214 -208.71160506 120.72018926 -205.12866211 97.65869141 C-204.52397936 94.41110451 -203.78600665 91.20812157 -203 88 C-202.70650393 86.68892002 -202.41354051 85.37772069 -202.12109375 84.06640625 C-200.34883572 76.70300784 -197.93640218 70.23923989 -194.3671875 63.5625 C-192.88705776 60.89139317 -192.88705776 60.89139317 -191.5625 57.5 C-181.49982498 34.95960796 -163.49225131 16.35589293 -143 3 C-142.06800781 2.35675781 -141.13601562 1.71351562 -140.17578125 1.05078125 C-133.20766001 -3.63871348 -125.81829064 -6.98053542 -118 -10 C-117.18587646 -10.32532715 -116.37175293 -10.6506543 -115.53295898 -10.98583984 C-80.05263947 -24.65143831 -32.15114405 -21.43409603 0 0 Z " fill="#080808" transform="translate(267,42)"/>
<path d="M0 0 C1.875 0.125 1.875 0.125 4 1 C6.6961441 4.83324466 8.15342409 8.94774572 9.5625 13.375 C9.87477539 14.32632813 9.87477539 14.32632813 10.19335938 15.296875 C10.81059727 17.19309174 11.40541941 19.0965572 12 21 C12.34675781 22.10601562 12.69351563 23.21203125 13.05078125 24.3515625 C19.09855729 47.59692391 17.90340615 71.54841889 14 95 C13.34 95 12.68 95 12 95 C11.89558594 96.15113281 11.79117188 97.30226563 11.68359375 98.48828125 C11.11604007 103.01773866 9.74732187 106.96534448 8.0625 111.1875 C7.79759766 111.87263672 7.53269531 112.55777344 7.25976562 113.26367188 C5.86744178 116.85331077 4.43589954 120.42759292 3 124 C2.34 124 1.68 124 1 124 C0.77183594 124.83273438 0.54367187 125.66546875 0.30859375 126.5234375 C-1.25949728 130.68941068 -3.39929277 133.99258639 -5.9375 137.625 C-6.42476562 138.3257666 -6.91203125 139.0265332 -7.4140625 139.74853516 C-22.06635588 160.40393717 -41.17919139 175.07403656 -64.20410156 185.20410156 C-65.68547137 185.86060858 -67.1533714 186.54742105 -68.6171875 187.2421875 C-95.15675154 199.78286062 -131.7025569 201.52453844 -159.6953125 192.84765625 C-162.77754183 191.71402275 -165.76395166 190.43879436 -168.734375 189.0390625 C-172.00625109 187.53851243 -175.36916106 186.29144199 -178.73828125 185.02734375 C-181.11346951 183.94845858 -182.97587398 182.63504916 -185 181 C-184.44010697 177.00987629 -183.24330232 174.4744948 -180.9375 171.1875 C-180.38964844 170.39730469 -179.84179688 169.60710937 -179.27734375 168.79296875 C-178.64505859 167.90544922 -178.64505859 167.90544922 -178 167 C-173.3979701 167.67019853 -169.40997115 169.46227941 -165.1875 171.3125 C-137.11232383 183.23224327 -104.34858607 183.30096344 -75.90673828 172.18164062 C-44.71375849 159.05249815 -20.91994705 136.2839074 -8 105 C-7.12735517 102.42061609 -6.34320165 99.84890874 -5.640625 97.21875 C-5 95 -5 95 -3.9921875 92.54296875 C4.53559251 70.68633573 0.20391592 38.5200643 -8 17 C-8.58910156 15.94296875 -9.17820312 14.8859375 -9.78515625 13.796875 C-11 11 -11 11 -10.44140625 8.82421875 C-8.79227566 6.73710767 -7.10971013 5.3460567 -4.9375 3.8125 C-4.22464844 3.30332031 -3.51179687 2.79414062 -2.77734375 2.26953125 C-1.89755859 1.64111328 -1.89755859 1.64111328 -1 1 C-0.67 0.67 -0.34 0.34 0 0 Z " fill="#080809" transform="translate(322,104)"/>
<path d="M0 0 C6.88875 -0.061875 13.7775 -0.12375 20.875 -0.1875 C23.0288623 -0.21481201 25.18272461 -0.24212402 27.40185547 -0.27026367 C29.14029381 -0.27903887 30.87873839 -0.28668035 32.6171875 -0.29296875 C33.4944751 -0.30831665 34.3717627 -0.32366455 35.27563477 -0.33947754 C45.22703993 -0.34361591 53.67949928 2.05144158 61 9 C66.60883053 15.90317604 66.47843436 23.615321 66.40234375 32.23046875 C65.68602467 38.94161357 62.79646845 43.4262133 57.890625 47.94140625 C52.73027842 52 52.73027842 52 50 52 C54.56321339 60.27241758 59.3550147 68.26932162 64.76123047 76.02368164 C66.88663435 79.11598041 68.07551353 81.30205413 69 85 C61.74 85 54.48 85 47 85 C45.80375 82.89625 44.6075 80.7925 43.375 78.625 C39.99676825 72.70049424 36.53651695 66.83160169 33 61 C32.65582031 60.10410156 32.31164062 59.20820313 31.95703125 58.28515625 C29.40942665 54.77769565 29.40942665 54.77769565 20 55 C20 64.9 20 74.8 20 85 C13.4 85 6.8 85 0 85 C0 56.95 0 28.9 0 0 Z " fill="#0A0A0A" transform="translate(89,320)"/>
<path d="M0 0 C1.18916016 0.00064453 2.37832031 0.00128906 3.60351562 0.00195312 C19.10069511 0.079396 19.10069511 0.079396 25.75 2.4375 C26.48734375 2.69789062 27.2246875 2.95828125 27.984375 3.2265625 C42.34821429 8.58035714 42.34821429 8.58035714 45.5625 10.1875 C44.93856349 13.94869476 43.21476285 16.37710042 41 19.4375 C40.35933594 20.32953125 39.71867188 21.2215625 39.05859375 22.140625 C38.56488281 22.81609375 38.07117188 23.4915625 37.5625 24.1875 C32.54021592 23.08535287 27.78754245 21.11521615 22.97265625 19.34375 C6.7675633 13.84923967 -14.92371978 15.08208442 -30.4375 22.1875 C-31.06221191 22.46094238 -31.68692383 22.73438477 -32.33056641 23.01611328 C-42.71496138 27.63692061 -50.55057149 34.09655101 -58.4375 42.1875 C-59.19804687 42.93902344 -59.95859375 43.69054687 -60.7421875 44.46484375 C-77.10528086 61.56013778 -80.93860286 83.02277836 -80.73828125 105.8828125 C-80.54585526 112.48450429 -79.36247855 118.24260013 -77.3125 124.4921875 C-76.4375 127.1875 -76.4375 127.1875 -76.4375 130.1875 C-78.73828125 131.9765625 -78.73828125 131.9765625 -81.75 133.8125 C-83.22919922 134.72902344 -83.22919922 134.72902344 -84.73828125 135.6640625 C-87.4375 137.1875 -87.4375 137.1875 -90.4375 138.1875 C-100.56773188 119.14614725 -100.80803232 92.04130594 -94.62890625 71.66015625 C-85.22230751 44.24223403 -67.91912581 22.398368 -41.64111328 9.29150391 C-35.48842502 6.37239331 -29.33185748 3.770921 -22.59765625 2.609375 C-20.27731295 2.21149796 -20.27731295 2.21149796 -17.5234375 1.15234375 C-11.83499373 -0.50283485 -5.86738529 -0.06022708 0 0 Z " fill="#070708" transform="translate(197.4375,62.8125)"/>
<path d="M0 0 C0.99 0.33 1.98 0.66 3 1 C4.00967396 3.34891508 4.81690042 5.5679812 5.5625 8 C5.87477539 8.95326172 5.87477539 8.95326172 6.19335938 9.92578125 C6.83734378 11.94050361 7.42744371 13.96387213 8 16 C8.19343994 16.66370605 8.38687988 17.32741211 8.58618164 18.01123047 C14.68729589 41.51646117 9.955944 69.24093409 -2.18603516 90.03076172 C-4.85702791 94.23636122 -7.83864697 98.15376795 -11 102 C-11.804375 102.98613281 -12.60875 103.97226563 -13.4375 104.98828125 C-25.6454538 119.13307387 -41.00680261 127.1182828 -58 134 C-59.56427734 134.66128906 -59.56427734 134.66128906 -61.16015625 135.3359375 C-82.79884527 143.05036266 -110.6057275 138.48570814 -131 129 C-130.37606349 125.23880524 -128.65226285 122.81039958 -126.4375 119.75 C-125.79683594 118.85796875 -125.15617188 117.9659375 -124.49609375 117.046875 C-124.00238281 116.37140625 -123.50867188 115.6959375 -123 115 C-118.32155425 116.0981193 -113.77199457 117.61879198 -109.19140625 119.0625 C-88.96524865 125.00408852 -65.97318449 121.81923602 -47.625 111.875 C-40.15199187 107.55102988 -33.99928149 102.16490582 -28 96 C-27.32453125 95.32195312 -26.6490625 94.64390625 -25.953125 93.9453125 C-12.01953929 79.08693127 -6.44717788 59.47129145 -6.5625 39.5625 C-6.54251953 38.34240234 -6.52253906 37.12230469 -6.50195312 35.86523438 C-6.50600156 28.25012335 -7.57750341 21.90060517 -10.14038086 14.72241211 C-11 12 -11 12 -11 8 C-8.69921875 5.82421875 -8.69921875 5.82421875 -5.6875 3.6875 C-4.70136719 2.96949219 -3.71523438 2.25148438 -2.69921875 1.51171875 C-1.80847656 1.01285156 -0.91773438 0.51398438 0 0 Z " fill="#070707" transform="translate(290,124)"/>
<path d="M0 0 C11.49187141 -0.41590125 21.4623901 -0.16964853 30.95947266 7.078125 C29.2388116 12.52688503 27.11241916 17.78981951 24.95947266 23.078125 C20.56217886 22.29587757 17.01387821 20.90658241 12.95947266 19.078125 C12.95947266 18.418125 12.95947266 17.758125 12.95947266 17.078125 C-2.76955323 16.50134417 -2.76955323 16.50134417 -16.27880859 23.8359375 C-22.16663124 31.32952996 -22.02484678 40.80287674 -21.33789062 49.89404297 C-20.4185473 56.64646119 -17.05773961 62.96696989 -11.79052734 67.328125 C-4.81413836 70.87657621 5.63740807 70.65545331 13.02050781 68.46728516 C15.98920909 67.32026984 18.76144356 65.9134136 21.55322266 64.390625 C23.95947266 63.078125 23.95947266 63.078125 25.95947266 63.078125 C26.96931996 64.98962168 27.96701761 66.90754069 28.95947266 68.828125 C29.51634766 69.89546875 30.07322266 70.9628125 30.64697266 72.0625 C31.95947266 75.078125 31.95947266 75.078125 31.95947266 79.078125 C30.10933212 80.04420823 28.25413792 81.0006157 26.39697266 81.953125 C25.36443359 82.48679687 24.33189453 83.02046875 23.26806641 83.5703125 C15.82323892 86.96311464 9.20926416 87.44314074 1.14697266 87.453125 C0.11765625 87.47761719 -0.91166016 87.50210938 -1.97216797 87.52734375 C-14.27787414 87.57404472 -23.08231712 82.97175787 -31.72412109 74.41015625 C-39.79473949 64.91407798 -43.02881397 52.23397572 -42.48974609 40.0390625 C-40.9773039 26.70326788 -37.19858794 16.94302377 -26.60302734 8.265625 C-17.65673939 1.77429485 -11.01024965 0.42154581 0 0 Z " fill="#080808" transform="translate(209.04052734375,318.921875)"/>
<path d="M0 0 C23.76 0 47.52 0 72 0 C72 5.28 72 10.56 72 16 C63.09 16 54.18 16 45 16 C45 38.77 45 61.54 45 85 C38.73 85 32.46 85 26 85 C26 62.56 26 40.12 26 17 C17.42 17 8.84 17 0 17 C0 11.39 0 5.78 0 0 Z " fill="#070807" transform="translate(248,320)"/>
<path d="M0 0 C2.84625 -0.061875 5.6925 -0.12375 8.625 -0.1875 C9.51010254 -0.21481201 10.39520508 -0.24212402 11.30712891 -0.27026367 C17.19859444 -0.33192317 21.07821012 0.76859085 25.8515625 4.4140625 C28.11781873 7.54365444 27.46596026 11.3240913 27 15 C25.65779127 18.43008897 24.56090165 19.64078058 21.46875 21.62109375 C17.02673034 23.38689661 13.34227151 23.33306299 8.625 23.1875 C4.355625 23.0946875 4.355625 23.0946875 0 23 C0 15.41 0 7.82 0 0 Z " fill="#F8F8F8" transform="translate(109,336)"/>
<path d="M0 0 C0 6.27 0 12.54 0 19 C-1.65 18.67 -3.3 18.34 -5 18 C-5.33 18.33 -5.66 18.66 -6 19 C-8.35546875 19.3125 -8.35546875 19.3125 -11 19 C-12.80078125 17.25 -12.80078125 17.25 -14.3125 15 C-14.82425781 14.2575 -15.33601562 13.515 -15.86328125 12.75 C-16.23839844 12.1725 -16.61351562 11.595 -17 11 C-17.33 13.31 -17.66 15.62 -18 18 C-18.99 18 -19.98 18 -21 18 C-21 12.39 -21 6.78 -21 1 C-20.01 1 -19.02 1 -18 1 C-17.67 2.98 -17.34 4.96 -17 7 C-16.69449219 6.4946875 -16.38898438 5.989375 -16.07421875 5.46875 C-11.48396439 -1.04811816 -7.68933872 -0.65640696 0 0 Z " fill="#F4F4F4" transform="translate(228,459)"/>
<path d="M0 0 C4.10007872 0.38679988 6.11398775 1.78344381 9.3125 4.3125 C10.91975635 7.52701269 10.36998185 10.74862536 10.3125 14.3125 C9.6525 14.3125 8.9925 14.3125 8.3125 14.3125 C8.02375 14.951875 7.735 15.59125 7.4375 16.25 C6.3125 18.3125 6.3125 18.3125 4.3125 19.3125 C1.30114195 19.65806568 -0.78111171 19.89044337 -3.6875 19.3125 C-7.25102884 16.26865245 -8.50208415 14.36937034 -9.3125 9.75 C-8.53436049 5.47023271 -6.98420019 4.04634894 -3.6875 1.3125 C-2.6875 0.3125 -2.6875 0.3125 0 0 Z " fill="#232323" transform="translate(204.6875,429.6875)"/>
<path d="M0 0 C5.57894737 3.15789474 5.57894737 3.15789474 7 6 C7.39447548 10.18144011 7.45035186 12.30946048 5.125 15.875 C2.13861109 18.86138891 1.41777031 18.9734749 -2.9375 19.25 C-6.69589271 19.20907376 -6.69589271 19.20907376 -9 17.625 C-10 16 -10 16 -10 14 C-10.66 14 -11.32 14 -12 14 C-12.70631514 7.17228694 -12.70631514 7.17228694 -10.875 4.1328125 C-7.54330495 0.50612361 -5.05436113 -1.0529919 0 0 Z " fill="#343434" transform="translate(270,430)"/>
<path d="M0 0 C10.9 0 10.9 0 14 3 C14.5883927 6.95063669 14.08658519 9.60929907 12 13 C12.99 14.485 12.99 14.485 14 16 C14 16.99 14 17.98 14 19 C12.68 19 11.36 19 10 19 C9.566875 18.030625 9.13375 17.06125 8.6875 16.0625 C7.2985139 12.72268235 7.2985139 12.72268235 4 12 C4 14.31 4 16.62 4 19 C2.68 19 1.36 19 0 19 C0 12.73 0 6.46 0 0 Z " fill="#252525" transform="translate(55,430)"/>
<path d="M0 0 C9.67567568 0 9.67567568 0 14 4 C14.375 6.75 14.375 6.75 14 9 C13.01 9.33 12.02 9.66 11 10 C11.495 10.928125 11.99 11.85625 12.5 12.8125 C14 16 14 16 14 19 C12.68 19 11.36 19 10 19 C9.566875 18.030625 9.13375 17.06125 8.6875 16.0625 C7.2985139 12.72268235 7.2985139 12.72268235 4 12 C4 14.31 4 16.62 4 19 C2.68 19 1.36 19 0 19 C0 12.73 0 6.46 0 0 Z " fill="#303030" transform="translate(123,430)"/>
<path d="M0 0 C2.375 0.3125 2.375 0.3125 5 1 C7 4 7 4 7 7 C7.66 7 8.32 7 9 7 C9.309375 6.21625 9.61875 5.4325 9.9375 4.625 C11 2 11 2 12 0 C13.65 0 15.3 0 17 0 C17.33 5.94 17.66 11.88 18 18 C16.68 18 15.36 18 14 18 C14 14.04 14 10.08 14 6 C13.34 6 12.68 6 12 6 C11.855625 6.78375 11.71125 7.5675 11.5625 8.375 C11 11 11 11 10 13 C8.68 13 7.36 13 6 13 C5.34 10.69 4.68 8.38 4 6 C3.34 6 2.68 6 2 6 C2 9.96 2 13.92 2 18 C0.68 18 -0.64 18 -2 18 C-1.85946128 15.37461716 -1.71281053 12.74982573 -1.5625 10.125 C-1.52318359 9.37863281 -1.48386719 8.63226563 -1.44335938 7.86328125 C-1.11328125 2.2265625 -1.11328125 2.2265625 0 0 Z " fill="#202020" transform="translate(220,431)"/>
<path d="M0 0 C1.32 0 2.64 0 4 0 C4 6.27 4 12.54 4 19 C2.68 19 1.36 19 0 19 C-1.921875 16.8125 -1.921875 16.8125 -3.75 14 C-4.67039062 12.6078125 -4.67039062 12.6078125 -5.609375 11.1875 C-6.06828125 10.465625 -6.5271875 9.74375 -7 9 C-7.33 12.3 -7.66 15.6 -8 19 C-9.32 19 -10.64 19 -12 19 C-12 13.06 -12 7.12 -12 1 C-5.29353406 2.34129319 -4.73583618 4.5265656 -1 10 C-0.67 6.7 -0.34 3.4 0 0 Z " fill="#383838" transform="translate(329,430)"/>
<path d="M0 0 C1.32 0 2.64 0 4 0 C4 6.27 4 12.54 4 19 C-1 18 -1 18 -2.80078125 15.93359375 C-3.29964844 15.10988281 -3.79851562 14.28617187 -4.3125 13.4375 C-4.82425781 12.61121094 -5.33601563 11.78492188 -5.86328125 10.93359375 C-6.23839844 10.29550781 -6.61351562 9.65742188 -7 9 C-7.33 12.3 -7.66 15.6 -8 19 C-9.32 19 -10.64 19 -12 19 C-12 13.06 -12 7.12 -12 1 C-7 2 -7 2 -5.19921875 4.06640625 C-3.79947917 6.37760417 -2.39973958 8.68880208 -1 11 C-0.67 7.37 -0.34 3.74 0 0 Z " fill="#3B3B3B" transform="translate(293,430)"/>
<path d="M0 0 C1.32 0 2.64 0 4 0 C4 2.31 4 4.62 4 7 C6.64 7 9.28 7 12 7 C12 4.69 12 2.38 12 0 C13.32 0 14.64 0 16 0 C16 6.27 16 12.54 16 19 C14.68 19 13.36 19 12 19 C12 16.36 12 13.72 12 11 C9.36 11 6.72 11 4 11 C4 13.64 4 16.28 4 19 C2.68 19 1.36 19 0 19 C0 12.73 0 6.46 0 0 Z " fill="#464646" transform="translate(156,459)"/>
<path d="M0 0 C9.90322581 0 9.90322581 0 13 3 C13.5625 6.5 13.5625 6.5 13 10 C11.25 11.9375 11.25 11.9375 9 13 C7.68 13 6.36 13 5 13 C5 14.98 5 16.96 5 19 C3.35 19 1.7 19 0 19 C0 12.73 0 6.46 0 0 Z " fill="#505050" transform="translate(242,430)"/>
<path d="M0 0 C0.33 1.32 0.66 2.64 1 4 C0.37351562 3.97679687 -0.25296875 3.95359375 -0.8984375 3.9296875 C-1.71570313 3.91164063 -2.53296875 3.89359375 -3.375 3.875 C-4.59316406 3.84019531 -4.59316406 3.84019531 -5.8359375 3.8046875 C-8.21342243 3.78629949 -8.21342243 3.78629949 -10 6 C-10.21676408 9.39597063 -10.08073852 11.75778445 -9 15 C-6.69 15 -4.38 15 -2 15 C-2 13.68 -2 12.36 -2 11 C-2.99 11 -3.98 11 -5 11 C-5 10.01 -5 9.02 -5 8 C-2.69 8 -0.38 8 2 8 C2.05399736 9.45792884 2.09279177 10.91642712 2.125 12.375 C2.14820313 13.18710937 2.17140625 13.99921875 2.1953125 14.8359375 C2 17 2 17 0 19 C-3.05610339 19.57039258 -5.94031349 19.5337277 -9 19 C-12.65305395 16.10799895 -14.74232841 13.88959163 -15.375 9.25 C-14.97691784 5.79995461 -14.11512906 3.7270567 -11.77734375 1.125 C-8.22510838 -1.12344789 -4.03159484 -0.42273033 0 0 Z " fill="#2E2E2E" transform="translate(267,459)"/>
<path d="M0 0 C4.29 0 8.58 0 13 0 C13 0.99 13 1.98 13 3 C10.03 3 7.06 3 4 3 C4 4.32 4 5.64 4 7 C5.98 7 7.96 7 10 7 C10 7.99 10 8.98 10 10 C8.02 10 6.04 10 4 10 C4 11.32 4 12.64 4 14 C6.97 14 9.94 14 13 14 C13 15.32 13 16.64 13 18 C8.71 18 4.42 18 0 18 C0 12.06 0 6.12 0 0 Z " fill="#3C3C3C" transform="translate(301,431)"/>
<path d="M0 0 C3.96 0 7.92 0 12 0 C12 0.99 12 1.98 12 3 C9.36 3 6.72 3 4 3 C4 4.32 4 5.64 4 7 C6.31 7 8.62 7 11 7 C11 7.99 11 8.98 11 10 C8.69 10 6.38 10 4 10 C4 11.32 4 12.64 4 14 C6.97 14 9.94 14 13 14 C13 15.32 13 16.64 13 18 C8.71 18 4.42 18 0 18 C0 12.06 0 6.12 0 0 Z " fill="#393939" transform="translate(107,431)"/>
<path d="M0 0 C5 1 5 1 6.58203125 2.5234375 C7.19111328 3.43996094 7.19111328 3.43996094 7.8125 4.375 C8.23144531 4.98085938 8.65039062 5.58671875 9.08203125 6.2109375 C10 8 10 8 10 11 C10.66 11 11.32 11 12 11 C12 7.37 12 3.74 12 0 C12.99 0 13.98 0 15 0 C15 5.61 15 11.22 15 17 C13.68 17 12.36 17 11 17 C9.078125 14.59375 9.078125 14.59375 7.25 11.5 C6.63640625 10.4790625 6.0228125 9.458125 5.390625 8.40625 C4.93171875 7.6121875 4.4728125 6.818125 4 6 C3.67 9.63 3.34 13.26 3 17 C2.01 17 1.02 17 0 17 C0 11.39 0 5.78 0 0 Z " fill="#121313" transform="translate(233,460)"/>
<path d="M0 0 C5 1 5 1 6.58203125 2.77734375 C6.98808594 3.49019531 7.39414063 4.20304687 7.8125 4.9375 C8.23144531 5.64777344 8.65039062 6.35804688 9.08203125 7.08984375 C10 9 10 9 10 11 C10.66 11 11.32 11 12 11 C12 7.37 12 3.74 12 0 C12.99 0 13.98 0 15 0 C15 5.61 15 11.22 15 17 C13.68 17 12.36 17 11 17 C9.296875 15.1015625 9.296875 15.1015625 7.75 12.625 C6.96882812 11.40683594 6.96882812 11.40683594 6.171875 10.1640625 C5 8 5 8 5 6 C4.34 6 3.68 6 3 6 C3 9.63 3 13.26 3 17 C2.01 17 1.02 17 0 17 C0 11.39 0 5.78 0 0 Z " fill="#111112" transform="translate(186,460)"/>
<path d="M0 0 C3.96 0 7.92 0 12 0 C12 0.99 12 1.98 12 3 C9.36 3 6.72 3 4 3 C4 4.32 4 5.64 4 7 C5.98 7 7.96 7 10 7 C10 7.99 10 8.98 10 10 C8.02 10 6.04 10 4 10 C4 11.32 4 12.64 4 14 C6.64 14 9.28 14 12 14 C12 15.32 12 16.64 12 18 C8.04 18 4.08 18 0 18 C0 12.06 0 6.12 0 0 Z " fill="#2C2C2C" transform="translate(157,431)"/>
<path d="M0 0 C3.96 0 7.92 0 12 0 C12 0.99 12 1.98 12 3 C9.03 3 6.06 3 3 3 C3 4.32 3 5.64 3 7 C5.31 7 7.62 7 10 7 C10 7.99 10 8.98 10 10 C7.69 10 5.38 10 3 10 C3 11.32 3 12.64 3 14 C6.3 14 9.6 14 13 14 C13 15.32 13 16.64 13 18 C8.71 18 4.42 18 0 18 C0 12.06 0 6.12 0 0 Z " fill="#292929" transform="translate(73,431)"/>
<path d="M0 0 C0.66 0.33 1.32 0.66 2 1 C2 1.99 2 2.98 2 4 C-0.31 4 -2.62 4 -5 4 C-5 4.99 -5 5.98 -5 7 C-2.36 8.32 0.28 9.64 3 11 C3.25 13.3125 3.25 13.3125 3 16 C1.4375 17.8125 1.4375 17.8125 -1 19 C-7.15151515 19.42424242 -7.15151515 19.42424242 -10 18 C-9.505 16.515 -9.505 16.515 -9 15 C-6.69 15 -4.38 15 -2 15 C-1.67 14.01 -1.34 13.02 -1 12 C-1.928125 11.896875 -2.85625 11.79375 -3.8125 11.6875 C-7 11 -7 11 -8.875 9.75 C-10.45099784 7.29844781 -10.4997811 5.855892 -10 3 C-7.01145346 -0.33337883 -4.31526669 -0.37524058 0 0 Z " fill="#141414" transform="translate(150,430)"/>
<path d="M0 0 C0.99 0 1.98 0 3 0 C3.67354499 1.43429001 4.33859701 2.87257057 5 4.3125 C5.556875 5.51326172 5.556875 5.51326172 6.125 6.73828125 C7 9 7 9 7 12 C7.66 12 8.32 12 9 12 C9.103125 11.13375 9.20625 10.2675 9.3125 9.375 C10.03398414 5.83316877 11.27123261 3.15687958 13 0 C13.99 0 14.98 0 16 0 C15.41347648 4.48993869 14.2356462 8.22543184 12.4375 12.375 C11.98246094 13.43460937 11.52742188 14.49421875 11.05859375 15.5859375 C10.70925781 16.38257813 10.35992187 17.17921875 10 18 C8.35 18 6.7 18 5 18 C4.16112944 15.56427941 3.32873471 13.12666783 2.5 10.6875 C2.14228516 9.65206055 2.14228516 9.65206055 1.77734375 8.59570312 C0.76791737 5.61068511 0 3.17341086 0 0 Z " fill="#2F2F2F" transform="translate(88,431)"/>
<path d="M0 0 C0.99 0.66 1.98 1.32 3 2 C2.67 2.99 2.34 3.98 2 5 C0.72125 4.95875 -0.5575 4.9175 -1.875 4.875 C-4.01871492 4.75787127 -4.01871492 4.75787127 -6 5 C-6.66 5.66 -7.32 6.32 -8 7 C-7.90304884 11.34194936 -7.90304884 11.34194936 -6 15 C-4.48071962 15.07179964 -2.95832518 15.08392007 -1.4375 15.0625 C-0.61121094 15.05347656 0.21507812 15.04445313 1.06640625 15.03515625 C1.70449219 15.02355469 2.34257812 15.01195312 3 15 C3 15.99 3 16.98 3 18 C-0.63782632 19.21260877 -3.17735999 19.39544552 -7 19 C-10.07858499 16.96944394 -11.645391 15.4855968 -12.515625 11.83984375 C-12.75643284 8.56157336 -12.73366826 6.08422647 -10.85546875 3.30859375 C-7.42030693 0.12721698 -4.54868024 -0.70757248 0 0 Z " fill="#171717" transform="translate(191,430)"/>
<path d="M0 0 C0.99 0 1.98 0 3 0 C3.33 1.98 3.66 3.96 4 6 C5.65 4.02 7.3 2.04 9 0 C10.32 0.33 11.64 0.66 13 1 C11.35 2.98 9.7 4.96 8 7 C9.52708963 10.43595166 11.59927045 13.11912454 14 16 C12.68 16.33 11.36 16.66 10 17 C8.02 14.69 6.04 12.38 4 10 C3.67 12.31 3.34 14.62 3 17 C2.01 17 1.02 17 0 17 C0 11.39 0 5.78 0 0 Z " fill="#151515" transform="translate(207,460)"/>
<path d="M0 0 C4.95 0 9.9 0 15 0 C15 1.32 15 2.64 15 4 C13.35 4 11.7 4 10 4 C10 8.95 10 13.9 10 19 C8.68 19 7.36 19 6 19 C6 14.05 6 9.1 6 4 C4.02 4 2.04 4 0 4 C0 2.68 0 1.36 0 0 Z " fill="#3A3A3A" transform="translate(138,459)"/>
<path d="M0 0 C3.5 0.25 3.5 0.25 5.5 2.25 C6.05416667 8.34583333 6.05416667 8.34583333 4.3125 11.1875 C1.83950907 12.63718434 0.32115488 12.67317323 -2.5 12.25 C-4.3125 11.1875 -4.3125 11.1875 -5.5 9.25 C-5.8125 5.6875 -5.8125 5.6875 -5.5 2.25 C-3.5 0.25 -3.5 0.25 0 0 Z " fill="#ECECEC" transform="translate(267.5,433.75)"/>
<path d="M0 0 C3.5 -0.3125 3.5 -0.3125 7 0 C9 2 9 2 9.3125 5.4375 C9 9 9 9 7.8125 10.9375 C5.33950907 12.38718434 3.82115488 12.42317323 1 12 C-0.8125 10.875 -0.8125 10.875 -2 9 C-2.42478586 4.92205575 -2.31282587 3.46923881 0 0 Z " fill="#EDEDED" transform="translate(202,434)"/>
<path d="M0 0 C4.95 0 9.9 0 15 0 C15 0.99 15 1.98 15 3 C13.35 3 11.7 3 10 3 C10 7.95 10 12.9 10 18 C8.68 18 7.36 18 6 18 C6 13.05 6 8.1 6 3 C4.02 3 2.04 3 0 3 C0 2.01 0 1.02 0 0 Z " fill="#272727" transform="translate(336,431)"/>
<path d="M0 0 C10.9 0 10.9 0 14 3 C14.3125 6.1875 14.3125 6.1875 14 9 C13.34 8.01 12.68 7.02 12 6 C11.608125 6.495 11.21625 6.99 10.8125 7.5 C8.44908285 9.45593143 6.98564997 9.24207973 4 9 C3.95745644 7.00045254 3.95919217 4.99958364 4 3 C4.33 2.67 4.66 2.34 5 2 C3.68 1.67 2.36 1.34 1 1 C1 6.61 1 12.22 1 18 C1.99 18.33 2.98 18.66 4 19 C2.68 19 1.36 19 0 19 C0 12.73 0 6.46 0 0 Z " fill="#606060" transform="translate(55,430)"/>
<path d="M0 0 C4.10007872 0.38679988 6.11398775 1.78344381 9.3125 4.3125 C10.91975635 7.52701269 10.36998185 10.74862536 10.3125 14.3125 C8.9925 14.3125 7.6725 14.3125 6.3125 14.3125 C5.9825 11.6725 5.6525 9.0325 5.3125 6.3125 C0.91996227 4.74977811 0.91996227 4.74977811 -3.6875 4.3125 C-6.34504784 6.15234081 -6.6812139 7.28335535 -7.375 10.5 C-7.478125 11.428125 -7.58125 12.35625 -7.6875 13.3125 C-8.0175 13.3125 -8.3475 13.3125 -8.6875 13.3125 C-9 10.125 -9 10.125 -8.6875 6.3125 C-6.25 3.4375 -6.25 3.4375 -3.6875 1.3125 C-2.6875 0.3125 -2.6875 0.3125 0 0 Z " fill="#2C2C2C" transform="translate(204.6875,429.6875)"/>
<path d="M0 0 C1.32 0 2.64 0 4 0 C4 6.27 4 12.54 4 19 C2.68 19 1.36 19 0 19 C0 12.73 0 6.46 0 0 Z " fill="#3B3B3B" transform="translate(224,459)"/>
<path d="M0 0 C1.32 0 2.64 0 4 0 C4 6.27 4 12.54 4 19 C2.68 19 1.36 19 0 19 C0 12.73 0 6.46 0 0 Z " fill="#393939" transform="translate(177,459)"/>
<path d="M0 0 C1.65 0 3.3 0 5 0 C5.33 5.94 5.66 11.88 6 18 C4.68 18 3.36 18 2 18 C2 13.71 2 9.42 2 5 C1.01 5 0.02 5 -1 5 C-0.67 3.35 -0.34 1.7 0 0 Z " fill="#282828" transform="translate(232,431)"/>
<path d="M0 0 C0.99 0.33 1.98 0.66 3 1 C2.57332031 1.35521729 2.14664063 1.71043457 1.70703125 2.07641602 C-5.23080853 7.99056681 -11.5832745 14.47237051 -18 20.9375 C-19.16773374 22.11026009 -20.33570074 23.28278798 -21.50390625 24.45507812 C-24.33863234 27.30071689 -27.17018824 30.14947453 -30 33 C-30.66 32.67 -31.32 32.34 -32 32 C-21.33333333 21.33333333 -10.66666667 10.66666667 0 0 Z " fill="#E7E8E8" transform="translate(177,196)"/>
<path d="M0 0 C0.66 0.33 1.32 0.66 2 1 C2 1.99 2 2.98 2 4 C-0.31 4 -2.62 4 -5 4 C-5 5.98 -5 7.96 -5 10 C-4.01 10.33 -3.02 10.66 -2 11 C-2.99 11.495 -2.99 11.495 -4 12 C-8.31578947 9.68421053 -8.31578947 9.68421053 -10 8 C-10.3125 5.625 -10.3125 5.625 -10 3 C-7.01145346 -0.33337883 -4.31526669 -0.37524058 0 0 Z " fill="#292A29" transform="translate(150,430)"/>
<path d="M0 0 C2.64 0 5.28 0 8 0 C8 0.33 8 0.66 8 1 C6.35 1 4.7 1 3 1 C3 3.31 3 5.62 3 8 C4.65 8 6.3 8 8 8 C8 8.66 8 9.32 8 10 C6.35 10 4.7 10 3 10 C3 11.98 3 13.96 3 16 C2.01 16 1.02 16 0 16 C0 10.72 0 5.44 0 0 Z " fill="#0D0D0D" transform="translate(243,432)"/>
<path d="M0 0 C0.33 1.32 0.66 2.64 1 4 C0.39671875 3.94199219 -0.2065625 3.88398438 -0.828125 3.82421875 C-3.30320704 3.68449638 -5.54455356 3.63952859 -8 4 C-10.47208796 6.35832772 -10.47208796 6.35832772 -12 9 C-12.66 9 -13.32 9 -14 9 C-14.34098943 5.93109509 -14.21961817 4.36935783 -12.625 1.6875 C-8.60769589 -0.89505264 -4.64855591 -0.31936644 0 0 Z " fill="#131414" transform="translate(267,459)"/>
<path d="M0 0 C0.99 0 1.98 0 3 0 C3 5.61 3 11.22 3 17 C1.68 17 0.36 17 -1 17 C-1.33 15.35 -1.66 13.7 -2 12 C-1.34 12 -0.68 12 0 12 C0 8.04 0 4.08 0 0 Z " fill="#080808" transform="translate(198,460)"/>
<path d="M0 0 C-0.598125 0.28875 -1.19625 0.5775 -1.8125 0.875 C-4.19327792 2.04742026 -4.19327792 2.04742026 -7 4 C-7.56540641 8.6592726 -7.56540641 8.6592726 -5.75 12.8125 C-3.89667355 14.07011437 -2.0431838 15.08409002 0 16 C-7.38052027 16.48396854 -7.38052027 16.48396854 -10 14.4375 C-11.40962258 11.00154495 -11.5168609 8.68263393 -11 5 C-7.74180693 0.49602723 -5.51527888 -0.6413115 0 0 Z " fill="#0E0E0E" transform="translate(270,432)"/>
<path d="M0 0 C2.64 0.33 5.28 0.66 8 1 C8 1.33 8 1.66 8 2 C6.35 2 4.7 2 3 2 C3 4.31 3 6.62 3 9 C3.66 9.33 4.32 9.66 5 10 C4.34 10 3.68 10 3 10 C3 12.31 3 14.62 3 17 C2.01 17 1.02 17 0 17 C0 11.39 0 5.78 0 0 Z " fill="#090909" transform="translate(56,431)"/>
<path d="M0 0 C0.66 0.33 1.32 0.66 2 1 C-10.56019656 15.18837019 -10.56019656 15.18837019 -15 19 C-15.66 19 -16.32 19 -17 19 C-17 19.66 -17 20.32 -17 21 C-17.66 20.67 -18.32 20.34 -19 20 C-13.08218389 12.91529057 -6.56858667 6.47151396 0 0 Z " fill="#333333" transform="translate(110,55)"/>
<path d="M0 0 C0.99 0 1.98 0 3 0 C3.89316269 5.93609666 3.97040422 11.06975197 3 17 C2.01 17 1.02 17 0 17 C0 11.39 0 5.78 0 0 Z " fill="#141414" transform="translate(207,460)"/>
<path d="M0 0 C1.32 0 2.64 0 4 0 C3.835 0.763125 3.67 1.52625 3.5 2.3125 C2.83437851 7.22145849 2.92079922 12.05435114 3 17 C2.01 17 1.02 17 0 17 C0 11.39 0 5.78 0 0 Z " fill="#0C0C0C" transform="translate(233,460)"/>
<path d="M0 0 C0.33 0.99 0.66 1.98 1 3 C1.66 3 2.32 3 3 3 C3.33 2.34 3.66 1.68 4 1 C4.36279456 2.28926992 4.71496698 3.58153272 5.0625 4.875 C5.25972656 5.59429687 5.45695312 6.31359375 5.66015625 7.0546875 C6 9 6 9 5 11 C8.3 11.33 11.6 11.66 15 12 C15 12.33 15 12.66 15 13 C6.99173554 13.78512397 6.99173554 13.78512397 3 10.625 C0.05801079 6.76363916 -0.1047295 4.81755717 0 0 Z " fill="#3F3F3F" transform="translate(252,465)"/>
<path d="M0 0 C0.66 0 1.32 0 2 0 C2 5.61 2 11.22 2 17 C0.68 17 -0.64 17 -2 17 C-2.33 15.68 -2.66 14.36 -3 13 C-2.01 12.67 -1.02 12.34 0 12 C0 8.04 0 4.08 0 0 Z " fill="#070707" transform="translate(294,431)"/>
<path d="M0 0 C2.31 0 4.62 0 7 0 C7 5.94 7 11.88 7 18 C6.67 18 6.34 18 6 18 C5.67 13.05 5.34 8.1 5 3 C0.22880216 7.44433762 0.22880216 7.44433762 -2 11 C-2 6.31908701 -1.00354129 5.37898396 2 2 C1.34 1.34 0.68 0.68 0 0 Z " fill="#D0D0D0" transform="translate(217,459)"/>
<path d="M0 0 C0.99 0.495 0.99 0.495 2 1 C2 1.99 2 2.98 2 4 C2.66 4 3.32 4 4 4 C4.66 2.68 5.32 1.36 6 0 C6 0.66 6 1.32 6 2 C6.99 2.33 7.98 2.66 9 3 C8.34 3 7.68 3 7 3 C6.7834375 4.175625 6.7834375 4.175625 6.5625 5.375 C6 8 6 8 5 10 C3.68 10 2.36 10 1 10 C0.67 6.7 0.34 3.4 0 0 Z " fill="#313131" transform="translate(225,434)"/>
<path d="M0 0 C0.66 0.33 1.32 0.66 2 1 C-3.94 6.94 -9.88 12.88 -16 19 C-16.66 18.67 -17.32 18.34 -18 18 C-6.66287016 5.33029613 -6.66287016 5.33029613 0 0 Z " fill="#D6D6D6" transform="translate(122,67)"/>
<path d="M0 0 C0.66 0 1.32 0 2 0 C2 5.61 2 11.22 2 17 C1.34 17 0.68 17 0 17 C-0.33 14.69 -0.66 12.38 -1 10 C-3.97 9.505 -3.97 9.505 -7 9 C-7 8.67 -7 8.34 -7 8 C-5.02 7.67 -3.04 7.34 -1 7 C-0.67 4.69 -0.34 2.38 0 0 Z " fill="#040404" transform="translate(169,460)"/>
<path d="M0 0 C0.66 0 1.32 0 2 0 C2 5.61 2 11.22 2 17 C0.68 16.67 -0.64 16.34 -2 16 C-2 15.01 -2 14.02 -2 13 C-1.34 13 -0.68 13 0 13 C0 8.71 0 4.42 0 0 Z " fill="#060606" transform="translate(330,431)"/>
<path d="M0 0 C0 0.33 0 0.66 0 1 C-2.31 1.66 -4.62 2.32 -7 3 C-7.10957031 3.63808594 -7.21914062 4.27617187 -7.33203125 4.93359375 C-7.49058594 5.75988281 -7.64914063 6.58617187 -7.8125 7.4375 C-7.96332031 8.26121094 -8.11414063 9.08492188 -8.26953125 9.93359375 C-8.51058594 10.61550781 -8.75164062 11.29742187 -9 12 C-9.99 12.33 -10.98 12.66 -12 13 C-12.60356653 5.87791495 -12.60356653 5.87791495 -9.9375 2 C-6.35342568 -0.44022082 -4.25018379 -0.41668469 0 0 Z " fill="#0D0D0D" transform="translate(209,432)"/>
<path d="M0 0 C0.99 0 1.98 0 3 0 C6 5.625 6 5.625 6 9 C5.34 9 4.68 9 4 9 C3.67 9.66 3.34 10.32 3 11 C2.49384702 9.73160474 1.99530901 8.46016898 1.5 7.1875 C1.2215625 6.47980469 0.943125 5.77210938 0.65625 5.04296875 C0 3 0 3 0 0 Z " fill="#1F1F1F" transform="translate(88,431)"/>
<path d="M0 0 C3.0625 0.1875 3.0625 0.1875 5.0625 2.1875 C3.825 2.27 2.5875 2.3525 1.3125 2.4375 C-1.64338266 2.8194105 -2.86153793 3.13491088 -5.375 4.875 C-7.25207921 7.65307723 -7.63642456 9.8756702 -7.9375 13.1875 C-8.2675 13.1875 -8.5975 13.1875 -8.9375 13.1875 C-9.25 10 -9.25 10 -8.9375 6.1875 C-6.5 3.3125 -6.5 3.3125 -3.9375 1.1875 C-2.9375 0.1875 -2.9375 0.1875 0 0 Z " fill="#464646" transform="translate(204.9375,429.8125)"/>
<path d="M0 0 C2.0245738 1.93254772 3.42105792 3.63158688 5 6 C5 6.99 5 7.98 5 9 C3.68 9 2.36 9 1 9 C0.01 6.69 -0.98 4.38 -2 2 C-1.34 1.34 -0.68 0.68 0 0 Z " fill="#2A2A2A" transform="translate(132,440)"/>
<path d="M0 0 C1.65 0 3.3 0 5 0 C6.125 3.75 6.125 3.75 5 6 C3.35 6 1.7 6 0 6 C0 4.02 0 2.04 0 0 Z " fill="#D6D6D6" transform="translate(246,434)"/>
<path d="M0 0 C3.08089673 2.77280706 4.68775452 5.06326356 6 9 C5.01 9.33 4.02 9.66 3 10 C-1 5.375 -1 5.375 -1 2 C-0.67 1.34 -0.34 0.68 0 0 Z " fill="#212121" transform="translate(237,461)"/>
<path d="M0 0 C0.66 0 1.32 0 2 0 C2 1.98 2 3.96 2 6 C4.64 6 7.28 6 10 6 C10 6.66 10 7.32 10 8 C6.7 8 3.4 8 0 8 C0 5.36 0 2.72 0 0 Z " fill="#080808" transform="translate(303,440)"/>
<path d="M0 0 C3.3 0 6.6 0 10 0 C10 0.66 10 1.32 10 2 C7.36 2 4.72 2 2 2 C1.67 3.65 1.34 5.3 1 7 C0.67 7 0.34 7 0 7 C0 4.69 0 2.38 0 0 Z " fill="#111111" transform="translate(109,432)"/>
<path d="M0 0 C1.65 0 3.3 0 5 0 C5.5625 1.9375 5.5625 1.9375 6 4 C5 5 5 5 2.4375 5.0625 C1.2309375 5.0315625 1.2309375 5.0315625 0 5 C0 3.35 0 1.7 0 0 Z " fill="#E6E6E6" transform="translate(127,434)"/>
<path d="M0 0 C1.65 0 3.3 0 5 0 C5.5625 1.9375 5.5625 1.9375 6 4 C5 5 5 5 2.4375 5.0625 C1.2309375 5.0315625 1.2309375 5.0315625 0 5 C0 3.35 0 1.7 0 0 Z " fill="#E5E5E5" transform="translate(59,434)"/>
<path d="M0 0 C0.33 0 0.66 0 1 0 C1 1.65 1 3.3 1 5 C1.99 5 2.98 5 4 5 C4 5.99 4 6.98 4 8 C4.99 8.33 5.98 8.66 7 9 C6.01 9.495 6.01 9.495 5 10 C0.68421053 7.68421053 0.68421053 7.68421053 -1 6 C-1.125 3.5 -1.125 3.5 -1 1 C-0.67 0.67 -0.34 0.34 0 0 Z " fill="#4A4A4A" transform="translate(141,432)"/>
<path d="M0 0 C0.66 0.33 1.32 0.66 2 1 C0.90033225 2.29549899 -0.20491801 3.58626071 -1.3125 4.875 C-1.92738281 5.59429687 -2.54226562 6.31359375 -3.17578125 7.0546875 C-5 9 -5 9 -8 11 C-6.52670958 5.99081256 -3.72484762 3.48192278 0 0 Z " fill="#CECECE" transform="translate(197,338)"/>
<path d="M0 0 C0.99 0 1.98 0 3 0 C3 0.99 3 1.98 3 3 C3.66 3.33 4.32 3.66 5 4 C4.01 4.495 4.01 4.495 3 5 C2.67 5.99 2.34 6.98 2 8 C3.32 8.33 4.64 8.66 6 9 C4.35 9 2.7 9 1 9 C0.67 6.03 0.34 3.06 0 0 Z " fill="#393939" transform="translate(92,440)"/>
<path d="M0 0 C5.625 -0.25 5.625 -0.25 9 2 C8.67 2.99 8.34 3.98 8 5 C5.69 4.67 3.38 4.34 1 4 C1.33 3.34 1.66 2.68 2 2 C1.34 1.34 0.68 0.68 0 0 Z " fill="#474747" transform="translate(185,430)"/>
<path d="M0 0 C2.5570851 2.22355226 3.24170912 3.75018193 4 7 C4.66 7.33 5.32 7.66 6 8 C5.34 8 4.68 8 4 8 C3.67 8.66 3.34 9.32 3 10 C-1.06153846 4.58461538 -1.06153846 4.58461538 -0.75 1.625 C-0.5025 1.08875 -0.255 0.5525 0 0 Z " fill="#212121" transform="translate(192,464)"/>
<path d="M0 0 C1.37478516 0.01740234 1.37478516 0.01740234 2.77734375 0.03515625 C3.69644531 0.04417969 4.61554688 0.05320312 5.5625 0.0625 C6.27277344 0.07410156 6.98304688 0.08570313 7.71484375 0.09765625 C8.04484375 1.41765625 8.37484375 2.73765625 8.71484375 4.09765625 C0.5609976 3.02073317 0.5609976 3.02073317 -3.28515625 1.09765625 C-2.28515625 0.09765625 -2.28515625 0.09765625 0 0 Z " fill="#4D4C4D" transform="translate(259.28515625,458.90234375)"/>
<path d="M0 0 C1.32 0 2.64 0 4 0 C4 0.99 4 1.98 4 3 C0.52674819 4.1577506 -2.36067448 4.06866652 -6 4 C-6 3.34 -6 2.68 -6 2 C-4.02 2 -2.04 2 0 2 C0 1.34 0 0.68 0 0 Z " fill="#2E2E2E" transform="translate(190,445)"/>
<path d="M0 0 C0.33 0.99 0.66 1.98 1 3 C-0.90401138 4.90401138 -2.33425686 5.93520439 -5.046875 6.19921875 C-7.03233273 6.1886578 -9.0169914 6.09915043 -11 6 C-8.33441197 2.55041549 -5.08817247 2.05989657 -1 1 C-0.67 0.67 -0.34 0.34 0 0 Z " fill="#272828" transform="translate(274,443)"/>
<path d="M0 0 C0.66 0.33 1.32 0.66 2 1 C1.0479279 2.00596297 0.08812654 3.00461563 -0.875 4 C-1.40867187 4.556875 -1.94234375 5.11375 -2.4921875 5.6875 C-4 7 -4 7 -6 7 C-6.66 8.32 -7.32 9.64 -8 11 C-8 6.67750434 -5.85084926 5.11604454 -3 2 C-2.01 1.34 -1.02 0.68 0 0 Z " fill="#393939" transform="translate(97,225)"/>
<path d="M0 0 C0.66 0.33 1.32 0.66 2 1 C-1.3 4.3 -4.6 7.6 -8 11 C-8 7.0234755 -6.61988497 5.9109833 -4 3 C-1.75 1.1875 -1.75 1.1875 0 0 Z " fill="#303030" transform="translate(277,54)"/>
<path d="M0 0 C0.66 0 1.32 0 2 0 C1.67 2.31 1.34 4.62 1 7 C-0.32 7 -1.64 7 -3 7 C-2.67 5.68 -2.34 4.36 -2 3 C-1.34 3 -0.68 3 0 3 C0 2.01 0 1.02 0 0 Z " fill="#090909" transform="translate(97,441)"/>
<path d="M0 0 C0 2.64 0 5.28 0 8 C-0.66 7.01 -1.32 6.02 -2 5 C-2.99 4.67 -3.98 4.34 -5 4 C-5 3.01 -5 2.02 -5 1 C-3 0 -3 0 0 0 Z " fill="#080808" transform="translate(236,432)"/>
<path d="M0 0 C2.0625 0.4375 2.0625 0.4375 4 1 C2.35 2.65 0.7 4.3 -1 6 C-1.66 5.67 -2.32 5.34 -3 5 C-1.125 1.125 -1.125 1.125 0 0 Z " fill="#232323" transform="translate(216,460)"/>
<path d="M0 0 C2.64 0 5.28 0 8 0 C8 1.32 8 2.64 8 4 C1.25 4.125 1.25 4.125 -1 3 C-0.67 2.01 -0.34 1.02 0 0 Z " fill="#3E3E3E" transform="translate(141,445)"/>
<path d="M0 0 C0.66 0 1.32 0 2 0 C2.1875 2.875 2.1875 2.875 2 6 C-1 8 -1 8 -3.1875 7.625 C-3.785625 7.41875 -4.38375 7.2125 -5 7 C-4.01 7 -3.02 7 -2 7 C-1.34 4.69 -0.68 2.38 0 0 Z " fill="#C6C6C6" transform="translate(232,437)"/>
<path d="M0 0 C1.98 0 3.96 0 6 0 C6 1.33333333 6 2.66666667 6 4 C4.02 4 2.04 4 0 4 C0 2.68 0 1.36 0 0 Z " fill="#EFEFEF" transform="translate(161,434)"/>
<path d="M0 0 C0.99 0.33 1.98 0.66 3 1 C1.73742767 2.17560179 0.46462916 3.34022865 -0.8125 4.5 C-1.87404297 5.47453125 -1.87404297 5.47453125 -2.95703125 6.46875 C-5 8 -5 8 -8 8 C-7.04578192 6.85073734 -6.08647955 5.70569459 -5.125 4.5625 C-4.59132812 3.92441406 -4.05765625 3.28632813 -3.5078125 2.62890625 C-2 1 -2 1 0 0 Z " fill="#DFDFDF" transform="translate(177,196)"/>
<path d="M0 0 C2.0625 0.75 2.0625 0.75 4 2 C4.33 2.99 4.66 3.98 5 5 C2.625 4.6875 2.625 4.6875 0 4 C-0.66 3.01 -1.32 2.02 -2 1 C-1.34 0.67 -0.68 0.34 0 0 Z " fill="#242324" transform="translate(216,472)"/>
<path d="M0 0 C0.5775 0.45375 1.155 0.9075 1.75 1.375 C3.7800333 2.84113516 5.73539843 3.94857784 8 5 C5.36 5 2.72 5 0 5 C-0.33 4.01 -0.66 3.02 -1 2 C-0.67 1.34 -0.34 0.68 0 0 Z " fill="#171617" transform="translate(262,443)"/>
<path d="M0 0 C0.66 0 1.32 0 2 0 C2.66 1.65 3.32 3.3 4 5 C3.34 5 2.68 5 2 5 C1.34 5.99 0.68 6.98 0 8 C0 5.36 0 2.72 0 0 Z " fill="#A5A5A5" transform="translate(222,437)"/>
</svg>
