<?xml version="1.0" encoding="UTF-8"?>
<svg version="1.1" xmlns="http://www.w3.org/2000/svg" width="500" height="500">
<path d="M0 0 C6.64460969 5.07478363 12.0399572 10.61204515 16 18 C16.4125 18.73863281 16.825 19.47726563 17.25 20.23828125 C22.04896703 30.68603238 22.01784683 46.30416136 18.5 57.1875 C13.05817057 69.03817384 3.84107705 79.40098046 -8.3125 84.5 C-22.04973884 89.2295658 -35.47331455 86.89935199 -48.96875 82.5859375 C-50.96792924 81.90761312 -50.96792924 81.90761312 -53 82 C-53.66 83.32 -54.32 84.64 -55 86 C-55.66 86 -56.32 86 -57 86 C-57.26425781 86.58426758 -57.52851563 87.16853516 -57.80078125 87.77050781 C-59.87634163 91.62922471 -63.01316286 94.57723525 -66 97.75 C-66.96292969 98.79607422 -66.96292969 98.79607422 -67.9453125 99.86328125 C-68.56148438 100.52199219 -69.17765625 101.18070312 -69.8125 101.859375 C-70.37582031 102.46233398 -70.93914062 103.06529297 -71.51953125 103.68652344 C-73 105 -73 105 -75 105 C-75 105.66 -75 106.32 -75 107 C-76.34130859 108.32226563 -76.34130859 108.32226563 -78.2734375 109.90625 C-83.47846073 114.33430147 -88.28271575 119.13215371 -93.10058594 123.97021484 C-94.62583741 125.50084036 -96.15638201 127.02602661 -97.6875 128.55078125 C-103.74685091 134.60219104 -103.74685091 134.60219104 -109.44921875 140.98828125 C-111.58397451 143.50879686 -113.65010846 145.59579799 -116.1875 147.6875 C-118.89032008 149.92119155 -120.97905649 152.12813291 -123 155 C-122.67386719 155.68964844 -122.34773438 156.37929687 -122.01171875 157.08984375 C-113.01825323 176.42977404 -110.74578534 196.62828213 -118 217 C-123.23055175 228.97068047 -130.77266713 238.91027184 -141 247 C-142.18142578 247.98806641 -142.18142578 247.98806641 -143.38671875 248.99609375 C-158.30964222 260.79613338 -176.67643075 264.25535057 -195.34765625 262.53125 C-205.91083051 260.99478829 -214.8724016 257.38152347 -224.13671875 252.29296875 C-226.98359933 250.61751128 -226.98359933 250.61751128 -230 252 C-231.10836423 253.88316159 -231.10836423 253.88316159 -232 256 C-232.66 256.99 -233.32 257.98 -234 259 C-234.66 259 -235.32 259 -236 259 C-236.23460937 259.56074219 -236.46921875 260.12148438 -236.7109375 260.69921875 C-240.13480037 266.81029521 -246.38366224 271.68798049 -251.6875 276.1875 C-260.49056311 283.73298267 -268.77664682 292.20175036 -276.26953125 301.04296875 C-282.1671072 307.71268782 -288.6632284 313.8965913 -295.44140625 319.66015625 C-296.67503179 320.72064136 -297.84968251 321.84968251 -299 323 C-298.80439394 324.60783882 -298.59338422 326.21496642 -298.31494141 327.81054688 C-296.33137335 341.600189 -296.96383747 355.22732979 -303.9375 367.375 C-306.13280996 370.16903086 -308.39732628 372.57890817 -311 375 C-311.50273437 375.4846875 -312.00546875 375.969375 -312.5234375 376.46875 C-322.90535197 386.02206096 -334.98754597 388.63582309 -348.66796875 388.3125 C-361.25054016 387.6471955 -371.78615777 382.00361492 -380.37109375 372.98046875 C-390.63008113 360.50731143 -393.23272916 346.73230854 -392 331 C-389.80096985 319.37455399 -381.58811491 308.71343329 -372 302 C-363.79066666 297.1519685 -355.91301002 294.60959955 -346.375 294.625 C-345.5917334 294.62298584 -344.8084668 294.62097168 -344.00146484 294.61889648 C-337.68253335 294.72788806 -332.52043326 295.95146166 -326.6015625 298.22265625 C-323.78930866 299.06295432 -322.66137768 299.16540328 -320 298 C-318.26379214 296.66401403 -318.26379214 296.66401403 -316.6875 294.9375 C-316.08292969 294.30714844 -315.47835937 293.67679687 -314.85546875 293.02734375 C-312.43635826 290.38414723 -310.09024762 287.68226841 -307.74609375 284.97265625 C-303.92131722 280.65159999 -299.83055621 276.67627125 -295.4375 272.9375 C-290.20570603 268.37902773 -285.33175476 263.47771517 -280.4375 258.5625 C-279.53064453 257.65951172 -278.62378906 256.75652344 -277.68945312 255.82617188 C-273.75006527 251.88107062 -269.87847836 247.93334319 -266.25390625 243.6953125 C-262.80401428 239.66831433 -258.94217666 236.29891834 -254.8359375 232.95898438 C-253.06948071 231.49307505 -253.06948071 231.49307505 -251 229 C-251.05191002 225.57393875 -252.36638043 222.97228123 -253.875 219.9375 C-261.98558141 202.27117905 -261.66516553 182.64608089 -255.8515625 164.39453125 C-252.23352439 154.97299269 -246.80359237 148.25250976 -240 141 C-239.36835938 140.30003906 -238.73671875 139.60007813 -238.0859375 138.87890625 C-226.01113237 126.0315425 -208.81516559 118.69310716 -191.328125 117.875 C-176.21452893 117.55513553 -160.97382242 119.88859445 -148.68359375 129.27734375 C-146.99678513 130.2282925 -146.99678513 130.2282925 -145.21606445 129.35644531 C-142.33204083 127.59114452 -140.22843082 125.43332259 -137.859375 123.01953125 C-137.37349915 122.52845383 -136.88762329 122.0373764 -136.38702393 121.53141785 C-134.83649697 119.96314352 -133.29280844 118.38836518 -131.75 116.8125 C-129.72743904 114.75305441 -127.70163853 112.69687873 -125.671875 110.64453125 C-125.18214706 110.14930466 -124.69241913 109.65407806 -124.18785095 109.1438446 C-120.81266477 105.75515981 -117.33625999 102.53910145 -113.68481445 99.45166016 C-109.38783429 95.74932078 -105.5240449 91.65162259 -101.84375 87.34375 C-97.77720268 82.67654211 -93.44932377 78.302112 -89.0625 73.9375 C-87.92264648 72.7918457 -87.92264648 72.7918457 -86.75976562 71.62304688 C-85.62764648 70.49286133 -85.62764648 70.49286133 -84.47265625 69.33984375 C-83.73547363 68.60233887 -82.99829102 67.86483398 -82.23876953 67.10498047 C-80.04907717 65.04614431 -77.75346145 63.26949401 -75.37109375 61.44140625 C-73.38940331 59.83131196 -73.38940331 59.83131196 -72 58 C-71.98058257 54.85437572 -72.27937301 52.95417254 -73 50 C-73.94172224 38.33021586 -74.13296125 27.32328294 -68 17 C-67.50757813 16.16082031 -67.01515625 15.32164063 -66.5078125 14.45703125 C-58.87507385 2.33560951 -48.72568057 -4.32412642 -34.9375 -7.4609375 C-23.00008101 -9.65158088 -10.13882355 -6.60584614 0 0 Z " fill="#040404" transform="translate(438,60)"/>
<path d="M0 0 C1.1461377 0.53657227 1.1461377 0.53657227 2.31542969 1.08398438 C4.45324171 2.09275568 6.57206871 3.13274066 8.6875 4.1875 C9.31760986 4.48390381 9.94771973 4.78030762 10.59692383 5.08569336 C13.60599172 6.64445433 14.86779433 7.68024675 16.17578125 10.84375 C15.94254081 15.03171168 14.12747268 17.24588122 11.5 20.3125 C11.04383301 20.87283936 10.58766602 21.43317871 10.11767578 22.01049805 C9.19470736 23.14387994 8.26521408 24.27198122 7.32910156 25.39453125 C5.45537228 27.65787507 3.6660068 29.98345412 1.875 32.3125 C0.91703899 33.54195687 -0.04113125 34.77125097 -1 36 C-4.68210019 35.44093767 -7.10367074 34.49900335 -10.1875 32.4375 C-55.05040743 4.70649036 -114.24393028 4.30669696 -164 16 C-167.42184541 16.81991587 -170.6902565 17.80712346 -174 19 C-174.60924316 19.21462891 -175.21848633 19.42925781 -175.84619141 19.65039062 C-197.20228592 27.25213735 -216.98457675 38.36138003 -235.0625 52 C-235.75666016 52.52078125 -236.45082031 53.0415625 -237.16601562 53.578125 C-242.76552875 57.78972461 -248.08941868 61.97915114 -253 67 C-254.09730376 68.08890945 -255.19636245 69.17605238 -256.296875 70.26171875 C-257.44794781 71.40361444 -258.59898906 72.54554195 -259.75 73.6875 C-260.33910156 74.26822266 -260.92820312 74.84894531 -261.53515625 75.44726562 C-264.64906764 78.43155316 -264.64906764 78.43155316 -267 82 C-267.66 82 -268.32 82 -269 82 C-269.33451172 82.76957031 -269.33451172 82.76957031 -269.67578125 83.5546875 C-271.53297517 86.98419603 -273.85612964 90.00503765 -276.1875 93.125 C-277.18552299 94.47609946 -278.18291886 95.82766238 -279.1796875 97.1796875 C-279.66405273 97.83549805 -280.14841797 98.49130859 -280.64746094 99.16699219 C-307.13214531 135.05995433 -319.50760623 178.84172434 -319.3125 223.1875 C-319.30976578 224.48000168 -319.30976578 224.48000168 -319.30697632 225.7986145 C-319.26503538 237.57800621 -318.96317929 249.06045326 -316.49609375 260.62109375 C-315.93066623 263.33247454 -315.45007935 266.05371701 -314.96875 268.78125 C-312.89850835 280.04228681 -310.08038737 290.55271719 -305.67895508 301.13842773 C-303.73303253 305.82987009 -302.46265551 309.93120071 -302 315 C-302.85722656 315.65226562 -303.71445312 316.30453125 -304.59765625 316.9765625 C-305.75293689 317.85893954 -306.9078617 318.74178259 -308.0625 319.625 C-308.65796631 320.0799585 -309.25343262 320.53491699 -309.86694336 321.00366211 C-313.02541108 323.43123049 -316.0952281 325.90106534 -319.0625 328.5625 C-323.04158367 331.86429283 -323.04158367 331.86429283 -326 332 C-330.572616 329.28566174 -332.10158087 326.26014134 -333.9375 321.375 C-334.18564453 320.71677246 -334.43378906 320.05854492 -334.68945312 319.38037109 C-335.4785694 317.25999379 -336.24071592 315.13122184 -337 313 C-337.2489502 312.32130859 -337.49790039 311.64261719 -337.75439453 310.94335938 C-361.05165377 247.13770606 -357.51820202 178.09086104 -329.22119141 116.58984375 C-325.20441924 108.07126735 -320.81052653 99.89021984 -315.4140625 92.15625 C-313.8441181 89.76230163 -312.5592621 87.29538107 -311.25 84.75 C-305.04708076 73.19806989 -296.06569876 63.37337441 -287 54 C-286.23155762 53.20432617 -285.46311523 52.40865234 -284.67138672 51.58886719 C-270.44271204 36.93228268 -256.35348018 24.72874225 -239 14 C-238.18402344 13.49082031 -237.36804688 12.98164062 -236.52734375 12.45703125 C-234.03910615 10.93335917 -231.52290815 9.4655898 -229 8 C-228.42459473 7.65388672 -227.84918945 7.30777344 -227.25634766 6.95117188 C-201.38135647 -8.56988348 -171.93580771 -19.01606697 -142 -23 C-141.28763184 -23.10151367 -140.57526367 -23.20302734 -139.84130859 -23.30761719 C-91.32408738 -30.02522327 -43.88020959 -20.99968416 0 0 Z " fill="#060606" transform="translate(355,28)"/>
<path d="M0 0 C15.35381239 29.30473836 25.05183373 62.33913634 25.203125 95.60546875 C25.20882507 96.60596756 25.21452515 97.60646637 25.22039795 98.63728333 C25.2298004 100.75093547 25.23636289 102.86460197 25.24023438 104.97827148 C25.24983592 108.13357988 25.28086196 111.28820623 25.3125 114.44335938 C25.40675943 132.36116438 23.7068749 149.88945567 19.375 167.3125 C19.12339111 168.33682129 18.87178223 169.36114258 18.61254883 170.41650391 C12.77939605 193.22435715 3.93384584 215.42802718 -8.87841797 235.22167969 C-10.17168363 237.27221235 -11.40138879 239.35477286 -12.62890625 241.4453125 C-17.13184658 249.07788323 -21.51475857 256.27303932 -27.734375 262.6640625 C-29.6505477 264.63970262 -31.44396306 266.65390507 -33.23828125 268.73828125 C-37.12165572 273.20224046 -41.24378229 277.39143063 -45.4375 281.5625 C-46.14970703 282.27857422 -46.86191406 282.99464844 -47.59570312 283.73242188 C-62.2730058 298.38306279 -78.76915694 310.79562714 -97.125 320.48046875 C-99.20320139 321.57886595 -101.26376026 322.71086515 -103.3125 323.86328125 C-121.9822354 334.2999862 -142.5754817 341.58243514 -163.3125 346.6875 C-164.06845459 346.87787842 -164.82440918 347.06825684 -165.60327148 347.2644043 C-183.19069331 351.39256053 -200.73938793 352.5469463 -218.75 352.4375 C-219.80038452 352.43479095 -220.85076904 352.43208191 -221.9329834 352.42929077 C-237.64710786 352.36790047 -252.65141199 351.61802901 -268 348 C-269.74082372 347.6221115 -271.48170906 347.24450677 -273.22265625 346.8671875 C-289.11708456 343.27412463 -304.31271379 337.67988775 -319.3125 331.375 C-320.1780249 331.0150293 -321.0435498 330.65505859 -321.93530273 330.28417969 C-327.12654565 328.0470751 -331.77453541 325.79778599 -336 322 C-336.80078125 319.19140625 -336.80078125 319.19140625 -336 316 C-334.31214365 313.10279943 -332.29443014 310.54017841 -330.1875 307.9375 C-329.095615 306.55238793 -328.00571737 305.16570654 -326.91796875 303.77734375 C-326.40153809 303.13007324 -325.88510742 302.48280273 -325.35302734 301.81591797 C-323.83852556 299.88178684 -323.83852556 299.88178684 -322.42578125 297.00390625 C-321 295 -321 295 -318.74609375 294.46875 C-315.14201837 295.16598222 -312.24268034 296.75039794 -309.0625 298.5 C-291.20712751 307.77879259 -272.75568345 312.63851207 -253 316 C-251.43100952 316.27384521 -251.43100952 316.27384521 -249.83032227 316.55322266 C-200.43204629 325.03858095 -143.93712201 312.66969378 -102.453125 284.46875 C-101.30052298 283.64802024 -100.14963893 282.82487519 -99 282 C-98.26587891 281.48179687 -97.53175781 280.96359375 -96.77539062 280.4296875 C-86.57187133 273.20391313 -76.94393815 265.74518396 -68 257 C-67.11957031 256.16984375 -66.23914063 255.3396875 -65.33203125 254.484375 C-60.28989497 249.63293978 -56.03632206 244.61980377 -52.046875 238.875 C-49.90320068 235.8640376 -47.58936581 233.04838048 -45.25 230.1875 C-38.2059224 221.27332544 -33.15596428 211.0773166 -28 201 C-27.39164307 199.81422363 -27.39164307 199.81422363 -26.77099609 198.60449219 C-19.88592875 185.02404511 -15.64097523 171.3941366 -12.3125 156.5625 C-12.10987549 155.67030762 -11.90725098 154.77811523 -11.69848633 153.85888672 C-8.60372845 139.42184768 -7.61374158 125.03716493 -7.6875 110.3125 C-7.68965515 109.52908234 -7.6918103 108.74566467 -7.69403076 107.93850708 C-7.75052234 95.0713267 -8.53805243 82.65373601 -11 70 C-11.28206299 68.45022461 -11.28206299 68.45022461 -11.56982422 66.86914062 C-14.74572443 49.67834905 -19.95388688 33.9844317 -27 18 C-26.47108154 17.53746826 -25.94216309 17.07493652 -25.3972168 16.59838867 C-21.01661233 12.76694289 -21.01661233 12.76694289 -16.64453125 8.92578125 C-15.37087539 7.8042037 -14.09181332 6.68874778 -12.80859375 5.578125 C-11.30619691 4.2671783 -9.83614273 2.91927539 -8.375 1.5625 C-5.39470692 -0.39821913 -3.49936621 -0.11984131 0 0 Z " fill="#050505" transform="translate(473,146)"/>
<path d="M0 0 C1.95458984 0.89575195 1.95458984 0.89575195 3.07958984 3.03442383 C3.51271484 4.4353125 3.51271484 4.4353125 3.95458984 5.86450195 C4.44644775 7.42007813 4.44644775 7.42007813 4.94824219 9.00708008 C5.28033691 10.1253418 5.61243164 11.24360352 5.95458984 12.39575195 C6.30344238 13.53979492 6.65229492 14.68383789 7.01171875 15.86254883 C8.01622141 19.20055952 8.990749 22.54580457 9.95458984 25.89575195 C10.31182129 27.10618164 10.31182129 27.10618164 10.67626953 28.34106445 C22.65982493 69.64527449 16.16392823 118.48421593 -3.94384766 156.2121582 C-12.20076498 171.03654834 -23.56596685 185.41256673 -36.04541016 196.89575195 C-36.70541016 196.89575195 -37.36541016 196.89575195 -38.04541016 196.89575195 C-38.70541016 198.21575195 -39.36541016 199.53575195 -40.04541016 200.89575195 C-40.70541016 200.89575195 -41.36541016 200.89575195 -42.04541016 200.89575195 C-42.37541016 201.88575195 -42.70541016 202.87575195 -43.04541016 203.89575195 C-44.42138672 205.2109375 -44.42138672 205.2109375 -46.18603516 206.5324707 C-46.83765625 207.02328125 -47.48927734 207.5140918 -48.16064453 208.01977539 C-48.86511719 208.53572266 -49.56958984 209.05166992 -50.29541016 209.58325195 C-51.02050781 210.11853516 -51.74560547 210.65381836 -52.49267578 211.20532227 C-73.49842134 226.54006979 -95.91829513 236.11507837 -121.10791016 242.27075195 C-122.13005615 242.52163574 -123.15220215 242.77251953 -124.20532227 243.03100586 C-160.48964757 251.50492673 -201.32867316 244.93731989 -235.04541016 229.89575195 C-235.70541016 229.23575195 -236.36541016 228.57575195 -237.04541016 227.89575195 C-236.71564654 224.19790618 -235.58318469 221.80484818 -233.42822266 218.8293457 C-232.90357422 218.09651367 -232.37892578 217.36368164 -231.83837891 216.60864258 C-231.28794922 215.85776367 -230.73751953 215.10688477 -230.17041016 214.33325195 C-229.62771484 213.57850586 -229.08501953 212.82375977 -228.52587891 212.04614258 C-226.06783555 208.6355323 -223.57300902 205.25513002 -221.04541016 201.89575195 C-216.99925578 202.22381852 -213.93949355 203.36611784 -210.35791016 205.14575195 C-205.20653893 207.57697367 -200.03748282 209.15011442 -194.54541016 210.58325195 C-193.38972534 210.88634277 -193.38972534 210.88634277 -192.21069336 211.19555664 C-189.82900205 211.79767946 -187.44237766 212.35769608 -185.04541016 212.89575195 C-184.20075195 213.08556641 -183.35609375 213.27538086 -182.48583984 213.47094727 C-147.03060873 220.70697289 -109.29859893 210.71214256 -79.04541016 191.89575195 C-75.11450279 189.16559289 -71.40501812 186.20876048 -67.76025391 183.1105957 C-65.04541016 180.89575195 -65.04541016 180.89575195 -62.73681641 179.7746582 C-60.678197 178.95411936 -60.678197 178.95411936 -60.04541016 175.89575195 C-58.63041677 174.7165908 -57.21216867 173.5410652 -55.77587891 172.38793945 C-52.48834515 169.55309093 -49.79100235 166.24582638 -47.04541016 162.89575195 C-46.37767578 162.10040039 -45.70994141 161.30504883 -45.02197266 160.4855957 C-21.87825532 131.45150988 -11.70520149 94.55112459 -15.35449219 57.78149414 C-16.76615687 46.2898585 -19.08158074 35.26198669 -23.20214844 24.42553711 C-24.20254724 21.76479388 -25.05920807 19.47329316 -24.99072266 16.60668945 C-23.64862914 14.1776111 -21.96152327 13.20928029 -19.60791016 11.77075195 C-17.13370849 10.23777949 -15.10819603 8.95853783 -13.04541016 6.89575195 C-11.27868358 5.63100007 -9.48310737 4.40618724 -7.67041016 3.20825195 C-6.23568359 2.24338867 -6.23568359 2.24338867 -4.77197266 1.2590332 C-2.04541016 -0.10424805 -2.04541016 -0.10424805 0 0 Z " fill="#090909" transform="translate(413.04541015625,182.104248046875)"/>
<path d="M0 0 C-0.56127009 3.87673909 -1.64085691 6.36823197 -3.87109375 9.57421875 C-4.44537109 10.40630859 -5.01964844 11.23839844 -5.61132812 12.09570312 C-6.5152832 13.37864258 -6.5152832 13.37864258 -7.4375 14.6875 C-8.03626953 15.55439453 -8.63503906 16.42128906 -9.25195312 17.31445312 C-13.66569675 23.66569675 -13.66569675 23.66569675 -16 26 C-20.49206448 25.65133796 -24.35067159 23.56578053 -28.375 21.6875 C-57.62058794 8.5691087 -94.7401353 6.37986283 -124.9609375 17.74609375 C-125.96382812 18.15988281 -126.96671875 18.57367188 -128 19 C-128.69899414 19.27859863 -129.39798828 19.55719727 -130.11816406 19.84423828 C-147.60594518 26.82124744 -164.45330295 34.74476372 -177.58349609 48.68066406 C-179 50 -179 50 -181 50 C-181.495 51.485 -181.495 51.485 -182 53 C-183.44026024 54.19537449 -184.88342269 55.38757625 -186.34667969 56.5546875 C-189.18363603 59.03472021 -191.35950316 62.00493638 -193.625 65 C-194.55456165 66.20843015 -195.484247 67.41676516 -196.4140625 68.625 C-196.85500244 69.20548096 -197.29594238 69.78596191 -197.75024414 70.3840332 C-198.82903528 71.77893818 -199.95898733 73.13399806 -201.09765625 74.48046875 C-203.42758377 77.56630705 -205.12803888 80.85004361 -206.8125 84.3125 C-207.32635254 85.35821167 -207.32635254 85.35821167 -207.85058594 86.42504883 C-225.02611227 121.70611272 -232.7422446 160.62895364 -220.3125 198.875 C-220.08602783 199.52355957 -219.85955566 200.17211914 -219.6262207 200.84033203 C-218.41572899 204.33051366 -217.50697689 207.29903986 -218 211 C-222.10810811 215 -222.10810811 215 -225 215 C-225 215.66 -225 216.32 -225 217 C-226.68125012 218.19542478 -228.42248083 219.30712843 -230.1875 220.375 C-234.01904547 222.7036769 -237.54798132 225.1348876 -241 228 C-243.54657009 227.02693108 -244.7547651 226.47215831 -246.03320312 224.01074219 C-246.28005859 223.19766602 -246.52691406 222.38458984 -246.78125 221.546875 C-247.06403809 220.62865967 -247.34682617 219.71044434 -247.63818359 218.7644043 C-247.92258301 217.76965088 -248.20698242 216.77489746 -248.5 215.75 C-248.95173584 214.20856323 -248.95173584 214.20856323 -249.41259766 212.63598633 C-254.05842163 196.28563488 -256.63621765 179.9806909 -257 163 C-257.05994141 161.27330078 -257.05994141 161.27330078 -257.12109375 159.51171875 C-257.44929168 143.08251657 -255.50541529 126.79072691 -251 111 C-250.63430908 109.70594238 -250.63430908 109.70594238 -250.26123047 108.38574219 C-246.66115184 95.8704474 -242.2340605 84.42265743 -236 73 C-235.29810547 71.58267578 -235.29810547 71.58267578 -234.58203125 70.13671875 C-228.21114439 57.52572569 -218.76031953 46.13155197 -209 36 C-208.48711426 35.46133301 -207.97422852 34.92266602 -207.44580078 34.36767578 C-199.91065451 26.48458625 -192.25655453 18.87076781 -183 13 C-182.34 13 -181.68 13 -181 13 C-181 12.34 -181 11.68 -181 11 C-178.86109942 9.51874988 -176.74262041 8.18356403 -174.5 6.875 C-173.8287207 6.47901611 -173.15744141 6.08303223 -172.46582031 5.67504883 C-161.77525215 -0.54624727 -150.81993635 -6.25991333 -139 -10 C-137.19595703 -10.59748047 -137.19595703 -10.59748047 -135.35546875 -11.20703125 C-92.25687423 -25.05451819 -39.72849672 -23.11476173 0 0 Z " fill="#090909" transform="translate(329,93)"/>
<path d="M0 0 C0.66 0 1.32 0 2 0 C-0.07761659 13.50450786 -8.60618182 26.18746569 -15.375 37.8125 C-15.72481934 38.41916504 -16.07463867 39.02583008 -16.43505859 39.65087891 C-23.06115293 51.09876445 -30.62641079 61.70442048 -39.6875 71.375 C-40.1731543 71.89336426 -40.65880859 72.41172852 -41.15917969 72.94580078 C-59.41581625 92.28545815 -59.41581625 92.28545815 -69 100 C-69.94875 100.76441406 -70.8975 101.52882813 -71.875 102.31640625 C-82.00489217 110.34676654 -92.68228313 117.44310505 -104.125 123.48046875 C-106.20320139 124.57886595 -108.26376026 125.71086515 -110.3125 126.86328125 C-123.49428483 134.23212693 -137.48013509 139.56471728 -151.75 144.4375 C-152.46389893 144.6845166 -153.17779785 144.9315332 -153.91333008 145.18603516 C-158.61140017 146.74005905 -163.07336364 147.51948726 -168 148 C-167.67 147.01 -167.34 146.02 -167 145 C-165.39714918 144.48845187 -163.78636395 143.99473655 -162.15234375 143.59375 C-159.7192978 142.92256491 -157.45845516 142.02354861 -155.125 141.0625 C-151.92356106 139.74995847 -148.73334036 138.55259823 -145.4375 137.5 C-141.57011009 136.24938534 -137.94454121 134.66323284 -134.25390625 132.96875 C-132.00852768 132.00366528 -129.76724511 131.23528834 -127.4375 130.5 C-123.70752639 129.31289536 -120.38982693 127.73141532 -116.9296875 125.91796875 C-114.03290998 124.53994706 -111.10729459 123.77682365 -108 123 C-108 122.34 -108 121.68 -108 121 C-106.96875 120.4225 -105.9375 119.845 -104.875 119.25 C-98.55461103 115.64485472 -98.55461103 115.64485472 -93 111 C-92.21625 110.71125 -91.4325 110.4225 -90.625 110.125 C-87.65887681 108.85380435 -86.23006034 107.29974972 -84 105 C-82.35666496 103.96210419 -80.68756133 102.96432076 -79 102 C-74.06828154 98.91767596 -70.26082765 95.42829636 -66.3125 91.1875 C-65 90 -65 90 -63 90 C-62.505 88.515 -62.505 88.515 -62 87 C-61.01 86.67 -60.02 86.34 -59 86 C-57.28547658 84.30846256 -57.28547658 84.30846256 -55.625 82.25 C-52.88127966 79.00847386 -50.00372191 76.00372191 -47 73 C-46.443125 72.236875 -45.88625 71.47375 -45.3125 70.6875 C-44.6628125 69.8521875 -44.6628125 69.8521875 -44 69 C-43.34 69 -42.68 69 -42 69 C-41.34 67.35 -40.68 65.7 -40 64 C-39.34 64 -38.68 64 -38 64 C-38 63.34 -38 62.68 -38 62 C-37.34 62 -36.68 62 -36 62 C-35.7525 61.443125 -35.505 60.88625 -35.25 60.3125 C-33.77075182 57.57589087 -32.06532561 55.32349131 -30 53 C-29.34 53 -28.68 53 -28 53 C-27.74992188 52.31808594 -27.49984375 51.63617188 -27.2421875 50.93359375 C-25.78398076 47.48984136 -23.99564315 44.29266261 -22.125 41.0625 C-21.61646484 40.17014648 -21.61646484 40.17014648 -21.09765625 39.25976562 C-19.43371979 36.36527539 -17.71495392 33.57554047 -15.8515625 30.80078125 C-14.37727792 28.57069255 -13.23549994 26.58874984 -12.25 24.125 C-11.8375 23.09375 -11.425 22.0625 -11 21 C-10.34 21 -9.68 21 -9 21 C-8.9071875 20.33484375 -8.814375 19.6696875 -8.71875 18.984375 C-7.79289358 15.14005814 -6.20514042 11.80408787 -4.5 8.25 C-4.17902344 7.56550781 -3.85804688 6.88101562 -3.52734375 6.17578125 C-1.14773261 1.14773261 -1.14773261 1.14773261 0 0 Z " fill="#3C3C3C" transform="translate(480,343)"/>
<path d="M0 0 C15.35381239 29.30473836 25.05183373 62.33913634 25.203125 95.60546875 C25.20882507 96.60596756 25.21452515 97.60646637 25.22039795 98.63728333 C25.2298004 100.75093547 25.23636289 102.86460197 25.24023438 104.97827148 C25.24983592 108.13357988 25.28086196 111.28820623 25.3125 114.44335938 C25.40814317 132.57284713 23.63267801 150.20229207 19.1875 167.8125 C18.93468262 168.84366943 18.68186523 169.87483887 18.42138672 170.93725586 C16.17575892 179.8374412 13.31775383 188.44678356 10 197 C9.67 197 9.34 197 9 197 C8.4631948 190.01140397 10.45869881 183.81641914 12.3125 177.125 C15.09068244 166.80354681 17.43437209 156.57171609 19 146 C19.66 146 20.32 146 21 146 C21.07072827 138.60881576 21.12341435 131.21766815 21.15543652 123.82621861 C21.17083569 120.39093819 21.19157568 116.95589552 21.22631836 113.52075195 C21.9723911 82.21866359 21.9723911 82.21866359 15.04296875 51.9609375 C13.37205117 47.21728385 12.42789991 42.31820171 11.39477539 37.40258789 C9.81747336 29.38179091 9.81747336 29.38179091 6.875 21.8125 C6 20 6 20 6 16 C5.34 16 4.68 16 4 16 C2.02 12.37 0.04 8.74 -2 5 C-7.76912459 5.74655886 -7.76912459 5.74655886 -11.5 8.9375 C-14.47249982 11.69815128 -16.99831741 13.02397986 -21 14 C-19.85611961 12.85611961 -18.71191726 11.71255995 -17.56640625 10.5703125 C-16.44408974 9.4451972 -15.32755048 8.31430749 -14.21484375 7.1796875 C-13.60769531 6.56351563 -13.00054687 5.94734375 -12.375 5.3125 C-11.80523437 4.73113281 -11.23546875 4.14976562 -10.6484375 3.55078125 C-7.0402315 0.15633153 -4.82178214 -0.21430143 0 0 Z " fill="#9B9B9B" transform="translate(473,146)"/>
<path d="M0 0 C1.1461377 0.53657227 1.1461377 0.53657227 2.31542969 1.08398438 C4.45324171 2.09275568 6.57206871 3.13274066 8.6875 4.1875 C9.31760986 4.48390381 9.94771973 4.78030762 10.59692383 5.08569336 C13.78571963 6.73755719 14.87630095 7.62366942 16.015625 11.08984375 C16 14 16 14 14.0625 16.375 C13.381875 16.91125 12.70125 17.4475 12 18 C11.938125 16.741875 11.87625 15.48375 11.8125 14.1875 C11.37943243 10.64438665 11.37943243 10.64438665 8.8125 8.125 C6.86074641 7.34429856 4.87709361 6.64066995 2.875 6 C0 5 0 5 -1.3125 3.62109375 C-7.44963021 -2.27452902 -17.66492395 -4.67822127 -25.65625 -6.99609375 C-30.44062737 -8.43252481 -35.11547322 -10.14398446 -39.80859375 -11.8515625 C-40.86175781 -12.23054687 -41.91492188 -12.60953125 -43 -13 C-43.96292969 -13.35835937 -44.92585937 -13.71671875 -45.91796875 -14.0859375 C-49.54297148 -15.16103337 -53.12985603 -15.61096886 -56.875 -16 C-65.3541743 -16.95584463 -65.3541743 -16.95584463 -69.125 -18.0625 C-81.85519751 -21.14238649 -95.84832745 -20.23720789 -108.875 -20.25 C-109.86779968 -20.25200409 -110.86059937 -20.25400818 -111.88348389 -20.256073 C-135.74887864 -20.60155539 -135.74887864 -20.60155539 -159 -16 C-160.72795352 -15.93197033 -162.45835365 -15.91504355 -164.1875 -15.9375 C-165.08855469 -15.94652344 -165.98960937 -15.95554687 -166.91796875 -15.96484375 C-167.60503906 -15.97644531 -168.29210937 -15.98804688 -169 -16 C-169 -15.34 -169 -14.68 -169 -14 C-171.31 -13.67 -173.62 -13.34 -176 -13 C-176 -12.67 -176 -12.34 -176 -12 C-178.64 -12 -181.28 -12 -184 -12 C-181.27858287 -13.81427809 -179.56826711 -14.54711782 -176.4921875 -15.40234375 C-175.59677246 -15.65145508 -174.70135742 -15.90056641 -173.77880859 -16.15722656 C-172.82055176 -16.4147168 -171.86229492 -16.67220703 -170.875 -16.9375 C-169.8845166 -17.20401367 -168.8940332 -17.47052734 -167.87353516 -17.74511719 C-159.3036902 -20.00186604 -150.77710465 -21.79193803 -142 -23 C-141.28328125 -23.10296387 -140.5665625 -23.20592773 -139.828125 -23.31201172 C-91.31493271 -30.02286196 -43.87583421 -20.99759024 0 0 Z " fill="#292929" transform="translate(355,28)"/>
<path d="M0 0 C0.33 0 0.66 0 1 0 C1.25 7.625 1.25 7.625 -1 11 C-1.43738696 12.71444889 -1.80848688 14.44667784 -2.125 16.1875 C-2.37636719 17.53908203 -2.37636719 17.53908203 -2.6328125 18.91796875 C-2.75398438 19.60503906 -2.87515625 20.29210937 -3 21 C-3.66 21 -4.32 21 -5 21 C-5.20302734 22.28583984 -5.20302734 22.28583984 -5.41015625 23.59765625 C-6.57296938 30.30500882 -8.08492124 36.98562292 -10.0625 43.5 C-12.67770488 53.26343155 -13.30180088 63.04905356 -13.265625 73.11328125 C-13.26753845 74.32533737 -13.2694519 75.53739349 -13.27142334 76.78617859 C-13.27277548 79.33833017 -13.26914748 81.89048886 -13.26074219 84.44262695 C-13.25013282 88.2646512 -13.26061776 92.08619424 -13.2734375 95.90820312 C-13.28076208 107.82018069 -13.06178537 119.66527078 -12.109375 131.54296875 C-11.99314789 133.02546867 -11.99314789 133.02546867 -11.87457275 134.53791809 C-11.46595109 139.05144544 -10.96725873 142.85861408 -9 147 C-8.5859375 149.67578125 -8.5859375 149.67578125 -8.375 152.3125 C-8.30023438 153.19550781 -8.22546875 154.07851563 -8.1484375 154.98828125 C-8.09945313 155.65214844 -8.05046875 156.31601562 -8 157 C-7.34 157 -6.68 157 -6 157 C-5.76925781 158.14855469 -5.53851563 159.29710937 -5.30078125 160.48046875 C-3.50391625 169.12951593 -1.47988976 177.17435041 2.046875 185.30078125 C3.02206918 188.0624992 3.19035487 190.09708825 3 193 C-0.63017407 188.53952356 -2.03799682 183.71934376 -3.8125 178.3125 C-4.16143311 177.25393799 -4.51036621 176.19537598 -4.86987305 175.10473633 C-23.06857358 118.58597303 -24.28262094 55.02104442 0 0 Z " fill="#A5A5A5" transform="translate(20,158)"/>
<path d="M0 0 C-0.33 0.99 -0.66 1.98 -1 3 C-3.33010909 3.67784992 -5.66359824 4.34416793 -8 5 C-8.66 5.99 -9.32 6.98 -10 8 C-12.46875 9.02734375 -12.46875 9.02734375 -15.5 9.9375 C-25.1275077 12.98199826 -33.44801255 16.61009194 -42 22 C-45.01575744 23.84296288 -48.0525879 25.55828677 -51.1875 27.1875 C-55.77499738 29.71062356 -59.68397114 32.81964487 -63.7109375 36.1484375 C-66 38 -66 38 -69.3125 40.1875 C-72.11872547 41.95569097 -72.11872547 41.95569097 -74.5625 44.5625 C-77 47 -77 47 -79.375 48.375 C-84.12871301 51.31777472 -87.72417776 55.66194253 -91.5625 59.6875 C-94 62 -94 62 -96.9375 63.8125 C-100.15613456 66.11152469 -101.84981942 68.21824773 -104.10546875 71.40234375 C-106.60016086 74.82290098 -109.27244645 78.08653254 -111.9375 81.375 C-118.15794006 89.10978298 -123.84685364 96.85071137 -128.63745117 105.55664062 C-130.89904577 109.61219316 -133.28423198 113.58975082 -135.6875 117.5625 C-136.17283203 118.38041016 -136.65816406 119.19832031 -137.15820312 120.04101562 C-137.62548828 120.81251953 -138.09277344 121.58402344 -138.57421875 122.37890625 C-138.99276123 123.0757251 -139.41130371 123.77254395 -139.8425293 124.49047852 C-140.22449463 124.98862061 -140.60645996 125.4867627 -141 126 C-141.66 126 -142.32 126 -143 126 C-141.74439363 121.87702333 -140.22080581 118.37638658 -138 114.6875 C-137.06607422 113.12902344 -137.06607422 113.12902344 -136.11328125 111.5390625 C-135.77377441 110.97477539 -135.43426758 110.41048828 -135.08447266 109.82910156 C-133.92045536 107.86583781 -132.79223388 105.88471618 -131.66796875 103.8984375 C-123.64482686 89.80714462 -114.2876819 77.67076818 -103 66 C-102.23155762 65.20432617 -101.46311523 64.40865234 -100.67138672 63.58886719 C-86.44271204 48.93228268 -72.35348018 36.72874225 -55 26 C-54.18402344 25.49082031 -53.36804688 24.98164062 -52.52734375 24.45703125 C-50.03899537 22.93329133 -47.52415329 21.46373077 -45 20 C-44.40864258 19.64856934 -43.81728516 19.29713867 -43.20800781 18.93505859 C-33.77828824 13.35112165 -24.18103834 8.5959887 -14.0625 4.375 C-13.01368652 3.93704102 -11.96487305 3.49908203 -10.88427734 3.04785156 C-3.4046384 0 -3.4046384 0 0 0 Z " fill="#888888" transform="translate(171,16)"/>
<path d="M0 0 C0.33 0 0.66 0 1 0 C1.40908311 3.98856031 0.9095476 6.34105411 -1 9.75 C-5.13178435 18.47101626 -4.19916869 30.36851244 -1.375 39.375 C-0.62639346 41.26760386 0.16671867 43.14312 1 45 C1.45890625 46.07507813 1.9178125 47.15015625 2.390625 48.2578125 C5.12605745 54.23257286 7.14644362 57.93385142 13 61 C13 61.66 13 62.32 13 63 C13.66 63 14.32 63 15 63 C15 63.66 15 64.32 15 65 C16.5778125 65.185625 16.5778125 65.185625 18.1875 65.375 C21.50557178 65.91894619 23.92934871 66.74024563 27 68 C42.53058296 71.11958242 54.15367501 68.00542186 67.58984375 60.3671875 C70 59 70 59 72.23828125 57.953125 C74.52039479 56.71845603 75.05465394 55.36336515 76 53 C76.99 53 77.98 53 79 53 C79 55 79 55 76.9375 57.25 C75.96493357 58.17366644 74.9851972 59.08981781 74 60 C73.23816406 60.73476563 73.23816406 60.73476563 72.4609375 61.484375 C62.08175194 71.02732286 50.00325818 73.63560575 36.33203125 73.3125 C23.74945984 72.6471955 13.21384223 67.00361492 4.62890625 57.98046875 C-5.56661986 45.58446938 -8.36971577 31.67177334 -7 16 C-5.65079694 10.09556681 -3.27941499 5.07635472 0 0 Z " fill="#8C8C8C" transform="translate(53,375)"/>
<path d="M0 0 C2.6875 -0.3125 2.6875 -0.3125 5 0 C5.33 0.66 5.66 1.32 6 2 C5.38125 2.0825 4.7625 2.165 4.125 2.25 C1.84957521 2.79923543 1.84957521 2.79923543 0.875 4.875 C0.441875 5.926875 0.441875 5.926875 0 7 C-0.99 8.485 -0.99 8.485 -2 10 C-2.66 10 -3.32 10 -4 10 C-4.2475 10.721875 -4.495 11.44375 -4.75 12.1875 C-6 15 -6 15 -8 17.4375 C-10.1682954 20.21562849 -11.05903063 22.62819311 -12 26 C-11.40832031 26.18175781 -10.81664062 26.36351562 -10.20703125 26.55078125 C-9.41683594 26.80214844 -8.62664062 27.05351562 -7.8125 27.3125 C-7.03519531 27.55613281 -6.25789062 27.79976563 -5.45703125 28.05078125 C-2.7534533 29.09524777 -0.48263631 30.51041821 2 32 C3.7942216 32.73388103 5.60802559 33.42153521 7.4375 34.0625 C8.40558594 34.40539062 9.37367188 34.74828125 10.37109375 35.1015625 C12.23862765 35.73979845 14.11625499 36.34882968 16 36.9375 C19 38 19 38 21.16088867 39.06787109 C28.9393532 42.90647867 36.88908011 44.87416068 45.3125 46.6875 C47.95551315 47.26997784 50.59687759 47.85944222 53.23828125 48.44921875 C54.39368408 48.70018311 55.54908691 48.95114746 56.73950195 49.2097168 C59.90057218 49.97590057 62.93175894 50.92493855 66 52 C66 52.66 66 53.32 66 54 C67.485 54.495 67.485 54.495 69 55 C61.14130754 54.49971701 53.7050825 53.25072049 46.0625 51.375 C44.97420898 51.10921143 43.88591797 50.84342285 42.76464844 50.56958008 C28.59926567 47.00959027 15.14262271 42.018951 1.6875 36.375 C0.82157227 36.01494873 -0.04435547 35.65489746 -0.93652344 35.28393555 C-6.12719266 33.04649035 -10.77480615 30.79754265 -15 27 C-15.80078125 24.19140625 -15.80078125 24.19140625 -15 21 C-13.31214365 18.10279943 -11.29443014 15.54017841 -9.1875 12.9375 C-8.095615 11.55238793 -7.00571737 10.16570654 -5.91796875 8.77734375 C-5.40451904 8.12967041 -4.89106934 7.48199707 -4.36206055 6.81469727 C-2.8452189 4.86932873 -2.8452189 4.86932873 -1.28125 2.0234375 C-0.8584375 1.35570312 -0.435625 0.68796875 0 0 Z " fill="#3C3C3C" transform="translate(152,441)"/>
<path d="M0 0 C-11.3425979 10.07502434 -23.78140811 18.51371654 -37.23046875 25.55078125 C-39.27174514 26.61892447 -41.29248194 27.7265431 -43.30078125 28.85546875 C-56.48497041 36.22973741 -70.47577175 41.56322732 -84.75 46.4375 C-85.82084839 46.8080249 -85.82084839 46.8080249 -86.91333008 47.18603516 C-91.61140017 48.74005905 -96.07336364 49.51948726 -101 50 C-100.67 49.01 -100.34 48.02 -100 47 C-98.39714918 46.48845187 -96.78636395 45.99473655 -95.15234375 45.59375 C-92.7192978 44.92256491 -90.45845516 44.02354861 -88.125 43.0625 C-84.92356106 41.74995847 -81.73334036 40.55259823 -78.4375 39.5 C-74.57011009 38.24938534 -70.94454121 36.66323284 -67.25390625 34.96875 C-65.00852768 34.00366528 -62.76724511 33.23528834 -60.4375 32.5 C-56.70752639 31.31289536 -53.38982693 29.73141532 -49.9296875 27.91796875 C-47.03290998 26.53994706 -44.10729459 25.77682365 -41 25 C-41 24.34 -41 23.68 -41 23 C-39.96875 22.4225 -38.9375 21.845 -37.875 21.25 C-31.55461103 17.64485472 -31.55461103 17.64485472 -26 13 C-25.21625 12.71125 -24.4325 12.4225 -23.625 12.125 C-20.65887681 10.85380435 -19.23006034 9.29974972 -17 7 C-15.35666496 5.96210419 -13.68756133 4.96432076 -12 4 C-10.989375 3.29875 -9.97875 2.5975 -8.9375 1.875 C-3.36448598 -1.68224299 -3.36448598 -1.68224299 0 0 Z " fill="#7D7D7D" transform="translate(413,441)"/>
<path d="M0 0 C4.04277452 4.04277452 3.16937776 10.4731755 3.203125 15.90625 C3.21018463 16.65940491 3.21724426 17.41255981 3.22451782 18.1885376 C3.45286388 49.77816667 -0.49386816 79.33702891 -12 109 C-12.33 109 -12.66 109 -13 109 C-13.5368052 102.01140397 -11.54130119 95.81641914 -9.6875 89.125 C-6.90931756 78.80354681 -4.56562791 68.57171609 -3 58 C-2.34 58 -1.68 58 -1 58 C-0.67 38.86 -0.34 19.72 0 0 Z " fill="#4A4A4A" transform="translate(495,234)"/>
<path d="M0 0 C7.39990244 -0.38369865 14.16559466 1.04138356 21.375 2.625 C23.2468396 3.03431763 23.2468396 3.03431763 25.15649414 3.4519043 C46.45726434 8.23910474 66.25258676 16.43044609 85.75 26.1875 C86.97481079 26.7748291 86.97481079 26.7748291 88.22436523 27.37402344 C93.7169089 30.21493292 93.7169089 30.21493292 95.13671875 34.15234375 C95 37 95 37 93.0625 39.375 C92.381875 39.91125 91.70125 40.4475 91 41 C90.938125 39.741875 90.87625 38.48375 90.8125 37.1875 C90.37943243 33.64438665 90.37943243 33.64438665 87.8125 31.125 C85.86074641 30.34429856 83.87709361 29.64066995 81.875 29 C79 28 79 28 77.6875 26.62109375 C71.55036979 20.72547098 61.33507605 18.32177873 53.34375 16.00390625 C48.55937263 14.56747519 43.88452678 12.85601554 39.19140625 11.1484375 C38.13824219 10.76945313 37.08507812 10.39046875 36 10 C34.55947266 9.46052734 34.55947266 9.46052734 33.08984375 8.91015625 C28.76154108 7.63519478 24.39601877 7.27643025 19.921875 6.87695312 C15.33023411 6.39062475 12.04287261 5.16850229 8 3 C5.66822025 2.65596692 3.33512959 2.32050798 1 2 C0.67 1.34 0.34 0.68 0 0 Z " fill="#7E7E7E" transform="translate(276,5)"/>
<path d="M0 0 C0.33 0 0.66 0 1 0 C1.25 7.625 1.25 7.625 -1 11 C-1.43738696 12.71444889 -1.80848688 14.44667784 -2.125 16.1875 C-2.37636719 17.53908203 -2.37636719 17.53908203 -2.6328125 18.91796875 C-2.75398438 19.60503906 -2.87515625 20.29210937 -3 21 C-3.66 21 -4.32 21 -5 21 C-5.20302734 22.28583984 -5.20302734 22.28583984 -5.41015625 23.59765625 C-5.98436165 26.9097947 -6.67883716 30.16306403 -7.4375 33.4375 C-7.68371094 34.50871094 -7.92992187 35.57992187 -8.18359375 36.68359375 C-8.723145 38.87535936 -9.32807884 41.05215909 -10 43.20703125 C-11.31129875 48.18074644 -11.93428182 53.15112862 -12.5625 58.25 C-12.68818359 59.22324219 -12.81386719 60.19648438 -12.94335938 61.19921875 C-13.68692583 67.06210401 -14.28317355 72.91873062 -14.73413086 78.81152344 C-15 81 -15 81 -16 83 C-16.15306901 84.81171098 -16.24946661 86.6283794 -16.31640625 88.4453125 C-16.35830078 89.52167969 -16.40019531 90.59804687 -16.44335938 91.70703125 C-16.48267578 92.83496094 -16.52199219 93.96289062 -16.5625 95.125 C-16.60568359 96.26066406 -16.64886719 97.39632812 -16.69335938 98.56640625 C-16.7996604 101.37747768 -16.90169405 104.18863945 -17 107 C-17.33 107 -17.66 107 -18 107 C-18.58369328 70.11058457 -15.05951074 34.12275847 0 0 Z " fill="#B0B0B0" transform="translate(20,158)"/>
<path d="M0 0 C-3.01970805 2.0131387 -4.55060126 2.44823273 -8.04296875 3.03515625 C-9.03490234 3.20466797 -10.02683594 3.37417969 -11.04882812 3.54882812 C-12.08458984 3.71833984 -13.12035156 3.88785156 -14.1875 4.0625 C-15.20392578 4.23587891 -16.22035156 4.40925781 -17.26757812 4.58789062 C-26.61054382 6.16214114 -35.52602454 7.15231067 -45 7.1328125 C-46.03511719 7.13376923 -47.07023437 7.13472595 -48.13671875 7.13571167 C-50.31510479 7.13638913 -52.49349289 7.13456525 -54.671875 7.13037109 C-57.98962984 7.12501674 -61.30724932 7.1303309 -64.625 7.13671875 C-66.7500003 7.13605789 -68.87500051 7.13477657 -71 7.1328125 C-71.98355469 7.13483673 -72.96710938 7.13686096 -73.98046875 7.13894653 C-79.41329719 7.12062245 -84.62466006 6.79790202 -90 6 C-90 5.34 -90 4.68 -90 4 C-89.08823502 4.00333092 -89.08823502 4.00333092 -88.15805054 4.00672913 C-81.7652038 4.02905203 -75.37236835 4.04401783 -68.97949219 4.05493164 C-66.60155792 4.05992459 -64.22362666 4.06672128 -61.84570312 4.07543945 C-39.65901405 4.61502741 -39.65901405 4.61502741 -17.8125 1.4375 C-11.76696218 0.03029007 -6.18559817 -0.34083908 0 0 Z " fill="#404040" transform="translate(312,491)"/>
<path d="M0 0 C0.33 0 0.66 0 1 0 C1.49514037 3.02689584 1.55945166 5.16151662 -0.18066406 7.76953125 C-1.93051242 9.75418015 -3.75013904 11.63291475 -5.625 13.5 C-6.29708496 14.19125977 -6.96916992 14.88251953 -7.66162109 15.59472656 C-9.75996921 17.74458895 -11.87869476 19.87281314 -14 22 C-15.31336819 23.33768982 -16.62589913 24.67620229 -17.9375 26.015625 C-31.67412387 39.95556945 -31.67412387 39.95556945 -39 42 C-38.82701599 39.66471585 -38.29774631 38.30822418 -36.66796875 36.62109375 C-32.42788462 33 -32.42788462 33 -30 33 C-29.67 32.01 -29.34 31.02 -29 30 C-28.01 29.67 -27.02 29.34 -26 29 C-24.28547658 27.30846256 -24.28547658 27.30846256 -22.625 25.25 C-19.88127966 22.00847386 -17.00372191 19.00372191 -14 16 C-13.443125 15.236875 -12.88625 14.47375 -12.3125 13.6875 C-11.6628125 12.8521875 -11.6628125 12.8521875 -11 12 C-10.34 12 -9.68 12 -9 12 C-8.34 10.35 -7.68 8.7 -7 7 C-6.34 7 -5.68 7 -5 7 C-5 6.34 -5 5.68 -5 5 C-4.34 5 -3.68 5 -3 5 C-2.690625 4.360625 -2.38125 3.72125 -2.0625 3.0625 C-1 1 -1 1 0 0 Z " fill="#343434" transform="translate(447,400)"/>
<path d="M0 0 C2.6875 -0.3125 2.6875 -0.3125 5 0 C5.33 0.66 5.66 1.32 6 2 C5.38125 2.0825 4.7625 2.165 4.125 2.25 C1.84957521 2.79923543 1.84957521 2.79923543 0.875 4.875 C0.441875 5.926875 0.441875 5.926875 0 7 C-0.99 8.485 -0.99 8.485 -2 10 C-2.66 10 -3.32 10 -4 10 C-4.2475 10.721875 -4.495 11.44375 -4.75 12.1875 C-6 15 -6 15 -8 17.4375 C-10.1682954 20.21562849 -11.05903063 22.62819311 -12 26 C-11.40832031 26.18175781 -10.81664062 26.36351562 -10.20703125 26.55078125 C-5.75371082 27.96741662 -1.95230315 29.46647234 2 32 C4.64710715 33.37331123 7.320898 34.69036453 10 36 C10 36.66 10 37.32 10 38 C11.65 38 13.3 38 15 38 C15 38.99 15 39.98 15 41 C9.21443755 39.27448138 3.78177856 37.09543396 -1.6875 34.5625 C-2.6312146 34.13022095 -2.6312146 34.13022095 -3.59399414 33.68920898 C-7.66151538 31.77561661 -11.56143943 29.91036386 -15 27 C-15.73828125 24.25390625 -15.73828125 24.25390625 -15 21 C-13.31931758 18.09890194 -11.29413561 15.53981457 -9.1875 12.9375 C-8.095615 11.55238793 -7.00571737 10.16570654 -5.91796875 8.77734375 C-5.40451904 8.12967041 -4.89106934 7.48199707 -4.36206055 6.81469727 C-2.8452189 4.86932873 -2.8452189 4.86932873 -1.28125 2.0234375 C-0.8584375 1.35570312 -0.435625 0.68796875 0 0 Z " fill="#5D5D5D" transform="translate(152,441)"/>
<path d="M0 0 C5.28302647 4.20501383 9.87481603 8.65044636 14 14 C13.67 14.66 13.34 15.32 13 16 C11 14.625 11 14.625 9 13 C9 12.34 9 11.68 9 11 C8.360625 10.731875 7.72125 10.46375 7.0625 10.1875 C5 9 5 9 4 6 C2.35965807 5.27095914 0.68698082 4.61344757 -1 4 C-3.8125 2.5625 -3.8125 2.5625 -6 1 C-6 0.01 -6 -0.98 -6 -2 C-6.94875 -1.95875 -7.8975 -1.9175 -8.875 -1.875 C-11.95649181 -1.86264933 -14.68716801 -2.31171706 -17.6875 -3 C-23.42943489 -4.24555818 -29.14354183 -4.41487265 -35 -4 C-35.33 -3.67 -35.66 -3.34 -36 -3 C-37.85287502 -2.92773498 -39.70833878 -2.9161878 -41.5625 -2.9375 C-42.57441406 -2.94652344 -43.58632813 -2.95554687 -44.62890625 -2.96484375 C-45.41136719 -2.97644531 -46.19382812 -2.98804688 -47 -3 C-33.29835556 -12.13442963 -13.06466293 -8.5690681 0 0 Z " fill="#888888" transform="translate(438,60)"/>
<path d="M0 0 C6.00204734 6.57367089 6.53138895 15.40372304 6.4375 23.875 C6.42847656 24.84735596 6.41945313 25.81971191 6.41015625 26.8215332 C6.0878234 40.15693553 1.19144933 49.74546778 -8.2265625 59.24609375 C-13.48742455 64 -13.48742455 64 -16 64 C-15.49396008 61.83125748 -15.00016187 60.00032373 -14 58 C-13.236875 57.5875 -12.47375 57.175 -11.6875 56.75 C-8.44927563 54.64138878 -7.09126789 52.20661077 -5 49 C-3.515 48.505 -3.515 48.505 -2 48 C-0.81224446 45.45335592 -0.81224446 45.45335592 0.0625 42.375 C0.39894531 41.28316406 0.73539062 40.19132812 1.08203125 39.06640625 C1.38496094 38.05449219 1.68789063 37.04257813 2 36 C2.4125 34.783125 2.825 33.56625 3.25 32.3125 C5.09792893 24.15081388 3.58100951 17.45396778 1.42333984 9.58422852 C0.50441094 6.21577719 0 3.52661017 0 0 Z " fill="#777777" transform="translate(452,76)"/>
<path d="M0 0 C0.99 0 1.98 0 3 0 C3 2 3 2 0.9375 4.25 C-0.03506643 5.17366644 -1.0148028 6.08981781 -2 7 C-2.76183594 7.73476563 -2.76183594 7.73476563 -3.5390625 8.484375 C-12.79388381 16.9935472 -23.6140525 20.40405948 -36 20.125 C-37.16208984 20.11146484 -37.16208984 20.11146484 -38.34765625 20.09765625 C-40.23190843 20.07439388 -42.11599832 20.0385364 -44 20 C-41.40889476 17.40889476 -40.28959982 17.77814887 -36.6875 17.6875 C-26.25170641 16.96348561 -17.31411662 12.44669203 -8.33984375 7.33203125 C-6 6 -6 6 -3.76953125 4.95703125 C-1.48198297 3.71983627 -0.94759667 2.36899166 0 0 Z " fill="#808080" transform="translate(129,428)"/>
<path d="M0 0 C1.95981812 -0.0009668 1.95981812 -0.0009668 3.95922852 -0.00195312 C11.33721609 0.03947773 18.60469949 0.36047811 25.9375 1.1875 C25.9375 1.5175 25.9375 1.8475 25.9375 2.1875 C18.4648396 3.10520997 11.10946438 3.32091811 3.5859375 3.28515625 C2.44589264 3.2837413 1.30584778 3.28232635 0.1312561 3.28086853 C-3.47502373 3.27531479 -7.08123924 3.26277107 -10.6875 3.25 C-13.14713451 3.24497902 -15.60677001 3.24041716 -18.06640625 3.23632812 C-24.06512576 3.22536055 -30.06380828 3.20866914 -36.0625 3.1875 C-36.0625 2.8575 -36.0625 2.5275 -36.0625 2.1875 C-24.03903032 0.58627693 -12.11934217 -0.01303291 0 0 Z " fill="#AAAAAA" transform="translate(249.0625,2.8125)"/>
<path d="M0 0 C0.33 0 0.66 0 1 0 C1.33 18.48 1.66 36.96 2 56 C1.67 56 1.34 56 1 56 C1 54.02 1 52.04 1 50 C0.34 50 -0.32 50 -1 50 C-2.07103215 42.171265 -2.14940298 34.45686246 -2.125 26.5625 C-2.12886719 25.28439453 -2.13273438 24.00628906 -2.13671875 22.68945312 C-2.13542969 21.47322266 -2.13414063 20.25699219 -2.1328125 19.00390625 C-2.13168457 17.89861572 -2.13055664 16.7933252 -2.12939453 15.65454102 C-2 13 -2 13 -1 11 C-0.7724985 9.12943209 -0.59037189 7.25314042 -0.4375 5.375 C-0.35371094 4.37210938 -0.26992187 3.36921875 -0.18359375 2.3359375 C-0.12300781 1.56507813 -0.06242188 0.79421875 0 0 Z " fill="#525252" transform="translate(5,228)"/>
<path d="M0 0 C1.79693874 3.19736094 2.56907326 6.16741965 3.25390625 9.76171875 C3.46853516 10.88126953 3.68316406 12.00082031 3.90429688 13.15429688 C4.12150391 14.32025391 4.33871094 15.48621094 4.5625 16.6875 C4.78357422 17.83412109 5.00464844 18.98074219 5.23242188 20.16210938 C6.80461264 28.46004675 8.16966393 36.59654961 8.0625 45.0625 C8.05347656 46.00222656 8.04445313 46.94195312 8.03515625 47.91015625 C8.02355469 48.59980469 8.01195312 49.28945312 8 50 C7.67 50 7.34 50 7 50 C6.51171875 47.98177083 6.0234375 45.96354167 5.53515625 43.9453125 C5.05153008 41.9414343 5.05153008 41.9414343 4 40 C3.72146147 38.16434359 3.48934917 36.32153212 3.28125 34.4765625 C3.15363281 33.373125 3.02601563 32.2696875 2.89453125 31.1328125 C2.76433594 29.97523438 2.63414062 28.81765625 2.5 27.625 C2.24196127 25.34608366 1.98163793 23.06742455 1.71875 20.7890625 C1.60466797 19.77537598 1.49058594 18.76168945 1.37304688 17.71728516 C1.0556682 15.4054889 0.57375726 13.25554337 0 11 C-0.06688591 9.08438746 -0.08531719 7.16664408 -0.0625 5.25 C-0.05347656 4.26515625 -0.04445313 3.2803125 -0.03515625 2.265625 C-0.02355469 1.51796875 -0.01195312 0.7703125 0 0 Z " fill="#939393" transform="translate(490,192)"/>
<path d="M0 0 C1.65 0 3.3 0 5 0 C2.10134889 2.37475797 -0.53146248 3.72825776 -4.0703125 4.9375 C-5.53984375 5.44410156 -5.53984375 5.44410156 -7.0390625 5.9609375 C-8.05742187 6.30382812 -9.07578125 6.64671875 -10.125 7 C-11.61773437 7.51433594 -11.61773437 7.51433594 -13.140625 8.0390625 C-16.08724287 9.04691352 -19.04136162 10.0280609 -22 11 C-23.40137207 11.47179687 -23.40137207 11.47179687 -24.83105469 11.953125 C-26.14831543 12.37851562 -26.14831543 12.37851562 -27.4921875 12.8125 C-28.26675293 13.06644531 -29.04131836 13.32039063 -29.83935547 13.58203125 C-32.23811393 14.04606227 -33.7036803 13.76739755 -36 13 C-35.67 12.34 -35.34 11.68 -35 11 C-33.38820552 10.51989101 -31.77272811 10.05004882 -30.14453125 9.62890625 C-27.76266699 8.93039961 -25.53868336 8.02250594 -23.25 7.0625 C-15.67919731 3.9857811 -8.24075982 1.45061601 0 2 C0 1.34 0 0.68 0 0 Z " fill="#898989" transform="translate(348,477)"/>
<path d="M0 0 C-20.0596325 17.63801921 -20.0596325 17.63801921 -27.87890625 18.2109375 C-28.57886719 18.14132812 -29.27882813 18.07171875 -30 18 C-27.26382619 14.14908872 -25.36394652 12.63647994 -21 11 C-19.64567325 9.68799596 -18.31266518 8.35368596 -17 7 C-15.35666496 5.96210419 -13.68756133 4.96432076 -12 4 C-10.4840625 2.948125 -10.4840625 2.948125 -8.9375 1.875 C-3.36448598 -1.68224299 -3.36448598 -1.68224299 0 0 Z " fill="#616161" transform="translate(413,441)"/>
<path d="M0 0 C3.73201073 3.73201073 3.12743279 9.2133755 3.1328125 14.24609375 C3.13410156 15.41333984 3.13539063 16.58058594 3.13671875 17.78320312 C3.13285156 18.98912109 3.12898438 20.19503906 3.125 21.4375 C3.12886719 22.63955078 3.13273437 23.84160156 3.13671875 25.08007812 C3.12350538 37.05799849 3.12350538 37.05799849 2 42 C1.01 42.495 1.01 42.495 0 43 C0 28.81 0 14.62 0 0 Z " fill="#555556" transform="translate(495,234)"/>
<path d="M0 0 C0.8971875 0.309375 0.8971875 0.309375 1.8125 0.625 C1.02746094 1.20507812 0.24242188 1.78515625 -0.56640625 2.3828125 C-7.54318644 7.54569615 -7.54318644 7.54569615 -14.1875 13.125 C-17.9059466 16.2237055 -17.9059466 16.2237055 -21.1875 16.625 C-24.4050115 14.67952793 -25.92212887 13.52317919 -27 9.875 C-27.061875 9.1325 -27.12375 8.39 -27.1875 7.625 C-23.3125 9.375 -23.3125 9.375 -22.1875 11.625 C-20.16286745 12.27713292 -20.16286745 12.27713292 -18.1875 12.625 C-18.1875 11.965 -18.1875 11.305 -18.1875 10.625 C-17.1975 10.295 -16.2075 9.965 -15.1875 9.625 C-14.383125 8.779375 -13.57875 7.93375 -12.75 7.0625 C-10.1875 4.625 -10.1875 4.625 -6.1875 4.625 C-5.8575 3.635 -5.5275 2.645 -5.1875 1.625 C-2.1875 -0.375 -2.1875 -0.375 0 0 Z " fill="#5E5E5E" transform="translate(50.1875,343.375)"/>
<path d="M0 0 C3.24900602 4.97504047 4.49940808 7.88225104 4 14 C1.59927045 11.11912454 -0.47291037 8.43595166 -2 5 C-7.30216006 5.25864195 -9.54615972 7.12290891 -13.25390625 10.56640625 C-15.62220936 12.51085198 -18.05021029 13.28053909 -21 14 C-19.85611961 12.85611961 -18.71191726 11.71255995 -17.56640625 10.5703125 C-16.44408974 9.4451972 -15.32755048 8.31430749 -14.21484375 7.1796875 C-13.60769531 6.56351563 -13.00054687 5.94734375 -12.375 5.3125 C-11.80523437 4.73113281 -11.23546875 4.14976562 -10.6484375 3.55078125 C-7.0402315 0.15633153 -4.82178214 -0.21430143 0 0 Z " fill="#494949" transform="translate(473,146)"/>
<path d="M0 0 C-3.01970805 2.0131387 -4.55060126 2.44823273 -8.04296875 3.03515625 C-9.03490234 3.20466797 -10.02683594 3.37417969 -11.04882812 3.54882812 C-12.08458984 3.71833984 -13.12035156 3.88785156 -14.1875 4.0625 C-15.20392578 4.23587891 -16.22035156 4.40925781 -17.26757812 4.58789062 C-32.50972513 7.15612844 -32.50972513 7.15612844 -40 7.0625 C-40.94875 7.05347656 -41.8975 7.04445313 -42.875 7.03515625 C-43.57625 7.02355469 -44.2775 7.01195312 -45 7 C-45 6.67 -45 6.34 -45 6 C-42.69 6 -40.38 6 -38 6 C-38 5.34 -38 4.68 -38 4 C-36.83597656 3.94392578 -36.83597656 3.94392578 -35.6484375 3.88671875 C-29.5653419 3.51650649 -23.81395503 2.83026379 -17.875 1.4375 C-11.80860957 0.03651746 -6.20450034 -0.34188063 0 0 Z " fill="#9B9B9B" transform="translate(312,491)"/>
<path d="M0 0 C0 0.66 0 1.32 0 2 C-8.61240331 5.17299069 -16.85607727 6.35019279 -26 6 C-26 6.66 -26 7.32 -26 8 C-28.31 8.33 -30.62 8.66 -33 9 C-33 9.33 -33 9.66 -33 10 C-35.64 10 -38.28 10 -41 10 C-38.2085229 8.13901527 -36.41855086 7.42183989 -33.24609375 6.5625 C-32.30830078 6.30726562 -31.37050781 6.05203125 -30.40429688 5.7890625 C-29.42525391 5.52867188 -28.44621094 5.26828125 -27.4375 5 C-26.48552734 4.73960938 -25.53355469 4.47921875 -24.55273438 4.2109375 C-7.4728452 -0.39330764 -7.4728452 -0.39330764 0 0 Z " fill="#9B9B9B" transform="translate(212,6)"/>
<path d="M0 0 C7.78297806 -0.47169564 14.93725845 1.29377172 22.5 3 C23.81233116 3.28982808 25.12483022 3.57889698 26.4375 3.8671875 C29.62672738 4.57069354 32.81404991 5.2818242 36 6 C36 6.33 36 6.66 36 7 C16.19470581 7.27549868 16.19470581 7.27549868 8 3 C5.66822025 2.65596692 3.33512959 2.32050798 1 2 C0.67 1.34 0.34 0.68 0 0 Z " fill="#8A8A8A" transform="translate(276,5)"/>
<path d="M0 0 C0.33 0 0.66 0 1 0 C1.25 7.625 1.25 7.625 -1 11 C-1.43738696 12.71444889 -1.80848688 14.44667784 -2.125 16.1875 C-2.29257812 17.08855469 -2.46015625 17.98960937 -2.6328125 18.91796875 C-2.75398438 19.60503906 -2.87515625 20.29210937 -3 21 C-3.66 21 -4.32 21 -5 21 C-5.12375 21.804375 -5.2475 22.60875 -5.375 23.4375 C-6.11554163 27.65858729 -7.04401126 31.82335017 -8 36 C-8.33 36 -8.66 36 -9 36 C-9.32495099 22.77855677 -5.116951 12.03344133 0 0 Z " fill="#898989" transform="translate(20,158)"/>
<path d="M0 0 C1.32284622 2.64569244 0.66682835 4.21868977 -0.18017578 6.95849609 C-1.75459698 10.87907681 -4.10581375 14.3073706 -6.4375 17.8125 C-6.92798828 18.57498047 -7.41847656 19.33746094 -7.92382812 20.12304688 C-11.59917092 25.73278061 -11.59917092 25.73278061 -15 28 C-15 26.02 -15 24.04 -15 22 C-14.38125 21.773125 -13.7625 21.54625 -13.125 21.3125 C-10.31285849 19.57558907 -10.20025928 18.07383473 -9 15 C-7.71564322 12.5428931 -6.32815382 10.14819371 -4.9375 7.75 C-4.57333984 7.11320312 -4.20917969 6.47640625 -3.83398438 5.8203125 C-1.14074248 1.14074248 -1.14074248 1.14074248 0 0 Z " fill="#737373" transform="translate(463,376)"/>
<path d="M0 0 C0.66 0 1.32 0 2 0 C2.23074219 1.14855469 2.46148437 2.29710937 2.69921875 3.48046875 C4.49608375 12.12951593 6.52011024 20.17435041 10.046875 28.30078125 C11.02206918 31.0624992 11.19035487 33.09708825 11 36 C7.13372669 31.30902259 5.70210079 25.94955537 3.8125 20.25 C3.44447266 19.19039063 3.07644531 18.13078125 2.69726562 17.0390625 C0.71839138 11.12079668 -0.45979748 6.24118548 0 0 Z " fill="#808080" transform="translate(12,315)"/>
<path d="M0 0 C0.33 0 0.66 0 1 0 C1.18026708 7.06093761 0.69133555 13.82570599 -0.3125 20.8125 C-0.44567627 21.76721191 -0.57885254 22.72192383 -0.71606445 23.70556641 C-1.75747548 30.91308241 -3.12648167 37.95769707 -5 45 C-6.38306921 39.99460666 -6.59793909 34.99355965 -5 30 C-4.34 30 -3.68 30 -3 30 C-3.01160156 29.0821875 -3.02320313 28.164375 -3.03515625 27.21875 C-3.12941176 14.4 -3.12941176 14.4 -2 8 C-1.67 7.67 -1.34 7.34 -1 7 C-0.63239269 4.67182036 -0.29758419 2.3381615 0 0 Z " fill="#ADADAD" transform="translate(497,269)"/>
<path d="M0 0 C5.89339608 -0.2164921 11.48925127 -0.00413293 17.3125 0.96875 C25.66028037 2.20974043 33.94774859 2.44703781 42.375 2.625 C43.90106065 2.66331386 45.42710278 2.70237255 46.953125 2.7421875 C50.63524414 2.83667411 54.31750742 2.92121298 58 3 C58 3.33 58 3.66 58 4 C50.64934015 4.02531484 43.2986915 4.04285202 35.94799805 4.05493164 C33.44636617 4.05996641 30.94473724 4.06679461 28.44311523 4.07543945 C24.85139234 4.08754238 21.25970828 4.09323682 17.66796875 4.09765625 C16.54601608 4.10281754 15.42406342 4.10797882 14.26811218 4.11329651 C12.70683342 4.11340981 12.70683342 4.11340981 11.11401367 4.11352539 C9.7383448 4.11685631 9.7383448 4.11685631 8.33488464 4.12025452 C6 4 6 4 3 3 C3 2.34 3 1.68 3 1 C2.01 0.67 1.02 0.34 0 0 Z " fill="#2C2C2C" transform="translate(215,492)"/>
<path d="M0 0 C0 0.99 0 1.98 0 3 C-1.93166016 2.98259766 -1.93166016 2.98259766 -3.90234375 2.96484375 C-5.58072772 2.9554673 -7.25911326 2.94636695 -8.9375 2.9375 C-9.78763672 2.92912109 -10.63777344 2.92074219 -11.51367188 2.91210938 C-12.32255859 2.90888672 -13.13144531 2.90566406 -13.96484375 2.90234375 C-14.7137085 2.89710693 -15.46257324 2.89187012 -16.23413086 2.88647461 C-18.02667739 2.80658248 -18.02667739 2.80658248 -19 4 C-20.85287502 4.07226502 -22.70833878 4.0838122 -24.5625 4.0625 C-25.57441406 4.05347656 -26.58632813 4.04445313 -27.62890625 4.03515625 C-28.41136719 4.02355469 -29.19382812 4.01195312 -30 4 C-21.31582421 -1.78945053 -9.9434348 -2.03967893 0 0 Z " fill="#8B8B8B" transform="translate(421,53)"/>
<path d="M0 0 C0.33 0 0.66 0 1 0 C1.40774255 3.97548991 0.8948981 6.42850394 -0.9375 9.875 C-4.14976004 16.46978121 -3.82340383 23.80370587 -4 31 C-4.66 30.67 -5.32 30.34 -6 30 C-6.69895391 18.35076812 -6.60918089 10.03179242 0 0 Z " fill="#686868" transform="translate(53,375)"/>
<path d="M0 0 C0.99 0 1.98 0 3 0 C1.59230307 2.88030797 0.0748329 5.66712867 -1.53125 8.44140625 C-2.01207031 9.27220703 -2.49289063 10.10300781 -2.98828125 10.95898438 C-3.48714844 11.81814453 -3.98601563 12.67730469 -4.5 13.5625 C-4.99886719 14.42552734 -5.49773438 15.28855469 -6.01171875 16.17773438 C-7.94250774 19.5087336 -9.86354336 22.79531504 -12 26 C-12.66 26 -13.32 26 -14 26 C-12.00092507 19.36267731 -8.56473028 13.89758832 -5 8 C-4.51660156 7.15695313 -4.03320312 6.31390625 -3.53515625 5.4453125 C-2.44185315 3.57772484 -1.23180976 1.77928076 0 0 Z " fill="#696969" transform="translate(42,116)"/>
<path d="M0 0 C6.10657953 0.38978167 11.15663812 2.1541033 16 6 C17.3125 9.0625 17.3125 9.0625 17 12 C15.0625 14.375 15.0625 14.375 13 16 C12.938125 14.741875 12.87625 13.48375 12.8125 12.1875 C12.37943243 8.64438665 12.37943243 8.64438665 9.8125 6.125 C6.95634015 4.93799447 6.95634015 4.93799447 3.75 4 C2.8425 3.67 1.935 3.34 1 3 C0.67 2.01 0.34 1.02 0 0 Z " fill="#606060" transform="translate(354,30)"/>
<path d="M0 0 C0.99 0 1.98 0 3 0 C3 2 3 2 0.9375 4.25 C-0.04050591 5.16790499 -1.01977761 6.08446234 -2 7 C-2.50789063 7.53625 -3.01578125 8.0725 -3.5390625 8.625 C-8.27953698 13.29807436 -12.44872335 13.97363671 -19 14 C-14.385986 9.96273775 -9.36207356 7.52656313 -3.83203125 5.015625 C-1.51658111 3.73200658 -0.96597144 2.41492861 0 0 Z " fill="#505050" transform="translate(129,428)"/>
<path d="M0 0 C5.4962406 0.76691729 5.4962406 0.76691729 8.09375 1.96875 C12.26189511 3.44776923 16.42583114 3.72591454 20.8125 4.125 C22.13797852 4.25455078 22.13797852 4.25455078 23.49023438 4.38671875 C25.65952058 4.59778444 27.82968458 4.79979426 30 5 C30 5.33 30 5.66 30 6 C7.84530289 8.0926408 7.84530289 8.0926408 1 3 C0.67 2.01 0.34 1.02 0 0 Z " fill="#6F6F6E" transform="translate(69,440)"/>
<path d="M0 0 C2.625 -0.1875 2.625 -0.1875 5 0 C5.33 0.66 5.66 1.32 6 2 C5.38125 2.0825 4.7625 2.165 4.125 2.25 C1.84957521 2.79923543 1.84957521 2.79923543 0.875 4.875 C0.441875 5.926875 0.441875 5.926875 0 7 C-0.99 8.485 -0.99 8.485 -2 10 C-2.66 10 -3.32 10 -4 10 C-4.2475 10.763125 -4.495 11.52625 -4.75 12.3125 C-6.10995558 15.2364045 -7.31585826 16.30004356 -10 18 C-9.44956657 13.79257738 -8.06313359 11.27502987 -5.5625 7.875 C-4.94503906 7.02679688 -4.32757813 6.17859375 -3.69140625 5.3046875 C-2.85416016 4.16386719 -2.85416016 4.16386719 -2 3 C-1.34 2.01 -0.68 1.02 0 0 Z " fill="#747474" transform="translate(152,441)"/>
<path d="M0 0 C0.33 0 0.66 0 1 0 C0.43615943 6.73432123 -1.34558126 12.63458974 -3.5625 19 C-4.0565332 20.44826172 -4.0565332 20.44826172 -4.56054688 21.92578125 C-5.36686202 24.28629806 -6.18012163 26.64416717 -7 29 C-7.33 29 -7.66 29 -8 29 C-8.19294408 24.17639811 -7.75747614 20.50353262 -6 16 C-5.34 16 -4.68 16 -4 16 C-3.34 12.04 -2.68 8.08 -2 4 C-1.34 4 -0.68 4 0 4 C0 2.68 0 1.36 0 0 Z " fill="#959595" transform="translate(490,314)"/>
<path d="M0 0 C0.33 0 0.66 0 1 0 C0 7.42857143 0 7.42857143 -1 11 C-0.360625 11.268125 0.27875 11.53625 0.9375 11.8125 C3 13 3 13 4 16 C4.99 16 5.98 16 7 16 C6.67 16.66 6.34 17.32 6 18 C4.51969728 17.18957164 3.04078858 16.37659652 1.5625 15.5625 C0.73878906 15.11003906 -0.08492187 14.65757812 -0.93359375 14.19140625 C-3 13 -3 13 -4 12 C-4.61112041 6.74436448 -3.22790755 4.10824598 0 0 Z " fill="#7E7E7E" transform="translate(141,456)"/>
<path d="M0 0 C0 0.66 0 1.32 0 2 C-5.75 5 -5.75 5 -8 5 C-8 5.66 -8 6.32 -8 7 C-10.31 7 -12.62 7 -15 7 C-15 7.66 -15 8.32 -15 9 C-19.455 9.495 -19.455 9.495 -24 10 C-20.7028026 6.7028026 -17.87735385 5.74891771 -13.5625 4.4375 C-9.27967597 3.10350563 -4.36358401 0 0 0 Z " fill="#6B6B6B" transform="translate(363,470)"/>
<path d="M0 0 C0.33 0.99 0.66 1.98 1 3 C-0.0625 4.0625 -1.125 5.125 -2.1875 6.1875 C-3.15236328 7.15429688 -3.15236328 7.15429688 -4.13671875 8.140625 C-5.58163435 9.58251143 -7.03844437 11.01248326 -8.5 12.4375 C-14.40787519 18.22704309 -14.40787519 18.22704309 -19 25 C-19.66 24.67 -20.32 24.34 -21 24 C-20.56429687 23.443125 -20.12859375 22.88625 -19.6796875 22.3125 C-19.08414063 21.549375 -18.48859375 20.78625 -17.875 20 C-17.235625 19.18273437 -16.59625 18.36546875 -15.9375 17.5234375 C-14.19716645 15.25679341 -12.53488585 12.95056924 -10.875 10.625 C-8.57334289 7.51929734 -6.42547846 5.85160998 -3 4 C-1.21655822 1.93045153 -1.21655822 1.93045153 0 0 Z " fill="#252525" transform="translate(79,74)"/>
<path d="M0 0 C-0.33 0.99 -0.66 1.98 -1 3 C-3.31470912 3.72870472 -5.6505947 4.39239518 -8 5 C-8.99 5.66 -9.98 6.32 -11 7 C-12.62642986 7.6163599 -14.2753815 8.17511761 -15.9375 8.6875 C-16.79214844 8.95949219 -17.64679688 9.23148438 -18.52734375 9.51171875 C-21.14541871 10.02871618 -22.4839304 9.72329928 -25 9 C-21.3993541 7.49144661 -17.79394041 5.99464176 -14.1875 4.5 C-13.16333984 4.07074219 -12.13917969 3.64148438 -11.08398438 3.19921875 C-10.10107422 2.79316406 -9.11816406 2.38710938 -8.10546875 1.96875 C-7.19949951 1.59169922 -6.29353027 1.21464844 -5.36010742 0.82617188 C-3 0 -3 0 0 0 Z " fill="#999999" transform="translate(171,16)"/>
<path d="M0 0 C0.8971875 0.309375 0.8971875 0.309375 1.8125 0.625 C-0.07535909 2.11541507 -1.97168108 3.59205783 -3.875 5.0625 C-4.67067383 5.69381836 -4.67067383 5.69381836 -5.48242188 6.33789062 C-8.6735575 8.78508052 -11.16297923 10.21433461 -15.1875 10.625 C-14.0625 8.1875 -14.0625 8.1875 -12.1875 5.625 C-9 4.8125 -9 4.8125 -6.1875 4.625 C-5.8575 3.635 -5.5275 2.645 -5.1875 1.625 C-2.1875 -0.375 -2.1875 -0.375 0 0 Z " fill="#4A4A4A" transform="translate(50.1875,343.375)"/>
<path d="M0 0 C0.66 0.33 1.32 0.66 2 1 C1.40832031 1.51949219 0.81664063 2.03898437 0.20703125 2.57421875 C-3.9859679 6.2747286 -8.10837707 9.98284084 -12 14 C-12.33 13.01 -12.66 12.02 -13 11 C-11.40207236 9.34810857 -9.79644124 7.7036661 -8.1875 6.0625 C-7.29417969 5.14597656 -6.40085937 4.22945313 -5.48046875 3.28515625 C-3 1 -3 1 0 0 Z " fill="#6C6C6C" transform="translate(85,67)"/>
<path d="M0 0 C7.52233617 3.76116808 14.1983007 8.82245129 17 17 C14.5 15.625 14.5 15.625 12 14 C12 13.34 12 12.68 12 12 C11.401875 11.773125 10.80375 11.54625 10.1875 11.3125 C8 10 8 10 6.5625 7.5625 C4.75504087 4.59826702 2.97038778 3.68589576 0 2 C0 1.34 0 0.68 0 0 Z " fill="#949394" transform="translate(435,59)"/>
<path d="M0 0 C0.33 0.66 0.66 1.32 1 2 C-0.2578125 4.7578125 -0.2578125 4.7578125 -2.125 8.125 C-2.4454126 8.70596436 -2.7658252 9.28692871 -3.09594727 9.88549805 C-5.58283765 14.3571839 -8.22105761 18.70527085 -11 23 C-12 20 -12 20 -11.328125 17.9921875 C-10.79445313 16.94417969 -10.79445313 16.94417969 -10.25 15.875 C-9.90453125 15.17117188 -9.5590625 14.46734375 -9.203125 13.7421875 C-8 12 -8 12 -5 11 C-4.27954236 9.0187415 -3.61998741 7.01495907 -3 5 C-2.0436126 3.30792999 -1.05589069 1.63183107 0 0 Z " fill="#747474" transform="translate(475,358)"/>
<path d="M0 0 C0.66 0 1.32 0 2 0 C2 0.66 2 1.32 2 2 C1.34 2 0.68 2 0 2 C0 2.99 0 3.98 0 5 C-0.66 5 -1.32 5 -2 5 C-2.04125 5.721875 -2.0825 6.44375 -2.125 7.1875 C-3.39881294 11.28189875 -5.53428325 12.52448804 -9 15 C-9.66 15 -10.32 15 -11 15 C-10.49396008 12.83125748 -10.00016187 11.00032373 -9 9 C-7.8553125 8.38125 -7.8553125 8.38125 -6.6875 7.75 C-3.45478985 5.64497944 -2.06878466 3.21018309 0 0 Z " fill="#4A4A4A" transform="translate(447,125)"/>
<path d="M0 0 C0.66 0.33 1.32 0.66 2 1 C1.38125 1.5775 0.7625 2.155 0.125 2.75 C-2.04913012 4.8178558 -2.04913012 4.8178558 -3 7.125 C-4.31058398 9.58234495 -5.38618536 10.10383498 -8 11 C-10.75 11.125 -10.75 11.125 -13 11 C-10.26382619 7.14908872 -8.36394652 5.63647994 -4 4 C-1.72808584 1.97959252 -1.72808584 1.97959252 0 0 Z " fill="#4A4A4A" transform="translate(396,448)"/>
<path d="M0 0 C0.66 0.33 1.32 0.66 2 1 C-1.82120253 9.18829114 -1.82120253 9.18829114 -7.1875 11.1875 C-8.115625 11.455625 -9.04375 11.72375 -10 12 C-9.82701599 9.66471585 -9.29774631 8.30822418 -7.66796875 6.62109375 C-3.42788462 3 -3.42788462 3 -1 3 C-0.67 2.01 -0.34 1.02 0 0 Z " fill="#2A2A2A" transform="translate(418,430)"/>
<path d="M0 0 C0.33 0 0.66 0 1 0 C1.06058594 0.99902344 1.12117188 1.99804688 1.18359375 3.02734375 C1.26738281 4.31769531 1.35117187 5.60804688 1.4375 6.9375 C1.51871094 8.22527344 1.59992187 9.51304687 1.68359375 10.83984375 C1.64919188 13.86023957 1.64919188 13.86023957 3 15 C3.23481693 17.18292774 3.41363323 19.37203174 3.5625 21.5625 C3.64628906 22.76003906 3.73007812 23.95757812 3.81640625 25.19140625 C3.87699219 26.11824219 3.93757813 27.04507812 4 28 C0.17342192 24.17342192 -0.11195699 18.48776366 -0.1953125 13.28125 C-0.182248 11.68738122 -0.15873998 10.09356518 -0.125 8.5 C-0.11597656 7.67757813 -0.10695312 6.85515625 -0.09765625 6.0078125 C-0.07436865 4.00507917 -0.03850959 2.00249846 0 0 Z " fill="#B1B1B1" transform="translate(46,391)"/>
<path d="M0 0 C2.99477074 0.38316932 5.99659689 0.69246199 9 1 C9 1.66 9 2.32 9 3 C9.99 3.33 10.98 3.66 12 4 C4.86606248 3.48462048 -2.01812817 2.55994099 -9 1 C-5.37821962 -0.98172889 -4.03033409 -0.98519278 0 0 Z " fill="#9A9A9A" transform="translate(209,492)"/>
<path d="M0 0 C-6.28440479 3.38391027 -12.93586201 5.8606229 -20 7 C-20 6.01 -20 5.02 -20 4 C-17.0449595 3.13414375 -14.08554318 2.28433215 -11.125 1.4375 C-10.28324219 1.19064453 -9.44148437 0.94378906 -8.57421875 0.68945312 C-7.76855469 0.46064453 -6.96289062 0.23183594 -6.1328125 -0.00390625 C-5.01737061 -0.32597046 -5.01737061 -0.32597046 -3.87939453 -0.65454102 C-2 -1 -2 -1 0 0 Z " fill="#797979" transform="translate(162,23)"/>
<path d="M0 0 C7.36259293 -0.22424141 13.87049629 0.09879901 21 2 C21 2.33 21 2.66 21 3 C13.90565767 3.09733092 7.01805857 3.10087193 0 2 C0 1.34 0 0.68 0 0 Z " fill="#A5A5A5" transform="translate(222,495)"/>
<path d="M0 0 C-2.93163286 1.55403686 -5.83365224 2.69801632 -9 3.6875 C-9.845625 3.95949219 -10.69125 4.23148437 -11.5625 4.51171875 C-14.1232068 5.02468085 -15.55828998 4.84216387 -18 4 C-17 2 -17 2 -14.0625 0.875 C-9.41625375 -0.363999 -4.77103234 -0.17279393 0 0 Z " fill="#969696" transform="translate(330,486)"/>
<path d="M0 0 C-1.57297914 1.86562642 -2.45510217 2.90238443 -4.90112305 3.34057617 C-5.59761963 3.32486572 -6.29411621 3.30915527 -7.01171875 3.29296875 C-7.76904297 3.28330078 -8.52636719 3.27363281 -9.30664062 3.26367188 C-10.09232422 3.23853516 -10.87800781 3.21339844 -11.6875 3.1875 C-12.88342773 3.16719727 -12.88342773 3.16719727 -14.10351562 3.14648438 C-16.06929967 3.11117089 -18.03473582 3.05736447 -20 3 C-17.37945377 0.37945377 -15.90149956 0.62024997 -12.25 0.375 C-11.22390625 0.30023438 -10.1978125 0.22546875 -9.140625 0.1484375 C-6.08810837 0.00416433 -3.05538786 -0.0274436 0 0 Z " fill="#8A8A89" transform="translate(105,445)"/>
<path d="M0 0 C1 2 1 2 0.25 5.3125 C-0.87133327 8.62043315 -1.89563983 11.22224457 -4 14 C-4.99 14 -5.98 14 -7 14 C-6.44010697 10.00987629 -5.24330232 7.4744948 -2.9375 4.1875 C-2.38964844 3.39730469 -1.84179688 2.60710937 -1.27734375 1.79296875 C-0.64505859 0.90544922 -0.64505859 0.90544922 0 0 Z " fill="#444444" transform="translate(463,376)"/>
<path d="M0 0 C0.33 0 0.66 0 1 0 C1.21278058 4.46839215 0.59138085 7.82262526 -1 12 C-1.66 12 -2.32 12 -3 12 C-3.33 13.32 -3.66 14.64 -4 16 C-4.66 16 -5.32 16 -6 16 C-5.37183502 12.05050296 -4.1354471 8.80107972 -2.4375 5.1875 C-1.98246094 4.21167969 -1.52742188 3.23585937 -1.05859375 2.23046875 C-0.70925781 1.49441406 -0.35992187 0.75835937 0 0 Z " fill="#959595" transform="translate(27,142)"/>
<path d="M0 0 C1 3 1 3 -0.0390625 5.3046875 C-2.9915191 10.08970338 -5.77343597 14.2706788 -10 18 C-10 17.01 -10 16.02 -10 15 C-9.34 15 -8.68 15 -8 15 C-8 14.01 -8 13.02 -8 12 C-7.34 12 -6.68 12 -6 12 C-5.01 8.7 -4.02 5.4 -3 2 C-2.01 2 -1.02 2 0 2 C0 1.34 0 0.68 0 0 Z " fill="#969696" transform="translate(455,115)"/>
<path d="M0 0 C0.33 1.32 0.66 2.64 1 4 C-0.24839499 5.105981 -1.49879234 6.20970201 -2.75 7.3125 C-3.44609375 7.92738281 -4.1421875 8.54226563 -4.859375 9.17578125 C-6.85114506 10.87314734 -8.88898915 12.45477809 -11 14 C-11.66 13.67 -12.32 13.34 -13 13 C-8.71 8.71 -4.42 4.42 0 0 Z " fill="#3E3E3E" transform="translate(415,393)"/>
<path d="M0 0 C0.66 0 1.32 0 2 0 C3.5912689 4.873261 4.21192221 8.80790596 4 14 C3.34 14 2.68 14 2 14 C0.02905192 9.07262981 -0.1799928 5.21979128 0 0 Z " fill="#6F6F6F" transform="translate(12,315)"/>
<path d="M0 0 C2.21135589 7.09961627 0.29481382 15.11555854 -2 22 C-2.33 22 -2.66 22 -3 22 C-3.41136629 14.12309743 -2.436168 7.49701701 0 0 Z " fill="#A7A7A7" transform="translate(11,183)"/>
<path d="M0 0 C1.46373047 0.02707031 1.46373047 0.02707031 2.95703125 0.0546875 C3.69308594 0.07789063 4.42914063 0.10109375 5.1875 0.125 C-0.3106188 3.79041254 -7.28456957 4.46857529 -13.8125 4.125 C-9.12456631 0.99971088 -5.64243579 -0.13596231 0 0 Z " fill="#A8A8A8" transform="translate(306.8125,490.875)"/>
<path d="M0 0 C6.16259312 -0.37730162 10.52734586 0.03564567 16 3 C16.33 3.66 16.66 4.32 17 5 C5.47835991 3.07289294 5.47835991 3.07289294 0 1 C0 0.67 0 0.34 0 0 Z " fill="#919191" transform="translate(182,487)"/>
<path d="M0 0 C-2.307784 4.94525142 -5.8340026 7.5283355 -10 11 C-10.66 11.66 -11.32 12.32 -12 13 C-12 9 -12 9 -9.8828125 6.640625 C-8.97273437 5.85171875 -8.06265625 5.0628125 -7.125 4.25 C-6.22007812 3.45078125 -5.31515625 2.6515625 -4.3828125 1.828125 C-2 0 -2 0 0 0 Z " fill="#505050" transform="translate(142,110)"/>
<path d="M0 0 C0.33 1.32 0.66 2.64 1 4 C0.50628906 4.39832031 0.01257813 4.79664063 -0.49609375 5.20703125 C-1.13675781 5.73683594 -1.77742188 6.26664062 -2.4375 6.8125 C-3.07558594 7.33457031 -3.71367187 7.85664063 -4.37109375 8.39453125 C-6.2548275 10.00834411 -6.2548275 10.00834411 -7 13 C-9.0625 13.6875 -9.0625 13.6875 -11 14 C-11 13.34 -11 12.68 -11 12 C-10.34 12 -9.68 12 -9 12 C-8.34 10.35 -7.68 8.7 -7 7 C-6.34 7 -5.68 7 -5 7 C-5 6.34 -5 5.68 -5 5 C-4.34 5 -3.68 5 -3 5 C-2.690625 4.360625 -2.38125 3.72125 -2.0625 3.0625 C-1 1 -1 1 0 0 Z " fill="#2B2B2B" transform="translate(447,400)"/>
<path d="M0 0 C0.33 0 0.66 0 1 0 C1 2.97 1 5.94 1 9 C1.66 9 2.32 9 3 9 C3.33 13.29 3.66 17.58 4 22 C3.67 20.68 3.34 19.36 3 18 C2.34 18 1.68 18 1 18 C0.10395632 11.95170514 -0.11269443 6.1105424 0 0 Z " fill="#B1B1B1" transform="translate(3,269)"/>
<path d="M0 0 C3.73907104 2.49271403 3.97913078 3.68093791 5 8 C5.15216356 11.00891171 5.12038111 13.99047214 5 17 C2.215707 14.215707 2.05089931 11.113137 1.375 7.375 C1.2409375 6.66859375 1.106875 5.9621875 0.96875 5.234375 C0.63889975 3.49088082 0.31853944 1.74559611 0 0 Z " fill="#5A5A5A" transform="translate(485,184)"/>
<path d="M0 0 C0.70189453 0.00451172 1.40378906 0.00902344 2.12695312 0.01367188 C3.85550538 0.02543073 5.58401365 0.04336546 7.3125 0.0625 C7.3125 0.3925 7.3125 0.7225 7.3125 1.0625 C6.35537109 1.15337891 6.35537109 1.15337891 5.37890625 1.24609375 C4.55261719 1.32988281 3.72632813 1.41367187 2.875 1.5 C1.63943359 1.62181641 1.63943359 1.62181641 0.37890625 1.74609375 C-1.67412025 1.85180815 -1.67412025 1.85180815 -2.6875 3.0625 C-4.54037502 3.13476502 -6.39583878 3.1463122 -8.25 3.125 C-9.26191406 3.11597656 -10.27382813 3.10695312 -11.31640625 3.09765625 C-12.09886719 3.08605469 -12.88132812 3.07445312 -13.6875 3.0625 C-9.06453806 -0.01947463 -5.37263877 -0.0652141 0 0 Z " fill="#646464" transform="translate(404.6875,53.9375)"/>
<path d="M0 0 C2.64 0 5.28 0 8 0 C2.80150349 3.46566434 -1.68750771 5.46188968 -8 5 C-7.67 4.01 -7.34 3.02 -7 2 C-3.535 1.505 -3.535 1.505 0 1 C0 0.67 0 0.34 0 0 Z " fill="#464646" transform="translate(178,14)"/>
<path d="M0 0 C0.66 0.33 1.32 0.66 2 1 C0.78575607 2.49144105 -0.44706045 3.96777403 -1.6875 5.4375 C-2.37199219 6.26121094 -3.05648437 7.08492188 -3.76171875 7.93359375 C-6.24022612 10.22177944 -7.69136813 10.68130516 -11 11 C-7.6189962 6.86378916 -4.33409466 3.18683431 0 0 Z " fill="#A7A7A7" transform="translate(94,57)"/>
<path d="M0 0 C1.440578 2.85508218 2.84334242 5.72317245 4.1875 8.625 C4.55230469 9.40101563 4.91710938 10.17703125 5.29296875 10.9765625 C5.52628906 11.64429688 5.75960937 12.31203125 6 13 C5.67 13.66 5.34 14.32 5 15 C4.01 15 3.02 15 2 15 C0.73694665 9.92523206 -0.27036084 5.27203646 0 0 Z " fill="#505050" transform="translate(49,408)"/>
<path d="M0 0 C1.81242052 -0.02687279 3.62495233 -0.04633715 5.4375 -0.0625 C6.44683594 -0.07410156 7.45617187 -0.08570313 8.49609375 -0.09765625 C11 0 11 0 12 1 C13.67884238 1.3931648 15.36850045 1.74085452 17.0625 2.0625 C17.98160156 2.23910156 18.90070313 2.41570313 19.84765625 2.59765625 C20.55792969 2.73042969 21.26820313 2.86320313 22 3 C22 3.33 22 3.66 22 4 C14.52165033 3.51172287 7.31074682 2.66594452 0 1 C0 0.67 0 0.34 0 0 Z " fill="#5E5E5E" transform="translate(265,5)"/>
<path d="M0 0 C5.61 0 11.22 0 17 0 C17 0.33 17 0.66 17 1 C7.595 1.99 7.595 1.99 -2 3 C-1.34 2.67 -0.68 2.34 0 2 C0 1.34 0 0.68 0 0 Z " fill="#606060" transform="translate(212,6)"/>
<path d="M0 0 C1.2065625 0.0309375 1.2065625 0.0309375 2.4375 0.0625 C2.7675 0.7225 3.0975 1.3825 3.4375 2.0625 C2.81875 2.145 2.2 2.2275 1.5625 2.3125 C-0.71604435 2.85528299 -0.71604435 2.85528299 -1.625 4.9375 C-1.934375 5.63875 -2.24375 6.34 -2.5625 7.0625 C-3.53898017 8.08547922 -4.5364326 9.08926534 -5.5625 10.0625 C-5.25451674 8.58238629 -4.940982 7.10342675 -4.625 5.625 C-4.45097656 4.80128906 -4.27695313 3.97757812 -4.09765625 3.12890625 C-3.31713345 0.11506273 -3.19062011 0.07782 0 0 Z " fill="#4D4D4D" transform="translate(154.5625,440.9375)"/>
<path d="M0 0 C0.33 0 0.66 0 1 0 C1.33 6.6 1.66 13.2 2 20 C1.67 20 1.34 20 1 20 C1 18.02 1 16.04 1 14 C0.34 14 -0.32 14 -1 14 C-1.18451025 4.58997722 -1.18451025 4.58997722 0 0 Z " fill="#555555" transform="translate(5,264)"/>
<path d="M0 0 C0 0.66 0 1.32 0 2 C-3.00313748 3.50156874 -5.79067522 3.09281204 -9.125 3.0625 C-10.40632812 3.05347656 -11.68765625 3.04445313 -13.0078125 3.03515625 C-14.48894531 3.01775391 -14.48894531 3.01775391 -16 3 C-16 2.67 -16 2.34 -16 2 C-10.61972975 0.80911014 -5.54708616 -0.2919519 0 0 Z " fill="#B3B3B3" transform="translate(212,6)"/>
<path d="M0 0 C0.66 0 1.32 0 2 0 C1.37321829 3.66172475 0.35548154 6.8818995 -1.0625 10.3125 C-1.42472656 11.19550781 -1.78695313 12.07851563 -2.16015625 12.98828125 C-2.43730469 13.65214844 -2.71445312 14.31601562 -3 15 C-4.02956962 11.80176245 -3.94507949 9.63422687 -3.1875 6.375 C-3.01605469 5.59898437 -2.84460938 4.82296875 -2.66796875 4.0234375 C-2 2 -2 2 0 0 Z " fill="#8C8C8C" transform="translate(480,343)"/>
<path d="M0 0 C0.33 1.32 0.66 2.64 1 4 C1.66 4 2.32 4 3 4 C4.32229189 6.64458379 4.09677194 8.67761301 4.0625 11.625 C4.05347656 12.62789062 4.04445313 13.63078125 4.03515625 14.6640625 C4.02355469 15.43492187 4.01195312 16.20578125 4 17 C3.67 17 3.34 17 3 17 C2.51171875 14.98177083 2.0234375 12.96354167 1.53515625 10.9453125 C1.05153008 8.9414343 1.05153008 8.9414343 0 7 C-0.04022391 4.6670134 -0.04320247 2.33293334 0 0 Z " fill="#A0A0A0" transform="translate(494,225)"/>
<path d="M0 0 C1.98 0 3.96 0 6 0 C9.22265625 5.2734375 9.22265625 5.2734375 10 7 C9.67 7.66 9.34 8.32 9 9 C7 8 7 8 5.6875 5.5 C4.21939608 2.75762694 4.21939608 2.75762694 1.3125 2.1875 C0.1678125 2.0946875 0.1678125 2.0946875 -1 2 C-0.67 1.34 -0.34 0.68 0 0 Z " fill="#9C9C9C" transform="translate(467,146)"/>
<path d="M0 0 C0.66 0 1.32 0 2 0 C2 2.31 2 4.62 2 7 C1.34 7 0.68 7 0 7 C-0.33 9.97 -0.66 12.94 -1 16 C-1.33 16 -1.66 16 -2 16 C-1.85890014 13.89551062 -1.71195825 11.7914123 -1.5625 9.6875 C-1.48128906 8.51574219 -1.40007812 7.34398437 -1.31640625 6.13671875 C-1 3 -1 3 0 0 Z " fill="#3F3F3F" transform="translate(492,292)"/>
<path d="M0 0 C0.33 0.66 0.66 1.32 1 2 C-1.4 8.4 -1.4 8.4 -4 11 C-4.99 10.67 -5.98 10.34 -7 10 C-3.535 5.05 -3.535 5.05 0 0 Z " fill="#9D9D9D" transform="translate(49,105)"/>
<path d="M0 0 C-0.53109375 0.38671875 -1.0621875 0.7734375 -1.609375 1.171875 C-5.32822227 3.91350693 -8.85329738 6.59107216 -12 10 C-12.66 9.67 -13.32 9.34 -14 9 C-10.73609897 4.43053855 -5.98341901 -1.994473 0 0 Z " fill="#565656" transform="translate(106,53)"/>
<path d="M0 0 C-3.12621626 3.39417765 -5.56541027 5.6062718 -10 7 C-7.6551217 1.76911763 -5.98347266 -0.48514643 0 0 Z " fill="#7E7E7E" transform="translate(403,448)"/>
<path d="M0 0 C3.40208828 3.40208828 3.05433827 7.77178592 3.0625 12.375 C3.041875 13.57125 3.02125 14.7675 3 16 C0.30717525 11.96076287 -0.13300939 9.04463848 -0.0625 4.25 C-0.05347656 3.45078125 -0.04445313 2.6515625 -0.03515625 1.828125 C-0.02355469 1.22484375 -0.01195312 0.6215625 0 0 Z " fill="#959595" transform="translate(9,303)"/>
<path d="M0 0 C0 3 0 3 -1.6796875 4.97265625 C-2.40414063 5.66230469 -3.12859375 6.35195312 -3.875 7.0625 C-4.95394531 8.10083984 -4.95394531 8.10083984 -6.0546875 9.16015625 C-7.01761719 10.07087891 -7.01761719 10.07087891 -8 11 C-8.66 11.66 -9.32 12.32 -10 13 C-10.66 12.34 -11.32 11.68 -12 11 C-8.04 7.37 -4.08 3.74 0 0 Z " fill="#3A3A3A" transform="translate(327,157)"/>
<path d="M0 0 C2.9555377 2.75170751 5.11563315 5.41970299 7 9 C7 9.66 7 10.32 7 11 C7.99 11.33 8.98 11.66 10 12 C6.99419362 11.66602151 5.22138157 11.15988669 2.75 9.375 C0.48704211 6.30384286 0.28879317 3.75431122 0 0 Z " fill="#222222" transform="translate(22,344)"/>
<path d="M0 0 C0.66 0 1.32 0 2 0 C2.22577402 5.4185766 1.46670113 9.77487721 0 15 C-1.38306921 9.99460666 -1.59793909 4.99355965 0 0 Z " fill="#A4A4A4" transform="translate(492,299)"/>
<path d="M0 0 C0 4.07624109 -1.64202171 5.45313878 -4.265625 8.4140625 C-6.61159381 10.5592502 -8.92183219 11.34039261 -12 12 C-8 8 -4 4 0 0 Z " fill="#888888" transform="translate(464,148)"/>
<path d="M0 0 C1.32 0.33 2.64 0.66 4 1 C1.69 3.31 -0.62 5.62 -3 8 C-3.33 6.68 -3.66 5.36 -4 4 C-2.3125 1.6875 -2.3125 1.6875 0 0 Z " fill="#464646" transform="translate(422,428)"/>
<path d="M0 0 C0.33 0 0.66 0 1 0 C1.33 4.29 1.66 8.58 2 13 C1.34 13 0.68 13 0 13 C-0.19551338 11.39679026 -0.38111983 9.79237014 -0.5625 8.1875 C-0.71912109 6.84751953 -0.71912109 6.84751953 -0.87890625 5.48046875 C-1 3 -1 3 0 0 Z " fill="#B3B3B3" transform="translate(495,216)"/>
<path d="M0 0 C0.33 0 0.66 0 1 0 C1.50130606 5.26371362 0.31168629 7.9090934 -3 12 C-3.66 12 -4.32 12 -5 12 C-3.68938409 7.76570244 -2.05643741 3.92592596 0 0 Z " fill="#8F8F8F" transform="translate(33,130)"/>
<path d="M0 0 C0.33 0 0.66 0 1 0 C0.67 3.3 0.34 6.6 0 10 C-0.66 10 -1.32 10 -2 10 C-2 10.66 -2 11.32 -2 12 C-2.66 12 -3.32 12 -4 12 C-3.52494322 10.18641846 -3.04483958 8.37415821 -2.5625 6.5625 C-2.29566406 5.55316406 -2.02882813 4.54382813 -1.75390625 3.50390625 C-1 1 -1 1 0 0 Z " fill="#7F7F7F" transform="translate(457,105)"/>
<path d="M0 0 C1.6254308 0.14095064 3.25034051 0.28792087 4.875 0.4375 C5.77992188 0.51871094 6.68484375 0.59992188 7.6171875 0.68359375 C10 1 10 1 12 2 C12 2.66 12 3.32 12 4 C12.66 4.33 13.32 4.66 14 5 C9.15311808 4.21824485 4.6233633 2.60155722 0 1 C0 0.67 0 0.34 0 0 Z " fill="#9D9D98" transform="translate(167,482)"/>
<path d="M0 0 C0 3.77910478 -0.99703962 4.46106101 -3.5 7.1875 C-4.47453125 8.26064453 -4.47453125 8.26064453 -5.46875 9.35546875 C-5.9740625 9.89816406 -6.479375 10.44085938 -7 11 C-7.33 10.34 -7.66 9.68 -8 9 C-6.07666989 4.93963643 -3.59930552 2.62652025 0 0 Z " fill="#838383" transform="translate(447,404)"/>
<path d="M0 0 C0.33 0.66 0.66 1.32 1 2 C-0.23553276 3.20254524 -1.48902339 4.38666232 -2.75 5.5625 C-3.79414063 6.55443359 -3.79414063 6.55443359 -4.859375 7.56640625 C-7 9 -7 9 -9.265625 8.71484375 C-9.83796875 8.47894531 -10.4103125 8.24304688 -11 8 C-7.46362104 4.95706926 -4.08963819 2.28538605 0 0 Z " fill="#5A5A5A" transform="translate(405,186)"/>
<path d="M0 0 C0.33 0 0.66 0 1 0 C0.74438677 2.3431213 0.40729228 4.67843403 0 7 C-0.99 7.495 -0.99 7.495 -2 8 C-3.13350534 10.01669827 -3.13350534 10.01669827 -4 12 C-4.50265724 6.72209903 -3.25108731 4.13774748 0 0 Z " fill="#989898" transform="translate(141,456)"/>
<path d="M0 0 C1.2989839 0.90626784 2.58893167 1.82549537 3.875 2.75 C4.59429687 3.26046875 5.31359375 3.7709375 6.0546875 4.296875 C8.08570565 6.07503547 8.97855012 7.52701607 10 10 C9.34 10 8.68 10 8 10 C7.67 9.34 7.34 8.68 7 8 C5.34467377 6.98133771 3.67739862 5.98189187 2 5 C1.34 4.34 0.68 3.68 0 3 C0 2.01 0 1.02 0 0 Z " fill="#2C2C2C" transform="translate(58,428)"/>
<path d="M0 0 C3 2 3 2 3.73046875 4.6015625 C3.88128906 5.59929687 4.03210938 6.59703125 4.1875 7.625 C4.34605469 8.62789062 4.50460937 9.63078125 4.66796875 10.6640625 C4.77753906 11.43492188 4.88710938 12.20578125 5 13 C2.31342365 10.31342365 1.34023957 7.53335886 0 4 C0 2.68 0 1.36 0 0 Z " fill="#303030" transform="translate(449,74)"/>
<path d="M0 0 C0.99 0 1.98 0 3 0 C3 2 3 2 0.625 4.5625 C-2 7 -2 7 -4 8 C-4.33 7.01 -4.66 6.02 -5 5 C-4.01 4.67 -3.02 4.34 -2 4 C-0.79117904 1.99983534 -0.79117904 1.99983534 0 0 Z " fill="#494949" transform="translate(129,428)"/>
<path d="M0 0 C0.66 0 1.32 0 2 0 C2.25 2.3125 2.25 2.3125 2 5 C0 6.8125 0 6.8125 -2 8 C-2.125 5.125 -2.125 5.125 -2 2 C-1.34 1.34 -0.68 0.68 0 0 Z " fill="#676767" transform="translate(450,396)"/>
<path d="M0 0 C1.73684533 3.47369066 2.30084112 5.07619937 2.625 8.75 C2.69976562 9.54921875 2.77453125 10.3484375 2.8515625 11.171875 C2.90054687 11.77515625 2.94953125 12.3784375 3 13 C2.67 12.34 2.34 11.68 2 11 C1.34 11 0.68 11 0 11 C0 7.37 0 3.74 0 0 Z " fill="#BDBDBD" transform="translate(490,192)"/>
<path d="M0 0 C0.99 0.33 1.98 0.66 3 1 C2.071875 1.763125 1.14375 2.52625 0.1875 3.3125 C-1.98276101 5.11848552 -4.05568065 6.9476629 -6 9 C-6 6 -6 6 -3.5625 3.375 C-2.716875 2.59125 -1.87125 1.8075 -1 1 C-0.67 0.67 -0.34 0.34 0 0 Z " fill="#404040" transform="translate(110,84)"/>
<path d="M0 0 C-1.65 0.33 -3.3 0.66 -5 1 C-5 1.66 -5 2.32 -5 3 C-6.98 3 -8.96 3 -11 3 C-11 2.34 -11 1.68 -11 1 C-3.57142857 -1.42857143 -3.57142857 -1.42857143 0 0 Z " fill="#828282" transform="translate(298,493)"/>
<path d="M0 0 C-2 3 -2 3 -4.1640625 3.51171875 C-4.97617187 3.56972656 -5.78828125 3.62773437 -6.625 3.6875 C-7.85089844 3.78611328 -7.85089844 3.78611328 -9.1015625 3.88671875 C-9.72804688 3.92410156 -10.35453125 3.96148437 -11 4 C-8.12680193 0.87807733 -4.22911043 -2.11455521 0 0 Z " fill="#3D3D3D" transform="translate(350,476)"/>
<path d="M0 0 C3.60654039 2.40436026 3.85452932 3.94679607 5 8 C2.00675737 6.9024777 1.15389099 6.32317108 -0.25 3.375 C-0.4975 2.59125 -0.745 1.8075 -1 1 C-0.67 0.67 -0.34 0.34 0 0 Z " fill="#717171" transform="translate(53,422)"/>
<path d="M0 0 C0.8971875 0.309375 0.8971875 0.309375 1.8125 0.625 C0.52533353 1.63078589 -0.76738658 2.62946798 -2.0625 3.625 C-3.14144531 4.4603125 -3.14144531 4.4603125 -4.2421875 5.3125 C-6.1875 6.625 -6.1875 6.625 -8.1875 6.625 C-8.1875 5.965 -8.1875 5.305 -8.1875 4.625 C-7.5275 4.625 -6.8675 4.625 -6.1875 4.625 C-5.8575 3.635 -5.5275 2.645 -5.1875 1.625 C-2.1875 -0.375 -2.1875 -0.375 0 0 Z " fill="#626262" transform="translate(50.1875,343.375)"/>
<path d="M0 0 C0.66 0 1.32 0 2 0 C3.59138085 4.17737474 4.21278058 7.53160785 4 12 C1.21366885 7.82050327 0 5.06624674 0 0 Z " fill="#979797" transform="translate(15,329)"/>
<path d="M0 0 C0.33 0 0.66 0 1 0 C0 8.57142857 0 8.57142857 -1 12 C-1.66 12 -2.32 12 -3 12 C-2.67 9.36 -2.34 6.72 -2 4 C-1.34 4 -0.68 4 0 4 C0 2.68 0 1.36 0 0 Z " fill="#A9A9A9" transform="translate(490,314)"/>
<path d="M0 0 C2.84880302 4.27320453 4.28990619 6.78168857 4 12 C3.34 11.67 2.68 11.34 2 11 C2 9.68 2 8.36 2 7 C1.34 7 0.68 7 0 7 C0 4.69 0 2.38 0 0 Z " fill="#878787" transform="translate(477,155)"/>
<path d="M0 0 C0.33 0.99 0.66 1.98 1 3 C-1.31 5.31 -3.62 7.62 -6 10 C-6.66 9.67 -7.32 9.34 -8 9 C-6.85459775 7.68712379 -5.70866567 6.37470979 -4.5625 5.0625 C-3.92441406 4.33160156 -3.28632812 3.60070312 -2.62890625 2.84765625 C-1.77458541 1.87860647 -0.91348825 0.91348825 0 0 Z " fill="#181818" transform="translate(79,74)"/>
<path d="M0 0 C0.66 0.99 1.32 1.98 2 3 C-0.64 4.98 -3.28 6.96 -6 9 C-4.25618453 5.51236907 -2.47193291 2.96631949 0 0 Z " fill="#8E8C8E" transform="translate(427,377)"/>
<path d="M0 0 C1.32 0.33 2.64 0.66 4 1 C-1.67785235 5.88926174 -1.67785235 5.88926174 -5 6 C-6.75 4.5625 -6.75 4.5625 -8 3 C-5.36 3 -2.72 3 0 3 C0 2.01 0 1.02 0 0 Z " fill="#ACACAC" transform="translate(34,354)"/>
<path d="M0 0 C0.99 0.33 1.98 0.66 3 1 C-0.465 3.97 -0.465 3.97 -4 7 C-3.6875 4.625 -3.6875 4.625 -3 2 C-2.01 1.34 -1.02 0.68 0 0 Z " fill="#484848" transform="translate(96,97)"/>
<path d="M0 0 C0.99 0.33 1.98 0.66 3 1 C3.6875 3.8125 3.6875 3.8125 4 7 C2.5625 8.875 2.5625 8.875 1 10 C1.020625 9.0925 1.04125 8.185 1.0625 7.25 C1.0110245 4.57327412 0.7784983 2.53011948 0 0 Z " fill="#929292" transform="translate(367,35)"/>
<path d="M0 0 C8.03571429 0.80357143 8.03571429 0.80357143 12 3 C10.56260487 3.02712066 9.12506137 3.04645067 7.6875 3.0625 C6.48673828 3.07990234 6.48673828 3.07990234 5.26171875 3.09765625 C3 3 3 3 0 2 C0 1.34 0 0.68 0 0 Z " fill="#ADADAD" transform="translate(300,9)"/>
<path d="M0 0 C-0.33 0.99 -0.66 1.98 -1 3 C-4.3 3 -7.6 3 -11 3 C-6.93675441 0.9683772 -4.47525541 0 0 0 Z " fill="#4D4D4D" transform="translate(313,488)"/>
<path d="M0 0 C-2.36797991 2.61724095 -4.89600354 4.32861729 -8 6 C-8.66 6 -9.32 6 -10 6 C-10 5.34 -10 4.68 -10 4 C-6.68165449 0.77646436 -4.65842688 -0.53239164 0 0 Z " fill="#797979" transform="translate(387,459)"/>
<path d="M0 0 C0.98120464 3.05263664 0.98120464 4.94736336 0 8 C-0.66 8 -1.32 8 -2 8 C-2.33 8.66 -2.66 9.32 -3 10 C-3 8.02 -3 6.04 -3 4 C-2.34 4 -1.68 4 -1 4 C-0.67 2.68 -0.34 1.36 0 0 Z " fill="#393939" transform="translate(24,154)"/>
<path d="M0 0 C0.66 0 1.32 0 2 0 C2 0.66 2 1.32 2 2 C2.78375 2.268125 3.5675 2.53625 4.375 2.8125 C7 4 7 4 9 7 C5.40608886 5.66511872 2.24509304 4.03977277 -1 2 C-0.67 1.34 -0.34 0.68 0 0 Z " fill="#494949" transform="translate(433,59)"/>
<path d="M0 0 C-4.36200187 2.44697666 -8.02693484 3.50269348 -13 4 C-12 2 -12 2 -9.78515625 1.11328125 C-8.88667969 0.84902344 -7.98820313 0.58476562 -7.0625 0.3125 C-6.16660156 0.04050781 -5.27070313 -0.23148438 -4.34765625 -0.51171875 C-2 -1 -2 -1 0 0 Z " fill="#404040" transform="translate(162,23)"/>
<path d="M0 0 C0.66 0 1.32 0 2 0 C1.65120368 3.25543229 0.97866739 4.01873107 -1.5625 6.25 C-2.366875 6.8275 -3.17125 7.405 -4 8 C-3.67 6.68 -3.34 5.36 -3 4 C-2.34 4 -1.68 4 -1 4 C-0.67 2.68 -0.34 1.36 0 0 Z " fill="#515151" transform="translate(437,413)"/>
<path d="M0 0 C0 3.90838866 -1.50567876 5.11594107 -4 8 C-4 7.34 -4 6.68 -4 6 C-4.66 5.67 -5.32 5.34 -6 5 C-4.02 3.35 -2.04 1.7 0 0 Z " fill="#454545" transform="translate(64,364)"/>
<path d="M0 0 C1.32 0 2.64 0 4 0 C4 0.66 4 1.32 4 2 C5.98 2.66 7.96 3.32 10 4 C6.19881294 5.26706235 4.6149628 4.57172296 1 3 C0.67 2.01 0.34 1.02 0 0 Z " fill="#393939" transform="translate(354,30)"/>
<path d="M0 0 C0 0.99 0 1.98 0 3 C-2.97 3 -5.94 3 -9 3 C-5.73209435 0.82139623 -3.91954654 0 0 0 Z " fill="#484848" transform="translate(330,483)"/>
<path d="M0 0 C2.97 0.33 5.94 0.66 9 1 C9 1.99 9 2.98 9 4 C6.03 3.01 3.06 2.02 0 1 C0 0.67 0 0.34 0 0 Z " fill="#888887" transform="translate(158,478)"/>
<path d="M0 0 C0.33 0 0.66 0 1 0 C1.36923077 5.41538462 1.36923077 5.41538462 -0.5 8.375 C-0.995 8.91125 -1.49 9.4475 -2 10 C-2.25 3.375 -2.25 3.375 0 0 Z " fill="#616161" transform="translate(53,375)"/>
<path d="M0 0 C1.04449911 3.13349732 0.93423645 3.98968256 0 7 C-0.66 7 -1.32 7 -2 7 C-2.33 7.66 -2.66 8.32 -3 9 C-2.25 2.25 -2.25 2.25 0 0 Z " fill="#595959" transform="translate(491,307)"/>
<path d="M0 0 C0.99 0 1.98 0 3 0 C1.62845496 2.95409701 0.01136276 5.44008376 -2 8 C-2.20086443 4.28400809 -2.1519437 3.22791555 0 0 Z " fill="#5A5A5A" transform="translate(42,116)"/>
<path d="M0 0 C2.6875 0.3125 2.6875 0.3125 5 1 C4.67 1.66 4.34 2.32 4 3 C1.69 3 -0.62 3 -3 3 C-1.8125 1.4375 -1.8125 1.4375 0 0 Z " fill="#949494" transform="translate(282,494)"/>
<path d="M0 0 C0.33 1.32 0.66 2.64 1 4 C0.34 4 -0.32 4 -1 4 C-1.33 5.32 -1.66 6.64 -2 8 C-2.66 8 -3.32 8 -4 8 C-3.50168276 4.31245243 -2.89932357 2.39509338 0 0 Z " fill="#818181" transform="translate(25,150)"/>
<path d="" fill="#FFFFFF" transform="translate(0,0)"/>
<path d="" fill="#FFFFFF" transform="translate(0,0)"/>
<path d="" fill="#FFFFFF" transform="translate(0,0)"/>
<path d="" fill="#FFFFFF" transform="translate(0,0)"/>
<path d="" fill="#FFFFFF" transform="translate(0,0)"/>
<path d="" fill="#FFFFFF" transform="translate(0,0)"/>
<path d="" fill="#FFFFFF" transform="translate(0,0)"/>
<path d="" fill="#FFFFFF" transform="translate(0,0)"/>
<path d="" fill="#FFFFFF" transform="translate(0,0)"/>
<path d="" fill="#FFFFFF" transform="translate(0,0)"/>
<path d="" fill="#FFFFFF" transform="translate(0,0)"/>
<path d="" fill="#FFFFFF" transform="translate(0,0)"/>
<path d="" fill="#FFFFFF" transform="translate(0,0)"/>
<path d="" fill="#FFFFFF" transform="translate(0,0)"/>
<path d="" fill="#FFFFFF" transform="translate(0,0)"/>
<path d="" fill="#FFFFFF" transform="translate(0,0)"/>
<path d="" fill="#FFFFFF" transform="translate(0,0)"/>
<path d="" fill="#FFFFFF" transform="translate(0,0)"/>
<path d="" fill="#FFFFFF" transform="translate(0,0)"/>
<path d="" fill="#FFFFFF" transform="translate(0,0)"/>
<path d="" fill="#FFFFFF" transform="translate(0,0)"/>
<path d="" fill="#FFFFFF" transform="translate(0,0)"/>
<path d="" fill="#FFFFFF" transform="translate(0,0)"/>
<path d="" fill="#FFFFFF" transform="translate(0,0)"/>
<path d="" fill="#FFFFFF" transform="translate(0,0)"/>
<path d="" fill="#FFFFFF" transform="translate(0,0)"/>
<path d="" fill="#FFFFFF" transform="translate(0,0)"/>
<path d="" fill="#FFFFFF" transform="translate(0,0)"/>
<path d="" fill="#FFFFFF" transform="translate(0,0)"/>
<path d="" fill="#FFFFFF" transform="translate(0,0)"/>
<path d="" fill="#FFFFFF" transform="translate(0,0)"/>
<path d="" fill="#FFFFFF" transform="translate(0,0)"/>
<path d="" fill="#FFFFFF" transform="translate(0,0)"/>
<path d="" fill="#FFFFFF" transform="translate(0,0)"/>
<path d="" fill="#FFFFFF" transform="translate(0,0)"/>
<path d="" fill="#FFFFFF" transform="translate(0,0)"/>
<path d="" fill="#FFFFFF" transform="translate(0,0)"/>
<path d="" fill="#FFFFFF" transform="translate(0,0)"/>
<path d="" fill="#FFFFFF" transform="translate(0,0)"/>
<path d="" fill="#FFFFFF" transform="translate(0,0)"/>
<path d="" fill="#FFFFFF" transform="translate(0,0)"/>
<path d="" fill="#FFFFFF" transform="translate(0,0)"/>
<path d="" fill="#FFFFFF" transform="translate(0,0)"/>
<path d="" fill="#FFFFFF" transform="translate(0,0)"/>
<path d="" fill="#FFFFFF" transform="translate(0,0)"/>
<path d="" fill="#FFFFFF" transform="translate(0,0)"/>
<path d="" fill="#FFFFFF" transform="translate(0,0)"/>
<path d="" fill="#FFFFFF" transform="translate(0,0)"/>
<path d="" fill="#FFFFFF" transform="translate(0,0)"/>
<path d="" fill="#FFFFFF" transform="translate(0,0)"/>
<path d="" fill="#FFFFFF" transform="translate(0,0)"/>
<path d="" fill="#FFFFFF" transform="translate(0,0)"/>
<path d="" fill="#FFFFFF" transform="translate(0,0)"/>
<path d="" fill="#FFFFFF" transform="translate(0,0)"/>
<path d="" fill="#FFFFFF" transform="translate(0,0)"/>
<path d="" fill="#FFFFFF" transform="translate(0,0)"/>
<path d="" fill="#FFFFFF" transform="translate(0,0)"/>
<path d="" fill="#FFFFFF" transform="translate(0,0)"/>
</svg>
