<svg width="96" height="96" viewBox="0 0 96 96" fill="none" xmlns="http://www.w3.org/2000/svg">
  <rect x="28" y="14" width="8" height="8" fill="#C4745B"/>
  <rect x="36" y="14" width="8" height="8" fill="#C4745B"/>
  <rect x="44" y="14" width="8" height="8" fill="#D4A853"/>
  <rect x="52" y="14" width="8" height="8" fill="#D4A853"/>
  <rect x="20" y="22" width="8" height="8" fill="#C4745B"/>
  <rect x="28" y="22" width="8" height="8" fill="#E9DCC6"/>
  <rect x="36" y="22" width="8" height="8" fill="#E9DCC6"/>
  <rect x="44" y="22" width="8" height="8" fill="#E9DCC6"/>
  <rect x="52" y="22" width="8" height="8" fill="#E9DCC6"/>
  <rect x="60" y="22" width="8" height="8" fill="#D4A853"/>
  <rect x="16" y="30" width="8" height="8" fill="#C4745B"/>
  <rect x="24" y="30" width="8" height="8" fill="#E9DCC6"/>
  <rect x="32" y="30" width="8" height="8" fill="#89B4C8"/>
  <rect x="40" y="30" width="8" height="8" fill="#89B4C8"/>
  <rect x="48" y="30" width="8" height="8" fill="#89B4C8"/>
  <rect x="56" y="30" width="8" height="8" fill="#E9DCC6"/>
  <rect x="64" y="30" width="8" height="8" fill="#D4A853"/>
  <rect x="16" y="38" width="8" height="8" fill="#C4745B"/>
  <rect x="24" y="38" width="8" height="8" fill="#E9DCC6"/>
  <rect x="32" y="38" width="8" height="8" fill="#89B4C8"/>
  <rect x="40" y="38" width="8" height="8" fill="#F5EDE0"/>
  <rect x="48" y="38" width="8" height="8" fill="#89B4C8"/>
  <rect x="56" y="38" width="8" height="8" fill="#E9DCC6"/>
  <rect x="64" y="38" width="8" height="8" fill="#D4A853"/>
  <rect x="16" y="46" width="8" height="8" fill="#C4745B"/>
  <rect x="24" y="46" width="8" height="8" fill="#E9DCC6"/>
  <rect x="32" y="46" width="8" height="8" fill="#89B4C8"/>
  <rect x="40" y="46" width="8" height="8" fill="#89B4C8"/>
  <rect x="48" y="46" width="8" height="8" fill="#89B4C8"/>
  <rect x="56" y="46" width="8" height="8" fill="#E9DCC6"/>
  <rect x="64" y="46" width="8" height="8" fill="#D4A853"/>
  <rect x="20" y="54" width="8" height="8" fill="#C4745B"/>
  <rect x="28" y="54" width="8" height="8" fill="#E9DCC6"/>
  <rect x="36" y="54" width="8" height="8" fill="#E9DCC6"/>
  <rect x="44" y="54" width="8" height="8" fill="#E9DCC6"/>
  <rect x="52" y="54" width="8" height="8" fill="#E9DCC6"/>
  <rect x="60" y="54" width="8" height="8" fill="#D4A853"/>
  <rect x="28" y="62" width="8" height="8" fill="#C4745B"/>
  <rect x="36" y="62" width="8" height="8" fill="#C4745B"/>
  <rect x="44" y="62" width="8" height="8" fill="#D4A853"/>
  <rect x="52" y="62" width="8" height="8" fill="#D4A853"/>
  <rect x="34" y="70" width="8" height="8" fill="#7B9E87"/>
  <rect x="46" y="70" width="8" height="8" fill="#7B9E87"/>
</svg>
