<svg width="64" height="64" viewBox="0 0 64 64" fill="none" xmlns="http://www.w3.org/2000/svg">
  <rect width="64" height="64" rx="12" fill="#F7E8B4"/>
  <rect x="18" y="14" width="8" height="8" fill="#D4A853"/>
  <rect x="26" y="14" width="8" height="8" fill="#D4A853"/>
  <rect x="34" y="14" width="8" height="8" fill="#D4A853"/>
  <rect x="42" y="14" width="4" height="8" fill="#D4A853"/>
  <rect x="14" y="22" width="8" height="8" fill="#D4A853"/>
  <rect x="22" y="22" width="8" height="8" fill="#F0C563"/>
  <rect x="30" y="22" width="8" height="8" fill="#F0C563"/>
  <rect x="38" y="22" width="8" height="8" fill="#F0C563"/>
  <rect x="46" y="22" width="4" height="8" fill="#D4A853"/>
  <rect x="14" y="30" width="8" height="8" fill="#D4A853"/>
  <rect x="22" y="30" width="8" height="8" fill="#F0C563"/>
  <rect x="30" y="30" width="4" height="12" fill="#D4A853"/>
  <rect x="34" y="30" width="8" height="8" fill="#F0C563"/>
  <rect x="42" y="30" width="8" height="8" fill="#D4A853"/>
  <rect x="18" y="38" width="8" height="8" fill="#D4A853"/>
  <rect x="26" y="38" width="8" height="8" fill="#F0C563"/>
  <rect x="34" y="38" width="8" height="8" fill="#F0C563"/>
  <rect x="42" y="38" width="4" height="8" fill="#D4A853"/>
  <rect x="22" y="46" width="8" height="4" fill="#D4A853"/>
  <rect x="30" y="46" width="8" height="4" fill="#D4A853"/>
 </svg>
