<svg width="96" height="96" viewBox="0 0 96 96" fill="none" xmlns="http://www.w3.org/2000/svg">
  <rect x="28" y="12" width="8" height="8" fill="#C4745B"/>
  <rect x="60" y="12" width="8" height="8" fill="#C4745B"/>
  <rect x="36" y="20" width="8" height="8" fill="#89B4C8"/>
  <rect x="52" y="20" width="8" height="8" fill="#89B4C8"/>
  <rect x="28" y="28" width="8" height="8" fill="#D4A853"/>
  <rect x="60" y="28" width="8" height="8" fill="#D4A853"/>
  <rect x="36" y="36" width="8" height="8" fill="#7B9E87"/>
  <rect x="52" y="36" width="8" height="8" fill="#7B9E87"/>
  <rect x="44" y="44" width="8" height="8" fill="#E9DCC6"/>
  <rect x="36" y="52" width="8" height="8" fill="#7B9E87"/>
  <rect x="52" y="52" width="8" height="8" fill="#7B9E87"/>
  <rect x="28" y="60" width="8" height="8" fill="#D4A853"/>
  <rect x="60" y="60" width="8" height="8" fill="#D4A853"/>
  <rect x="36" y="68" width="8" height="8" fill="#89B4C8"/>
  <rect x="52" y="68" width="8" height="8" fill="#89B4C8"/>
  <rect x="28" y="76" width="8" height="8" fill="#C4745B"/>
  <rect x="60" y="76" width="8" height="8" fill="#C4745B"/>
  <rect x="36" y="24" width="24" height="4" fill="#E9DCC6"/>
  <rect x="28" y="40" width="40" height="4" fill="#E9DCC6"/>
  <rect x="28" y="56" width="40" height="4" fill="#E9DCC6"/>
  <rect x="36" y="72" width="24" height="4" fill="#E9DCC6"/>
</svg>