<svg width="96" height="96" viewBox="0 0 96 96" fill="none" xmlns="http://www.w3.org/2000/svg">
  <rect x="14" y="14" width="18" height="18" fill="#89B4C8"/>
  <rect x="64" y="14" width="18" height="18" fill="#89B4C8"/>
  <rect x="14" y="64" width="18" height="18" fill="#89B4C8"/>
  <rect x="64" y="64" width="18" height="18" fill="#89B4C8"/>
  <rect x="39" y="39" width="18" height="18" fill="#D4A853"/>
  <rect x="32" y="22" width="8" height="8" fill="#7B9E87"/>
  <rect x="56" y="22" width="8" height="8" fill="#7B9E87"/>
  <rect x="22" y="32" width="8" height="8" fill="#7B9E87"/>
  <rect x="64" y="32" width="8" height="8" fill="#7B9E87"/>
  <rect x="22" y="56" width="8" height="8" fill="#7B9E87"/>
  <rect x="64" y="56" width="8" height="8" fill="#7B9E87"/>
  <rect x="32" y="64" width="8" height="8" fill="#7B9E87"/>
  <rect x="56" y="64" width="8" height="8" fill="#7B9E87"/>
  <rect x="32" y="32" width="8" height="8" fill="#7B9E87"/>
  <rect x="56" y="32" width="8" height="8" fill="#7B9E87"/>
  <rect x="32" y="56" width="8" height="8" fill="#7B9E87"/>
  <rect x="56" y="56" width="8" height="8" fill="#7B9E87"/>
</svg>
